G75*
%MOIN*%
%OFA0B0*%
%FSLAX25Y25*%
%IPPOS*%
%LPD*%
%AMOC8*
5,1,8,0,0,1.08239X$1,22.5*
%
%ADD10C,0.00000*%
%ADD11C,0.06000*%
%ADD12R,0.04724X0.01181*%
%ADD13R,0.01181X0.04724*%
%ADD14OC8,0.06000*%
%ADD15R,0.06299X0.07098*%
%ADD16R,0.07098X0.06299*%
%ADD17R,0.08000X0.05000*%
%ADD18C,0.15000*%
%ADD19C,0.12598*%
%ADD20C,0.04756*%
%ADD21R,0.08800X0.04800*%
%ADD22R,0.08661X0.14173*%
%ADD23R,0.07087X0.06299*%
%ADD24C,0.05200*%
%ADD25R,0.06299X0.10630*%
%ADD26C,0.00500*%
%ADD27C,0.02400*%
%ADD28C,0.01400*%
D10*
X0009000Y0001100D02*
X0009000Y0197950D01*
X0205850Y0197950D01*
X0205850Y0001100D01*
X0009000Y0001100D01*
D11*
X0014200Y0007200D02*
X0020200Y0007200D01*
X0020200Y0025000D02*
X0014200Y0025000D01*
X0039800Y0025000D02*
X0045800Y0025000D01*
X0045800Y0007200D02*
X0039800Y0007200D01*
X0039000Y0126100D02*
X0045000Y0126100D01*
X0045000Y0136100D02*
X0039000Y0136100D01*
X0032000Y0136100D02*
X0026000Y0136100D01*
X0019000Y0136100D02*
X0013000Y0136100D01*
X0013000Y0126100D02*
X0019000Y0126100D01*
X0026000Y0126100D02*
X0032000Y0126100D01*
X0032000Y0146100D02*
X0026000Y0146100D01*
X0019000Y0146100D02*
X0013000Y0146100D01*
X0013000Y0156100D02*
X0019000Y0156100D01*
X0026000Y0156100D02*
X0032000Y0156100D01*
X0039000Y0156100D02*
X0045000Y0156100D01*
X0045000Y0146100D02*
X0039000Y0146100D01*
X0036000Y0174100D02*
X0036000Y0180100D01*
X0036000Y0187100D02*
X0036000Y0193100D01*
X0026000Y0193100D02*
X0026000Y0187100D01*
X0026000Y0180100D02*
X0026000Y0174100D01*
X0016000Y0174100D02*
X0016000Y0180100D01*
X0016000Y0187100D02*
X0016000Y0193100D01*
X0145000Y0172100D02*
X0145000Y0166100D01*
X0155000Y0166100D02*
X0155000Y0172100D01*
X0177000Y0012100D02*
X0177000Y0006100D01*
X0187000Y0006100D02*
X0187000Y0012100D01*
X0197000Y0012100D02*
X0197000Y0006100D01*
D12*
X0157732Y0083273D03*
X0157732Y0085242D03*
X0157732Y0087210D03*
X0157732Y0089179D03*
X0157732Y0091147D03*
X0157732Y0093116D03*
X0157732Y0095084D03*
X0157732Y0097053D03*
X0157732Y0099021D03*
X0157732Y0100990D03*
X0157732Y0102958D03*
X0157732Y0104927D03*
X0124268Y0104927D03*
X0124268Y0102958D03*
X0124268Y0100990D03*
X0124268Y0099021D03*
X0124268Y0097053D03*
X0124268Y0095084D03*
X0124268Y0093116D03*
X0124268Y0091147D03*
X0124268Y0089179D03*
X0124268Y0087210D03*
X0124268Y0085242D03*
X0124268Y0083273D03*
D13*
X0130173Y0077368D03*
X0132142Y0077368D03*
X0134110Y0077368D03*
X0136079Y0077368D03*
X0138047Y0077368D03*
X0140016Y0077368D03*
X0141984Y0077368D03*
X0143953Y0077368D03*
X0145921Y0077368D03*
X0147890Y0077368D03*
X0149858Y0077368D03*
X0151827Y0077368D03*
X0151827Y0110832D03*
X0149858Y0110832D03*
X0147890Y0110832D03*
X0145921Y0110832D03*
X0143953Y0110832D03*
X0141984Y0110832D03*
X0140016Y0110832D03*
X0138047Y0110832D03*
X0136079Y0110832D03*
X0134110Y0110832D03*
X0132142Y0110832D03*
X0130173Y0110832D03*
D14*
X0188000Y0109100D03*
X0188000Y0099100D03*
X0188000Y0089100D03*
X0188000Y0079100D03*
X0188000Y0069100D03*
X0198000Y0069100D03*
X0198000Y0079100D03*
X0198000Y0089100D03*
X0198000Y0099100D03*
X0198000Y0109100D03*
X0198000Y0119100D03*
X0198000Y0129100D03*
X0198000Y0139100D03*
X0188000Y0139100D03*
X0188000Y0129100D03*
X0188000Y0119100D03*
X0157000Y0182100D03*
X0157000Y0192100D03*
X0147000Y0192100D03*
X0137000Y0192100D03*
X0137000Y0182100D03*
X0147000Y0182100D03*
X0127000Y0182100D03*
X0127000Y0192100D03*
X0117000Y0192100D03*
X0107000Y0192100D03*
X0107000Y0182100D03*
X0117000Y0182100D03*
X0097000Y0182100D03*
X0097000Y0192100D03*
X0087000Y0192100D03*
X0087000Y0182100D03*
X0079000Y0024100D03*
X0069000Y0024100D03*
X0069000Y0014100D03*
X0079000Y0014100D03*
X0059000Y0014100D03*
X0059000Y0024100D03*
D15*
X0036598Y0037100D03*
X0025402Y0037100D03*
X0059402Y0087100D03*
X0070598Y0087100D03*
X0081402Y0087100D03*
X0092598Y0087100D03*
X0091598Y0101100D03*
X0080402Y0101100D03*
X0070598Y0101100D03*
X0059402Y0101100D03*
X0059402Y0114100D03*
X0070598Y0114100D03*
X0080402Y0114100D03*
X0091598Y0114100D03*
X0146402Y0156100D03*
X0157598Y0156100D03*
D16*
X0044000Y0058698D03*
X0044000Y0047502D03*
X0019000Y0047502D03*
X0019000Y0058698D03*
D17*
X0175000Y0034600D03*
X0175000Y0021600D03*
D18*
X0193646Y0155352D03*
X0193646Y0186848D03*
X0020354Y0109848D03*
X0020354Y0078352D03*
D19*
X0038858Y0078352D03*
X0038858Y0109848D03*
X0175142Y0155352D03*
X0175142Y0186848D03*
D20*
X0170417Y0177399D02*
X0165661Y0177399D01*
X0165661Y0171100D02*
X0170417Y0171100D01*
X0175535Y0167950D02*
X0180291Y0167950D01*
X0180291Y0174250D02*
X0175535Y0174250D01*
X0170417Y0164801D02*
X0165661Y0164801D01*
X0048339Y0100399D02*
X0043583Y0100399D01*
X0038465Y0097250D02*
X0033709Y0097250D01*
X0033709Y0090950D02*
X0038465Y0090950D01*
X0043583Y0087801D02*
X0048339Y0087801D01*
X0048339Y0094100D02*
X0043583Y0094100D01*
D21*
X0131200Y0138000D03*
X0131200Y0147100D03*
X0131200Y0156200D03*
D22*
X0106799Y0147100D03*
D23*
X0147000Y0146612D03*
X0147000Y0135588D03*
X0056000Y0072612D03*
X0056000Y0061588D03*
D24*
X0109000Y0085600D03*
X0109000Y0104600D03*
X0085500Y0164100D03*
X0066500Y0164100D03*
D25*
X0105488Y0123100D03*
X0116512Y0123100D03*
X0115512Y0065100D03*
X0104488Y0065100D03*
D26*
X0104000Y0064850D01*
X0100875Y0061725D01*
X0056500Y0061725D01*
X0056000Y0061588D01*
X0055875Y0061100D01*
X0054000Y0059225D01*
X0053375Y0059225D01*
X0049625Y0055475D01*
X0049625Y0047975D01*
X0044000Y0047975D01*
X0044000Y0047502D01*
X0044000Y0047350D01*
X0032125Y0047350D01*
X0032125Y0024850D01*
X0017750Y0024850D01*
X0017200Y0025000D01*
X0010250Y0028600D02*
X0010250Y0007350D01*
X0017125Y0007350D01*
X0017200Y0007200D01*
X0017750Y0007350D01*
X0042750Y0007350D01*
X0042800Y0007200D01*
X0057750Y0019850D02*
X0065250Y0019850D01*
X0069000Y0023600D01*
X0069000Y0024100D01*
X0074625Y0019850D02*
X0082750Y0019850D01*
X0107750Y0044850D01*
X0180250Y0044850D01*
X0185875Y0042350D02*
X0107125Y0042350D01*
X0079000Y0014225D01*
X0079000Y0014100D01*
X0074625Y0019850D02*
X0069000Y0014225D01*
X0069000Y0014100D01*
X0062750Y0009850D02*
X0059000Y0013600D01*
X0059000Y0014100D01*
X0059000Y0014225D01*
X0048375Y0024850D01*
X0043375Y0024850D01*
X0042800Y0025000D01*
X0042750Y0024850D01*
X0032125Y0024850D01*
X0037125Y0036725D02*
X0044625Y0029225D01*
X0048375Y0029225D01*
X0057750Y0019850D01*
X0059000Y0024100D02*
X0059000Y0024225D01*
X0082125Y0047350D01*
X0190875Y0047350D01*
X0202125Y0058600D01*
X0199000Y0064225D02*
X0203375Y0068600D01*
X0203375Y0138600D01*
X0198375Y0138600D01*
X0198000Y0139100D01*
X0190875Y0132975D02*
X0177125Y0132975D01*
X0173375Y0129225D01*
X0135875Y0129225D01*
X0133375Y0126725D01*
X0135875Y0124225D02*
X0127125Y0124225D01*
X0124625Y0123600D02*
X0124625Y0132975D01*
X0115250Y0132975D01*
X0105875Y0123600D01*
X0105488Y0123100D01*
X0105250Y0123600D01*
X0095875Y0132975D01*
X0059000Y0132975D01*
X0052125Y0126100D01*
X0042000Y0126100D01*
X0029000Y0126100D01*
X0016000Y0126100D01*
X0016000Y0136100D02*
X0016500Y0136100D01*
X0020250Y0139850D01*
X0052125Y0139850D01*
X0054625Y0137350D01*
X0095875Y0137350D01*
X0095875Y0137975D01*
X0095875Y0137350D02*
X0111500Y0137350D01*
X0114625Y0140475D01*
X0124000Y0135475D02*
X0053375Y0135475D01*
X0052750Y0136100D01*
X0042000Y0136100D01*
X0035250Y0129850D02*
X0052750Y0129850D01*
X0046500Y0121100D02*
X0075250Y0121100D01*
X0084625Y0130475D01*
X0081500Y0130475D02*
X0073375Y0122350D01*
X0040875Y0122350D01*
X0031500Y0112975D01*
X0031500Y0097350D01*
X0038375Y0097350D01*
X0038465Y0097250D01*
X0043583Y0100399D02*
X0044000Y0100475D01*
X0044000Y0104850D01*
X0046500Y0107350D01*
X0046500Y0121100D01*
X0035250Y0129850D02*
X0029000Y0136100D01*
X0029000Y0146100D02*
X0032750Y0149850D01*
X0087750Y0149850D01*
X0092750Y0144850D01*
X0098375Y0144850D01*
X0096500Y0143600D02*
X0085875Y0143600D01*
X0089000Y0151725D02*
X0093375Y0156100D01*
X0130875Y0156100D01*
X0131200Y0156200D01*
X0131500Y0156100D01*
X0132750Y0154850D01*
X0140250Y0154850D01*
X0142125Y0152350D02*
X0136500Y0152350D01*
X0131500Y0147350D01*
X0131200Y0147100D01*
X0125250Y0143600D02*
X0138375Y0143600D01*
X0139625Y0142350D01*
X0150875Y0142350D01*
X0152125Y0143600D01*
X0160250Y0143600D01*
X0162750Y0141100D01*
X0170250Y0141100D02*
X0177125Y0147975D01*
X0177750Y0147975D01*
X0184000Y0154225D01*
X0184000Y0196100D01*
X0150875Y0196100D01*
X0147125Y0192350D01*
X0147000Y0192100D01*
X0137000Y0182100D02*
X0136500Y0182350D01*
X0132125Y0182350D01*
X0128375Y0186100D01*
X0124000Y0186100D01*
X0125250Y0187975D02*
X0121500Y0191725D01*
X0117125Y0191725D01*
X0117000Y0192100D01*
X0118375Y0186100D02*
X0122750Y0181725D01*
X0122750Y0177975D01*
X0158375Y0177975D01*
X0167750Y0187350D01*
X0167750Y0194225D01*
X0180875Y0194225D01*
X0181500Y0193600D01*
X0170417Y0177399D02*
X0170250Y0177350D01*
X0169625Y0176725D01*
X0100250Y0176725D01*
X0036500Y0176725D01*
X0036000Y0177100D01*
X0035875Y0177350D01*
X0035875Y0189850D01*
X0036000Y0190100D01*
X0026000Y0177100D02*
X0026500Y0176725D01*
X0033375Y0169850D01*
X0125875Y0169850D01*
X0132125Y0163600D01*
X0137125Y0161100D02*
X0087750Y0161100D01*
X0082750Y0156100D01*
X0042000Y0156100D01*
X0029000Y0156100D01*
X0016000Y0156100D01*
X0015875Y0156100D01*
X0015875Y0176725D01*
X0016000Y0177100D01*
X0015875Y0177350D01*
X0015875Y0189850D01*
X0016000Y0190100D01*
X0050250Y0179225D02*
X0052125Y0181100D01*
X0079625Y0181100D01*
X0084625Y0186100D01*
X0118375Y0186100D01*
X0125250Y0187975D02*
X0129625Y0187975D01*
X0127000Y0192100D02*
X0126500Y0192350D01*
X0122750Y0196100D01*
X0085250Y0196100D01*
X0072750Y0183600D01*
X0080875Y0179225D02*
X0082125Y0177975D01*
X0098375Y0177975D01*
X0102125Y0181725D01*
X0106500Y0181725D01*
X0107000Y0182100D01*
X0100250Y0165475D02*
X0099000Y0164225D01*
X0085875Y0164225D01*
X0085500Y0164100D01*
X0092750Y0158600D02*
X0112125Y0158600D01*
X0096500Y0143600D02*
X0100250Y0139850D01*
X0086500Y0152350D02*
X0092750Y0158600D01*
X0086500Y0152350D02*
X0022750Y0152350D01*
X0016500Y0146100D01*
X0016000Y0146100D01*
X0042000Y0146100D02*
X0059625Y0146100D01*
X0062125Y0143600D01*
X0066500Y0164100D02*
X0066500Y0164225D01*
X0053375Y0164225D01*
X0052125Y0165475D01*
X0065250Y0119850D02*
X0081500Y0119850D01*
X0080402Y0114100D02*
X0080250Y0113600D01*
X0073375Y0106725D01*
X0070875Y0107975D02*
X0049000Y0107975D01*
X0059402Y0114100D02*
X0059625Y0114225D01*
X0065250Y0119850D01*
X0070598Y0114100D02*
X0070875Y0113600D01*
X0070875Y0107975D01*
X0070875Y0101100D01*
X0070598Y0101100D01*
X0070875Y0101100D02*
X0070875Y0094225D01*
X0092125Y0094225D01*
X0092125Y0087350D01*
X0092598Y0087100D01*
X0097750Y0081725D02*
X0110250Y0081725D01*
X0115250Y0086725D01*
X0124000Y0086725D01*
X0124268Y0087210D01*
X0124268Y0085242D02*
X0124000Y0084850D01*
X0115250Y0084850D01*
X0109000Y0078600D01*
X0079625Y0078600D01*
X0076500Y0081725D01*
X0074000Y0083600D02*
X0074000Y0072975D01*
X0064625Y0072975D01*
X0057750Y0066100D01*
X0052750Y0066100D01*
X0048375Y0061725D01*
X0048375Y0051725D01*
X0022750Y0051725D01*
X0019000Y0047975D01*
X0019000Y0047502D01*
X0019000Y0037350D01*
X0010250Y0028600D01*
X0019000Y0037350D02*
X0025250Y0037350D01*
X0025402Y0037100D01*
X0036598Y0037100D02*
X0037125Y0036725D01*
X0054000Y0056725D02*
X0058375Y0052350D01*
X0187125Y0052350D01*
X0184625Y0053600D02*
X0192750Y0061725D01*
X0199000Y0064225D02*
X0142125Y0064225D01*
X0142125Y0077350D01*
X0141984Y0077368D01*
X0140250Y0077975D02*
X0140016Y0077368D01*
X0140250Y0077975D02*
X0140250Y0097975D01*
X0140875Y0100475D02*
X0130250Y0100475D01*
X0126500Y0102975D02*
X0129625Y0106100D01*
X0134000Y0101725D01*
X0149625Y0101725D01*
X0150875Y0100475D01*
X0150875Y0097350D02*
X0157125Y0097350D01*
X0157732Y0097053D01*
X0157732Y0099021D02*
X0157750Y0099225D01*
X0162125Y0099225D01*
X0160250Y0101100D02*
X0164625Y0105475D01*
X0177750Y0092350D01*
X0181500Y0089850D02*
X0187125Y0084225D01*
X0198375Y0084225D01*
X0202125Y0080475D01*
X0202125Y0069225D01*
X0198375Y0069225D01*
X0198000Y0069100D01*
X0198000Y0079100D02*
X0197750Y0079225D01*
X0194000Y0082975D01*
X0186500Y0082975D01*
X0184625Y0084850D01*
X0157750Y0084850D01*
X0157732Y0085242D01*
X0157125Y0084850D01*
X0147125Y0084850D01*
X0146500Y0082350D02*
X0144625Y0082350D01*
X0142750Y0084225D01*
X0146500Y0082350D02*
X0154625Y0082350D01*
X0156500Y0080475D01*
X0179625Y0080475D01*
X0177750Y0079225D02*
X0179000Y0077975D01*
X0182125Y0077975D01*
X0177750Y0079225D02*
X0155875Y0079225D01*
X0154000Y0081100D01*
X0148375Y0081100D01*
X0148375Y0077975D01*
X0147890Y0077368D01*
X0146500Y0077975D02*
X0145921Y0077368D01*
X0146500Y0077975D02*
X0146500Y0082350D01*
X0144000Y0077350D02*
X0143953Y0077368D01*
X0144000Y0077350D02*
X0144000Y0072975D01*
X0145250Y0072975D01*
X0145875Y0069225D02*
X0155875Y0069225D01*
X0155875Y0073600D01*
X0153375Y0076100D01*
X0154625Y0077350D01*
X0153375Y0076100D02*
X0152125Y0077350D01*
X0151827Y0077368D01*
X0150250Y0077350D02*
X0149858Y0077368D01*
X0150250Y0077350D02*
X0150250Y0072975D01*
X0153375Y0072975D01*
X0152750Y0067975D02*
X0171500Y0067975D01*
X0174000Y0069225D02*
X0187750Y0069225D01*
X0188000Y0069100D01*
X0180250Y0071725D02*
X0187125Y0078600D01*
X0187750Y0078600D01*
X0188000Y0079100D01*
X0187750Y0079225D01*
X0184000Y0082975D01*
X0157750Y0082975D01*
X0157732Y0083273D01*
X0157732Y0087210D02*
X0157750Y0087350D01*
X0162125Y0087350D01*
X0160875Y0089225D02*
X0161500Y0089850D01*
X0181500Y0089850D01*
X0167125Y0099850D02*
X0160875Y0093600D01*
X0157750Y0093600D01*
X0157732Y0093116D01*
X0157750Y0091725D02*
X0157732Y0091147D01*
X0157750Y0091725D02*
X0162125Y0091725D01*
X0164625Y0094225D01*
X0160875Y0089225D02*
X0157750Y0089225D01*
X0157732Y0089179D01*
X0157125Y0094850D02*
X0157732Y0095084D01*
X0157125Y0094850D02*
X0146500Y0094850D01*
X0140875Y0100475D01*
X0138375Y0104225D02*
X0135875Y0106725D01*
X0138375Y0106725D02*
X0139000Y0106725D01*
X0138375Y0106725D02*
X0138375Y0110475D01*
X0138047Y0110832D01*
X0136500Y0111100D02*
X0136079Y0110832D01*
X0136500Y0111100D02*
X0136500Y0121725D01*
X0177125Y0121725D01*
X0178375Y0122975D01*
X0176500Y0124225D02*
X0177750Y0125475D01*
X0185875Y0125475D01*
X0188375Y0122975D01*
X0194000Y0122975D01*
X0197750Y0119225D01*
X0198000Y0119100D01*
X0202125Y0117350D02*
X0199625Y0114850D01*
X0186500Y0114850D01*
X0185875Y0115475D01*
X0148375Y0115475D01*
X0148375Y0111100D01*
X0147890Y0110832D01*
X0146500Y0111100D02*
X0145921Y0110832D01*
X0146500Y0111100D02*
X0146500Y0118600D01*
X0187750Y0118600D01*
X0188000Y0119100D01*
X0182750Y0121725D02*
X0181500Y0120475D01*
X0142125Y0120475D01*
X0142125Y0111100D01*
X0141984Y0110832D01*
X0140016Y0110832D02*
X0139625Y0111100D01*
X0139625Y0119225D01*
X0134000Y0121725D02*
X0133375Y0121725D01*
X0134000Y0121725D02*
X0134000Y0111100D01*
X0134110Y0110832D01*
X0132142Y0110832D02*
X0132125Y0111100D01*
X0132125Y0119850D01*
X0128375Y0119850D01*
X0124625Y0123600D01*
X0116512Y0123100D02*
X0116500Y0122975D01*
X0112750Y0119225D01*
X0111500Y0119225D01*
X0109000Y0104600D02*
X0109000Y0104225D01*
X0115875Y0097350D01*
X0124000Y0097350D01*
X0124268Y0097053D01*
X0124268Y0095084D02*
X0124000Y0094850D01*
X0117750Y0094850D01*
X0109000Y0086100D01*
X0109000Y0085600D01*
X0100250Y0076725D02*
X0094000Y0070475D01*
X0100250Y0076725D02*
X0127750Y0076725D01*
X0127750Y0091725D01*
X0126500Y0092975D01*
X0124625Y0092975D01*
X0124268Y0093116D01*
X0129625Y0094850D02*
X0129625Y0077975D01*
X0130173Y0077368D01*
X0132125Y0077350D02*
X0132125Y0074225D01*
X0117125Y0074225D01*
X0115875Y0075475D01*
X0114625Y0075475D01*
X0110250Y0071100D01*
X0115250Y0072975D02*
X0134000Y0072975D01*
X0134000Y0077350D01*
X0134110Y0077368D01*
X0135875Y0077975D02*
X0136079Y0077368D01*
X0135875Y0077975D02*
X0135875Y0092350D01*
X0135250Y0092350D01*
X0137750Y0096100D02*
X0137750Y0077975D01*
X0138047Y0077368D01*
X0132142Y0077368D02*
X0132125Y0077350D01*
X0124268Y0083273D02*
X0124000Y0082975D01*
X0122750Y0081725D01*
X0120250Y0081725D01*
X0120875Y0070475D02*
X0115875Y0065475D01*
X0115512Y0065100D01*
X0089625Y0081100D02*
X0084000Y0086725D01*
X0081500Y0086725D01*
X0081402Y0087100D01*
X0074000Y0083600D02*
X0070875Y0086725D01*
X0070598Y0087100D01*
X0070875Y0087350D01*
X0070875Y0094225D01*
X0068375Y0092350D02*
X0059625Y0101100D01*
X0059402Y0101100D01*
X0063375Y0093600D02*
X0044000Y0093600D01*
X0043583Y0094100D01*
X0056500Y0086725D02*
X0056500Y0081725D01*
X0059000Y0077975D02*
X0059000Y0072975D01*
X0056500Y0072975D01*
X0056000Y0072612D01*
X0067125Y0082350D02*
X0063375Y0086100D01*
X0063375Y0093600D01*
X0059402Y0087100D02*
X0059000Y0086725D01*
X0056500Y0086725D01*
X0067125Y0082350D02*
X0069625Y0082350D01*
X0070875Y0081100D01*
X0069000Y0070475D02*
X0084000Y0070475D01*
X0079000Y0059225D02*
X0083375Y0054850D01*
X0179000Y0054850D01*
X0185875Y0061725D01*
X0184625Y0053600D02*
X0080875Y0053600D01*
X0075875Y0058600D01*
X0044000Y0058600D02*
X0044000Y0058698D01*
X0044000Y0058600D02*
X0019000Y0058600D01*
X0019000Y0058698D01*
X0062750Y0009850D02*
X0154000Y0009850D01*
X0165875Y0021725D01*
X0174625Y0021725D01*
X0175000Y0021600D01*
X0175250Y0021100D01*
X0180250Y0016100D01*
X0189625Y0016100D01*
X0196500Y0009225D01*
X0197000Y0009100D01*
X0187125Y0034225D02*
X0175250Y0034225D01*
X0175000Y0034600D01*
X0175250Y0034850D01*
X0175250Y0039225D01*
X0164000Y0057350D02*
X0168375Y0061725D01*
X0174000Y0069225D02*
X0166500Y0076725D01*
X0152750Y0067975D02*
X0151500Y0066725D01*
X0157732Y0100990D02*
X0157750Y0101100D01*
X0160250Y0101100D01*
X0157732Y0102958D02*
X0157125Y0102975D01*
X0136500Y0102975D01*
X0132125Y0107350D01*
X0132125Y0110475D01*
X0132142Y0110832D01*
X0130173Y0110832D02*
X0129625Y0111100D01*
X0092125Y0111100D01*
X0091598Y0114100D01*
X0092125Y0113600D01*
X0092125Y0111100D01*
X0092125Y0101100D01*
X0091598Y0101100D01*
X0092125Y0101100D02*
X0092125Y0094225D01*
X0081500Y0101100D02*
X0080402Y0101100D01*
X0081500Y0101100D02*
X0081500Y0106725D01*
X0124268Y0102958D02*
X0124625Y0102975D01*
X0126500Y0102975D01*
X0129625Y0106100D02*
X0129625Y0110475D01*
X0130173Y0110832D01*
X0138375Y0104225D02*
X0149625Y0104225D01*
X0149625Y0110475D01*
X0149858Y0110832D01*
X0151827Y0110832D02*
X0152125Y0110475D01*
X0175250Y0110475D01*
X0167125Y0107975D02*
X0164625Y0105475D01*
X0157732Y0104927D02*
X0157125Y0105475D01*
X0153375Y0105475D01*
X0156500Y0112975D02*
X0194000Y0112975D01*
X0197750Y0109225D01*
X0198000Y0109100D01*
X0202125Y0117350D02*
X0202125Y0128600D01*
X0198375Y0128600D01*
X0198000Y0129100D01*
X0188000Y0129100D02*
X0187750Y0128600D01*
X0174625Y0128600D01*
X0172750Y0126725D01*
X0176500Y0124225D02*
X0145875Y0124225D01*
X0150875Y0126725D02*
X0139625Y0126725D01*
X0134625Y0131100D02*
X0164625Y0131100D01*
X0165250Y0131725D01*
X0155250Y0138600D02*
X0187750Y0138600D01*
X0188000Y0139100D01*
X0170250Y0160475D02*
X0170250Y0164225D01*
X0170417Y0164801D01*
X0170250Y0160475D02*
X0161500Y0151725D01*
X0152125Y0151725D01*
X0147125Y0146725D01*
X0147000Y0146612D01*
X0146500Y0146725D01*
X0144625Y0146725D01*
X0141500Y0149850D01*
X0142125Y0152350D02*
X0144000Y0154225D01*
X0146402Y0156100D01*
X0145875Y0156100D01*
X0144000Y0154225D01*
X0137125Y0161100D01*
X0144625Y0168600D02*
X0145000Y0169100D01*
X0144625Y0168600D02*
X0157125Y0156100D01*
X0157598Y0156100D01*
X0158375Y0162350D02*
X0153375Y0162350D01*
X0150875Y0164850D01*
X0150250Y0164850D01*
X0150250Y0166100D01*
X0158375Y0162350D02*
X0167125Y0171100D01*
X0170417Y0171100D01*
X0155875Y0141100D02*
X0137750Y0141100D01*
X0135875Y0137975D02*
X0131500Y0137975D01*
X0131200Y0138000D01*
X0130875Y0137975D01*
X0125875Y0132975D01*
X0124625Y0132975D01*
X0132125Y0133600D02*
X0137125Y0133600D01*
X0138375Y0135475D02*
X0135875Y0137975D01*
X0138375Y0135475D02*
X0146500Y0135475D01*
X0147000Y0135588D01*
X0143375Y0139850D02*
X0154000Y0139850D01*
X0155250Y0138600D01*
X0143375Y0139850D02*
X0141500Y0137975D01*
X0143953Y0110832D02*
X0144000Y0110475D01*
X0144000Y0106725D01*
D27*
X0144000Y0106725D03*
X0139000Y0106725D03*
X0135875Y0106725D03*
X0130250Y0100475D03*
X0129625Y0094850D03*
X0135250Y0092350D03*
X0137750Y0096100D03*
X0140250Y0097975D03*
X0150875Y0097350D03*
X0150875Y0100475D03*
X0153375Y0105475D03*
X0156500Y0112975D03*
X0167125Y0107975D03*
X0175250Y0110475D03*
X0167125Y0099850D03*
X0162125Y0099225D03*
X0164625Y0094225D03*
X0162125Y0087350D03*
X0166500Y0076725D03*
X0171500Y0067975D03*
X0168375Y0061725D03*
X0164000Y0057350D03*
X0151500Y0066725D03*
X0145875Y0069225D03*
X0145250Y0072975D03*
X0153375Y0072975D03*
X0154625Y0077350D03*
X0147125Y0084850D03*
X0142750Y0084225D03*
X0120250Y0081725D03*
X0115250Y0072975D03*
X0110250Y0071100D03*
X0120875Y0070475D03*
X0097750Y0081725D03*
X0089625Y0081100D03*
X0094000Y0070475D03*
X0084000Y0070475D03*
X0079000Y0059225D03*
X0075875Y0058600D03*
X0069000Y0070475D03*
X0070875Y0081100D03*
X0076500Y0081725D03*
X0068375Y0092350D03*
X0056500Y0081725D03*
X0059000Y0077975D03*
X0054000Y0056725D03*
X0073375Y0106725D03*
X0081500Y0106725D03*
X0081500Y0119850D03*
X0081500Y0130475D03*
X0084625Y0130475D03*
X0095875Y0137975D03*
X0100250Y0139850D03*
X0098375Y0144850D03*
X0089000Y0151725D03*
X0085875Y0143600D03*
X0062125Y0143600D03*
X0052750Y0136100D03*
X0052750Y0129850D03*
X0049000Y0107975D03*
X0052125Y0165475D03*
X0050250Y0179225D03*
X0072750Y0183600D03*
X0080875Y0179225D03*
X0100250Y0176725D03*
X0100250Y0165475D03*
X0112125Y0158600D03*
X0125250Y0143600D03*
X0124000Y0135475D03*
X0132125Y0133600D03*
X0134625Y0131100D03*
X0137125Y0133600D03*
X0141500Y0137975D03*
X0137750Y0141100D03*
X0141500Y0149850D03*
X0140250Y0154850D03*
X0132125Y0163600D03*
X0150250Y0166100D03*
X0129625Y0187975D03*
X0124000Y0186100D03*
X0114625Y0140475D03*
X0127125Y0124225D03*
X0133375Y0121725D03*
X0135875Y0124225D03*
X0133375Y0126725D03*
X0139625Y0126725D03*
X0145875Y0124225D03*
X0150875Y0126725D03*
X0139625Y0119225D03*
X0155875Y0141100D03*
X0162750Y0141100D03*
X0170250Y0141100D03*
X0165250Y0131725D03*
X0172750Y0126725D03*
X0178375Y0122975D03*
X0182750Y0121725D03*
X0190875Y0132975D03*
X0177750Y0092350D03*
X0179625Y0080475D03*
X0182125Y0077975D03*
X0180250Y0071725D03*
X0185875Y0061725D03*
X0192750Y0061725D03*
X0202125Y0058600D03*
X0187125Y0052350D03*
X0180250Y0044850D03*
X0185875Y0042350D03*
X0187125Y0034225D03*
X0190250Y0025475D03*
X0175250Y0039225D03*
X0165875Y0021725D03*
X0145875Y0023600D03*
X0111500Y0119225D03*
X0181500Y0193600D03*
D28*
X0190250Y0025475D02*
X0147750Y0025475D01*
X0145875Y0023600D01*
M02*
