G75*
%MOIN*%
%OFA0B0*%
%FSLAX25Y25*%
%IPPOS*%
%LPD*%
%AMOC8*
5,1,8,0,0,1.08239X$1,22.5*
%
%ADD10C,0.00000*%
%ADD11C,0.00500*%
%ADD12C,0.00800*%
D10*
X0009000Y0001100D02*
X0009000Y0197950D01*
X0205850Y0197950D01*
X0205850Y0001100D01*
X0009000Y0001100D01*
D11*
X0142126Y0016257D02*
X0157874Y0016257D01*
X0157874Y0030943D01*
X0152874Y0035943D01*
X0142126Y0035943D01*
X0142126Y0016257D01*
X0154200Y0045400D02*
X0163800Y0045400D01*
X0163800Y0064800D01*
X0154200Y0064800D01*
X0154200Y0045400D01*
D12*
X0155000Y0036100D02*
X0155002Y0036163D01*
X0155008Y0036225D01*
X0155018Y0036287D01*
X0155031Y0036349D01*
X0155049Y0036409D01*
X0155070Y0036468D01*
X0155095Y0036526D01*
X0155124Y0036582D01*
X0155156Y0036636D01*
X0155191Y0036688D01*
X0155229Y0036737D01*
X0155271Y0036785D01*
X0155315Y0036829D01*
X0155363Y0036871D01*
X0155412Y0036909D01*
X0155464Y0036944D01*
X0155518Y0036976D01*
X0155574Y0037005D01*
X0155632Y0037030D01*
X0155691Y0037051D01*
X0155751Y0037069D01*
X0155813Y0037082D01*
X0155875Y0037092D01*
X0155937Y0037098D01*
X0156000Y0037100D01*
X0156063Y0037098D01*
X0156125Y0037092D01*
X0156187Y0037082D01*
X0156249Y0037069D01*
X0156309Y0037051D01*
X0156368Y0037030D01*
X0156426Y0037005D01*
X0156482Y0036976D01*
X0156536Y0036944D01*
X0156588Y0036909D01*
X0156637Y0036871D01*
X0156685Y0036829D01*
X0156729Y0036785D01*
X0156771Y0036737D01*
X0156809Y0036688D01*
X0156844Y0036636D01*
X0156876Y0036582D01*
X0156905Y0036526D01*
X0156930Y0036468D01*
X0156951Y0036409D01*
X0156969Y0036349D01*
X0156982Y0036287D01*
X0156992Y0036225D01*
X0156998Y0036163D01*
X0157000Y0036100D01*
X0156998Y0036037D01*
X0156992Y0035975D01*
X0156982Y0035913D01*
X0156969Y0035851D01*
X0156951Y0035791D01*
X0156930Y0035732D01*
X0156905Y0035674D01*
X0156876Y0035618D01*
X0156844Y0035564D01*
X0156809Y0035512D01*
X0156771Y0035463D01*
X0156729Y0035415D01*
X0156685Y0035371D01*
X0156637Y0035329D01*
X0156588Y0035291D01*
X0156536Y0035256D01*
X0156482Y0035224D01*
X0156426Y0035195D01*
X0156368Y0035170D01*
X0156309Y0035149D01*
X0156249Y0035131D01*
X0156187Y0035118D01*
X0156125Y0035108D01*
X0156063Y0035102D01*
X0156000Y0035100D01*
X0155937Y0035102D01*
X0155875Y0035108D01*
X0155813Y0035118D01*
X0155751Y0035131D01*
X0155691Y0035149D01*
X0155632Y0035170D01*
X0155574Y0035195D01*
X0155518Y0035224D01*
X0155464Y0035256D01*
X0155412Y0035291D01*
X0155363Y0035329D01*
X0155315Y0035371D01*
X0155271Y0035415D01*
X0155229Y0035463D01*
X0155191Y0035512D01*
X0155156Y0035564D01*
X0155124Y0035618D01*
X0155095Y0035674D01*
X0155070Y0035732D01*
X0155049Y0035791D01*
X0155031Y0035851D01*
X0155018Y0035913D01*
X0155008Y0035975D01*
X0155002Y0036037D01*
X0155000Y0036100D01*
X0093200Y0129437D02*
X0054800Y0129437D01*
X0054719Y0129449D01*
X0054639Y0129464D01*
X0054560Y0129483D01*
X0054482Y0129505D01*
X0054405Y0129532D01*
X0054329Y0129561D01*
X0054255Y0129595D01*
X0054183Y0129632D01*
X0054112Y0129672D01*
X0054044Y0129716D01*
X0053977Y0129763D01*
X0053913Y0129813D01*
X0053852Y0129866D01*
X0053793Y0129922D01*
X0053736Y0129981D01*
X0053683Y0130042D01*
X0053632Y0130106D01*
X0053585Y0130172D01*
X0053541Y0130240D01*
X0053500Y0130310D01*
X0053462Y0130382D01*
X0053428Y0130456D01*
X0053398Y0130532D01*
X0053371Y0130608D01*
X0053348Y0130686D01*
X0053328Y0130765D01*
X0053313Y0130845D01*
X0053301Y0130926D01*
X0053293Y0131006D01*
X0053289Y0131088D01*
X0053288Y0131169D01*
X0053292Y0131250D01*
X0053299Y0131331D01*
X0053300Y0131381D02*
X0053300Y0134700D01*
X0053500Y0134700D02*
X0053598Y0134702D01*
X0053696Y0134708D01*
X0053794Y0134717D01*
X0053891Y0134731D01*
X0053988Y0134748D01*
X0054084Y0134769D01*
X0054179Y0134794D01*
X0054273Y0134822D01*
X0054365Y0134855D01*
X0054457Y0134890D01*
X0054547Y0134930D01*
X0054635Y0134972D01*
X0054722Y0135019D01*
X0054806Y0135068D01*
X0054889Y0135121D01*
X0054969Y0135177D01*
X0055048Y0135237D01*
X0055124Y0135299D01*
X0055197Y0135364D01*
X0055268Y0135432D01*
X0055336Y0135503D01*
X0055401Y0135576D01*
X0055463Y0135652D01*
X0055523Y0135731D01*
X0055579Y0135811D01*
X0055632Y0135894D01*
X0055681Y0135978D01*
X0055728Y0136065D01*
X0055770Y0136153D01*
X0055810Y0136243D01*
X0055845Y0136335D01*
X0055878Y0136427D01*
X0055906Y0136521D01*
X0055931Y0136616D01*
X0055952Y0136712D01*
X0055969Y0136809D01*
X0055983Y0136906D01*
X0055992Y0137004D01*
X0055998Y0137102D01*
X0056000Y0137200D01*
X0055998Y0137298D01*
X0055992Y0137396D01*
X0055983Y0137494D01*
X0055969Y0137591D01*
X0055952Y0137688D01*
X0055931Y0137784D01*
X0055906Y0137879D01*
X0055878Y0137973D01*
X0055845Y0138065D01*
X0055810Y0138157D01*
X0055770Y0138247D01*
X0055728Y0138335D01*
X0055681Y0138422D01*
X0055632Y0138506D01*
X0055579Y0138589D01*
X0055523Y0138669D01*
X0055463Y0138748D01*
X0055401Y0138824D01*
X0055336Y0138897D01*
X0055268Y0138968D01*
X0055197Y0139036D01*
X0055124Y0139101D01*
X0055048Y0139163D01*
X0054969Y0139223D01*
X0054889Y0139279D01*
X0054806Y0139332D01*
X0054722Y0139381D01*
X0054635Y0139428D01*
X0054547Y0139470D01*
X0054457Y0139510D01*
X0054365Y0139545D01*
X0054273Y0139578D01*
X0054179Y0139606D01*
X0054084Y0139631D01*
X0053988Y0139652D01*
X0053891Y0139669D01*
X0053794Y0139683D01*
X0053696Y0139692D01*
X0053598Y0139698D01*
X0053500Y0139700D01*
X0053300Y0139700D02*
X0053300Y0143656D01*
X0053301Y0143656D02*
X0053313Y0143726D01*
X0053330Y0143796D01*
X0053350Y0143864D01*
X0053373Y0143932D01*
X0053401Y0143998D01*
X0053432Y0144062D01*
X0053466Y0144124D01*
X0053504Y0144185D01*
X0053544Y0144244D01*
X0053588Y0144300D01*
X0053635Y0144353D01*
X0053685Y0144405D01*
X0053738Y0144453D01*
X0053793Y0144498D01*
X0053850Y0144541D01*
X0053910Y0144580D01*
X0053972Y0144616D01*
X0054035Y0144648D01*
X0054100Y0144677D01*
X0054167Y0144703D01*
X0054235Y0144725D01*
X0054304Y0144743D01*
X0054374Y0144757D01*
X0054445Y0144767D01*
X0054516Y0144774D01*
X0054587Y0144777D01*
X0054658Y0144776D01*
X0054730Y0144771D01*
X0054800Y0144762D01*
X0054800Y0144763D02*
X0093594Y0144763D01*
X0093594Y0144762D02*
X0093664Y0144750D01*
X0093734Y0144733D01*
X0093802Y0144713D01*
X0093869Y0144689D01*
X0093935Y0144662D01*
X0094000Y0144631D01*
X0094062Y0144597D01*
X0094123Y0144559D01*
X0094181Y0144518D01*
X0094238Y0144474D01*
X0094291Y0144427D01*
X0094342Y0144377D01*
X0094391Y0144325D01*
X0094436Y0144270D01*
X0094479Y0144212D01*
X0094518Y0144153D01*
X0094554Y0144091D01*
X0094586Y0144027D01*
X0094615Y0143962D01*
X0094641Y0143896D01*
X0094662Y0143828D01*
X0094681Y0143758D01*
X0094695Y0143689D01*
X0094705Y0143618D01*
X0094712Y0143547D01*
X0094715Y0143476D01*
X0094714Y0143404D01*
X0094709Y0143333D01*
X0094700Y0143262D01*
X0094700Y0143263D02*
X0094700Y0130937D01*
X0094698Y0130861D01*
X0094692Y0130786D01*
X0094683Y0130710D01*
X0094669Y0130635D01*
X0094652Y0130561D01*
X0094631Y0130488D01*
X0094607Y0130416D01*
X0094579Y0130346D01*
X0094547Y0130277D01*
X0094512Y0130209D01*
X0094473Y0130144D01*
X0094431Y0130080D01*
X0094386Y0130019D01*
X0094338Y0129960D01*
X0094287Y0129904D01*
X0094233Y0129850D01*
X0094177Y0129799D01*
X0094118Y0129751D01*
X0094057Y0129706D01*
X0093993Y0129664D01*
X0093928Y0129625D01*
X0093860Y0129590D01*
X0093791Y0129558D01*
X0093721Y0129530D01*
X0093649Y0129506D01*
X0093576Y0129485D01*
X0093502Y0129468D01*
X0093427Y0129454D01*
X0093351Y0129445D01*
X0093276Y0129439D01*
X0093200Y0129437D01*
M02*
