G75*
%MOIN*%
%OFA0B0*%
%FSLAX25Y25*%
%IPPOS*%
%LPD*%
%AMOC8*
5,1,8,0,0,1.08239X$1,22.5*
%
%ADD10C,0.00000*%
%ADD11R,0.06299X0.10630*%
%ADD12R,0.04724X0.01181*%
%ADD13R,0.01181X0.04724*%
%ADD14R,0.05512X0.02362*%
%ADD15R,0.08000X0.05000*%
%ADD16R,0.07098X0.06299*%
%ADD17R,0.06299X0.07098*%
D10*
X0002100Y0001100D02*
X0002100Y0197950D01*
X0198950Y0197950D01*
X0198950Y0001100D01*
X0002100Y0001100D01*
D11*
X0122588Y0057100D03*
X0133612Y0057100D03*
D12*
X0145832Y0085273D03*
X0145832Y0087242D03*
X0145832Y0089210D03*
X0145832Y0091179D03*
X0145832Y0093147D03*
X0145832Y0095116D03*
X0145832Y0097084D03*
X0145832Y0099053D03*
X0145832Y0101021D03*
X0145832Y0102990D03*
X0145832Y0104958D03*
X0145832Y0106927D03*
X0112368Y0106927D03*
X0112368Y0104958D03*
X0112368Y0102990D03*
X0112368Y0101021D03*
X0112368Y0099053D03*
X0112368Y0097084D03*
X0112368Y0095116D03*
X0112368Y0093147D03*
X0112368Y0091179D03*
X0112368Y0089210D03*
X0112368Y0087242D03*
X0112368Y0085273D03*
D13*
X0118273Y0079368D03*
X0120242Y0079368D03*
X0122210Y0079368D03*
X0124179Y0079368D03*
X0126147Y0079368D03*
X0128116Y0079368D03*
X0130084Y0079368D03*
X0132053Y0079368D03*
X0134021Y0079368D03*
X0135990Y0079368D03*
X0137958Y0079368D03*
X0139927Y0079368D03*
X0139927Y0112832D03*
X0137958Y0112832D03*
X0135990Y0112832D03*
X0134021Y0112832D03*
X0132053Y0112832D03*
X0130084Y0112832D03*
X0128116Y0112832D03*
X0126147Y0112832D03*
X0124179Y0112832D03*
X0122210Y0112832D03*
X0120242Y0112832D03*
X0118273Y0112832D03*
D14*
X0111470Y0030600D03*
X0111470Y0025600D03*
X0111470Y0020600D03*
X0111470Y0015600D03*
X0132730Y0015600D03*
X0132730Y0020600D03*
X0132730Y0025600D03*
X0132730Y0030600D03*
D15*
X0144100Y0032600D03*
X0144100Y0045600D03*
D16*
X0168100Y0045502D03*
X0168100Y0056698D03*
X0189100Y0056698D03*
X0189100Y0045502D03*
X0189100Y0033698D03*
X0189100Y0022502D03*
X0168100Y0022502D03*
X0168100Y0033698D03*
X0150100Y0142502D03*
X0140100Y0142502D03*
X0140100Y0153698D03*
X0150100Y0153698D03*
D17*
X0094698Y0072100D03*
X0083502Y0072100D03*
X0083502Y0061100D03*
X0094698Y0061100D03*
X0094698Y0049100D03*
X0083502Y0049100D03*
X0069698Y0049100D03*
X0058502Y0049100D03*
X0058502Y0061100D03*
X0069698Y0061100D03*
X0069698Y0072100D03*
X0058502Y0072100D03*
M02*
