G75*
%MOIN*%
%OFA0B0*%
%FSLAX25Y25*%
%IPPOS*%
%LPD*%
%AMOC8*
5,1,8,0,0,1.08239X$1,22.5*
%
%ADD10C,0.00000*%
%ADD11R,0.06299X0.10630*%
%ADD12R,0.05512X0.02362*%
%ADD13R,0.08000X0.05000*%
%ADD14R,0.07098X0.06299*%
%ADD15R,0.06299X0.07098*%
%ADD16R,0.07087X0.06299*%
%ADD17R,0.02362X0.04724*%
D10*
X0009000Y0001100D02*
X0009000Y0197950D01*
X0205850Y0197950D01*
X0205850Y0001100D01*
X0009000Y0001100D01*
D11*
X0129488Y0057100D03*
X0140512Y0057100D03*
D12*
X0139370Y0033600D03*
X0139370Y0028600D03*
X0139370Y0023600D03*
X0139370Y0018600D03*
X0160630Y0018600D03*
X0160630Y0023600D03*
X0160630Y0028600D03*
X0160630Y0033600D03*
D13*
X0159000Y0048600D03*
X0159000Y0061600D03*
D14*
X0175000Y0056698D03*
X0175000Y0045502D03*
X0175000Y0033698D03*
X0175000Y0022502D03*
X0196000Y0022502D03*
X0196000Y0033698D03*
X0196000Y0045502D03*
X0196000Y0056698D03*
X0158000Y0135502D03*
X0147000Y0135502D03*
X0147000Y0146698D03*
X0158000Y0146698D03*
D15*
X0096598Y0076100D03*
X0096598Y0065100D03*
X0085402Y0065100D03*
X0075598Y0065100D03*
X0064402Y0065100D03*
X0064402Y0076100D03*
X0075598Y0076100D03*
X0085402Y0076100D03*
X0085402Y0053100D03*
X0075598Y0053100D03*
X0064402Y0053100D03*
X0096598Y0053100D03*
D16*
X0102000Y0160588D03*
X0102000Y0171612D03*
X0055000Y0171612D03*
X0055000Y0160588D03*
D17*
X0056500Y0148124D03*
X0061500Y0148124D03*
X0066500Y0148124D03*
X0071500Y0148124D03*
X0076500Y0148124D03*
X0081500Y0148124D03*
X0086500Y0148124D03*
X0091500Y0148124D03*
X0091500Y0126076D03*
X0086500Y0126076D03*
X0081500Y0126076D03*
X0076500Y0126076D03*
X0071500Y0126076D03*
X0066500Y0126076D03*
X0061500Y0126076D03*
X0056500Y0126076D03*
M02*
