%
M48
M72
T01C0.01200
T02C0.02756
T03C0.03200
T04C0.04000
T05C0.07874
%
T01
X54000Y56725
X69000Y70475
X70875Y81100
X76500Y81725
X68375Y92350
X56500Y81725
X59000Y77975
X75875Y58600
X79000Y59225
X84000Y70475
X94000Y70475
X89625Y81100
X97750Y81725
X110250Y71100
X115250Y72975
X120875Y70475
X120250Y81725
X129625Y94850
X130250Y100475
X135875Y106725
X139000Y106725
X144000Y106725
X150875Y100475
X150875Y97350
X153375Y105475
X156500Y112975
X167125Y107975
X175250Y110475
X167125Y99850
X162125Y99225
X164625Y94225
X162125Y87350
X166500Y76725
X171500Y67975
X168375Y61725
X164000Y57350
X151500Y66725
X145875Y69225
X145250Y72975
X153375Y72975
X154625Y77350
X147125Y84850
X142750Y84225
X135250Y92350
X137750Y96100
X140250Y97975
X139625Y119225
X135875Y124225
X133375Y121725
X133375Y126725
X134625Y131100
X132125Y133600
X137125Y133600
X141500Y137975
X137750Y141100
X141500Y149850
X140250Y154850
X132125Y163600
X150250Y166100
X129625Y187975
X124000Y186100
X100250Y176725
X100250Y165475
X112125Y158600
X98375Y144850
X100250Y139850
X95875Y137975
X85875Y143600
X89000Y151725
X84625Y130475
X81500Y130475
X81500Y119850
X81500Y106725
X73375Y106725
X49000Y107975
X52750Y129850
X52750Y136100
X62125Y143600
X52125Y165475
X50250Y179225
X72750Y183600
X80875Y179225
X114625Y140475
X124000Y135475
X125250Y143600
X139625Y126725
X145875Y124225
X150875Y126725
X155875Y141100
X162750Y141100
X170250Y141100
X165250Y131725
X172750Y126725
X178375Y122975
X182750Y121725
X190875Y132975
X177750Y92350
X179625Y80475
X182125Y77975
X180250Y71725
X185875Y61725
X192750Y61725
X202125Y58600
X187125Y52350
X180250Y44850
X185875Y42350
X187125Y34225
X190250Y25475
X175250Y39225
X165875Y21725
X145875Y23600
X111500Y119225
X127125Y124225
X181500Y193600
T02
X43583Y100399
X38465Y97250
X43583Y94100
X38465Y90950
X43583Y87801
X170417Y164801
X175535Y167950
X170417Y171100
X175535Y174250
X170417Y177399
T03
X66500Y164100
X85500Y164100
X109000Y104600
X109000Y85600
T04
X17200Y7200
X17200Y25000
X42800Y25000
X59000Y24100
X59000Y14100
X69000Y14100
X79000Y14100
X79000Y24100
X69000Y24100
X42800Y7200
X42000Y126100
X42000Y136100
X42000Y146100
X42000Y156100
X29000Y156100
X29000Y146100
X29000Y136100
X29000Y126100
X16000Y126100
X16000Y136100
X16000Y146100
X16000Y156100
X16000Y177100
X26000Y177100
X36000Y177100
X36000Y190100
X26000Y190100
X16000Y190100
X87000Y192100
X87000Y182100
X97000Y182100
X97000Y192100
X107000Y192100
X117000Y192100
X117000Y182100
X107000Y182100
X127000Y182100
X127000Y192100
X137000Y192100
X147000Y192100
X147000Y182100
X137000Y182100
X145000Y169100
X155000Y169100
X157000Y182100
X157000Y192100
X188000Y139100
X188000Y129100
X188000Y119100
X188000Y109100
X188000Y99100
X188000Y89100
X188000Y79100
X188000Y69100
X198000Y69100
X198000Y79100
X198000Y89100
X198000Y99100
X198000Y109100
X198000Y119100
X198000Y129100
X198000Y139100
X197000Y9100
X187000Y9100
X177000Y9100
T05
X20354Y78352
X38858Y78352
X38858Y109848
X20354Y109848
X175142Y155352
X193646Y155352
X193646Y186848
X175142Y186848
M30
