G75*
%MOIN*%
%OFA0B0*%
%FSLAX25Y25*%
%IPPOS*%
%LPD*%
%AMOC8*
5,1,8,0,0,1.08239X$1,22.5*
%
%ADD10C,0.00000*%
%ADD11C,0.06000*%
%ADD12OC8,0.06000*%
%ADD13R,0.06299X0.07098*%
%ADD14R,0.07098X0.06299*%
%ADD15R,0.08000X0.05000*%
%ADD16C,0.15000*%
%ADD17C,0.12598*%
%ADD18C,0.04756*%
%ADD19R,0.08800X0.04800*%
%ADD20R,0.08661X0.14173*%
%ADD21R,0.07087X0.06299*%
%ADD22C,0.05200*%
%ADD23R,0.06299X0.10630*%
%ADD24C,0.01600*%
%ADD25C,0.00500*%
%ADD26C,0.02400*%
%ADD27C,0.01400*%
D10*
X0002100Y0001100D02*
X0002100Y0197950D01*
X0198950Y0197950D01*
X0198950Y0001100D01*
X0002100Y0001100D01*
D11*
X0007300Y0008200D02*
X0013300Y0008200D01*
X0013300Y0026000D02*
X0007300Y0026000D01*
X0032900Y0026000D02*
X0038900Y0026000D01*
X0038900Y0008200D02*
X0032900Y0008200D01*
X0032100Y0126100D02*
X0038100Y0126100D01*
X0038100Y0136100D02*
X0032100Y0136100D01*
X0025100Y0136100D02*
X0019100Y0136100D01*
X0012100Y0136100D02*
X0006100Y0136100D01*
X0006100Y0126100D02*
X0012100Y0126100D01*
X0019100Y0126100D02*
X0025100Y0126100D01*
X0025100Y0146100D02*
X0019100Y0146100D01*
X0012100Y0146100D02*
X0006100Y0146100D01*
X0006100Y0156100D02*
X0012100Y0156100D01*
X0019100Y0156100D02*
X0025100Y0156100D01*
X0032100Y0156100D02*
X0038100Y0156100D01*
X0038100Y0146100D02*
X0032100Y0146100D01*
X0029100Y0174100D02*
X0029100Y0180100D01*
X0029100Y0187100D02*
X0029100Y0193100D01*
X0019100Y0193100D02*
X0019100Y0187100D01*
X0019100Y0180100D02*
X0019100Y0174100D01*
X0009100Y0174100D02*
X0009100Y0180100D01*
X0009100Y0187100D02*
X0009100Y0193100D01*
X0170100Y0012100D02*
X0170100Y0006100D01*
X0180100Y0006100D02*
X0180100Y0012100D01*
X0190100Y0012100D02*
X0190100Y0006100D01*
D12*
X0191100Y0069100D03*
X0191100Y0079100D03*
X0191100Y0089100D03*
X0191100Y0099100D03*
X0191100Y0109100D03*
X0191100Y0119100D03*
X0191100Y0129100D03*
X0191100Y0139100D03*
X0181100Y0139100D03*
X0181100Y0129100D03*
X0181100Y0119100D03*
X0181100Y0109100D03*
X0181100Y0099100D03*
X0181100Y0089100D03*
X0181100Y0079100D03*
X0181100Y0069100D03*
X0072100Y0024100D03*
X0072100Y0014100D03*
X0062100Y0014100D03*
X0052100Y0014100D03*
X0052100Y0024100D03*
X0062100Y0024100D03*
X0076100Y0182100D03*
X0076100Y0192100D03*
X0086100Y0192100D03*
X0086100Y0182100D03*
X0096100Y0182100D03*
X0096100Y0192100D03*
X0106100Y0192100D03*
X0106100Y0182100D03*
X0116100Y0182100D03*
X0126100Y0182100D03*
X0126100Y0192100D03*
X0116100Y0192100D03*
X0136100Y0192100D03*
X0136100Y0182100D03*
X0146100Y0182100D03*
X0146100Y0192100D03*
D13*
X0084698Y0114100D03*
X0073502Y0114100D03*
X0063698Y0114100D03*
X0052502Y0114100D03*
X0052502Y0101100D03*
X0063698Y0101100D03*
X0073502Y0101100D03*
X0084698Y0101100D03*
X0085698Y0087100D03*
X0074502Y0087100D03*
X0063698Y0087100D03*
X0052502Y0087100D03*
X0028698Y0043100D03*
X0017502Y0043100D03*
D14*
X0015100Y0064502D03*
X0015100Y0075698D03*
X0041100Y0075698D03*
X0041100Y0064502D03*
D15*
X0168100Y0034600D03*
X0168100Y0021600D03*
D16*
X0186746Y0155352D03*
X0186746Y0186848D03*
D17*
X0168242Y0186848D03*
X0168242Y0155352D03*
D18*
X0163517Y0164801D02*
X0158761Y0164801D01*
X0158761Y0171100D02*
X0163517Y0171100D01*
X0168635Y0167950D02*
X0173391Y0167950D01*
X0173391Y0174250D02*
X0168635Y0174250D01*
X0163517Y0177399D02*
X0158761Y0177399D01*
D19*
X0098300Y0161200D03*
X0098300Y0152100D03*
X0098300Y0143000D03*
D20*
X0073899Y0152100D03*
D21*
X0122100Y0156612D03*
X0122100Y0145588D03*
D22*
X0102100Y0105600D03*
X0102100Y0086600D03*
D23*
X0097588Y0065100D03*
X0108612Y0065100D03*
X0109612Y0123100D03*
X0098588Y0123100D03*
D24*
X0097813Y0122587D02*
X0086775Y0122587D01*
X0086775Y0124185D02*
X0093639Y0124185D01*
X0093639Y0123875D02*
X0097813Y0123875D01*
X0097813Y0122325D01*
X0093639Y0122325D01*
X0093639Y0117548D01*
X0093761Y0117090D01*
X0093998Y0116680D01*
X0094333Y0116345D01*
X0094744Y0116108D01*
X0095202Y0115985D01*
X0097813Y0115985D01*
X0097813Y0122325D01*
X0099363Y0122325D01*
X0099363Y0115985D01*
X0101975Y0115985D01*
X0102433Y0116108D01*
X0102843Y0116345D01*
X0103178Y0116680D01*
X0103415Y0117090D01*
X0103538Y0117548D01*
X0103538Y0122325D01*
X0099363Y0122325D01*
X0099363Y0123875D01*
X0097813Y0123875D01*
X0097813Y0130215D01*
X0095202Y0130215D01*
X0094744Y0130092D01*
X0094333Y0129855D01*
X0093998Y0129520D01*
X0093761Y0129110D01*
X0093639Y0128652D01*
X0093639Y0123875D01*
X0093639Y0125784D02*
X0086775Y0125784D01*
X0086775Y0127382D02*
X0093639Y0127382D01*
X0093727Y0128981D02*
X0086775Y0128981D01*
X0086775Y0130579D02*
X0100321Y0130579D01*
X0100225Y0130347D02*
X0100225Y0130215D01*
X0099363Y0130215D01*
X0099363Y0123875D01*
X0103538Y0123875D01*
X0103538Y0127481D01*
X0104141Y0127731D01*
X0104711Y0128300D01*
X0105162Y0128300D01*
X0105162Y0117247D01*
X0105924Y0116485D01*
X0108050Y0116485D01*
X0108050Y0114242D01*
X0103181Y0109373D01*
X0102876Y0109500D01*
X0101324Y0109500D01*
X0099891Y0108906D01*
X0098794Y0107809D01*
X0098200Y0106376D01*
X0098200Y0104824D01*
X0098794Y0103391D01*
X0099891Y0102294D01*
X0101324Y0101700D01*
X0101758Y0101700D01*
X0098958Y0098900D01*
X0091586Y0098900D01*
X0091016Y0099469D01*
X0090097Y0099850D01*
X0089148Y0099850D01*
X0089148Y0105188D01*
X0088387Y0105949D01*
X0086775Y0105949D01*
X0086775Y0109251D01*
X0088387Y0109251D01*
X0089148Y0110012D01*
X0089148Y0118188D01*
X0088387Y0118949D01*
X0086775Y0118949D01*
X0086775Y0137333D01*
X0092842Y0143400D01*
X0097900Y0143400D01*
X0097900Y0147200D01*
X0096642Y0147200D01*
X0097842Y0148400D01*
X0103238Y0148400D01*
X0104000Y0149162D01*
X0104000Y0153258D01*
X0119925Y0137333D01*
X0120833Y0136425D01*
X0128864Y0136425D01*
X0129434Y0135856D01*
X0130353Y0135475D01*
X0131347Y0135475D01*
X0131800Y0135663D01*
X0131800Y0130492D01*
X0130537Y0129229D01*
X0130469Y0129391D01*
X0130011Y0129850D01*
X0130469Y0130309D01*
X0130850Y0131228D01*
X0130850Y0132222D01*
X0130469Y0133141D01*
X0129766Y0133844D01*
X0128847Y0134225D01*
X0127853Y0134225D01*
X0126934Y0133844D01*
X0126364Y0133275D01*
X0117708Y0133275D01*
X0116800Y0132367D01*
X0115833Y0131400D01*
X0104711Y0131400D01*
X0104141Y0131969D01*
X0103222Y0132350D01*
X0102228Y0132350D01*
X0101309Y0131969D01*
X0100606Y0131266D01*
X0100225Y0130347D01*
X0099363Y0128981D02*
X0097813Y0128981D01*
X0097813Y0127382D02*
X0099363Y0127382D01*
X0099363Y0125784D02*
X0097813Y0125784D01*
X0097813Y0124185D02*
X0099363Y0124185D01*
X0099363Y0122587D02*
X0105162Y0122587D01*
X0105162Y0124185D02*
X0103538Y0124185D01*
X0103538Y0125784D02*
X0105162Y0125784D01*
X0105162Y0127382D02*
X0103538Y0127382D01*
X0103638Y0132178D02*
X0116611Y0132178D01*
X0120284Y0136973D02*
X0086775Y0136973D01*
X0086775Y0135375D02*
X0131800Y0135375D01*
X0131800Y0133776D02*
X0129834Y0133776D01*
X0130850Y0132178D02*
X0131800Y0132178D01*
X0131800Y0130579D02*
X0130581Y0130579D01*
X0126866Y0133776D02*
X0086775Y0133776D01*
X0086775Y0132178D02*
X0101812Y0132178D01*
X0102937Y0138800D02*
X0098700Y0138800D01*
X0098700Y0142600D01*
X0098700Y0143400D01*
X0097900Y0143400D01*
X0097900Y0142600D01*
X0098700Y0142600D01*
X0104500Y0142600D01*
X0104500Y0140363D01*
X0104377Y0139905D01*
X0104140Y0139495D01*
X0103805Y0139160D01*
X0103395Y0138923D01*
X0102937Y0138800D01*
X0104448Y0140170D02*
X0117087Y0140170D01*
X0115489Y0141769D02*
X0104500Y0141769D01*
X0104500Y0143400D02*
X0104500Y0145637D01*
X0104377Y0146095D01*
X0104140Y0146505D01*
X0103805Y0146840D01*
X0103395Y0147077D01*
X0102937Y0147200D01*
X0098700Y0147200D01*
X0098700Y0143400D01*
X0104500Y0143400D01*
X0104500Y0144966D02*
X0112292Y0144966D01*
X0113890Y0143368D02*
X0098700Y0143368D01*
X0097900Y0143368D02*
X0092810Y0143368D01*
X0092100Y0142600D02*
X0092100Y0140363D01*
X0092223Y0139905D01*
X0092460Y0139495D01*
X0092795Y0139160D01*
X0093205Y0138923D01*
X0093663Y0138800D01*
X0097900Y0138800D01*
X0097900Y0142600D01*
X0092100Y0142600D01*
X0092100Y0141769D02*
X0091211Y0141769D01*
X0092152Y0140170D02*
X0089612Y0140170D01*
X0088014Y0138572D02*
X0118686Y0138572D01*
X0121003Y0140639D02*
X0121325Y0140639D01*
X0121325Y0144813D01*
X0122875Y0144813D01*
X0122875Y0140639D01*
X0125880Y0140639D01*
X0126338Y0140761D01*
X0126749Y0140998D01*
X0127084Y0141333D01*
X0127321Y0141744D01*
X0127443Y0142202D01*
X0127443Y0144813D01*
X0122875Y0144813D01*
X0122875Y0146363D01*
X0127443Y0146363D01*
X0127443Y0148975D01*
X0127321Y0149433D01*
X0127084Y0149843D01*
X0126749Y0150178D01*
X0126338Y0150415D01*
X0125880Y0150538D01*
X0122875Y0150538D01*
X0122875Y0146363D01*
X0121325Y0146363D01*
X0121325Y0144813D01*
X0116829Y0144813D01*
X0106467Y0155175D01*
X0117257Y0155175D01*
X0117257Y0152924D01*
X0118018Y0152162D01*
X0126182Y0152162D01*
X0126943Y0152924D01*
X0126943Y0160300D01*
X0126182Y0161061D01*
X0122400Y0161061D01*
X0122400Y0177983D01*
X0131800Y0168583D01*
X0131800Y0140287D01*
X0131347Y0140475D01*
X0130353Y0140475D01*
X0129434Y0140094D01*
X0128864Y0139525D01*
X0122117Y0139525D01*
X0121003Y0140639D01*
X0121472Y0140170D02*
X0129618Y0140170D01*
X0131800Y0141769D02*
X0127327Y0141769D01*
X0127443Y0143368D02*
X0131800Y0143368D01*
X0131800Y0144966D02*
X0122875Y0144966D01*
X0121325Y0144966D02*
X0116676Y0144966D01*
X0116757Y0146363D02*
X0121325Y0146363D01*
X0121325Y0150538D01*
X0118320Y0150538D01*
X0117862Y0150415D01*
X0117451Y0150178D01*
X0117116Y0149843D01*
X0116879Y0149433D01*
X0116757Y0148975D01*
X0116757Y0146363D01*
X0116757Y0146565D02*
X0115077Y0146565D01*
X0113479Y0148163D02*
X0116757Y0148163D01*
X0117069Y0149762D02*
X0111880Y0149762D01*
X0110282Y0151360D02*
X0131800Y0151360D01*
X0131800Y0149762D02*
X0127131Y0149762D01*
X0127443Y0148163D02*
X0131800Y0148163D01*
X0131800Y0146565D02*
X0127443Y0146565D01*
X0122875Y0146565D02*
X0121325Y0146565D01*
X0121325Y0148163D02*
X0122875Y0148163D01*
X0122875Y0149762D02*
X0121325Y0149762D01*
X0117257Y0152959D02*
X0108683Y0152959D01*
X0107085Y0154557D02*
X0117257Y0154557D01*
X0122400Y0162550D02*
X0131800Y0162550D01*
X0131800Y0164148D02*
X0122400Y0164148D01*
X0122400Y0165747D02*
X0131800Y0165747D01*
X0131800Y0167345D02*
X0122400Y0167345D01*
X0122400Y0168944D02*
X0131439Y0168944D01*
X0129841Y0170542D02*
X0122400Y0170542D01*
X0122400Y0172141D02*
X0128242Y0172141D01*
X0126644Y0173739D02*
X0122400Y0173739D01*
X0122400Y0175338D02*
X0125045Y0175338D01*
X0123447Y0176936D02*
X0122400Y0176936D01*
X0126292Y0160951D02*
X0131800Y0160951D01*
X0131800Y0159353D02*
X0126943Y0159353D01*
X0126943Y0157754D02*
X0131800Y0157754D01*
X0131800Y0156156D02*
X0126943Y0156156D01*
X0126943Y0154557D02*
X0131800Y0154557D01*
X0131800Y0152959D02*
X0126943Y0152959D01*
X0122875Y0143368D02*
X0121325Y0143368D01*
X0121325Y0141769D02*
X0122875Y0141769D01*
X0110693Y0146565D02*
X0104081Y0146565D01*
X0104000Y0149762D02*
X0107496Y0149762D01*
X0105898Y0151360D02*
X0104000Y0151360D01*
X0104000Y0152959D02*
X0104299Y0152959D01*
X0109095Y0148163D02*
X0097605Y0148163D01*
X0097900Y0146565D02*
X0098700Y0146565D01*
X0098700Y0144966D02*
X0097900Y0144966D01*
X0097900Y0141769D02*
X0098700Y0141769D01*
X0098700Y0140170D02*
X0097900Y0140170D01*
X0079300Y0140170D02*
X0055222Y0140170D01*
X0056820Y0138572D02*
X0079300Y0138572D01*
X0079300Y0136973D02*
X0058419Y0136973D01*
X0060017Y0135375D02*
X0079300Y0135375D01*
X0079300Y0133776D02*
X0061616Y0133776D01*
X0063214Y0132178D02*
X0079300Y0132178D01*
X0079300Y0130579D02*
X0064813Y0130579D01*
X0065542Y0129850D02*
X0050229Y0145163D01*
X0050391Y0145231D01*
X0051094Y0145934D01*
X0051475Y0146853D01*
X0051475Y0147847D01*
X0051094Y0148766D01*
X0050525Y0149336D01*
X0050525Y0168489D01*
X0051094Y0169059D01*
X0051475Y0169978D01*
X0051475Y0170972D01*
X0051094Y0171891D01*
X0050391Y0172594D01*
X0049472Y0172975D01*
X0048478Y0172975D01*
X0047559Y0172594D01*
X0046856Y0171891D01*
X0046475Y0170972D01*
X0046475Y0169978D01*
X0046856Y0169059D01*
X0047425Y0168489D01*
X0047425Y0149336D01*
X0046856Y0148766D01*
X0046788Y0148604D01*
X0043650Y0151742D01*
X0043650Y0158617D01*
X0031996Y0170271D01*
X0032227Y0170439D01*
X0032761Y0170973D01*
X0033205Y0171584D01*
X0033548Y0172257D01*
X0033782Y0172976D01*
X0033900Y0173722D01*
X0033900Y0176900D01*
X0029300Y0176900D01*
X0029300Y0177300D01*
X0028900Y0177300D01*
X0028900Y0189900D01*
X0024300Y0189900D01*
X0024300Y0186722D01*
X0024418Y0185976D01*
X0024652Y0185257D01*
X0024995Y0184584D01*
X0025439Y0183973D01*
X0025812Y0183600D01*
X0025439Y0183227D01*
X0024995Y0182616D01*
X0024652Y0181943D01*
X0024418Y0181224D01*
X0024300Y0180478D01*
X0024300Y0177300D01*
X0028900Y0177300D01*
X0028900Y0176900D01*
X0024300Y0176900D01*
X0024300Y0174217D01*
X0023400Y0175117D01*
X0023400Y0180955D01*
X0022745Y0182536D01*
X0021681Y0183600D01*
X0022745Y0184664D01*
X0023400Y0186245D01*
X0023400Y0193955D01*
X0022745Y0195536D01*
X0022181Y0196100D01*
X0025347Y0196100D01*
X0024995Y0195616D01*
X0024652Y0194943D01*
X0024418Y0194224D01*
X0024300Y0193478D01*
X0024300Y0190300D01*
X0028900Y0190300D01*
X0028900Y0189900D01*
X0029300Y0189900D01*
X0029300Y0190300D01*
X0033900Y0190300D01*
X0033900Y0193478D01*
X0033782Y0194224D01*
X0033548Y0194943D01*
X0033205Y0195616D01*
X0032853Y0196100D01*
X0074019Y0196100D01*
X0071800Y0193881D01*
X0071800Y0190319D01*
X0072026Y0190093D01*
X0070550Y0188617D01*
X0070550Y0169208D01*
X0071458Y0168300D01*
X0079300Y0160458D01*
X0079300Y0159955D01*
X0078768Y0160487D01*
X0069030Y0160487D01*
X0068269Y0159725D01*
X0068269Y0144475D01*
X0069030Y0143713D01*
X0078768Y0143713D01*
X0079300Y0144245D01*
X0079300Y0129336D01*
X0078731Y0128766D01*
X0078350Y0127847D01*
X0078350Y0126853D01*
X0078675Y0126068D01*
X0078675Y0098592D01*
X0077951Y0099316D01*
X0077951Y0105188D01*
X0077190Y0105949D01*
X0069813Y0105949D01*
X0069052Y0105188D01*
X0069052Y0097012D01*
X0069813Y0096251D01*
X0076632Y0096251D01*
X0077425Y0095458D01*
X0077425Y0091949D01*
X0070813Y0091949D01*
X0070052Y0091188D01*
X0070052Y0083213D01*
X0069981Y0083141D01*
X0069600Y0082222D01*
X0069600Y0081228D01*
X0069981Y0080309D01*
X0070439Y0079850D01*
X0069728Y0079850D01*
X0068809Y0079469D01*
X0068106Y0078766D01*
X0068038Y0078604D01*
X0065525Y0081117D01*
X0065525Y0082251D01*
X0067387Y0082251D01*
X0068148Y0083012D01*
X0068148Y0091188D01*
X0067387Y0091949D01*
X0065525Y0091949D01*
X0065525Y0096251D01*
X0067387Y0096251D01*
X0068148Y0097012D01*
X0068148Y0105188D01*
X0067387Y0105949D01*
X0065525Y0105949D01*
X0065525Y0109251D01*
X0067387Y0109251D01*
X0068148Y0110012D01*
X0068148Y0118188D01*
X0067387Y0118949D01*
X0065525Y0118949D01*
X0065525Y0124850D01*
X0066347Y0124850D01*
X0067266Y0125231D01*
X0067969Y0125934D01*
X0068350Y0126853D01*
X0068350Y0127847D01*
X0067969Y0128766D01*
X0067266Y0129469D01*
X0066347Y0129850D01*
X0065542Y0129850D01*
X0067755Y0128981D02*
X0078945Y0128981D01*
X0078350Y0127382D02*
X0068350Y0127382D01*
X0067819Y0125784D02*
X0078675Y0125784D01*
X0078675Y0124185D02*
X0065525Y0124185D01*
X0065525Y0122587D02*
X0078675Y0122587D01*
X0078675Y0120988D02*
X0065525Y0120988D01*
X0065525Y0119390D02*
X0078675Y0119390D01*
X0077951Y0118188D02*
X0077190Y0118949D01*
X0069813Y0118949D01*
X0069052Y0118188D01*
X0069052Y0110337D01*
X0068731Y0110016D01*
X0068350Y0109097D01*
X0068350Y0108103D01*
X0068731Y0107184D01*
X0069434Y0106481D01*
X0070353Y0106100D01*
X0071347Y0106100D01*
X0072266Y0106481D01*
X0072969Y0107184D01*
X0073350Y0108103D01*
X0073350Y0109097D01*
X0073286Y0109251D01*
X0077190Y0109251D01*
X0077951Y0110012D01*
X0077951Y0118188D01*
X0077951Y0117791D02*
X0078675Y0117791D01*
X0078675Y0116193D02*
X0077951Y0116193D01*
X0077951Y0114594D02*
X0078675Y0114594D01*
X0078675Y0112996D02*
X0077951Y0112996D01*
X0077951Y0111397D02*
X0078675Y0111397D01*
X0078675Y0109799D02*
X0077738Y0109799D01*
X0078675Y0108200D02*
X0073350Y0108200D01*
X0072387Y0106602D02*
X0078675Y0106602D01*
X0078675Y0105003D02*
X0077951Y0105003D01*
X0077951Y0103405D02*
X0078675Y0103405D01*
X0078675Y0101806D02*
X0077951Y0101806D01*
X0077951Y0100208D02*
X0078675Y0100208D01*
X0078658Y0098609D02*
X0078675Y0098609D01*
X0077425Y0095412D02*
X0065525Y0095412D01*
X0065525Y0093814D02*
X0077425Y0093814D01*
X0077425Y0092215D02*
X0065525Y0092215D01*
X0068148Y0090617D02*
X0070052Y0090617D01*
X0070052Y0089018D02*
X0068148Y0089018D01*
X0068148Y0087420D02*
X0070052Y0087420D01*
X0070052Y0085821D02*
X0068148Y0085821D01*
X0068148Y0084223D02*
X0070052Y0084223D01*
X0069766Y0082624D02*
X0067760Y0082624D01*
X0069684Y0081026D02*
X0065616Y0081026D01*
X0067215Y0079427D02*
X0068767Y0079427D01*
X0066028Y0076230D02*
X0059900Y0076230D01*
X0059900Y0074632D02*
X0067626Y0074632D01*
X0069225Y0073033D02*
X0059900Y0073033D01*
X0059900Y0071434D02*
X0070550Y0071434D01*
X0070550Y0071708D02*
X0070550Y0054525D01*
X0018650Y0054525D01*
X0018650Y0060052D01*
X0019188Y0060052D01*
X0019949Y0060813D01*
X0019949Y0068190D01*
X0019188Y0068951D01*
X0011012Y0068951D01*
X0010251Y0068190D01*
X0010251Y0060813D01*
X0011012Y0060052D01*
X0015550Y0060052D01*
X0015550Y0047949D01*
X0013813Y0047949D01*
X0013052Y0047188D01*
X0013052Y0039012D01*
X0013813Y0038251D01*
X0021190Y0038251D01*
X0021951Y0039012D01*
X0021951Y0047188D01*
X0021190Y0047949D01*
X0018650Y0047949D01*
X0018650Y0051425D01*
X0070550Y0051425D01*
X0070550Y0028400D01*
X0070319Y0028400D01*
X0067800Y0025881D01*
X0067800Y0022319D01*
X0068719Y0021400D01*
X0066492Y0021400D01*
X0065987Y0021905D01*
X0066400Y0022319D01*
X0066400Y0025881D01*
X0063881Y0028400D01*
X0060319Y0028400D01*
X0057800Y0025881D01*
X0057800Y0022319D01*
X0058719Y0021400D01*
X0055481Y0021400D01*
X0056400Y0022319D01*
X0056400Y0025881D01*
X0053881Y0028400D01*
X0050319Y0028400D01*
X0047800Y0025881D01*
X0047800Y0025092D01*
X0045867Y0027025D01*
X0043130Y0027025D01*
X0042545Y0028436D01*
X0041336Y0029645D01*
X0039755Y0030300D01*
X0032045Y0030300D01*
X0030464Y0029645D01*
X0029255Y0028436D01*
X0028929Y0027650D01*
X0017271Y0027650D01*
X0016945Y0028436D01*
X0016474Y0028907D01*
X0025818Y0038251D01*
X0032387Y0038251D01*
X0033148Y0039012D01*
X0033148Y0047188D01*
X0032387Y0047949D01*
X0025010Y0047949D01*
X0024249Y0047188D01*
X0024249Y0041066D01*
X0013483Y0030300D01*
X0006445Y0030300D01*
X0004864Y0029645D01*
X0004100Y0028881D01*
X0004100Y0121732D01*
X0004257Y0121652D01*
X0004976Y0121418D01*
X0005722Y0121300D01*
X0008900Y0121300D01*
X0008900Y0125900D01*
X0009300Y0125900D01*
X0009300Y0126300D01*
X0016900Y0126300D01*
X0021900Y0126300D01*
X0021900Y0130900D01*
X0018722Y0130900D01*
X0017976Y0130782D01*
X0017257Y0130548D01*
X0016584Y0130205D01*
X0015973Y0129761D01*
X0015600Y0129388D01*
X0015227Y0129761D01*
X0014616Y0130205D01*
X0013943Y0130548D01*
X0013224Y0130782D01*
X0012478Y0130900D01*
X0009300Y0130900D01*
X0009300Y0126300D01*
X0008900Y0126300D01*
X0008900Y0130900D01*
X0005722Y0130900D01*
X0004976Y0130782D01*
X0004257Y0130548D01*
X0004100Y0130468D01*
X0004100Y0132274D01*
X0005245Y0131800D01*
X0012955Y0131800D01*
X0014536Y0132455D01*
X0015600Y0133519D01*
X0016664Y0132455D01*
X0018245Y0131800D01*
X0024208Y0131800D01*
X0025108Y0130900D01*
X0022300Y0130900D01*
X0022300Y0126300D01*
X0029900Y0126300D01*
X0034900Y0126300D01*
X0034900Y0130900D01*
X0031722Y0130900D01*
X0030976Y0130782D01*
X0030706Y0130694D01*
X0030469Y0131266D01*
X0029766Y0131969D01*
X0028847Y0132350D01*
X0028042Y0132350D01*
X0027737Y0132655D01*
X0028600Y0133519D01*
X0029664Y0132455D01*
X0031245Y0131800D01*
X0038955Y0131800D01*
X0040536Y0132455D01*
X0041745Y0133664D01*
X0042400Y0135245D01*
X0042400Y0136955D01*
X0041843Y0138300D01*
X0046458Y0138300D01*
X0058975Y0125783D01*
X0058975Y0124978D01*
X0059356Y0124059D01*
X0060059Y0123356D01*
X0060978Y0122975D01*
X0061972Y0122975D01*
X0062425Y0123163D01*
X0062425Y0118949D01*
X0060010Y0118949D01*
X0059466Y0118405D01*
X0059600Y0118728D01*
X0059600Y0119722D01*
X0059219Y0120641D01*
X0058516Y0121344D01*
X0057597Y0121725D01*
X0056603Y0121725D01*
X0055684Y0121344D01*
X0054981Y0120641D01*
X0054600Y0119722D01*
X0054600Y0118949D01*
X0048813Y0118949D01*
X0048052Y0118188D01*
X0048052Y0110012D01*
X0048813Y0109251D01*
X0056190Y0109251D01*
X0056951Y0110012D01*
X0056951Y0116725D01*
X0057597Y0116725D01*
X0058516Y0117106D01*
X0059219Y0117809D01*
X0059249Y0117880D01*
X0059249Y0110012D01*
X0060010Y0109251D01*
X0062425Y0109251D01*
X0062425Y0105949D01*
X0060010Y0105949D01*
X0059249Y0105188D01*
X0059249Y0097012D01*
X0060010Y0096251D01*
X0062425Y0096251D01*
X0062425Y0094662D01*
X0061972Y0094850D01*
X0061167Y0094850D01*
X0056951Y0099066D01*
X0056951Y0105188D01*
X0056190Y0105949D01*
X0048813Y0105949D01*
X0048052Y0105188D01*
X0048052Y0097012D01*
X0048813Y0096251D01*
X0055382Y0096251D01*
X0058975Y0092658D01*
X0058975Y0091853D01*
X0059250Y0091189D01*
X0059249Y0091188D01*
X0059249Y0083012D01*
X0060010Y0082251D01*
X0062425Y0082251D01*
X0062425Y0079833D01*
X0063333Y0078925D01*
X0070550Y0071708D01*
X0070550Y0069836D02*
X0059900Y0069836D01*
X0059900Y0068711D02*
X0059900Y0080458D01*
X0059900Y0081742D01*
X0056951Y0084691D01*
X0056951Y0091188D01*
X0056190Y0091949D01*
X0048813Y0091949D01*
X0048052Y0091188D01*
X0048052Y0083012D01*
X0048813Y0082251D01*
X0055007Y0082251D01*
X0056800Y0080458D01*
X0056800Y0068711D01*
X0056231Y0068141D01*
X0055850Y0067222D01*
X0055850Y0066228D01*
X0056231Y0065309D01*
X0056934Y0064606D01*
X0057853Y0064225D01*
X0058847Y0064225D01*
X0059766Y0064606D01*
X0060469Y0065309D01*
X0060850Y0066228D01*
X0060850Y0067222D01*
X0060469Y0068141D01*
X0059900Y0068711D01*
X0060373Y0068237D02*
X0070550Y0068237D01*
X0070550Y0066639D02*
X0060850Y0066639D01*
X0060201Y0065040D02*
X0070550Y0065040D01*
X0070550Y0063442D02*
X0046449Y0063442D01*
X0046449Y0063727D02*
X0041875Y0063727D01*
X0041875Y0065276D01*
X0046449Y0065276D01*
X0046449Y0067888D01*
X0046327Y0068346D01*
X0046090Y0068756D01*
X0045754Y0069092D01*
X0045344Y0069329D01*
X0044886Y0069451D01*
X0041875Y0069451D01*
X0041875Y0065276D01*
X0040325Y0065276D01*
X0040325Y0063727D01*
X0035751Y0063727D01*
X0035751Y0061115D01*
X0035873Y0060657D01*
X0036110Y0060247D01*
X0036446Y0059912D01*
X0036856Y0059675D01*
X0037314Y0059552D01*
X0040325Y0059552D01*
X0040325Y0063727D01*
X0041875Y0063727D01*
X0041875Y0059552D01*
X0044886Y0059552D01*
X0045344Y0059675D01*
X0045754Y0059912D01*
X0046090Y0060247D01*
X0046327Y0060657D01*
X0046449Y0061115D01*
X0046449Y0063727D01*
X0046449Y0061843D02*
X0070550Y0061843D01*
X0070550Y0060245D02*
X0046088Y0060245D01*
X0041875Y0060245D02*
X0040325Y0060245D01*
X0040325Y0061843D02*
X0041875Y0061843D01*
X0041875Y0063442D02*
X0040325Y0063442D01*
X0040325Y0065040D02*
X0019949Y0065040D01*
X0019949Y0063442D02*
X0035751Y0063442D01*
X0035751Y0061843D02*
X0019949Y0061843D01*
X0019381Y0060245D02*
X0036112Y0060245D01*
X0035751Y0065276D02*
X0035751Y0067888D01*
X0035873Y0068346D01*
X0036110Y0068756D01*
X0036446Y0069092D01*
X0036856Y0069329D01*
X0037314Y0069451D01*
X0040325Y0069451D01*
X0040325Y0065276D01*
X0035751Y0065276D01*
X0035751Y0066639D02*
X0019949Y0066639D01*
X0019901Y0068237D02*
X0035844Y0068237D01*
X0037012Y0071249D02*
X0045188Y0071249D01*
X0045949Y0072010D01*
X0045949Y0079387D01*
X0045188Y0080148D01*
X0037012Y0080148D01*
X0036251Y0079387D01*
X0036251Y0077650D01*
X0019949Y0077650D01*
X0019949Y0079387D01*
X0019188Y0080148D01*
X0011012Y0080148D01*
X0010251Y0079387D01*
X0010251Y0072010D01*
X0011012Y0071249D01*
X0019188Y0071249D01*
X0019949Y0072010D01*
X0019949Y0074550D01*
X0036251Y0074550D01*
X0036251Y0072010D01*
X0037012Y0071249D01*
X0036827Y0071434D02*
X0019373Y0071434D01*
X0019949Y0073033D02*
X0036251Y0073033D01*
X0040325Y0068237D02*
X0041875Y0068237D01*
X0041875Y0066639D02*
X0040325Y0066639D01*
X0041875Y0065040D02*
X0056499Y0065040D01*
X0055850Y0066639D02*
X0046449Y0066639D01*
X0046356Y0068237D02*
X0056327Y0068237D01*
X0056800Y0069836D02*
X0004100Y0069836D01*
X0004100Y0071434D02*
X0010827Y0071434D01*
X0010251Y0073033D02*
X0004100Y0073033D01*
X0004100Y0074632D02*
X0010251Y0074632D01*
X0010251Y0076230D02*
X0004100Y0076230D01*
X0004100Y0077829D02*
X0010251Y0077829D01*
X0010291Y0079427D02*
X0004100Y0079427D01*
X0004100Y0081026D02*
X0056232Y0081026D01*
X0056800Y0079427D02*
X0045909Y0079427D01*
X0045949Y0077829D02*
X0056800Y0077829D01*
X0056800Y0076230D02*
X0045949Y0076230D01*
X0045949Y0074632D02*
X0056800Y0074632D01*
X0056800Y0073033D02*
X0045949Y0073033D01*
X0045373Y0071434D02*
X0056800Y0071434D01*
X0059900Y0077829D02*
X0064429Y0077829D01*
X0062831Y0079427D02*
X0059900Y0079427D01*
X0059900Y0081026D02*
X0062425Y0081026D01*
X0059637Y0082624D02*
X0059018Y0082624D01*
X0059249Y0084223D02*
X0057419Y0084223D01*
X0056951Y0085821D02*
X0059249Y0085821D01*
X0059249Y0087420D02*
X0056951Y0087420D01*
X0056951Y0089018D02*
X0059249Y0089018D01*
X0059249Y0090617D02*
X0056951Y0090617D01*
X0058975Y0092215D02*
X0004100Y0092215D01*
X0004100Y0090617D02*
X0048052Y0090617D01*
X0048052Y0089018D02*
X0004100Y0089018D01*
X0004100Y0087420D02*
X0048052Y0087420D01*
X0048052Y0085821D02*
X0004100Y0085821D01*
X0004100Y0084223D02*
X0048052Y0084223D01*
X0048440Y0082624D02*
X0004100Y0082624D01*
X0004100Y0093814D02*
X0057819Y0093814D01*
X0056221Y0095412D02*
X0004100Y0095412D01*
X0004100Y0097011D02*
X0048054Y0097011D01*
X0048052Y0098609D02*
X0004100Y0098609D01*
X0004100Y0100208D02*
X0048052Y0100208D01*
X0048052Y0101806D02*
X0004100Y0101806D01*
X0004100Y0103405D02*
X0048052Y0103405D01*
X0048052Y0105003D02*
X0004100Y0105003D01*
X0004100Y0106602D02*
X0062425Y0106602D01*
X0062425Y0108200D02*
X0004100Y0108200D01*
X0004100Y0109799D02*
X0048266Y0109799D01*
X0048052Y0111397D02*
X0004100Y0111397D01*
X0004100Y0112996D02*
X0048052Y0112996D01*
X0048052Y0114594D02*
X0004100Y0114594D01*
X0004100Y0116193D02*
X0048052Y0116193D01*
X0048052Y0117791D02*
X0004100Y0117791D01*
X0004100Y0119390D02*
X0054600Y0119390D01*
X0055328Y0120988D02*
X0004100Y0120988D01*
X0008900Y0122587D02*
X0009300Y0122587D01*
X0009300Y0121300D02*
X0012478Y0121300D01*
X0013224Y0121418D01*
X0013943Y0121652D01*
X0014616Y0121995D01*
X0015227Y0122439D01*
X0015600Y0122812D01*
X0015973Y0122439D01*
X0016584Y0121995D01*
X0017257Y0121652D01*
X0017976Y0121418D01*
X0018722Y0121300D01*
X0021900Y0121300D01*
X0021900Y0125900D01*
X0022300Y0125900D01*
X0022300Y0126300D01*
X0021900Y0126300D01*
X0021900Y0125900D01*
X0009300Y0125900D01*
X0009300Y0121300D01*
X0009300Y0124185D02*
X0008900Y0124185D01*
X0008900Y0125784D02*
X0009300Y0125784D01*
X0009300Y0127382D02*
X0008900Y0127382D01*
X0008900Y0128981D02*
X0009300Y0128981D01*
X0009300Y0130579D02*
X0008900Y0130579D01*
X0004353Y0130579D02*
X0004100Y0130579D01*
X0004100Y0132178D02*
X0004332Y0132178D01*
X0013868Y0132178D02*
X0017332Y0132178D01*
X0017353Y0130579D02*
X0013847Y0130579D01*
X0021900Y0130579D02*
X0022300Y0130579D01*
X0022300Y0128981D02*
X0021900Y0128981D01*
X0021900Y0127382D02*
X0022300Y0127382D01*
X0022300Y0125900D02*
X0034900Y0125900D01*
X0035300Y0125900D01*
X0035300Y0126300D01*
X0034900Y0126300D01*
X0034900Y0125900D01*
X0034900Y0121300D01*
X0031722Y0121300D01*
X0030976Y0121418D01*
X0030257Y0121652D01*
X0029584Y0121995D01*
X0028973Y0122439D01*
X0028600Y0122812D01*
X0028227Y0122439D01*
X0027616Y0121995D01*
X0026943Y0121652D01*
X0026224Y0121418D01*
X0025478Y0121300D01*
X0022300Y0121300D01*
X0022300Y0125900D01*
X0022300Y0125784D02*
X0021900Y0125784D01*
X0021900Y0124185D02*
X0022300Y0124185D01*
X0022300Y0122587D02*
X0021900Y0122587D01*
X0015825Y0122587D02*
X0015375Y0122587D01*
X0028375Y0122587D02*
X0028825Y0122587D01*
X0034900Y0122587D02*
X0035300Y0122587D01*
X0035300Y0121300D02*
X0038478Y0121300D01*
X0039224Y0121418D01*
X0039943Y0121652D01*
X0040616Y0121995D01*
X0041227Y0122439D01*
X0041761Y0122973D01*
X0042205Y0123584D01*
X0042548Y0124257D01*
X0042782Y0124976D01*
X0042900Y0125722D01*
X0042900Y0125900D01*
X0035300Y0125900D01*
X0035300Y0121300D01*
X0035300Y0124185D02*
X0034900Y0124185D01*
X0034900Y0125784D02*
X0035300Y0125784D01*
X0035300Y0126300D02*
X0042900Y0126300D01*
X0042900Y0126478D01*
X0042782Y0127224D01*
X0042548Y0127943D01*
X0042205Y0128616D01*
X0041761Y0129227D01*
X0041227Y0129761D01*
X0040616Y0130205D01*
X0039943Y0130548D01*
X0039224Y0130782D01*
X0038478Y0130900D01*
X0035300Y0130900D01*
X0035300Y0126300D01*
X0035300Y0127382D02*
X0034900Y0127382D01*
X0034900Y0128981D02*
X0035300Y0128981D01*
X0035300Y0130579D02*
X0034900Y0130579D01*
X0030332Y0132178D02*
X0029263Y0132178D01*
X0039868Y0132178D02*
X0052580Y0132178D01*
X0050982Y0133776D02*
X0041792Y0133776D01*
X0042400Y0135375D02*
X0049383Y0135375D01*
X0047784Y0136973D02*
X0042392Y0136973D01*
X0039847Y0130579D02*
X0054179Y0130579D01*
X0055777Y0128981D02*
X0041940Y0128981D01*
X0042730Y0127382D02*
X0057376Y0127382D01*
X0058974Y0125784D02*
X0042900Y0125784D01*
X0042512Y0124185D02*
X0059303Y0124185D01*
X0058872Y0120988D02*
X0062425Y0120988D01*
X0062425Y0119390D02*
X0059600Y0119390D01*
X0059249Y0117791D02*
X0059202Y0117791D01*
X0059249Y0116193D02*
X0056951Y0116193D01*
X0056951Y0114594D02*
X0059249Y0114594D01*
X0059249Y0112996D02*
X0056951Y0112996D01*
X0056951Y0111397D02*
X0059249Y0111397D01*
X0059462Y0109799D02*
X0056738Y0109799D01*
X0056951Y0105003D02*
X0059249Y0105003D01*
X0059249Y0103405D02*
X0056951Y0103405D01*
X0056951Y0101806D02*
X0059249Y0101806D01*
X0059249Y0100208D02*
X0056951Y0100208D01*
X0057408Y0098609D02*
X0059249Y0098609D01*
X0059250Y0097011D02*
X0059006Y0097011D01*
X0060605Y0095412D02*
X0062425Y0095412D01*
X0068146Y0097011D02*
X0069054Y0097011D01*
X0069052Y0098609D02*
X0068148Y0098609D01*
X0068148Y0100208D02*
X0069052Y0100208D01*
X0069052Y0101806D02*
X0068148Y0101806D01*
X0068148Y0103405D02*
X0069052Y0103405D01*
X0069052Y0105003D02*
X0068148Y0105003D01*
X0069313Y0106602D02*
X0065525Y0106602D01*
X0065525Y0108200D02*
X0068350Y0108200D01*
X0068641Y0109799D02*
X0067934Y0109799D01*
X0068148Y0111397D02*
X0069052Y0111397D01*
X0069052Y0112996D02*
X0068148Y0112996D01*
X0068148Y0114594D02*
X0069052Y0114594D01*
X0069052Y0116193D02*
X0068148Y0116193D01*
X0068148Y0117791D02*
X0069052Y0117791D01*
X0062425Y0122587D02*
X0041375Y0122587D01*
X0053623Y0141769D02*
X0079300Y0141769D01*
X0079300Y0143368D02*
X0052025Y0143368D01*
X0050426Y0144966D02*
X0068269Y0144966D01*
X0068269Y0146565D02*
X0051356Y0146565D01*
X0051344Y0148163D02*
X0068269Y0148163D01*
X0068269Y0149762D02*
X0050525Y0149762D01*
X0050525Y0151360D02*
X0068269Y0151360D01*
X0068269Y0152959D02*
X0050525Y0152959D01*
X0050525Y0154557D02*
X0068269Y0154557D01*
X0068269Y0156156D02*
X0050525Y0156156D01*
X0050525Y0157754D02*
X0068269Y0157754D01*
X0068269Y0159353D02*
X0050525Y0159353D01*
X0050525Y0160951D02*
X0078807Y0160951D01*
X0077208Y0162550D02*
X0050525Y0162550D01*
X0050525Y0164148D02*
X0075610Y0164148D01*
X0074011Y0165747D02*
X0050525Y0165747D01*
X0050525Y0167345D02*
X0072413Y0167345D01*
X0070814Y0168944D02*
X0050979Y0168944D01*
X0051475Y0170542D02*
X0070550Y0170542D01*
X0070550Y0172141D02*
X0050845Y0172141D01*
X0047105Y0172141D02*
X0033489Y0172141D01*
X0033900Y0173739D02*
X0070550Y0173739D01*
X0070550Y0175338D02*
X0033900Y0175338D01*
X0033900Y0177300D02*
X0033900Y0180478D01*
X0033782Y0181224D01*
X0033548Y0181943D01*
X0033205Y0182616D01*
X0032761Y0183227D01*
X0032388Y0183600D01*
X0032761Y0183973D01*
X0033205Y0184584D01*
X0033548Y0185257D01*
X0033782Y0185976D01*
X0033900Y0186722D01*
X0033900Y0189900D01*
X0029300Y0189900D01*
X0029300Y0182300D01*
X0029300Y0177300D01*
X0033900Y0177300D01*
X0033900Y0178535D02*
X0070550Y0178535D01*
X0070550Y0180133D02*
X0033900Y0180133D01*
X0033617Y0181732D02*
X0070550Y0181732D01*
X0070550Y0183330D02*
X0032658Y0183330D01*
X0033381Y0184929D02*
X0070550Y0184929D01*
X0070550Y0186527D02*
X0033869Y0186527D01*
X0033900Y0188126D02*
X0070550Y0188126D01*
X0071657Y0189724D02*
X0033900Y0189724D01*
X0033900Y0191323D02*
X0071800Y0191323D01*
X0071800Y0192921D02*
X0033900Y0192921D01*
X0033686Y0194520D02*
X0072439Y0194520D01*
X0070550Y0176936D02*
X0029300Y0176936D01*
X0028900Y0176936D02*
X0023400Y0176936D01*
X0023400Y0175338D02*
X0024300Y0175338D01*
X0024300Y0178535D02*
X0023400Y0178535D01*
X0023400Y0180133D02*
X0024300Y0180133D01*
X0024583Y0181732D02*
X0023078Y0181732D01*
X0021951Y0183330D02*
X0025542Y0183330D01*
X0024819Y0184929D02*
X0022855Y0184929D01*
X0023400Y0186527D02*
X0024331Y0186527D01*
X0024300Y0188126D02*
X0023400Y0188126D01*
X0023400Y0189724D02*
X0024300Y0189724D01*
X0024300Y0191323D02*
X0023400Y0191323D01*
X0023400Y0192921D02*
X0024300Y0192921D01*
X0024514Y0194520D02*
X0023166Y0194520D01*
X0028900Y0189724D02*
X0029300Y0189724D01*
X0029300Y0188126D02*
X0028900Y0188126D01*
X0028900Y0186527D02*
X0029300Y0186527D01*
X0029300Y0184929D02*
X0028900Y0184929D01*
X0028900Y0183330D02*
X0029300Y0183330D01*
X0029300Y0181732D02*
X0028900Y0181732D01*
X0028900Y0180133D02*
X0029300Y0180133D01*
X0029300Y0178535D02*
X0028900Y0178535D01*
X0032330Y0170542D02*
X0046475Y0170542D01*
X0046971Y0168944D02*
X0033323Y0168944D01*
X0034922Y0167345D02*
X0047425Y0167345D01*
X0047425Y0165747D02*
X0036520Y0165747D01*
X0038119Y0164148D02*
X0047425Y0164148D01*
X0047425Y0162550D02*
X0039717Y0162550D01*
X0041316Y0160951D02*
X0047425Y0160951D01*
X0047425Y0159353D02*
X0042914Y0159353D01*
X0043650Y0157754D02*
X0047425Y0157754D01*
X0047425Y0156156D02*
X0043650Y0156156D01*
X0043650Y0154557D02*
X0047425Y0154557D01*
X0047425Y0152959D02*
X0043650Y0152959D01*
X0044032Y0151360D02*
X0047425Y0151360D01*
X0047425Y0149762D02*
X0045630Y0149762D01*
X0086775Y0120988D02*
X0093639Y0120988D01*
X0093639Y0119390D02*
X0086775Y0119390D01*
X0089148Y0117791D02*
X0093639Y0117791D01*
X0094596Y0116193D02*
X0089148Y0116193D01*
X0089148Y0114594D02*
X0108050Y0114594D01*
X0108050Y0116193D02*
X0102580Y0116193D01*
X0103538Y0117791D02*
X0105162Y0117791D01*
X0105162Y0119390D02*
X0103538Y0119390D01*
X0103538Y0120988D02*
X0105162Y0120988D01*
X0099363Y0120988D02*
X0097813Y0120988D01*
X0097813Y0119390D02*
X0099363Y0119390D01*
X0099363Y0117791D02*
X0097813Y0117791D01*
X0097813Y0116193D02*
X0099363Y0116193D01*
X0105205Y0111397D02*
X0089148Y0111397D01*
X0089148Y0112996D02*
X0106804Y0112996D01*
X0103607Y0109799D02*
X0088934Y0109799D01*
X0086775Y0108200D02*
X0099185Y0108200D01*
X0098294Y0106602D02*
X0086775Y0106602D01*
X0089148Y0105003D02*
X0098200Y0105003D01*
X0098788Y0103405D02*
X0089148Y0103405D01*
X0089148Y0101806D02*
X0101068Y0101806D01*
X0100266Y0100208D02*
X0089148Y0100208D01*
X0098256Y0085689D02*
X0098794Y0084391D01*
X0099891Y0083294D01*
X0101324Y0082700D01*
X0102876Y0082700D01*
X0103181Y0082827D01*
X0106800Y0079208D01*
X0106800Y0071715D01*
X0105021Y0071715D01*
X0104766Y0071969D01*
X0103847Y0072350D01*
X0102853Y0072350D01*
X0101934Y0071969D01*
X0101828Y0071864D01*
X0101433Y0072092D01*
X0100975Y0072215D01*
X0098363Y0072215D01*
X0098363Y0065875D01*
X0096813Y0065875D01*
X0096813Y0064325D01*
X0092639Y0064325D01*
X0092639Y0059548D01*
X0092761Y0059090D01*
X0092998Y0058680D01*
X0093333Y0058345D01*
X0093744Y0058108D01*
X0094202Y0057985D01*
X0096813Y0057985D01*
X0096813Y0064325D01*
X0098363Y0064325D01*
X0098363Y0057985D01*
X0100975Y0057985D01*
X0101433Y0058108D01*
X0101800Y0058320D01*
X0101800Y0048617D01*
X0077400Y0024217D01*
X0077400Y0064833D01*
X0098256Y0085689D01*
X0098962Y0084223D02*
X0096790Y0084223D01*
X0095191Y0082624D02*
X0103384Y0082624D01*
X0104982Y0081026D02*
X0093593Y0081026D01*
X0091994Y0079427D02*
X0106581Y0079427D01*
X0106800Y0077829D02*
X0090396Y0077829D01*
X0088797Y0076230D02*
X0106800Y0076230D01*
X0106800Y0074632D02*
X0087199Y0074632D01*
X0085600Y0073033D02*
X0106800Y0073033D01*
X0098363Y0071434D02*
X0096813Y0071434D01*
X0096813Y0072215D02*
X0094202Y0072215D01*
X0093744Y0072092D01*
X0093333Y0071855D01*
X0092998Y0071520D01*
X0092761Y0071110D01*
X0092639Y0070652D01*
X0092639Y0065875D01*
X0096813Y0065875D01*
X0096813Y0072215D01*
X0096813Y0069836D02*
X0098363Y0069836D01*
X0098363Y0068237D02*
X0096813Y0068237D01*
X0096813Y0066639D02*
X0098363Y0066639D01*
X0096813Y0065040D02*
X0077607Y0065040D01*
X0077400Y0063442D02*
X0092639Y0063442D01*
X0092639Y0061843D02*
X0077400Y0061843D01*
X0077400Y0060245D02*
X0092639Y0060245D01*
X0093032Y0058646D02*
X0077400Y0058646D01*
X0077400Y0057048D02*
X0101800Y0057048D01*
X0101800Y0055449D02*
X0077400Y0055449D01*
X0077400Y0053851D02*
X0101800Y0053851D01*
X0101800Y0052252D02*
X0077400Y0052252D01*
X0077400Y0050654D02*
X0101800Y0050654D01*
X0101800Y0049055D02*
X0077400Y0049055D01*
X0077400Y0047457D02*
X0100640Y0047457D01*
X0099041Y0045858D02*
X0077400Y0045858D01*
X0077400Y0044260D02*
X0097443Y0044260D01*
X0095844Y0042661D02*
X0077400Y0042661D01*
X0077400Y0041063D02*
X0094246Y0041063D01*
X0092647Y0039464D02*
X0077400Y0039464D01*
X0077400Y0037866D02*
X0091049Y0037866D01*
X0089450Y0036267D02*
X0077400Y0036267D01*
X0077400Y0034669D02*
X0087852Y0034669D01*
X0086253Y0033070D02*
X0077400Y0033070D01*
X0077400Y0031472D02*
X0084655Y0031472D01*
X0083056Y0029873D02*
X0077400Y0029873D01*
X0077400Y0028275D02*
X0081458Y0028275D01*
X0079859Y0026676D02*
X0077400Y0026676D01*
X0077400Y0025078D02*
X0078261Y0025078D01*
X0081323Y0021881D02*
X0116226Y0021881D01*
X0116231Y0021891D02*
X0115850Y0020972D01*
X0115850Y0019978D01*
X0116231Y0019059D01*
X0116934Y0018356D01*
X0117853Y0017975D01*
X0118847Y0017975D01*
X0119766Y0018356D01*
X0119886Y0018475D01*
X0160022Y0018475D01*
X0162600Y0015897D01*
X0163772Y0014725D01*
X0166644Y0014725D01*
X0166455Y0014536D01*
X0165800Y0012955D01*
X0165800Y0005245D01*
X0166455Y0003664D01*
X0167019Y0003100D01*
X0004100Y0003100D01*
X0004100Y0004612D01*
X0004173Y0004539D01*
X0004784Y0004095D01*
X0005457Y0003752D01*
X0006176Y0003518D01*
X0006922Y0003400D01*
X0010100Y0003400D01*
X0010100Y0008000D01*
X0010500Y0008000D01*
X0010500Y0008400D01*
X0010100Y0008400D01*
X0010100Y0013000D01*
X0006922Y0013000D01*
X0006176Y0012882D01*
X0005457Y0012648D01*
X0004784Y0012305D01*
X0004173Y0011861D01*
X0004100Y0011788D01*
X0004100Y0023119D01*
X0004864Y0022355D01*
X0006445Y0021700D01*
X0014155Y0021700D01*
X0015736Y0022355D01*
X0016945Y0023564D01*
X0017354Y0024550D01*
X0028846Y0024550D01*
X0029255Y0023564D01*
X0030464Y0022355D01*
X0032045Y0021700D01*
X0039755Y0021700D01*
X0041336Y0022355D01*
X0042545Y0023564D01*
X0042695Y0023925D01*
X0044583Y0023925D01*
X0049300Y0019208D01*
X0049860Y0018648D01*
X0047300Y0016088D01*
X0047300Y0014300D01*
X0051900Y0014300D01*
X0051900Y0013900D01*
X0052300Y0013900D01*
X0052300Y0014300D01*
X0056900Y0014300D01*
X0056900Y0016088D01*
X0054688Y0018300D01*
X0060219Y0018300D01*
X0057800Y0015881D01*
X0057800Y0012319D01*
X0060319Y0009800D01*
X0063708Y0009800D01*
X0065208Y0008300D01*
X0073992Y0008300D01*
X0074900Y0009208D01*
X0077400Y0011708D01*
X0077400Y0017958D01*
X0088992Y0029550D01*
X0173367Y0029550D01*
X0174275Y0030458D01*
X0197100Y0053283D01*
X0197100Y0003100D01*
X0193853Y0003100D01*
X0194205Y0003584D01*
X0194548Y0004257D01*
X0194782Y0004976D01*
X0194900Y0005722D01*
X0194900Y0008900D01*
X0190300Y0008900D01*
X0190300Y0009300D01*
X0189900Y0009300D01*
X0189900Y0016900D01*
X0189722Y0016900D01*
X0188976Y0016782D01*
X0188257Y0016548D01*
X0187584Y0016205D01*
X0186973Y0015761D01*
X0186439Y0015227D01*
X0185995Y0014616D01*
X0185652Y0013943D01*
X0185418Y0013224D01*
X0185300Y0012478D01*
X0185300Y0009300D01*
X0189900Y0009300D01*
X0189900Y0008900D01*
X0185300Y0008900D01*
X0185300Y0005722D01*
X0185418Y0004976D01*
X0185652Y0004257D01*
X0185995Y0003584D01*
X0186347Y0003100D01*
X0183181Y0003100D01*
X0183745Y0003664D01*
X0184400Y0005245D01*
X0184400Y0012955D01*
X0183745Y0014536D01*
X0182536Y0015745D01*
X0180955Y0016400D01*
X0179245Y0016400D01*
X0177664Y0015745D01*
X0176786Y0014867D01*
X0173584Y0018070D01*
X0173777Y0018405D01*
X0173900Y0018863D01*
X0173900Y0021150D01*
X0168550Y0021150D01*
X0168550Y0022050D01*
X0167650Y0022050D01*
X0167650Y0025900D01*
X0163863Y0025900D01*
X0163405Y0025777D01*
X0162995Y0025540D01*
X0162660Y0025205D01*
X0162423Y0024795D01*
X0162300Y0024337D01*
X0162300Y0022050D01*
X0167650Y0022050D01*
X0167650Y0021150D01*
X0163003Y0021150D01*
X0161678Y0022475D01*
X0119886Y0022475D01*
X0119766Y0022594D01*
X0118847Y0022975D01*
X0117853Y0022975D01*
X0116934Y0022594D01*
X0116231Y0021891D01*
X0115850Y0020282D02*
X0079724Y0020282D01*
X0078126Y0018684D02*
X0116606Y0018684D01*
X0087717Y0028275D02*
X0197100Y0028275D01*
X0197100Y0029873D02*
X0173690Y0029873D01*
X0175289Y0031472D02*
X0197100Y0031472D01*
X0197100Y0033070D02*
X0176887Y0033070D01*
X0178486Y0034669D02*
X0197100Y0034669D01*
X0197100Y0036267D02*
X0180084Y0036267D01*
X0181683Y0037866D02*
X0197100Y0037866D01*
X0197100Y0039464D02*
X0183281Y0039464D01*
X0184880Y0041063D02*
X0197100Y0041063D01*
X0197100Y0042661D02*
X0186478Y0042661D01*
X0188077Y0044260D02*
X0197100Y0044260D01*
X0197100Y0045858D02*
X0189675Y0045858D01*
X0191274Y0047457D02*
X0197100Y0047457D01*
X0197100Y0049055D02*
X0192872Y0049055D01*
X0194471Y0050654D02*
X0197100Y0050654D01*
X0197100Y0052252D02*
X0196069Y0052252D01*
X0197100Y0026676D02*
X0086118Y0026676D01*
X0084520Y0025078D02*
X0162586Y0025078D01*
X0162300Y0023479D02*
X0082921Y0023479D01*
X0077400Y0017085D02*
X0161411Y0017085D01*
X0163010Y0015487D02*
X0077400Y0015487D01*
X0077400Y0013888D02*
X0166186Y0013888D01*
X0165800Y0012290D02*
X0077400Y0012290D01*
X0076383Y0010691D02*
X0165800Y0010691D01*
X0165800Y0009093D02*
X0074785Y0009093D01*
X0064415Y0009093D02*
X0043618Y0009093D01*
X0043582Y0009324D02*
X0043348Y0010043D01*
X0043005Y0010716D01*
X0042561Y0011327D01*
X0042027Y0011861D01*
X0041416Y0012305D01*
X0040743Y0012648D01*
X0040024Y0012882D01*
X0039278Y0013000D01*
X0036100Y0013000D01*
X0036100Y0008400D01*
X0035700Y0008400D01*
X0035700Y0013000D01*
X0032522Y0013000D01*
X0031776Y0012882D01*
X0031057Y0012648D01*
X0030384Y0012305D01*
X0029773Y0011861D01*
X0029239Y0011327D01*
X0028795Y0010716D01*
X0028452Y0010043D01*
X0028218Y0009324D01*
X0028100Y0008578D01*
X0028100Y0008400D01*
X0035700Y0008400D01*
X0035700Y0008000D01*
X0036100Y0008000D01*
X0036100Y0008400D01*
X0043700Y0008400D01*
X0043700Y0008578D01*
X0043582Y0009324D01*
X0043700Y0008000D02*
X0036100Y0008000D01*
X0036100Y0003400D01*
X0039278Y0003400D01*
X0040024Y0003518D01*
X0040743Y0003752D01*
X0041416Y0004095D01*
X0042027Y0004539D01*
X0042561Y0005073D01*
X0043005Y0005684D01*
X0043348Y0006357D01*
X0043582Y0007076D01*
X0043700Y0007822D01*
X0043700Y0008000D01*
X0043648Y0007494D02*
X0165800Y0007494D01*
X0165800Y0005896D02*
X0043113Y0005896D01*
X0041694Y0004297D02*
X0166193Y0004297D01*
X0176167Y0015487D02*
X0177405Y0015487D01*
X0174568Y0017085D02*
X0197100Y0017085D01*
X0197100Y0015487D02*
X0193502Y0015487D01*
X0193761Y0015227D02*
X0193227Y0015761D01*
X0192616Y0016205D01*
X0191943Y0016548D01*
X0191224Y0016782D01*
X0190478Y0016900D01*
X0190300Y0016900D01*
X0190300Y0009300D01*
X0194900Y0009300D01*
X0194900Y0012478D01*
X0194782Y0013224D01*
X0194548Y0013943D01*
X0194205Y0014616D01*
X0193761Y0015227D01*
X0194566Y0013888D02*
X0197100Y0013888D01*
X0197100Y0012290D02*
X0194900Y0012290D01*
X0194900Y0010691D02*
X0197100Y0010691D01*
X0197100Y0009093D02*
X0190300Y0009093D01*
X0189900Y0009093D02*
X0184400Y0009093D01*
X0184400Y0010691D02*
X0185300Y0010691D01*
X0185300Y0012290D02*
X0184400Y0012290D01*
X0184014Y0013888D02*
X0185634Y0013888D01*
X0186698Y0015487D02*
X0182795Y0015487D01*
X0189900Y0015487D02*
X0190300Y0015487D01*
X0190300Y0013888D02*
X0189900Y0013888D01*
X0189900Y0012290D02*
X0190300Y0012290D01*
X0190300Y0010691D02*
X0189900Y0010691D01*
X0185300Y0007494D02*
X0184400Y0007494D01*
X0184400Y0005896D02*
X0185300Y0005896D01*
X0185639Y0004297D02*
X0184007Y0004297D01*
X0194561Y0004297D02*
X0197100Y0004297D01*
X0197100Y0005896D02*
X0194900Y0005896D01*
X0194900Y0007494D02*
X0197100Y0007494D01*
X0197100Y0018684D02*
X0173852Y0018684D01*
X0173900Y0020282D02*
X0197100Y0020282D01*
X0197100Y0021881D02*
X0168550Y0021881D01*
X0168550Y0022050D02*
X0173900Y0022050D01*
X0173900Y0024337D01*
X0173777Y0024795D01*
X0173540Y0025205D01*
X0173205Y0025540D01*
X0172795Y0025777D01*
X0172337Y0025900D01*
X0168550Y0025900D01*
X0168550Y0022050D01*
X0167650Y0021881D02*
X0162273Y0021881D01*
X0167650Y0023479D02*
X0168550Y0023479D01*
X0168550Y0025078D02*
X0167650Y0025078D01*
X0173614Y0025078D02*
X0197100Y0025078D01*
X0197100Y0023479D02*
X0173900Y0023479D01*
X0098363Y0058646D02*
X0096813Y0058646D01*
X0096813Y0060245D02*
X0098363Y0060245D01*
X0098363Y0061843D02*
X0096813Y0061843D01*
X0096813Y0063442D02*
X0098363Y0063442D01*
X0092639Y0066639D02*
X0079206Y0066639D01*
X0080805Y0068237D02*
X0092639Y0068237D01*
X0092639Y0069836D02*
X0082403Y0069836D01*
X0084002Y0071434D02*
X0092949Y0071434D01*
X0070550Y0058646D02*
X0018650Y0058646D01*
X0018650Y0057048D02*
X0070550Y0057048D01*
X0070550Y0055449D02*
X0018650Y0055449D01*
X0015550Y0055449D02*
X0004100Y0055449D01*
X0004100Y0053851D02*
X0015550Y0053851D01*
X0015550Y0052252D02*
X0004100Y0052252D01*
X0004100Y0050654D02*
X0015550Y0050654D01*
X0015550Y0049055D02*
X0004100Y0049055D01*
X0004100Y0047457D02*
X0013321Y0047457D01*
X0013052Y0045858D02*
X0004100Y0045858D01*
X0004100Y0044260D02*
X0013052Y0044260D01*
X0013052Y0042661D02*
X0004100Y0042661D01*
X0004100Y0041063D02*
X0013052Y0041063D01*
X0013052Y0039464D02*
X0004100Y0039464D01*
X0004100Y0037866D02*
X0021049Y0037866D01*
X0021951Y0039464D02*
X0022647Y0039464D01*
X0021951Y0041063D02*
X0024246Y0041063D01*
X0024249Y0042661D02*
X0021951Y0042661D01*
X0021951Y0044260D02*
X0024249Y0044260D01*
X0024249Y0045858D02*
X0021951Y0045858D01*
X0021682Y0047457D02*
X0024518Y0047457D01*
X0018650Y0049055D02*
X0070550Y0049055D01*
X0070550Y0047457D02*
X0032879Y0047457D01*
X0033148Y0045858D02*
X0070550Y0045858D01*
X0070550Y0044260D02*
X0033148Y0044260D01*
X0033148Y0042661D02*
X0070550Y0042661D01*
X0070550Y0041063D02*
X0033148Y0041063D01*
X0033148Y0039464D02*
X0070550Y0039464D01*
X0070550Y0037866D02*
X0025433Y0037866D01*
X0023834Y0036267D02*
X0070550Y0036267D01*
X0070550Y0034669D02*
X0022236Y0034669D01*
X0020637Y0033070D02*
X0070550Y0033070D01*
X0070550Y0031472D02*
X0019039Y0031472D01*
X0017440Y0029873D02*
X0031014Y0029873D01*
X0029188Y0028275D02*
X0017012Y0028275D01*
X0014655Y0031472D02*
X0004100Y0031472D01*
X0004100Y0033070D02*
X0016253Y0033070D01*
X0017852Y0034669D02*
X0004100Y0034669D01*
X0004100Y0036267D02*
X0019450Y0036267D01*
X0016860Y0023479D02*
X0029340Y0023479D01*
X0031609Y0021881D02*
X0014591Y0021881D01*
X0013678Y0013000D02*
X0010500Y0013000D01*
X0010500Y0008400D01*
X0018100Y0008400D01*
X0018100Y0008578D01*
X0017982Y0009324D01*
X0017748Y0010043D01*
X0017405Y0010716D01*
X0016961Y0011327D01*
X0016427Y0011861D01*
X0015816Y0012305D01*
X0015143Y0012648D01*
X0014424Y0012882D01*
X0013678Y0013000D01*
X0015837Y0012290D02*
X0030363Y0012290D01*
X0028782Y0010691D02*
X0017418Y0010691D01*
X0018018Y0009093D02*
X0028182Y0009093D01*
X0028100Y0008000D02*
X0028100Y0007822D01*
X0028218Y0007076D01*
X0028452Y0006357D01*
X0028795Y0005684D01*
X0029239Y0005073D01*
X0029773Y0004539D01*
X0030384Y0004095D01*
X0031057Y0003752D01*
X0031776Y0003518D01*
X0032522Y0003400D01*
X0035700Y0003400D01*
X0035700Y0008000D01*
X0028100Y0008000D01*
X0028152Y0007494D02*
X0018048Y0007494D01*
X0018100Y0007822D02*
X0018100Y0008000D01*
X0010500Y0008000D01*
X0010500Y0003400D01*
X0013678Y0003400D01*
X0014424Y0003518D01*
X0015143Y0003752D01*
X0015816Y0004095D01*
X0016427Y0004539D01*
X0016961Y0005073D01*
X0017405Y0005684D01*
X0017748Y0006357D01*
X0017982Y0007076D01*
X0018100Y0007822D01*
X0017513Y0005896D02*
X0028687Y0005896D01*
X0030106Y0004297D02*
X0016094Y0004297D01*
X0010500Y0004297D02*
X0010100Y0004297D01*
X0010100Y0005896D02*
X0010500Y0005896D01*
X0010500Y0007494D02*
X0010100Y0007494D01*
X0010100Y0009093D02*
X0010500Y0009093D01*
X0010500Y0010691D02*
X0010100Y0010691D01*
X0010100Y0012290D02*
X0010500Y0012290D01*
X0004763Y0012290D02*
X0004100Y0012290D01*
X0004100Y0013888D02*
X0047300Y0013888D01*
X0047300Y0013900D02*
X0047300Y0012112D01*
X0050112Y0009300D01*
X0051900Y0009300D01*
X0051900Y0013900D01*
X0047300Y0013900D01*
X0047300Y0015487D02*
X0004100Y0015487D01*
X0004100Y0017085D02*
X0048297Y0017085D01*
X0049824Y0018684D02*
X0004100Y0018684D01*
X0004100Y0020282D02*
X0048226Y0020282D01*
X0046627Y0021881D02*
X0040191Y0021881D01*
X0042460Y0023479D02*
X0045029Y0023479D01*
X0046216Y0026676D02*
X0048595Y0026676D01*
X0050194Y0028275D02*
X0042612Y0028275D01*
X0040786Y0029873D02*
X0070550Y0029873D01*
X0070194Y0028275D02*
X0064006Y0028275D01*
X0065605Y0026676D02*
X0068595Y0026676D01*
X0067800Y0025078D02*
X0066400Y0025078D01*
X0066400Y0023479D02*
X0067800Y0023479D01*
X0068238Y0021881D02*
X0066011Y0021881D01*
X0058238Y0021881D02*
X0055962Y0021881D01*
X0056400Y0023479D02*
X0057800Y0023479D01*
X0057800Y0025078D02*
X0056400Y0025078D01*
X0055605Y0026676D02*
X0058595Y0026676D01*
X0060194Y0028275D02*
X0054006Y0028275D01*
X0055903Y0017085D02*
X0059004Y0017085D01*
X0057800Y0015487D02*
X0056900Y0015487D01*
X0056900Y0013900D02*
X0052300Y0013900D01*
X0052300Y0009300D01*
X0054088Y0009300D01*
X0056900Y0012112D01*
X0056900Y0013900D01*
X0056900Y0013888D02*
X0057800Y0013888D01*
X0057829Y0012290D02*
X0056900Y0012290D01*
X0055479Y0010691D02*
X0059428Y0010691D01*
X0052300Y0010691D02*
X0051900Y0010691D01*
X0051900Y0012290D02*
X0052300Y0012290D01*
X0052300Y0013888D02*
X0051900Y0013888D01*
X0048721Y0010691D02*
X0043018Y0010691D01*
X0041437Y0012290D02*
X0047300Y0012290D01*
X0036100Y0012290D02*
X0035700Y0012290D01*
X0035700Y0010691D02*
X0036100Y0010691D01*
X0036100Y0009093D02*
X0035700Y0009093D01*
X0035700Y0007494D02*
X0036100Y0007494D01*
X0036100Y0005896D02*
X0035700Y0005896D01*
X0035700Y0004297D02*
X0036100Y0004297D01*
X0004506Y0004297D02*
X0004100Y0004297D01*
X0004100Y0021881D02*
X0006009Y0021881D01*
X0005414Y0029873D02*
X0004100Y0029873D01*
X0018650Y0050654D02*
X0070550Y0050654D01*
X0036251Y0077829D02*
X0019949Y0077829D01*
X0019909Y0079427D02*
X0036291Y0079427D01*
X0015550Y0058646D02*
X0004100Y0058646D01*
X0004100Y0057048D02*
X0015550Y0057048D01*
X0010819Y0060245D02*
X0004100Y0060245D01*
X0004100Y0061843D02*
X0010251Y0061843D01*
X0010251Y0063442D02*
X0004100Y0063442D01*
X0004100Y0065040D02*
X0010251Y0065040D01*
X0010251Y0066639D02*
X0004100Y0066639D01*
X0004100Y0068237D02*
X0010299Y0068237D01*
X0146967Y0177800D02*
X0147881Y0177800D01*
X0150400Y0180319D01*
X0150400Y0180800D01*
X0153992Y0180800D01*
X0160643Y0187451D01*
X0160643Y0185336D01*
X0161799Y0182543D01*
X0162766Y0181577D01*
X0158433Y0181577D01*
X0157783Y0181474D01*
X0157158Y0181271D01*
X0156572Y0180973D01*
X0156040Y0180586D01*
X0155575Y0180121D01*
X0155188Y0179589D01*
X0154890Y0179003D01*
X0154686Y0178378D01*
X0154583Y0177728D01*
X0154583Y0177399D01*
X0154583Y0177070D01*
X0154686Y0176421D01*
X0154890Y0175795D01*
X0155188Y0175209D01*
X0155575Y0174677D01*
X0156040Y0174212D01*
X0156406Y0173946D01*
X0155643Y0173183D01*
X0155083Y0171832D01*
X0155083Y0170368D01*
X0155568Y0169199D01*
X0146967Y0177800D01*
X0147831Y0176936D02*
X0154605Y0176936D01*
X0154583Y0177399D02*
X0163517Y0177399D01*
X0163517Y0177399D01*
X0154583Y0177399D01*
X0154737Y0178535D02*
X0148616Y0178535D01*
X0150214Y0180133D02*
X0155587Y0180133D01*
X0154924Y0181732D02*
X0162611Y0181732D01*
X0161473Y0183330D02*
X0156522Y0183330D01*
X0158121Y0184929D02*
X0160811Y0184929D01*
X0160643Y0186527D02*
X0159719Y0186527D01*
X0155123Y0175338D02*
X0149429Y0175338D01*
X0151028Y0173739D02*
X0156199Y0173739D01*
X0155212Y0172141D02*
X0152626Y0172141D01*
X0154225Y0170542D02*
X0155083Y0170542D01*
D25*
X0157725Y0164850D02*
X0140225Y0182350D01*
X0140225Y0193600D01*
X0137725Y0196100D01*
X0124600Y0196100D01*
X0120850Y0192350D01*
X0120850Y0156725D01*
X0122100Y0156612D01*
X0122100Y0156725D01*
X0120850Y0156725D01*
X0102725Y0156725D01*
X0098350Y0161100D01*
X0098300Y0161200D01*
X0096475Y0167350D02*
X0092100Y0162975D01*
X0083975Y0162975D01*
X0080850Y0162975D02*
X0080850Y0164225D01*
X0080850Y0162975D02*
X0088350Y0155475D01*
X0103975Y0155475D01*
X0121475Y0137975D01*
X0130850Y0137975D01*
X0128350Y0131725D02*
X0118350Y0131725D01*
X0116475Y0129850D01*
X0102725Y0129850D01*
X0109612Y0123100D02*
X0109600Y0122975D01*
X0109600Y0113600D01*
X0102100Y0106100D01*
X0102100Y0105600D01*
X0099600Y0097350D02*
X0117100Y0114850D01*
X0117100Y0128600D01*
X0118975Y0130475D01*
X0125850Y0130475D01*
X0128350Y0127975D01*
X0128975Y0125475D02*
X0127725Y0125475D01*
X0123350Y0121100D01*
X0123350Y0107975D01*
X0122100Y0106725D01*
X0122100Y0104225D01*
X0122100Y0099850D01*
X0112725Y0090475D01*
X0112725Y0071100D01*
X0116475Y0067350D01*
X0118975Y0065475D02*
X0105850Y0052350D01*
X0103350Y0047975D02*
X0103350Y0069850D01*
X0108350Y0065475D02*
X0108612Y0065100D01*
X0108350Y0065475D02*
X0108350Y0079850D01*
X0102100Y0086100D01*
X0102100Y0086600D01*
X0099600Y0097350D02*
X0089600Y0097350D01*
X0085225Y0101100D02*
X0084698Y0101100D01*
X0085225Y0101100D02*
X0085225Y0090475D01*
X0085698Y0087100D01*
X0085225Y0086725D01*
X0085225Y0084850D01*
X0072100Y0071725D01*
X0072100Y0052975D01*
X0017100Y0052975D01*
X0017100Y0043600D01*
X0017502Y0043100D01*
X0017100Y0052975D02*
X0017100Y0062350D01*
X0015225Y0064225D01*
X0015100Y0064502D01*
X0015100Y0075698D02*
X0015225Y0076100D01*
X0040850Y0076100D01*
X0041100Y0075698D01*
X0052725Y0086725D02*
X0052502Y0087100D01*
X0052725Y0086725D02*
X0058350Y0081100D01*
X0058350Y0066725D01*
X0070225Y0077350D02*
X0072100Y0077350D01*
X0073350Y0076100D01*
X0074600Y0076100D01*
X0080225Y0081725D01*
X0080225Y0126725D01*
X0080850Y0127350D01*
X0080850Y0161100D01*
X0072100Y0169850D01*
X0072100Y0187975D01*
X0075850Y0191725D01*
X0076100Y0192100D01*
X0096475Y0167350D02*
X0112100Y0167350D01*
X0112100Y0187975D01*
X0115850Y0191725D01*
X0116100Y0192100D01*
X0122100Y0187975D02*
X0125850Y0191725D01*
X0126100Y0192100D01*
X0122100Y0187975D02*
X0122100Y0180475D01*
X0133350Y0169225D01*
X0133350Y0129850D01*
X0128975Y0125475D01*
X0128350Y0124225D02*
X0129600Y0124225D01*
X0149600Y0144225D01*
X0191475Y0144225D01*
X0195225Y0140475D01*
X0195225Y0137350D01*
X0191475Y0133600D01*
X0191475Y0129225D01*
X0191100Y0129100D01*
X0187100Y0128600D02*
X0187100Y0092975D01*
X0190850Y0089225D01*
X0191100Y0089100D01*
X0195225Y0094850D02*
X0191475Y0098600D01*
X0191100Y0099100D01*
X0195225Y0094850D02*
X0195225Y0067350D01*
X0193975Y0066100D01*
X0193975Y0061100D01*
X0196475Y0054850D02*
X0172725Y0031100D01*
X0088350Y0031100D01*
X0100225Y0042975D01*
X0116475Y0042975D01*
X0140850Y0067350D01*
X0140850Y0068600D01*
X0139600Y0069850D01*
X0139600Y0074850D01*
X0142100Y0078600D02*
X0140850Y0079850D01*
X0140850Y0091100D01*
X0138350Y0091725D02*
X0149600Y0102975D01*
X0150225Y0102975D01*
X0153975Y0102975D01*
X0177100Y0079850D01*
X0177100Y0072975D01*
X0180850Y0069225D01*
X0181100Y0069100D01*
X0179600Y0064850D02*
X0182725Y0064850D01*
X0187100Y0069225D01*
X0187100Y0074850D01*
X0190850Y0078600D01*
X0191100Y0079100D01*
X0191100Y0069100D02*
X0190850Y0068600D01*
X0175850Y0053600D01*
X0179600Y0064850D02*
X0175850Y0068600D01*
X0147725Y0040475D01*
X0100850Y0040475D01*
X0103350Y0047975D02*
X0072100Y0016725D01*
X0072100Y0014100D01*
X0075850Y0012350D02*
X0075850Y0018600D01*
X0088350Y0031100D01*
X0075850Y0022350D02*
X0073350Y0019850D01*
X0065850Y0019850D01*
X0050850Y0019850D01*
X0045225Y0025475D01*
X0036475Y0025475D01*
X0035900Y0026000D01*
X0035850Y0026100D01*
X0011475Y0026100D01*
X0010300Y0026000D01*
X0010850Y0025475D01*
X0011475Y0026100D01*
X0028350Y0042975D01*
X0028698Y0043100D01*
X0062100Y0024100D02*
X0062100Y0023600D01*
X0065850Y0019850D01*
X0062100Y0014100D02*
X0062100Y0013600D01*
X0065850Y0009850D01*
X0073350Y0009850D01*
X0075850Y0012350D01*
X0075850Y0022350D02*
X0075850Y0065475D01*
X0107725Y0097350D01*
X0116475Y0097350D01*
X0113975Y0089850D02*
X0113975Y0071725D01*
X0115850Y0069850D01*
X0118975Y0069850D01*
X0118975Y0070475D01*
X0132100Y0083600D01*
X0133975Y0083600D01*
X0138350Y0084850D02*
X0138350Y0091725D01*
X0139600Y0098600D02*
X0128350Y0087350D01*
X0116475Y0075475D01*
X0116475Y0072350D02*
X0150850Y0106725D01*
X0153350Y0106725D01*
X0180850Y0079225D01*
X0181100Y0079100D01*
X0175850Y0077975D02*
X0175850Y0068600D01*
X0175850Y0077975D02*
X0153350Y0100475D01*
X0150225Y0099850D02*
X0168350Y0081725D01*
X0180850Y0089225D02*
X0181100Y0089100D01*
X0180850Y0089225D02*
X0160850Y0109225D01*
X0151475Y0109225D01*
X0149600Y0107350D01*
X0137100Y0107350D01*
X0137100Y0110475D02*
X0169600Y0110475D01*
X0180850Y0099225D01*
X0181100Y0099100D01*
X0169600Y0117350D02*
X0180850Y0128600D01*
X0181100Y0129100D01*
X0182725Y0132975D02*
X0187100Y0128600D01*
X0182725Y0132975D02*
X0155225Y0132975D01*
X0142100Y0119850D01*
X0138975Y0119850D01*
X0135850Y0119850D02*
X0154600Y0138600D01*
X0180850Y0138600D01*
X0181100Y0139100D01*
X0187100Y0142975D02*
X0190850Y0139225D01*
X0191100Y0139100D01*
X0187100Y0142975D02*
X0150850Y0142975D01*
X0130850Y0122975D01*
X0129600Y0122975D01*
X0127100Y0120475D01*
X0127100Y0119225D01*
X0129600Y0116725D01*
X0129600Y0108600D01*
X0137100Y0110475D02*
X0124600Y0097975D01*
X0124600Y0087350D01*
X0113975Y0089850D02*
X0124600Y0100475D01*
X0124600Y0120475D01*
X0128350Y0124225D01*
X0129600Y0119850D02*
X0135850Y0119850D01*
X0132100Y0117350D02*
X0147100Y0117350D01*
X0147100Y0121725D01*
X0147100Y0117350D02*
X0169600Y0117350D01*
X0154600Y0091725D02*
X0143350Y0080475D01*
X0142100Y0078600D02*
X0142100Y0066725D01*
X0133350Y0057975D01*
X0133350Y0045475D01*
X0113975Y0054225D02*
X0129600Y0069850D01*
X0129600Y0076100D01*
X0138350Y0084850D01*
X0132100Y0074225D02*
X0138350Y0067975D01*
X0125850Y0069225D02*
X0113350Y0056725D01*
X0113975Y0054225D02*
X0111475Y0054225D01*
X0118975Y0065475D02*
X0118975Y0069850D01*
X0125850Y0069225D02*
X0125850Y0074225D01*
X0139600Y0098600D02*
X0139600Y0099850D01*
X0120850Y0108600D02*
X0120850Y0126725D01*
X0119600Y0127975D01*
X0116475Y0109225D02*
X0087100Y0079850D01*
X0085698Y0087100D02*
X0085225Y0087350D01*
X0085225Y0090475D01*
X0090850Y0090475D01*
X0085225Y0101100D02*
X0085225Y0113600D01*
X0084698Y0114100D01*
X0085225Y0114225D01*
X0085225Y0137975D01*
X0097725Y0150475D01*
X0097725Y0151725D01*
X0098300Y0152100D01*
X0091475Y0151100D02*
X0086475Y0146100D01*
X0065850Y0127350D02*
X0042100Y0151100D01*
X0042100Y0157975D01*
X0030225Y0169850D01*
X0026475Y0169850D01*
X0019600Y0176725D01*
X0019100Y0177100D01*
X0009100Y0177100D02*
X0008975Y0176725D01*
X0008975Y0156100D01*
X0009100Y0156100D01*
X0022100Y0156100D01*
X0035100Y0156100D01*
X0035225Y0156100D01*
X0035225Y0154850D01*
X0063975Y0126100D01*
X0063975Y0114225D01*
X0063698Y0114100D01*
X0063975Y0113600D01*
X0063975Y0101100D01*
X0063698Y0101100D01*
X0063975Y0101100D02*
X0063975Y0087350D01*
X0063698Y0087100D01*
X0063975Y0086725D01*
X0063975Y0080475D01*
X0072100Y0072350D01*
X0072100Y0071725D01*
X0073975Y0078600D02*
X0078975Y0083600D01*
X0078975Y0096100D01*
X0073975Y0101100D01*
X0073502Y0101100D01*
X0070850Y0108600D02*
X0070850Y0111100D01*
X0073350Y0113600D01*
X0073502Y0114100D01*
X0061475Y0125475D02*
X0047100Y0139850D01*
X0032725Y0139850D01*
X0026475Y0146100D01*
X0022100Y0146100D01*
X0028350Y0152350D02*
X0034600Y0146100D01*
X0035100Y0146100D01*
X0022100Y0136100D02*
X0028350Y0129850D01*
X0048975Y0147350D02*
X0048975Y0170475D01*
X0009100Y0177100D02*
X0008975Y0177350D01*
X0008975Y0189850D01*
X0009100Y0190100D01*
X0057100Y0119225D02*
X0052100Y0114225D01*
X0052502Y0114100D01*
X0052502Y0101100D02*
X0052725Y0101100D01*
X0061475Y0092350D01*
X0072100Y0084850D02*
X0072100Y0081725D01*
X0072100Y0084850D02*
X0073975Y0086725D01*
X0074502Y0087100D01*
X0072100Y0052975D02*
X0072100Y0024100D01*
X0168100Y0034600D02*
X0168350Y0034850D01*
X0168350Y0039225D01*
X0196475Y0054850D02*
X0196475Y0157350D01*
X0178350Y0175475D01*
X0178350Y0186725D01*
X0170850Y0194225D01*
X0165225Y0194225D01*
X0153350Y0182350D01*
X0146475Y0182350D01*
X0146100Y0182100D01*
X0136100Y0182100D02*
X0158350Y0159850D01*
X0158350Y0149225D01*
X0157725Y0164850D02*
X0163350Y0164850D01*
X0163517Y0164801D01*
D26*
X0158350Y0149225D03*
X0147100Y0121725D03*
X0138975Y0119850D03*
X0132100Y0117350D03*
X0129600Y0119850D03*
X0128350Y0127975D03*
X0128350Y0131725D03*
X0130850Y0137975D03*
X0119600Y0127975D03*
X0102725Y0129850D03*
X0086475Y0146100D03*
X0091475Y0151100D03*
X0083975Y0162975D03*
X0080850Y0164225D03*
X0112100Y0167350D03*
X0080850Y0127350D03*
X0065850Y0127350D03*
X0061475Y0125475D03*
X0057100Y0119225D03*
X0070850Y0108600D03*
X0061475Y0092350D03*
X0072100Y0081725D03*
X0073975Y0078600D03*
X0070225Y0077350D03*
X0058350Y0066725D03*
X0087100Y0079850D03*
X0090850Y0090475D03*
X0089600Y0097350D03*
X0116475Y0097350D03*
X0122100Y0104225D03*
X0120850Y0108600D03*
X0116475Y0109225D03*
X0129600Y0108600D03*
X0137100Y0107350D03*
X0139600Y0099850D03*
X0140850Y0091100D03*
X0133975Y0083600D03*
X0128350Y0087350D03*
X0124600Y0087350D03*
X0125850Y0074225D03*
X0132100Y0074225D03*
X0138350Y0067975D03*
X0139600Y0074850D03*
X0143350Y0080475D03*
X0154600Y0091725D03*
X0153350Y0100475D03*
X0150225Y0099850D03*
X0150225Y0102975D03*
X0153350Y0106725D03*
X0168350Y0081725D03*
X0193975Y0061100D03*
X0175850Y0053600D03*
X0168350Y0039225D03*
X0133350Y0045475D03*
X0113350Y0056725D03*
X0111475Y0054225D03*
X0105850Y0052350D03*
X0100850Y0040475D03*
X0118350Y0020475D03*
X0116475Y0067350D03*
X0116475Y0072350D03*
X0116475Y0075475D03*
X0103350Y0069850D03*
X0028350Y0129850D03*
X0048975Y0147350D03*
X0028350Y0152350D03*
X0048975Y0170475D03*
D27*
X0118350Y0020475D02*
X0160850Y0020475D01*
X0164600Y0016725D01*
X0172100Y0016725D01*
X0179600Y0009225D01*
X0180100Y0009100D01*
M02*
