G75*
%MOIN*%
%OFA0B0*%
%FSLAX25Y25*%
%IPPOS*%
%LPD*%
%AMOC8*
5,1,8,0,0,1.08239X$1,22.5*
%
%ADD10C,0.00000*%
%ADD11C,0.06400*%
%ADD12R,0.05124X0.01581*%
%ADD13R,0.01581X0.05124*%
%ADD14OC8,0.06400*%
%ADD15R,0.06699X0.07498*%
%ADD16R,0.07498X0.06699*%
%ADD17R,0.08400X0.05400*%
%ADD18C,0.15400*%
%ADD19C,0.12998*%
%ADD20C,0.05156*%
%ADD21C,0.05600*%
%ADD22R,0.06699X0.11030*%
D10*
X0002550Y0001000D02*
X0002550Y0197850D01*
X0199400Y0197850D01*
X0199400Y0001000D01*
X0002550Y0001000D01*
D11*
X0007750Y0007100D02*
X0013750Y0007100D01*
X0013750Y0024900D02*
X0007750Y0024900D01*
X0033350Y0024900D02*
X0039350Y0024900D01*
X0039350Y0007100D02*
X0033350Y0007100D01*
X0092550Y0007000D02*
X0092550Y0013000D01*
X0092550Y0021000D02*
X0092550Y0027000D01*
X0102550Y0027000D02*
X0102550Y0021000D01*
X0102550Y0013000D02*
X0102550Y0007000D01*
X0112550Y0007000D02*
X0112550Y0013000D01*
X0112550Y0021000D02*
X0112550Y0027000D01*
X0148550Y0013000D02*
X0148550Y0007000D01*
X0158550Y0007000D02*
X0158550Y0013000D01*
X0168550Y0013000D02*
X0168550Y0007000D01*
D12*
X0121282Y0077173D03*
X0121282Y0079142D03*
X0121282Y0081110D03*
X0121282Y0083079D03*
X0121282Y0085047D03*
X0121282Y0087016D03*
X0121282Y0088984D03*
X0121282Y0090953D03*
X0121282Y0092921D03*
X0121282Y0094890D03*
X0121282Y0096858D03*
X0121282Y0098827D03*
X0087818Y0098827D03*
X0087818Y0096858D03*
X0087818Y0094890D03*
X0087818Y0092921D03*
X0087818Y0090953D03*
X0087818Y0088984D03*
X0087818Y0087016D03*
X0087818Y0085047D03*
X0087818Y0083079D03*
X0087818Y0081110D03*
X0087818Y0079142D03*
X0087818Y0077173D03*
D13*
X0093723Y0071268D03*
X0095692Y0071268D03*
X0097660Y0071268D03*
X0099629Y0071268D03*
X0101597Y0071268D03*
X0103566Y0071268D03*
X0105534Y0071268D03*
X0107503Y0071268D03*
X0109471Y0071268D03*
X0111440Y0071268D03*
X0113408Y0071268D03*
X0115377Y0071268D03*
X0115377Y0104732D03*
X0113408Y0104732D03*
X0111440Y0104732D03*
X0109471Y0104732D03*
X0107503Y0104732D03*
X0105534Y0104732D03*
X0103566Y0104732D03*
X0101597Y0104732D03*
X0099629Y0104732D03*
X0097660Y0104732D03*
X0095692Y0104732D03*
X0093723Y0104732D03*
D14*
X0090550Y0182000D03*
X0100550Y0182000D03*
X0100550Y0192000D03*
X0090550Y0192000D03*
X0080550Y0192000D03*
X0080550Y0182000D03*
X0110550Y0182000D03*
X0110550Y0192000D03*
X0120550Y0192000D03*
X0120550Y0182000D03*
X0130550Y0182000D03*
X0140550Y0182000D03*
X0140550Y0192000D03*
X0130550Y0192000D03*
X0150550Y0192000D03*
X0150550Y0182000D03*
X0179550Y0181000D03*
X0179550Y0191000D03*
X0189550Y0191000D03*
X0189550Y0181000D03*
X0189550Y0171000D03*
X0189550Y0161000D03*
X0189550Y0151000D03*
X0189550Y0141000D03*
X0189550Y0131000D03*
X0189550Y0121000D03*
X0179550Y0121000D03*
X0179550Y0131000D03*
X0179550Y0141000D03*
X0179550Y0151000D03*
X0179550Y0161000D03*
X0179550Y0171000D03*
X0074550Y0023000D03*
X0074550Y0013000D03*
X0064550Y0013000D03*
X0064550Y0023000D03*
X0054550Y0023000D03*
X0054550Y0013000D03*
D15*
X0030148Y0037000D03*
X0018952Y0037000D03*
X0022148Y0069000D03*
X0032952Y0069000D03*
X0044148Y0069000D03*
X0043148Y0083000D03*
X0031952Y0083000D03*
X0022148Y0083000D03*
X0010952Y0083000D03*
X0010952Y0069000D03*
X0136952Y0084000D03*
X0136952Y0094000D03*
X0148148Y0094000D03*
X0148148Y0084000D03*
D16*
X0142550Y0133402D03*
X0142550Y0144598D03*
X0037550Y0058598D03*
X0037550Y0047402D03*
X0012550Y0047402D03*
X0012550Y0058598D03*
D17*
X0178550Y0034500D03*
X0178550Y0021500D03*
D18*
X0190196Y0072252D03*
X0190196Y0103748D03*
X0044298Y0187646D03*
X0012802Y0187646D03*
D19*
X0012802Y0169142D03*
X0044298Y0169142D03*
X0171692Y0103748D03*
X0171692Y0072252D03*
D20*
X0166967Y0081701D02*
X0162211Y0081701D01*
X0162211Y0088000D02*
X0166967Y0088000D01*
X0172085Y0084850D02*
X0176841Y0084850D01*
X0176841Y0091150D02*
X0172085Y0091150D01*
X0166967Y0094299D02*
X0162211Y0094299D01*
X0034849Y0159661D02*
X0034849Y0164417D01*
X0031700Y0169535D02*
X0031700Y0174291D01*
X0025400Y0174291D02*
X0025400Y0169535D01*
X0022251Y0164417D02*
X0022251Y0159661D01*
X0028550Y0159661D02*
X0028550Y0164417D01*
D21*
X0075550Y0156500D03*
X0075550Y0137500D03*
X0073550Y0098500D03*
X0073550Y0079500D03*
D22*
X0068038Y0061000D03*
X0079062Y0061000D03*
X0082062Y0118000D03*
X0071038Y0118000D03*
M02*
