G75*
%MOIN*%
%OFA0B0*%
%FSLAX25Y25*%
%IPPOS*%
%LPD*%
%AMOC8*
5,1,8,0,0,1.08239X$1,22.5*
%
%ADD10C,0.00000*%
%ADD11C,0.06000*%
%ADD12R,0.10630X0.06299*%
%ADD13OC8,0.06000*%
%ADD14R,0.02362X0.05512*%
%ADD15R,0.08000X0.05000*%
%ADD16R,0.07098X0.06299*%
%ADD17C,0.15000*%
%ADD18C,0.12598*%
%ADD19C,0.04756*%
%ADD20R,0.04800X0.08800*%
%ADD21R,0.14173X0.08661*%
%ADD22R,0.06299X0.07087*%
%ADD23R,0.06299X0.07098*%
%ADD24C,0.05200*%
%ADD25R,0.02362X0.04724*%
%ADD26R,0.07087X0.06299*%
%ADD27C,0.00500*%
%ADD28C,0.02400*%
%ADD29C,0.01600*%
%ADD30C,0.01000*%
D10*
X0002550Y0001000D02*
X0002550Y0197850D01*
X0199400Y0197850D01*
X0199400Y0001000D01*
X0002550Y0001000D01*
D11*
X0007750Y0007100D02*
X0013750Y0007100D01*
X0013750Y0024900D02*
X0007750Y0024900D01*
X0033350Y0024900D02*
X0039350Y0024900D01*
X0039350Y0007100D02*
X0033350Y0007100D01*
X0092550Y0007000D02*
X0092550Y0013000D01*
X0092550Y0021000D02*
X0092550Y0027000D01*
X0102550Y0027000D02*
X0102550Y0021000D01*
X0102550Y0013000D02*
X0102550Y0007000D01*
X0112550Y0007000D02*
X0112550Y0013000D01*
X0112550Y0021000D02*
X0112550Y0027000D01*
X0148550Y0013000D02*
X0148550Y0007000D01*
X0158550Y0007000D02*
X0158550Y0013000D01*
X0168550Y0013000D02*
X0168550Y0007000D01*
D12*
X0136550Y0048488D03*
X0136550Y0059512D03*
D13*
X0074550Y0023000D03*
X0074550Y0013000D03*
X0064550Y0013000D03*
X0064550Y0023000D03*
X0054550Y0023000D03*
X0054550Y0013000D03*
X0179550Y0121000D03*
X0179550Y0131000D03*
X0179550Y0141000D03*
X0179550Y0151000D03*
X0179550Y0161000D03*
X0179550Y0171000D03*
X0179550Y0181000D03*
X0179550Y0191000D03*
X0189550Y0191000D03*
X0189550Y0181000D03*
X0189550Y0171000D03*
X0189550Y0161000D03*
X0189550Y0151000D03*
X0189550Y0141000D03*
X0189550Y0131000D03*
X0189550Y0121000D03*
X0150550Y0182000D03*
X0150550Y0192000D03*
X0140550Y0192000D03*
X0130550Y0192000D03*
X0130550Y0182000D03*
X0140550Y0182000D03*
X0120550Y0182000D03*
X0120550Y0192000D03*
X0110550Y0192000D03*
X0110550Y0182000D03*
X0100550Y0182000D03*
X0090550Y0182000D03*
X0090550Y0192000D03*
X0100550Y0192000D03*
X0080550Y0192000D03*
X0080550Y0182000D03*
D14*
X0149050Y0040630D03*
X0154050Y0040630D03*
X0159050Y0040630D03*
X0164050Y0040630D03*
X0164050Y0019370D03*
X0159050Y0019370D03*
X0154050Y0019370D03*
X0149050Y0019370D03*
D15*
X0159550Y0048500D03*
X0159550Y0061500D03*
D16*
X0177550Y0056598D03*
X0177550Y0045402D03*
X0178550Y0033598D03*
X0189550Y0033598D03*
X0189550Y0045402D03*
X0189550Y0056598D03*
X0189550Y0022402D03*
X0178550Y0022402D03*
D17*
X0190196Y0072252D03*
X0190196Y0103748D03*
X0044298Y0187646D03*
X0012802Y0187646D03*
D18*
X0012802Y0169142D03*
X0044298Y0169142D03*
X0171692Y0103748D03*
X0171692Y0072252D03*
D19*
X0166967Y0081701D02*
X0162211Y0081701D01*
X0162211Y0088000D02*
X0166967Y0088000D01*
X0172085Y0084850D02*
X0176841Y0084850D01*
X0176841Y0091150D02*
X0172085Y0091150D01*
X0166967Y0094299D02*
X0162211Y0094299D01*
X0034849Y0159661D02*
X0034849Y0164417D01*
X0031700Y0169535D02*
X0031700Y0174291D01*
X0025400Y0174291D02*
X0025400Y0169535D01*
X0022251Y0164417D02*
X0022251Y0159661D01*
X0028550Y0159661D02*
X0028550Y0164417D01*
D20*
X0099450Y0151200D03*
X0108550Y0151200D03*
X0117650Y0151200D03*
D21*
X0108550Y0126799D03*
D22*
X0060062Y0155000D03*
X0049038Y0155000D03*
X0047038Y0115000D03*
X0058062Y0115000D03*
X0108038Y0057000D03*
X0119062Y0057000D03*
X0137038Y0072000D03*
X0148062Y0072000D03*
D23*
X0043148Y0070000D03*
X0031952Y0070000D03*
X0022148Y0070000D03*
X0010952Y0070000D03*
X0010952Y0082000D03*
X0022148Y0082000D03*
X0031952Y0082000D03*
X0043148Y0082000D03*
D24*
X0073550Y0079500D03*
X0073550Y0098500D03*
X0075550Y0137500D03*
X0075550Y0156500D03*
D25*
X0055050Y0147024D03*
X0050050Y0147024D03*
X0045050Y0147024D03*
X0040050Y0147024D03*
X0035050Y0147024D03*
X0030050Y0147024D03*
X0025050Y0147024D03*
X0020050Y0147024D03*
X0020050Y0124976D03*
X0025050Y0124976D03*
X0030050Y0124976D03*
X0035050Y0124976D03*
X0040050Y0124976D03*
X0045050Y0124976D03*
X0050050Y0124976D03*
X0055050Y0124976D03*
D26*
X0010550Y0133488D03*
X0010550Y0144512D03*
D27*
X0010675Y0144750D01*
X0010675Y0146625D01*
X0020050Y0146625D01*
X0020050Y0147024D01*
X0020050Y0147250D01*
X0021925Y0149125D01*
X0021925Y0164125D01*
X0022251Y0164417D01*
X0021925Y0164750D01*
X0021925Y0178500D01*
X0047550Y0178500D01*
X0053800Y0172250D01*
X0053800Y0161625D01*
X0060050Y0155375D01*
X0060062Y0155000D01*
X0060050Y0154750D01*
X0060050Y0121000D01*
X0060675Y0121000D01*
X0060050Y0121000D02*
X0060050Y0117250D01*
X0058175Y0115375D01*
X0058062Y0115000D01*
X0057550Y0114750D01*
X0056925Y0114125D01*
X0056925Y0040375D01*
X0068800Y0028500D01*
X0068800Y0021000D01*
X0065050Y0017250D01*
X0055050Y0017250D01*
X0055050Y0013500D01*
X0054550Y0013000D01*
X0054425Y0013500D01*
X0050050Y0017875D01*
X0050050Y0029750D01*
X0043800Y0028500D02*
X0005050Y0067250D01*
X0005050Y0173500D01*
X0028550Y0164417D02*
X0028800Y0164125D01*
X0028800Y0158500D01*
X0040050Y0147250D01*
X0040050Y0147024D01*
X0044425Y0147875D02*
X0045050Y0147250D01*
X0045050Y0147024D01*
X0044425Y0147875D02*
X0044425Y0159125D01*
X0046925Y0161625D01*
X0051925Y0161625D01*
X0051925Y0172250D01*
X0047550Y0176625D01*
X0031925Y0176625D01*
X0031925Y0169750D01*
X0031700Y0169535D01*
X0049038Y0155000D02*
X0049425Y0155375D01*
X0054425Y0155375D01*
X0049425Y0154750D02*
X0049038Y0155000D01*
X0049425Y0154750D02*
X0049425Y0147875D01*
X0050050Y0147250D01*
X0050050Y0147024D01*
X0053175Y0144750D02*
X0057550Y0140375D01*
X0053175Y0144750D02*
X0055050Y0146625D01*
X0055050Y0147024D01*
X0053175Y0144750D02*
X0047550Y0139125D01*
X0047550Y0115375D01*
X0047038Y0115000D01*
X0042550Y0114125D02*
X0039425Y0111000D01*
X0039425Y0106000D01*
X0040050Y0105375D01*
X0040050Y0102875D01*
X0023800Y0086625D01*
X0010675Y0086625D01*
X0010675Y0132875D01*
X0010550Y0133488D01*
X0020050Y0124976D02*
X0020050Y0106625D01*
X0020050Y0089125D01*
X0022550Y0082250D02*
X0022148Y0082000D01*
X0022550Y0082250D02*
X0041925Y0101625D01*
X0041925Y0109750D01*
X0042550Y0114125D02*
X0042550Y0139125D01*
X0035050Y0146625D01*
X0035050Y0147024D01*
X0032550Y0144125D02*
X0030050Y0146625D01*
X0030050Y0147024D01*
X0030050Y0148500D01*
X0032550Y0151000D01*
X0032550Y0144125D02*
X0032550Y0109125D01*
X0037550Y0104125D01*
X0052550Y0116625D02*
X0052550Y0091625D01*
X0043175Y0082250D01*
X0043148Y0082000D01*
X0037550Y0077875D02*
X0037550Y0075375D01*
X0032550Y0070375D01*
X0031952Y0070000D01*
X0031925Y0076000D02*
X0031925Y0081625D01*
X0031952Y0082000D01*
X0031925Y0076000D02*
X0020050Y0076000D01*
X0022148Y0070000D02*
X0022550Y0069750D01*
X0030050Y0062250D01*
X0052550Y0062250D01*
X0043148Y0070000D02*
X0043175Y0070375D01*
X0043175Y0073500D01*
X0049425Y0073500D01*
X0055050Y0082875D02*
X0055050Y0038500D01*
X0064425Y0029125D01*
X0064425Y0023500D01*
X0064550Y0023000D01*
X0060050Y0028500D02*
X0060050Y0029750D01*
X0060050Y0028500D02*
X0054550Y0023000D01*
X0043800Y0028500D02*
X0043800Y0008500D01*
X0076300Y0008500D01*
X0078800Y0011000D01*
X0078800Y0019125D01*
X0088800Y0029125D01*
X0088800Y0047875D01*
X0096300Y0055375D01*
X0098800Y0054125D02*
X0092550Y0047875D01*
X0085050Y0046000D02*
X0084425Y0045375D01*
X0085050Y0046000D02*
X0085050Y0106000D01*
X0090050Y0111000D01*
X0090050Y0127875D01*
X0080050Y0126625D02*
X0080050Y0181625D01*
X0080550Y0182000D01*
X0075050Y0182250D02*
X0075050Y0173500D01*
X0071300Y0169750D01*
X0071300Y0124125D01*
X0078800Y0116625D01*
X0078800Y0051000D01*
X0081925Y0047875D01*
X0098800Y0054125D02*
X0098800Y0074125D01*
X0096925Y0076000D01*
X0095050Y0077875D02*
X0086925Y0069750D01*
X0086925Y0029125D01*
X0075050Y0017250D01*
X0075050Y0013500D01*
X0074550Y0013000D01*
X0098175Y0014750D02*
X0102550Y0010375D01*
X0102550Y0010000D01*
X0098175Y0014750D02*
X0098175Y0028500D01*
X0100675Y0031000D01*
X0100675Y0098500D01*
X0101300Y0099125D01*
X0103800Y0101000D02*
X0103800Y0096625D01*
X0107550Y0092875D01*
X0107550Y0076000D01*
X0102550Y0071000D01*
X0102550Y0024000D01*
X0112550Y0024000D02*
X0112550Y0052250D01*
X0108175Y0056625D01*
X0108038Y0057000D01*
X0108175Y0057250D01*
X0108175Y0071000D01*
X0113175Y0076000D01*
X0118800Y0075375D02*
X0118800Y0150375D01*
X0118175Y0151000D01*
X0117650Y0151200D01*
X0117550Y0151625D01*
X0115675Y0153500D01*
X0115675Y0159750D01*
X0113175Y0153500D02*
X0113175Y0145375D01*
X0100050Y0132250D01*
X0100050Y0115375D01*
X0106300Y0109125D01*
X0108800Y0106000D02*
X0103800Y0101000D01*
X0106300Y0099750D02*
X0108800Y0097250D01*
X0116925Y0097250D01*
X0116925Y0137875D01*
X0116300Y0138500D01*
X0124425Y0142250D02*
X0126925Y0144750D01*
X0126925Y0132250D01*
X0127550Y0131625D01*
X0127550Y0107875D01*
X0126925Y0107250D01*
X0126925Y0087875D01*
X0127550Y0087250D01*
X0128800Y0084750D02*
X0131925Y0087875D01*
X0131925Y0112250D01*
X0131925Y0136000D01*
X0129425Y0133500D02*
X0129425Y0090375D01*
X0128800Y0084750D02*
X0128800Y0081000D01*
X0126925Y0079125D02*
X0125050Y0081000D01*
X0125050Y0109125D01*
X0122550Y0106625D02*
X0122550Y0081625D01*
X0125050Y0079125D01*
X0125050Y0013500D01*
X0123800Y0011000D02*
X0136925Y0011000D01*
X0136925Y0002875D01*
X0170675Y0002875D01*
X0173175Y0005375D01*
X0173175Y0017875D01*
X0161300Y0029750D01*
X0161300Y0038500D01*
X0159425Y0040375D01*
X0159050Y0040630D01*
X0159425Y0041000D01*
X0159425Y0048500D01*
X0159550Y0048500D01*
X0165050Y0041625D02*
X0165050Y0067250D01*
X0158175Y0074125D01*
X0155675Y0067250D02*
X0155675Y0092250D01*
X0158175Y0094750D01*
X0158175Y0116000D01*
X0167550Y0125375D01*
X0170050Y0117250D02*
X0170050Y0181625D01*
X0179425Y0191000D01*
X0179550Y0191000D01*
X0183800Y0192875D02*
X0181300Y0195375D01*
X0166925Y0195375D01*
X0166925Y0138500D01*
X0172550Y0144125D02*
X0172550Y0145375D01*
X0180050Y0145375D01*
X0183800Y0149125D01*
X0183800Y0151000D01*
X0189550Y0151000D01*
X0183800Y0144125D02*
X0183800Y0136625D01*
X0189425Y0131000D01*
X0189550Y0131000D01*
X0189425Y0121000D02*
X0189550Y0121000D01*
X0189425Y0121000D02*
X0179425Y0111000D01*
X0179425Y0099125D01*
X0178800Y0098500D01*
X0181300Y0090375D02*
X0176300Y0085375D01*
X0172550Y0085375D01*
X0172085Y0084850D01*
X0181300Y0086625D02*
X0183175Y0088500D01*
X0181300Y0086625D02*
X0181300Y0064750D01*
X0174425Y0064750D01*
X0168800Y0059125D01*
X0159550Y0061500D02*
X0157550Y0059125D01*
X0136925Y0059125D01*
X0136550Y0059512D01*
X0136925Y0059750D01*
X0136925Y0071625D01*
X0137038Y0072000D01*
X0131300Y0069125D02*
X0131300Y0083500D01*
X0136300Y0083500D02*
X0136300Y0121625D01*
X0136925Y0122250D01*
X0136925Y0133500D01*
X0134425Y0131000D01*
X0136925Y0133500D02*
X0139425Y0136000D01*
X0139425Y0151625D01*
X0136925Y0147250D02*
X0136925Y0163500D01*
X0141925Y0173500D02*
X0150050Y0181625D01*
X0150550Y0182000D01*
X0155675Y0186625D02*
X0150675Y0191625D01*
X0150550Y0192000D01*
X0155675Y0186625D02*
X0155675Y0112875D01*
X0146925Y0104125D01*
X0143800Y0104750D02*
X0153175Y0114125D01*
X0153175Y0128500D01*
X0144425Y0139125D02*
X0144425Y0107250D01*
X0138800Y0101625D01*
X0138800Y0106625D02*
X0141925Y0109750D01*
X0141925Y0173500D01*
X0130550Y0182000D02*
X0130050Y0181625D01*
X0130050Y0147875D01*
X0126925Y0144750D01*
X0125050Y0149750D02*
X0125050Y0187250D01*
X0120675Y0191625D01*
X0120550Y0192000D01*
X0120550Y0182000D02*
X0120050Y0181625D01*
X0120050Y0177875D01*
X0108175Y0177875D01*
X0092550Y0162250D01*
X0092550Y0084750D01*
X0095050Y0087250D02*
X0095050Y0077875D01*
X0095050Y0087250D02*
X0097550Y0089750D01*
X0094425Y0092875D01*
X0094425Y0160375D01*
X0106925Y0172875D01*
X0109425Y0171625D02*
X0109425Y0175375D01*
X0109425Y0171625D02*
X0105050Y0167250D01*
X0105050Y0148500D01*
X0096925Y0140375D01*
X0096925Y0094750D01*
X0104425Y0092250D02*
X0104425Y0080375D01*
X0105050Y0079750D01*
X0118800Y0075375D02*
X0122550Y0071625D01*
X0118800Y0068500D02*
X0118800Y0057250D01*
X0119062Y0057000D01*
X0119425Y0056625D01*
X0122550Y0053500D01*
X0122550Y0031625D01*
X0117550Y0031625D01*
X0116925Y0028500D02*
X0114425Y0031000D01*
X0114425Y0060375D01*
X0113175Y0061625D01*
X0118800Y0068500D02*
X0118175Y0069125D01*
X0126925Y0079125D02*
X0126925Y0039750D01*
X0127550Y0039125D01*
X0122550Y0031625D02*
X0122550Y0012250D01*
X0123800Y0011000D01*
X0116925Y0005375D02*
X0114425Y0002875D01*
X0018175Y0002875D01*
X0018175Y0050375D01*
X0005050Y0063500D01*
X0010952Y0070000D02*
X0011300Y0069750D01*
X0019425Y0061625D01*
X0011300Y0076000D02*
X0011300Y0081625D01*
X0010952Y0082000D01*
X0054425Y0083500D02*
X0055050Y0082875D01*
X0059425Y0084750D02*
X0062550Y0087875D01*
X0062550Y0119125D01*
X0063175Y0119750D01*
X0063175Y0123500D01*
X0065675Y0112250D02*
X0064425Y0111000D01*
X0064425Y0084750D01*
X0061925Y0082250D01*
X0061925Y0077250D02*
X0067550Y0082875D01*
X0067550Y0171625D01*
X0070050Y0174125D01*
X0072550Y0172875D02*
X0072550Y0183500D01*
X0076925Y0187875D01*
X0090050Y0187875D01*
X0090050Y0191625D01*
X0090550Y0192000D01*
X0096300Y0187875D02*
X0100050Y0191625D01*
X0100550Y0192000D01*
X0096300Y0187875D02*
X0096300Y0181625D01*
X0083175Y0168500D01*
X0083175Y0070375D01*
X0082550Y0069750D01*
X0073800Y0064750D02*
X0073800Y0079125D01*
X0073550Y0079500D01*
X0069425Y0074750D02*
X0069425Y0169750D01*
X0072550Y0172875D01*
X0065675Y0178500D02*
X0078800Y0191625D01*
X0080050Y0191625D01*
X0080550Y0192000D01*
X0090050Y0181625D02*
X0090550Y0182000D01*
X0090050Y0181625D02*
X0083800Y0175375D01*
X0065675Y0178500D02*
X0065675Y0112250D01*
X0073800Y0110375D02*
X0073800Y0098500D01*
X0073550Y0098500D01*
X0073800Y0110375D02*
X0076300Y0112875D01*
X0076300Y0122875D02*
X0080050Y0126625D01*
X0099450Y0151200D02*
X0099425Y0151625D01*
X0096925Y0154125D01*
X0096925Y0157875D01*
X0108550Y0151200D02*
X0108800Y0151000D01*
X0108800Y0144750D01*
X0124425Y0132250D02*
X0125050Y0131625D01*
X0125050Y0123500D01*
X0121925Y0124125D02*
X0121925Y0163500D01*
X0136925Y0147250D02*
X0129425Y0139750D01*
X0134425Y0123500D02*
X0134425Y0078500D01*
X0133800Y0077875D01*
X0136300Y0083500D02*
X0141300Y0078500D01*
X0148175Y0072250D02*
X0148062Y0072000D01*
X0148175Y0072250D02*
X0151300Y0075375D01*
X0151300Y0077875D01*
X0155675Y0067250D02*
X0156300Y0066625D01*
X0153800Y0065375D02*
X0158800Y0060375D01*
X0159550Y0061500D01*
X0159425Y0061000D01*
X0158800Y0060375D01*
X0157550Y0059125D01*
X0154425Y0056000D01*
X0154425Y0041000D01*
X0154050Y0040630D01*
X0153800Y0040375D01*
X0151300Y0037875D01*
X0166300Y0022875D01*
X0166300Y0012250D01*
X0168550Y0010000D01*
X0151300Y0021625D02*
X0151300Y0037875D01*
X0149050Y0040630D02*
X0148800Y0041000D01*
X0145675Y0044125D01*
X0136925Y0047875D02*
X0136550Y0048488D01*
X0136925Y0047875D02*
X0136925Y0011000D01*
X0149050Y0019370D02*
X0149425Y0019750D01*
X0151300Y0021625D01*
X0164050Y0040630D02*
X0164425Y0041000D01*
X0165050Y0041625D01*
X0177550Y0045375D02*
X0177550Y0045402D01*
X0177550Y0045375D02*
X0178175Y0044750D01*
X0178175Y0039125D01*
X0178175Y0034125D01*
X0178550Y0033598D01*
X0178800Y0033500D01*
X0189425Y0033500D01*
X0189550Y0033598D01*
X0189425Y0034125D01*
X0189425Y0045375D01*
X0189550Y0045402D01*
X0153800Y0065375D02*
X0153800Y0094125D01*
X0143800Y0104750D02*
X0143800Y0064125D01*
X0116925Y0028500D02*
X0116925Y0005375D01*
X0064425Y0069750D02*
X0069425Y0074750D01*
X0108800Y0106000D02*
X0108800Y0114750D01*
X0111925Y0117875D01*
X0111925Y0114125D02*
X0111925Y0101625D01*
X0110050Y0099750D01*
X0121300Y0123500D02*
X0121925Y0124125D01*
X0170050Y0117250D02*
X0176925Y0110375D01*
X0181300Y0109125D02*
X0181300Y0090375D01*
X0181300Y0109125D02*
X0185050Y0112875D01*
X0180050Y0181000D02*
X0179550Y0181000D01*
X0180050Y0181000D02*
X0183800Y0184750D01*
X0183800Y0192875D01*
X0027550Y0144125D02*
X0027550Y0142250D01*
X0027550Y0144125D02*
X0025050Y0146625D01*
X0025050Y0147024D01*
D28*
X0027550Y0142250D03*
X0032550Y0151000D03*
X0054425Y0155375D03*
X0057550Y0140375D03*
X0063175Y0123500D03*
X0060675Y0121000D03*
X0052550Y0116625D03*
X0041925Y0109750D03*
X0037550Y0104125D03*
X0020050Y0106625D03*
X0020050Y0089125D03*
X0020050Y0076000D03*
X0011300Y0076000D03*
X0005050Y0063500D03*
X0019425Y0061625D03*
X0037550Y0077875D03*
X0049425Y0073500D03*
X0054425Y0083500D03*
X0059425Y0084750D03*
X0061925Y0082250D03*
X0061925Y0077250D03*
X0064425Y0069750D03*
X0073800Y0064750D03*
X0082550Y0069750D03*
X0096925Y0076000D03*
X0105050Y0079750D03*
X0107550Y0076000D03*
X0113175Y0076000D03*
X0118175Y0069125D03*
X0122550Y0071625D03*
X0131300Y0069125D03*
X0133800Y0077875D03*
X0128800Y0081000D03*
X0131300Y0083500D03*
X0127550Y0087250D03*
X0129425Y0090375D03*
X0138800Y0101625D03*
X0138800Y0106625D03*
X0131925Y0112250D03*
X0125050Y0109125D03*
X0122550Y0106625D03*
X0111925Y0114125D03*
X0111925Y0117875D03*
X0106300Y0109125D03*
X0106300Y0099750D03*
X0110050Y0099750D03*
X0104425Y0092250D03*
X0097550Y0089750D03*
X0096925Y0094750D03*
X0101300Y0099125D03*
X0090050Y0111000D03*
X0076300Y0112875D03*
X0076300Y0122875D03*
X0090050Y0127875D03*
X0108800Y0144750D03*
X0116300Y0138500D03*
X0124425Y0142250D03*
X0129425Y0139750D03*
X0131925Y0136000D03*
X0129425Y0133500D03*
X0124425Y0132250D03*
X0125050Y0123500D03*
X0121300Y0123500D03*
X0134425Y0123500D03*
X0134425Y0131000D03*
X0144425Y0139125D03*
X0153175Y0128500D03*
X0167550Y0125375D03*
X0166925Y0138500D03*
X0172550Y0144125D03*
X0183800Y0144125D03*
X0185050Y0112875D03*
X0176925Y0110375D03*
X0178800Y0098500D03*
X0183175Y0088500D03*
X0158175Y0074125D03*
X0156300Y0066625D03*
X0151300Y0077875D03*
X0141300Y0078500D03*
X0143800Y0064125D03*
X0145675Y0044125D03*
X0127550Y0039125D03*
X0117550Y0031625D03*
X0125050Y0013500D03*
X0092550Y0047875D03*
X0096300Y0055375D03*
X0084425Y0045375D03*
X0081925Y0047875D03*
X0060050Y0029750D03*
X0055050Y0038500D03*
X0050050Y0029750D03*
X0052550Y0062250D03*
X0092550Y0084750D03*
X0113175Y0061625D03*
X0153800Y0094125D03*
X0146925Y0104125D03*
X0125050Y0149750D03*
X0115675Y0159750D03*
X0113175Y0153500D03*
X0121925Y0163500D03*
X0109425Y0175375D03*
X0106925Y0172875D03*
X0096925Y0157875D03*
X0083800Y0175375D03*
X0075050Y0182250D03*
X0070050Y0174125D03*
X0005050Y0173500D03*
X0136925Y0163500D03*
X0139425Y0151625D03*
X0168800Y0059125D03*
X0178175Y0039125D03*
X0172550Y0027875D03*
X0179425Y0016625D03*
D29*
X0171318Y0016922D02*
X0171066Y0017105D01*
X0170393Y0017448D01*
X0169674Y0017682D01*
X0168928Y0017800D01*
X0168750Y0017800D01*
X0168750Y0010200D01*
X0168350Y0010200D01*
X0168350Y0017800D01*
X0168172Y0017800D01*
X0167426Y0017682D01*
X0166838Y0017491D01*
X0166838Y0021586D01*
X0171318Y0017106D01*
X0171318Y0016922D01*
X0171318Y0016985D02*
X0171231Y0016985D01*
X0169840Y0018584D02*
X0166838Y0018584D01*
X0166838Y0020182D02*
X0168242Y0020182D01*
X0168350Y0016985D02*
X0168750Y0016985D01*
X0168750Y0015387D02*
X0168350Y0015387D01*
X0168350Y0013788D02*
X0168750Y0013788D01*
X0168750Y0012190D02*
X0168350Y0012190D01*
X0168350Y0010591D02*
X0168750Y0010591D01*
X0168350Y0010200D02*
X0168350Y0009800D01*
X0163750Y0009800D01*
X0163750Y0006622D01*
X0163868Y0005876D01*
X0164102Y0005157D01*
X0164318Y0004732D01*
X0162597Y0004732D01*
X0163157Y0006084D01*
X0163157Y0013916D01*
X0162705Y0015007D01*
X0164186Y0015007D01*
X0164102Y0014843D01*
X0163868Y0014124D01*
X0163750Y0013378D01*
X0163750Y0010200D01*
X0168350Y0010200D01*
X0163750Y0010591D02*
X0163157Y0010591D01*
X0163157Y0008993D02*
X0163750Y0008993D01*
X0163750Y0007394D02*
X0163157Y0007394D01*
X0163038Y0005796D02*
X0163894Y0005796D01*
X0163750Y0012190D02*
X0163157Y0012190D01*
X0163157Y0013788D02*
X0163815Y0013788D01*
X0161550Y0023080D02*
X0160897Y0023733D01*
X0157203Y0023733D01*
X0156550Y0023080D01*
X0155897Y0023733D01*
X0152203Y0023733D01*
X0151682Y0023212D01*
X0151671Y0023231D01*
X0151336Y0023566D01*
X0150926Y0023803D01*
X0150468Y0023926D01*
X0149050Y0023926D01*
X0149050Y0019370D01*
X0146069Y0019370D01*
X0146069Y0016959D01*
X0145940Y0016906D01*
X0144644Y0015610D01*
X0143943Y0013916D01*
X0143943Y0006084D01*
X0144503Y0004732D01*
X0138782Y0004732D01*
X0138782Y0043731D01*
X0142531Y0043731D01*
X0142868Y0044069D01*
X0142868Y0043567D01*
X0143295Y0042535D01*
X0144085Y0041745D01*
X0145117Y0041318D01*
X0145856Y0041318D01*
X0146262Y0040912D01*
X0146262Y0037208D01*
X0147203Y0036267D01*
X0150897Y0036267D01*
X0151418Y0036788D01*
X0151429Y0036769D01*
X0151764Y0036434D01*
X0152174Y0036197D01*
X0152632Y0036074D01*
X0154050Y0036074D01*
X0155468Y0036074D01*
X0155926Y0036197D01*
X0156336Y0036434D01*
X0156671Y0036769D01*
X0156682Y0036788D01*
X0157203Y0036267D01*
X0159443Y0036267D01*
X0159443Y0028981D01*
X0164691Y0023733D01*
X0162203Y0023733D01*
X0161550Y0023080D01*
X0161251Y0023379D02*
X0161849Y0023379D01*
X0163446Y0024978D02*
X0138782Y0024978D01*
X0138782Y0026576D02*
X0161847Y0026576D01*
X0160249Y0028175D02*
X0138782Y0028175D01*
X0138782Y0029773D02*
X0159443Y0029773D01*
X0159443Y0031372D02*
X0138782Y0031372D01*
X0138782Y0032970D02*
X0159443Y0032970D01*
X0159443Y0034569D02*
X0138782Y0034569D01*
X0138782Y0036167D02*
X0152284Y0036167D01*
X0154050Y0036167D02*
X0154050Y0036167D01*
X0154050Y0036074D02*
X0154050Y0040630D01*
X0154050Y0040630D01*
X0154050Y0045186D01*
X0154091Y0045186D01*
X0153943Y0045334D01*
X0153943Y0051666D01*
X0154884Y0052607D01*
X0163193Y0052607D01*
X0163193Y0057200D01*
X0160000Y0057200D01*
X0160000Y0061050D01*
X0159100Y0061050D01*
X0159100Y0057200D01*
X0155313Y0057200D01*
X0154855Y0057323D01*
X0154445Y0057560D01*
X0154110Y0057895D01*
X0153873Y0058305D01*
X0153750Y0058763D01*
X0153750Y0061050D01*
X0159100Y0061050D01*
X0159100Y0061950D01*
X0159100Y0065800D01*
X0158997Y0065800D01*
X0159107Y0066067D01*
X0159107Y0067183D01*
X0158680Y0068215D01*
X0157890Y0069005D01*
X0157532Y0069153D01*
X0157532Y0071353D01*
X0157617Y0071318D01*
X0158356Y0071318D01*
X0163193Y0066481D01*
X0163193Y0065800D01*
X0160000Y0065800D01*
X0160000Y0061950D01*
X0159100Y0061950D01*
X0153750Y0061950D01*
X0153750Y0064237D01*
X0153873Y0064695D01*
X0154015Y0064941D01*
X0153920Y0065035D01*
X0153493Y0066067D01*
X0153493Y0067183D01*
X0153818Y0067968D01*
X0153818Y0076619D01*
X0153680Y0076285D01*
X0153157Y0075762D01*
X0153157Y0074606D01*
X0152818Y0074267D01*
X0152818Y0067791D01*
X0151877Y0066850D01*
X0145657Y0066850D01*
X0145657Y0066238D01*
X0146180Y0065715D01*
X0146607Y0064683D01*
X0146607Y0063567D01*
X0146180Y0062535D01*
X0145390Y0061745D01*
X0144358Y0061318D01*
X0143665Y0061318D01*
X0143665Y0060287D01*
X0137325Y0060287D01*
X0135775Y0060287D01*
X0135775Y0064461D01*
X0130998Y0064461D01*
X0130540Y0064339D01*
X0130130Y0064102D01*
X0129795Y0063767D01*
X0129558Y0063356D01*
X0129435Y0062898D01*
X0129435Y0060287D01*
X0135775Y0060287D01*
X0135775Y0058737D01*
X0129435Y0058737D01*
X0129435Y0056125D01*
X0129558Y0055667D01*
X0129795Y0055257D01*
X0130130Y0054922D01*
X0130540Y0054685D01*
X0130998Y0054562D01*
X0135775Y0054562D01*
X0135775Y0058737D01*
X0137325Y0058737D01*
X0137325Y0060287D01*
X0137325Y0064461D01*
X0140993Y0064461D01*
X0140993Y0064683D01*
X0141420Y0065715D01*
X0141943Y0066238D01*
X0141943Y0068052D01*
X0141865Y0067762D01*
X0141628Y0067351D01*
X0141293Y0067016D01*
X0140883Y0066779D01*
X0140425Y0066657D01*
X0137813Y0066657D01*
X0137813Y0071225D01*
X0136263Y0071225D01*
X0136263Y0066657D01*
X0133652Y0066657D01*
X0133194Y0066779D01*
X0133023Y0066878D01*
X0132890Y0066745D01*
X0131858Y0066318D01*
X0130742Y0066318D01*
X0129710Y0066745D01*
X0128920Y0067535D01*
X0128782Y0067869D01*
X0128782Y0041653D01*
X0129140Y0041505D01*
X0129930Y0040715D01*
X0130357Y0039683D01*
X0130357Y0038567D01*
X0129930Y0037535D01*
X0129140Y0036745D01*
X0128108Y0036318D01*
X0126992Y0036318D01*
X0126907Y0036353D01*
X0126907Y0015613D01*
X0127430Y0015090D01*
X0127857Y0014058D01*
X0127857Y0012942D01*
X0127822Y0012857D01*
X0135068Y0012857D01*
X0135068Y0043731D01*
X0130569Y0043731D01*
X0129628Y0044673D01*
X0129628Y0052303D01*
X0130569Y0053245D01*
X0142531Y0053245D01*
X0143472Y0052303D01*
X0143472Y0045892D01*
X0144085Y0046505D01*
X0145117Y0046932D01*
X0146233Y0046932D01*
X0147265Y0046505D01*
X0148055Y0045715D01*
X0148354Y0044993D01*
X0150897Y0044993D01*
X0151418Y0044472D01*
X0151429Y0044491D01*
X0151764Y0044826D01*
X0152174Y0045063D01*
X0152632Y0045186D01*
X0154050Y0045186D01*
X0154050Y0040630D01*
X0154050Y0040630D01*
X0154050Y0036074D01*
X0154050Y0037766D02*
X0154050Y0037766D01*
X0154050Y0039364D02*
X0154050Y0039364D01*
X0154050Y0040963D02*
X0154050Y0040963D01*
X0154050Y0042561D02*
X0154050Y0042561D01*
X0154050Y0044160D02*
X0154050Y0044160D01*
X0153943Y0045758D02*
X0148011Y0045758D01*
X0143472Y0047357D02*
X0153943Y0047357D01*
X0153943Y0048955D02*
X0143472Y0048955D01*
X0143472Y0050554D02*
X0153943Y0050554D01*
X0154430Y0052152D02*
X0143472Y0052152D01*
X0142560Y0054685D02*
X0142970Y0054922D01*
X0143305Y0055257D01*
X0143542Y0055667D01*
X0143665Y0056125D01*
X0143665Y0058737D01*
X0137325Y0058737D01*
X0137325Y0054562D01*
X0142102Y0054562D01*
X0142560Y0054685D01*
X0143359Y0055349D02*
X0163193Y0055349D01*
X0163193Y0053751D02*
X0128782Y0053751D01*
X0128782Y0055349D02*
X0129741Y0055349D01*
X0129435Y0056948D02*
X0128782Y0056948D01*
X0128782Y0058546D02*
X0129435Y0058546D01*
X0128782Y0060145D02*
X0135775Y0060145D01*
X0137325Y0060145D02*
X0153750Y0060145D01*
X0153808Y0058546D02*
X0143665Y0058546D01*
X0143665Y0056948D02*
X0163193Y0056948D01*
X0160000Y0058546D02*
X0159100Y0058546D01*
X0159100Y0060145D02*
X0160000Y0060145D01*
X0159100Y0061743D02*
X0145386Y0061743D01*
X0146514Y0063342D02*
X0153750Y0063342D01*
X0154015Y0064940D02*
X0146501Y0064940D01*
X0145657Y0066539D02*
X0153493Y0066539D01*
X0153818Y0068137D02*
X0152818Y0068137D01*
X0152818Y0069736D02*
X0153818Y0069736D01*
X0153818Y0071334D02*
X0152818Y0071334D01*
X0152818Y0072933D02*
X0153818Y0072933D01*
X0153818Y0074532D02*
X0153083Y0074532D01*
X0153525Y0076130D02*
X0153818Y0076130D01*
X0153818Y0079131D02*
X0153680Y0079465D01*
X0152890Y0080255D01*
X0151858Y0080682D01*
X0150742Y0080682D01*
X0149710Y0080255D01*
X0148920Y0079465D01*
X0148493Y0078433D01*
X0148493Y0077317D01*
X0148562Y0077150D01*
X0145657Y0077150D01*
X0145657Y0101612D01*
X0146367Y0101318D01*
X0147483Y0101318D01*
X0148515Y0101745D01*
X0149305Y0102535D01*
X0149732Y0103567D01*
X0149732Y0104306D01*
X0156318Y0110892D01*
X0156318Y0095519D01*
X0153818Y0093019D01*
X0153818Y0079131D01*
X0153818Y0079327D02*
X0153737Y0079327D01*
X0153818Y0080926D02*
X0145657Y0080926D01*
X0145657Y0082524D02*
X0153818Y0082524D01*
X0153818Y0084123D02*
X0145657Y0084123D01*
X0145657Y0085721D02*
X0153818Y0085721D01*
X0153818Y0087320D02*
X0145657Y0087320D01*
X0145657Y0088918D02*
X0153818Y0088918D01*
X0153818Y0090517D02*
X0145657Y0090517D01*
X0145657Y0092115D02*
X0153818Y0092115D01*
X0154512Y0093714D02*
X0145657Y0093714D01*
X0145657Y0095312D02*
X0156111Y0095312D01*
X0156318Y0096911D02*
X0145657Y0096911D01*
X0145657Y0098509D02*
X0156318Y0098509D01*
X0156318Y0100108D02*
X0145657Y0100108D01*
X0148421Y0101706D02*
X0156318Y0101706D01*
X0156318Y0103305D02*
X0149624Y0103305D01*
X0150330Y0104903D02*
X0156318Y0104903D01*
X0156318Y0106502D02*
X0151928Y0106502D01*
X0153527Y0108100D02*
X0156318Y0108100D01*
X0156318Y0109699D02*
X0155125Y0109699D01*
X0148863Y0079327D02*
X0145657Y0079327D01*
X0145657Y0077729D02*
X0148493Y0077729D01*
X0157532Y0071334D02*
X0157577Y0071334D01*
X0157532Y0069736D02*
X0159938Y0069736D01*
X0158712Y0068137D02*
X0161536Y0068137D01*
X0163135Y0066539D02*
X0159107Y0066539D01*
X0159100Y0064940D02*
X0160000Y0064940D01*
X0160000Y0063342D02*
X0159100Y0063342D01*
X0141943Y0066539D02*
X0132392Y0066539D01*
X0130208Y0066539D02*
X0128782Y0066539D01*
X0128782Y0064940D02*
X0141099Y0064940D01*
X0137325Y0063342D02*
X0135775Y0063342D01*
X0135775Y0061743D02*
X0137325Y0061743D01*
X0137325Y0058546D02*
X0135775Y0058546D01*
X0135775Y0056948D02*
X0137325Y0056948D01*
X0137325Y0055349D02*
X0135775Y0055349D01*
X0129628Y0052152D02*
X0128782Y0052152D01*
X0128782Y0050554D02*
X0129628Y0050554D01*
X0129628Y0048955D02*
X0128782Y0048955D01*
X0128782Y0047357D02*
X0129628Y0047357D01*
X0129628Y0045758D02*
X0128782Y0045758D01*
X0128782Y0044160D02*
X0130141Y0044160D01*
X0128782Y0042561D02*
X0135068Y0042561D01*
X0135068Y0040963D02*
X0129682Y0040963D01*
X0130357Y0039364D02*
X0135068Y0039364D01*
X0135068Y0037766D02*
X0130025Y0037766D01*
X0126907Y0036167D02*
X0135068Y0036167D01*
X0135068Y0034569D02*
X0126907Y0034569D01*
X0126907Y0032970D02*
X0135068Y0032970D01*
X0135068Y0031372D02*
X0126907Y0031372D01*
X0126907Y0029773D02*
X0135068Y0029773D01*
X0135068Y0028175D02*
X0126907Y0028175D01*
X0126907Y0026576D02*
X0135068Y0026576D01*
X0135068Y0024978D02*
X0126907Y0024978D01*
X0126907Y0023379D02*
X0135068Y0023379D01*
X0135068Y0021781D02*
X0126907Y0021781D01*
X0126907Y0020182D02*
X0135068Y0020182D01*
X0135068Y0018584D02*
X0126907Y0018584D01*
X0126907Y0016985D02*
X0135068Y0016985D01*
X0135068Y0015387D02*
X0127133Y0015387D01*
X0127857Y0013788D02*
X0135068Y0013788D01*
X0138782Y0013788D02*
X0143943Y0013788D01*
X0143943Y0012190D02*
X0138782Y0012190D01*
X0138782Y0010591D02*
X0143943Y0010591D01*
X0143943Y0008993D02*
X0138782Y0008993D01*
X0138782Y0007394D02*
X0143943Y0007394D01*
X0144062Y0005796D02*
X0138782Y0005796D01*
X0138782Y0015387D02*
X0144552Y0015387D01*
X0146069Y0016985D02*
X0138782Y0016985D01*
X0138782Y0018584D02*
X0146069Y0018584D01*
X0146069Y0019370D02*
X0149050Y0019370D01*
X0149050Y0019370D01*
X0149050Y0019370D01*
X0149050Y0023926D01*
X0147632Y0023926D01*
X0147174Y0023803D01*
X0146764Y0023566D01*
X0146429Y0023231D01*
X0146192Y0022821D01*
X0146069Y0022363D01*
X0146069Y0019370D01*
X0146069Y0020182D02*
X0138782Y0020182D01*
X0138782Y0021781D02*
X0146069Y0021781D01*
X0146576Y0023379D02*
X0138782Y0023379D01*
X0149050Y0023379D02*
X0149050Y0023379D01*
X0149050Y0021781D02*
X0149050Y0021781D01*
X0149050Y0020182D02*
X0149050Y0020182D01*
X0151523Y0023379D02*
X0151849Y0023379D01*
X0156251Y0023379D02*
X0156849Y0023379D01*
X0155816Y0036167D02*
X0159443Y0036167D01*
X0146262Y0037766D02*
X0138782Y0037766D01*
X0138782Y0039364D02*
X0146262Y0039364D01*
X0146211Y0040963D02*
X0138782Y0040963D01*
X0138782Y0042561D02*
X0143284Y0042561D01*
X0129435Y0061743D02*
X0128782Y0061743D01*
X0128782Y0063342D02*
X0129554Y0063342D01*
X0136263Y0068137D02*
X0137813Y0068137D01*
X0137813Y0069736D02*
X0136263Y0069736D01*
X0136263Y0072775D02*
X0136263Y0076487D01*
X0136607Y0077317D01*
X0136607Y0078433D01*
X0136282Y0079218D01*
X0136282Y0080892D01*
X0138493Y0078681D01*
X0138493Y0077942D01*
X0138741Y0077343D01*
X0137813Y0077343D01*
X0137813Y0072775D01*
X0136263Y0072775D01*
X0136263Y0072933D02*
X0137813Y0072933D01*
X0137813Y0074532D02*
X0136263Y0074532D01*
X0136263Y0076130D02*
X0137813Y0076130D01*
X0138581Y0077729D02*
X0136607Y0077729D01*
X0136282Y0079327D02*
X0137847Y0079327D01*
X0119743Y0071806D02*
X0119743Y0071514D01*
X0118733Y0071932D01*
X0117617Y0071932D01*
X0116585Y0071505D01*
X0115795Y0070715D01*
X0115368Y0069683D01*
X0115368Y0068567D01*
X0115795Y0067535D01*
X0116585Y0066745D01*
X0116943Y0066597D01*
X0116943Y0062150D01*
X0115982Y0062150D01*
X0115982Y0062183D01*
X0115555Y0063215D01*
X0114765Y0064005D01*
X0113733Y0064432D01*
X0112617Y0064432D01*
X0111585Y0064005D01*
X0110795Y0063215D01*
X0110434Y0062343D01*
X0108813Y0062343D01*
X0108813Y0057775D01*
X0107263Y0057775D01*
X0107263Y0062343D01*
X0104652Y0062343D01*
X0104407Y0062278D01*
X0104407Y0070231D01*
X0107369Y0073193D01*
X0108108Y0073193D01*
X0109140Y0073620D01*
X0109930Y0074410D01*
X0110357Y0075442D01*
X0110357Y0076558D01*
X0109930Y0077590D01*
X0109407Y0078113D01*
X0109407Y0093644D01*
X0108319Y0094732D01*
X0106108Y0096943D01*
X0106481Y0096943D01*
X0106943Y0096481D01*
X0108031Y0095393D01*
X0116943Y0095393D01*
X0116943Y0074606D01*
X0118031Y0073518D01*
X0119743Y0071806D01*
X0118616Y0072933D02*
X0107109Y0072933D01*
X0105511Y0071334D02*
X0116415Y0071334D01*
X0115390Y0069736D02*
X0104407Y0069736D01*
X0104407Y0068137D02*
X0115546Y0068137D01*
X0116943Y0066539D02*
X0104407Y0066539D01*
X0104407Y0064940D02*
X0116943Y0064940D01*
X0116943Y0063342D02*
X0115428Y0063342D01*
X0110922Y0063342D02*
X0104407Y0063342D01*
X0107263Y0061743D02*
X0108813Y0061743D01*
X0108813Y0060145D02*
X0107263Y0060145D01*
X0107263Y0058546D02*
X0108813Y0058546D01*
X0108813Y0056225D02*
X0107263Y0056225D01*
X0107263Y0051657D01*
X0104652Y0051657D01*
X0104407Y0051722D01*
X0104407Y0031217D01*
X0105160Y0030906D01*
X0106456Y0029610D01*
X0107157Y0027916D01*
X0107157Y0020084D01*
X0106456Y0018390D01*
X0105160Y0017094D01*
X0104932Y0017000D01*
X0105160Y0016906D01*
X0106456Y0015610D01*
X0107157Y0013916D01*
X0107157Y0006084D01*
X0106597Y0004732D01*
X0108318Y0004732D01*
X0108102Y0005157D01*
X0107868Y0005876D01*
X0107750Y0006622D01*
X0107750Y0009800D01*
X0112350Y0009800D01*
X0112350Y0010200D01*
X0112350Y0023800D01*
X0107750Y0023800D01*
X0107750Y0020622D01*
X0107868Y0019876D01*
X0108102Y0019157D01*
X0108445Y0018484D01*
X0108889Y0017873D01*
X0109423Y0017339D01*
X0109889Y0017000D01*
X0109423Y0016661D01*
X0108889Y0016127D01*
X0108445Y0015516D01*
X0108102Y0014843D01*
X0107868Y0014124D01*
X0107750Y0013378D01*
X0107750Y0010200D01*
X0112350Y0010200D01*
X0112750Y0010200D01*
X0112750Y0016200D01*
X0112750Y0023800D01*
X0112350Y0023800D01*
X0112350Y0024200D01*
X0112350Y0031800D01*
X0112172Y0031800D01*
X0111426Y0031682D01*
X0110707Y0031448D01*
X0110034Y0031105D01*
X0109423Y0030661D01*
X0108889Y0030127D01*
X0108445Y0029516D01*
X0108102Y0028843D01*
X0107868Y0028124D01*
X0107750Y0027378D01*
X0107750Y0024200D01*
X0112350Y0024200D01*
X0112750Y0024200D01*
X0112750Y0030049D01*
X0112568Y0030231D01*
X0112568Y0052291D01*
X0112293Y0052016D01*
X0111883Y0051779D01*
X0111425Y0051657D01*
X0108813Y0051657D01*
X0108813Y0056225D01*
X0108813Y0055349D02*
X0107263Y0055349D01*
X0107263Y0053751D02*
X0108813Y0053751D01*
X0108813Y0052152D02*
X0107263Y0052152D01*
X0104407Y0050554D02*
X0112568Y0050554D01*
X0112568Y0052152D02*
X0112429Y0052152D01*
X0112568Y0048955D02*
X0104407Y0048955D01*
X0104407Y0047357D02*
X0112568Y0047357D01*
X0112568Y0045758D02*
X0104407Y0045758D01*
X0104407Y0044160D02*
X0112568Y0044160D01*
X0112568Y0042561D02*
X0104407Y0042561D01*
X0104407Y0040963D02*
X0112568Y0040963D01*
X0112568Y0039364D02*
X0104407Y0039364D01*
X0104407Y0037766D02*
X0112568Y0037766D01*
X0112568Y0036167D02*
X0104407Y0036167D01*
X0104407Y0034569D02*
X0112568Y0034569D01*
X0112568Y0032970D02*
X0104407Y0032970D01*
X0104407Y0031372D02*
X0110557Y0031372D01*
X0112350Y0031372D02*
X0112568Y0031372D01*
X0112750Y0029773D02*
X0112350Y0029773D01*
X0112350Y0028175D02*
X0112750Y0028175D01*
X0112750Y0026576D02*
X0112350Y0026576D01*
X0112350Y0024978D02*
X0112750Y0024978D01*
X0112750Y0023379D02*
X0112350Y0023379D01*
X0112350Y0021781D02*
X0112750Y0021781D01*
X0112750Y0020182D02*
X0112350Y0020182D01*
X0112350Y0018584D02*
X0112750Y0018584D01*
X0112750Y0016985D02*
X0112350Y0016985D01*
X0112350Y0015387D02*
X0112750Y0015387D01*
X0112750Y0013788D02*
X0112350Y0013788D01*
X0112350Y0012190D02*
X0112750Y0012190D01*
X0112750Y0010591D02*
X0112350Y0010591D01*
X0107750Y0010591D02*
X0107157Y0010591D01*
X0107157Y0008993D02*
X0107750Y0008993D01*
X0107750Y0007394D02*
X0107157Y0007394D01*
X0107038Y0005796D02*
X0107894Y0005796D01*
X0107750Y0012190D02*
X0107157Y0012190D01*
X0107157Y0013788D02*
X0107815Y0013788D01*
X0108379Y0015387D02*
X0106548Y0015387D01*
X0104968Y0016985D02*
X0109869Y0016985D01*
X0108394Y0018584D02*
X0106536Y0018584D01*
X0107157Y0020182D02*
X0107820Y0020182D01*
X0107750Y0021781D02*
X0107157Y0021781D01*
X0107157Y0023379D02*
X0107750Y0023379D01*
X0107750Y0024978D02*
X0107157Y0024978D01*
X0107157Y0026576D02*
X0107750Y0026576D01*
X0107885Y0028175D02*
X0107050Y0028175D01*
X0106292Y0029773D02*
X0108632Y0029773D01*
X0085068Y0029894D02*
X0079157Y0023983D01*
X0079157Y0024908D01*
X0076458Y0027607D01*
X0072642Y0027607D01*
X0069943Y0024908D01*
X0069943Y0021092D01*
X0072642Y0018393D01*
X0073567Y0018393D01*
X0073193Y0018019D01*
X0073193Y0017607D01*
X0072642Y0017607D01*
X0069943Y0014908D01*
X0069943Y0011092D01*
X0070678Y0010357D01*
X0068422Y0010357D01*
X0069157Y0011092D01*
X0069157Y0014908D01*
X0066458Y0017607D01*
X0062642Y0017607D01*
X0059943Y0014908D01*
X0059943Y0011092D01*
X0060678Y0010357D01*
X0058695Y0010357D01*
X0059350Y0011012D01*
X0059350Y0012800D01*
X0054750Y0012800D01*
X0054750Y0013200D01*
X0054350Y0013200D01*
X0054350Y0017800D01*
X0052562Y0017800D01*
X0049750Y0014988D01*
X0049750Y0013200D01*
X0054350Y0013200D01*
X0054350Y0012800D01*
X0049750Y0012800D01*
X0049750Y0011012D01*
X0050405Y0010357D01*
X0045657Y0010357D01*
X0045657Y0029269D01*
X0010083Y0064844D01*
X0013580Y0064844D01*
X0016618Y0061806D01*
X0016618Y0061067D01*
X0017045Y0060035D01*
X0017835Y0059245D01*
X0018867Y0058818D01*
X0019983Y0058818D01*
X0021015Y0059245D01*
X0021805Y0060035D01*
X0022232Y0061067D01*
X0022232Y0062183D01*
X0021805Y0063215D01*
X0021015Y0064005D01*
X0019983Y0064432D01*
X0019244Y0064432D01*
X0018833Y0064844D01*
X0024830Y0064844D01*
X0028193Y0061481D01*
X0029281Y0060393D01*
X0050437Y0060393D01*
X0050960Y0059870D01*
X0051992Y0059443D01*
X0053108Y0059443D01*
X0053193Y0059478D01*
X0053193Y0040613D01*
X0052670Y0040090D01*
X0052243Y0039058D01*
X0052243Y0037942D01*
X0052670Y0036910D01*
X0053460Y0036120D01*
X0054492Y0035693D01*
X0055231Y0035693D01*
X0058696Y0032228D01*
X0058460Y0032130D01*
X0057670Y0031340D01*
X0057243Y0030308D01*
X0057243Y0029192D01*
X0057498Y0028575D01*
X0056495Y0027571D01*
X0056458Y0027607D01*
X0052642Y0027607D01*
X0049943Y0024908D01*
X0049943Y0021092D01*
X0052642Y0018393D01*
X0056458Y0018393D01*
X0059157Y0021092D01*
X0059157Y0024908D01*
X0059121Y0024945D01*
X0060819Y0026643D01*
X0061480Y0027304D01*
X0061640Y0027370D01*
X0062430Y0028160D01*
X0062528Y0028396D01*
X0062568Y0028356D01*
X0062568Y0027533D01*
X0059943Y0024908D01*
X0059943Y0021092D01*
X0062642Y0018393D01*
X0066458Y0018393D01*
X0069157Y0021092D01*
X0069157Y0024908D01*
X0066458Y0027607D01*
X0066282Y0027607D01*
X0066282Y0029894D01*
X0065194Y0030982D01*
X0057857Y0038319D01*
X0057857Y0039058D01*
X0057430Y0040090D01*
X0056907Y0040613D01*
X0056907Y0082157D01*
X0057232Y0082942D01*
X0057232Y0082973D01*
X0057835Y0082370D01*
X0058867Y0081943D01*
X0059118Y0081943D01*
X0059118Y0081692D01*
X0059545Y0080660D01*
X0060335Y0079870D01*
X0060625Y0079750D01*
X0060335Y0079630D01*
X0059545Y0078840D01*
X0059118Y0077808D01*
X0059118Y0076692D01*
X0059545Y0075660D01*
X0060335Y0074870D01*
X0061367Y0074443D01*
X0062483Y0074443D01*
X0063515Y0074870D01*
X0064305Y0075660D01*
X0064732Y0076692D01*
X0064732Y0077431D01*
X0067568Y0080267D01*
X0067568Y0075519D01*
X0064606Y0072557D01*
X0063867Y0072557D01*
X0062835Y0072130D01*
X0062045Y0071340D01*
X0061618Y0070308D01*
X0061618Y0069192D01*
X0062045Y0068160D01*
X0062835Y0067370D01*
X0063867Y0066943D01*
X0064983Y0066943D01*
X0066015Y0067370D01*
X0066805Y0068160D01*
X0067232Y0069192D01*
X0067232Y0069931D01*
X0070194Y0072893D01*
X0071282Y0073981D01*
X0071282Y0075886D01*
X0071943Y0075612D01*
X0071943Y0066863D01*
X0071420Y0066340D01*
X0070993Y0065308D01*
X0070993Y0064192D01*
X0071420Y0063160D01*
X0072210Y0062370D01*
X0073242Y0061943D01*
X0074358Y0061943D01*
X0075390Y0062370D01*
X0076180Y0063160D01*
X0076607Y0064192D01*
X0076607Y0065308D01*
X0076180Y0066340D01*
X0075657Y0066863D01*
X0075657Y0075819D01*
X0075933Y0075933D01*
X0076943Y0076943D01*
X0076943Y0050231D01*
X0078031Y0049143D01*
X0079118Y0048056D01*
X0079118Y0047317D01*
X0079545Y0046285D01*
X0080335Y0045495D01*
X0081367Y0045068D01*
X0081618Y0045068D01*
X0081618Y0044817D01*
X0082045Y0043785D01*
X0082835Y0042995D01*
X0083867Y0042568D01*
X0084983Y0042568D01*
X0085068Y0042603D01*
X0085068Y0029894D01*
X0084947Y0029773D02*
X0066282Y0029773D01*
X0066282Y0028175D02*
X0083348Y0028175D01*
X0081750Y0026576D02*
X0077489Y0026576D01*
X0079088Y0024978D02*
X0080151Y0024978D01*
X0085068Y0031372D02*
X0064805Y0031372D01*
X0063206Y0032970D02*
X0085068Y0032970D01*
X0085068Y0034569D02*
X0061608Y0034569D01*
X0060009Y0036167D02*
X0085068Y0036167D01*
X0085068Y0037766D02*
X0058411Y0037766D01*
X0057730Y0039364D02*
X0085068Y0039364D01*
X0085068Y0040963D02*
X0056907Y0040963D01*
X0056907Y0042561D02*
X0085068Y0042561D01*
X0081890Y0044160D02*
X0056907Y0044160D01*
X0056907Y0045758D02*
X0080072Y0045758D01*
X0079118Y0047357D02*
X0056907Y0047357D01*
X0056907Y0048955D02*
X0078218Y0048955D01*
X0076943Y0050554D02*
X0056907Y0050554D01*
X0056907Y0052152D02*
X0076943Y0052152D01*
X0076943Y0053751D02*
X0056907Y0053751D01*
X0056907Y0055349D02*
X0076943Y0055349D01*
X0076943Y0056948D02*
X0056907Y0056948D01*
X0056907Y0058546D02*
X0076943Y0058546D01*
X0076943Y0060145D02*
X0056907Y0060145D01*
X0056907Y0061743D02*
X0076943Y0061743D01*
X0076943Y0063342D02*
X0076255Y0063342D01*
X0076607Y0064940D02*
X0076943Y0064940D01*
X0076943Y0066539D02*
X0075981Y0066539D01*
X0075657Y0068137D02*
X0076943Y0068137D01*
X0076943Y0069736D02*
X0075657Y0069736D01*
X0075657Y0071334D02*
X0076943Y0071334D01*
X0076943Y0072933D02*
X0075657Y0072933D01*
X0075657Y0074532D02*
X0076943Y0074532D01*
X0076943Y0076130D02*
X0076130Y0076130D01*
X0071943Y0074532D02*
X0071282Y0074532D01*
X0071943Y0072933D02*
X0070234Y0072933D01*
X0068636Y0071334D02*
X0071943Y0071334D01*
X0071943Y0069736D02*
X0067232Y0069736D01*
X0066782Y0068137D02*
X0071943Y0068137D01*
X0071619Y0066539D02*
X0056907Y0066539D01*
X0056907Y0068137D02*
X0062068Y0068137D01*
X0061618Y0069736D02*
X0056907Y0069736D01*
X0056907Y0071334D02*
X0062043Y0071334D01*
X0062697Y0074532D02*
X0066580Y0074532D01*
X0067568Y0076130D02*
X0064499Y0076130D01*
X0065030Y0077729D02*
X0067568Y0077729D01*
X0067568Y0079327D02*
X0066628Y0079327D01*
X0060032Y0079327D02*
X0056907Y0079327D01*
X0056907Y0077729D02*
X0059118Y0077729D01*
X0059351Y0076130D02*
X0056907Y0076130D01*
X0056907Y0074532D02*
X0061153Y0074532D01*
X0064982Y0072933D02*
X0056907Y0072933D01*
X0053193Y0072933D02*
X0052229Y0072933D01*
X0052232Y0072942D02*
X0052232Y0074058D01*
X0051805Y0075090D01*
X0051015Y0075880D01*
X0049983Y0076307D01*
X0048867Y0076307D01*
X0047835Y0075880D01*
X0047312Y0075357D01*
X0042406Y0075357D01*
X0042205Y0075156D01*
X0039407Y0075156D01*
X0039407Y0075762D01*
X0039930Y0076285D01*
X0040161Y0076844D01*
X0046964Y0076844D01*
X0047905Y0077785D01*
X0047905Y0084354D01*
X0053319Y0089768D01*
X0054407Y0090856D01*
X0054407Y0109729D01*
X0054675Y0109657D01*
X0057287Y0109657D01*
X0057287Y0114225D01*
X0058837Y0114225D01*
X0058837Y0109657D01*
X0060693Y0109657D01*
X0060693Y0088644D01*
X0059606Y0087557D01*
X0058867Y0087557D01*
X0057835Y0087130D01*
X0057045Y0086340D01*
X0056618Y0085308D01*
X0056618Y0085277D01*
X0056015Y0085880D01*
X0054983Y0086307D01*
X0053867Y0086307D01*
X0052835Y0085880D01*
X0052045Y0085090D01*
X0051618Y0084058D01*
X0051618Y0082942D01*
X0052045Y0081910D01*
X0052835Y0081120D01*
X0053193Y0080972D01*
X0053193Y0065022D01*
X0053108Y0065057D01*
X0051992Y0065057D01*
X0050960Y0064630D01*
X0050437Y0064107D01*
X0030819Y0064107D01*
X0030083Y0064844D01*
X0035767Y0064844D01*
X0036708Y0065785D01*
X0036708Y0071907D01*
X0038319Y0073518D01*
X0038392Y0073590D01*
X0038392Y0065785D01*
X0039333Y0064844D01*
X0046964Y0064844D01*
X0047905Y0065785D01*
X0047905Y0071091D01*
X0048867Y0070693D01*
X0049983Y0070693D01*
X0051015Y0071120D01*
X0051805Y0071910D01*
X0052232Y0072942D01*
X0052036Y0074532D02*
X0053193Y0074532D01*
X0053193Y0076130D02*
X0050411Y0076130D01*
X0048439Y0076130D02*
X0039775Y0076130D01*
X0038392Y0072933D02*
X0037734Y0072933D01*
X0038392Y0071334D02*
X0036708Y0071334D01*
X0036708Y0069736D02*
X0038392Y0069736D01*
X0038392Y0068137D02*
X0036708Y0068137D01*
X0036708Y0066539D02*
X0038392Y0066539D01*
X0039236Y0064940D02*
X0035864Y0064940D01*
X0027930Y0061743D02*
X0022232Y0061743D01*
X0021850Y0060145D02*
X0050685Y0060145D01*
X0053193Y0058546D02*
X0016380Y0058546D01*
X0017000Y0060145D02*
X0014781Y0060145D01*
X0013183Y0061743D02*
X0016618Y0061743D01*
X0015082Y0063342D02*
X0011584Y0063342D01*
X0017978Y0056948D02*
X0053193Y0056948D01*
X0053193Y0055349D02*
X0019577Y0055349D01*
X0021175Y0053751D02*
X0053193Y0053751D01*
X0053193Y0052152D02*
X0022774Y0052152D01*
X0024372Y0050554D02*
X0053193Y0050554D01*
X0053193Y0048955D02*
X0025971Y0048955D01*
X0027569Y0047357D02*
X0053193Y0047357D01*
X0053193Y0045758D02*
X0029168Y0045758D01*
X0030766Y0044160D02*
X0053193Y0044160D01*
X0053193Y0042561D02*
X0032365Y0042561D01*
X0033964Y0040963D02*
X0053193Y0040963D01*
X0052370Y0039364D02*
X0035562Y0039364D01*
X0037161Y0037766D02*
X0052316Y0037766D01*
X0053413Y0036167D02*
X0038759Y0036167D01*
X0040358Y0034569D02*
X0056355Y0034569D01*
X0057953Y0032970D02*
X0041956Y0032970D01*
X0043555Y0031372D02*
X0057702Y0031372D01*
X0057243Y0029773D02*
X0045153Y0029773D01*
X0045657Y0028175D02*
X0057098Y0028175D01*
X0059154Y0024978D02*
X0060012Y0024978D01*
X0059943Y0023379D02*
X0059157Y0023379D01*
X0059157Y0021781D02*
X0059943Y0021781D01*
X0060852Y0020182D02*
X0058248Y0020182D01*
X0056649Y0018584D02*
X0062451Y0018584D01*
X0062020Y0016985D02*
X0057353Y0016985D01*
X0056538Y0017800D02*
X0059350Y0014988D01*
X0059350Y0013200D01*
X0054750Y0013200D01*
X0054750Y0017800D01*
X0056538Y0017800D01*
X0054750Y0016985D02*
X0054350Y0016985D01*
X0054350Y0015387D02*
X0054750Y0015387D01*
X0054750Y0013788D02*
X0054350Y0013788D01*
X0051747Y0016985D02*
X0045657Y0016985D01*
X0045657Y0015387D02*
X0050148Y0015387D01*
X0049750Y0013788D02*
X0045657Y0013788D01*
X0045657Y0012190D02*
X0049750Y0012190D01*
X0050171Y0010591D02*
X0045657Y0010591D01*
X0041943Y0011149D02*
X0041866Y0011205D01*
X0041193Y0011548D01*
X0040474Y0011782D01*
X0039728Y0011900D01*
X0036550Y0011900D01*
X0036550Y0007300D01*
X0036150Y0007300D01*
X0036150Y0011900D01*
X0032972Y0011900D01*
X0032226Y0011782D01*
X0031507Y0011548D01*
X0030834Y0011205D01*
X0030223Y0010761D01*
X0029689Y0010227D01*
X0029245Y0009616D01*
X0028902Y0008943D01*
X0028668Y0008224D01*
X0028550Y0007478D01*
X0028550Y0007300D01*
X0036150Y0007300D01*
X0036150Y0006900D01*
X0028550Y0006900D01*
X0028550Y0006722D01*
X0028668Y0005976D01*
X0028902Y0005257D01*
X0029169Y0004732D01*
X0020032Y0004732D01*
X0020032Y0049642D01*
X0040167Y0029507D01*
X0032434Y0029507D01*
X0030740Y0028806D01*
X0029444Y0027510D01*
X0028743Y0025816D01*
X0028743Y0023984D01*
X0029444Y0022290D01*
X0030740Y0020994D01*
X0032434Y0020293D01*
X0040266Y0020293D01*
X0041943Y0020987D01*
X0041943Y0011149D01*
X0041943Y0012190D02*
X0020032Y0012190D01*
X0020032Y0013788D02*
X0041943Y0013788D01*
X0041943Y0015387D02*
X0020032Y0015387D01*
X0020032Y0016985D02*
X0041943Y0016985D01*
X0041943Y0018584D02*
X0020032Y0018584D01*
X0020032Y0020182D02*
X0041943Y0020182D01*
X0045657Y0020182D02*
X0050852Y0020182D01*
X0049943Y0021781D02*
X0045657Y0021781D01*
X0045657Y0023379D02*
X0049943Y0023379D01*
X0050012Y0024978D02*
X0045657Y0024978D01*
X0045657Y0026576D02*
X0051611Y0026576D01*
X0052451Y0018584D02*
X0045657Y0018584D01*
X0036550Y0010591D02*
X0036150Y0010591D01*
X0036150Y0008993D02*
X0036550Y0008993D01*
X0036550Y0007394D02*
X0036150Y0007394D01*
X0030053Y0010591D02*
X0020032Y0010591D01*
X0020032Y0008993D02*
X0028927Y0008993D01*
X0028550Y0007394D02*
X0020032Y0007394D01*
X0020032Y0005796D02*
X0028727Y0005796D01*
X0016318Y0011167D02*
X0016266Y0011205D01*
X0015593Y0011548D01*
X0014874Y0011782D01*
X0014128Y0011900D01*
X0010950Y0011900D01*
X0010950Y0007300D01*
X0010550Y0007300D01*
X0010550Y0011900D01*
X0007372Y0011900D01*
X0006626Y0011782D01*
X0005907Y0011548D01*
X0005234Y0011205D01*
X0004623Y0010761D01*
X0004350Y0010488D01*
X0004350Y0021785D01*
X0005140Y0020994D01*
X0006834Y0020293D01*
X0014666Y0020293D01*
X0016318Y0020977D01*
X0016318Y0011167D01*
X0016318Y0012190D02*
X0004350Y0012190D01*
X0004350Y0013788D02*
X0016318Y0013788D01*
X0016318Y0015387D02*
X0004350Y0015387D01*
X0004350Y0016985D02*
X0016318Y0016985D01*
X0016318Y0018584D02*
X0004350Y0018584D01*
X0004350Y0020182D02*
X0016318Y0020182D01*
X0020032Y0021781D02*
X0029954Y0021781D01*
X0028993Y0023379D02*
X0020032Y0023379D01*
X0020032Y0024978D02*
X0028743Y0024978D01*
X0029058Y0026576D02*
X0020032Y0026576D01*
X0020032Y0028175D02*
X0030109Y0028175D01*
X0035105Y0034569D02*
X0020032Y0034569D01*
X0020032Y0036167D02*
X0033506Y0036167D01*
X0031908Y0037766D02*
X0020032Y0037766D01*
X0020032Y0039364D02*
X0030309Y0039364D01*
X0028711Y0040963D02*
X0020032Y0040963D01*
X0020032Y0042561D02*
X0027112Y0042561D01*
X0025514Y0044160D02*
X0020032Y0044160D01*
X0020032Y0045758D02*
X0023915Y0045758D01*
X0022317Y0047357D02*
X0020032Y0047357D01*
X0020032Y0048955D02*
X0020718Y0048955D01*
X0021678Y0063342D02*
X0026332Y0063342D01*
X0047060Y0064940D02*
X0051710Y0064940D01*
X0053193Y0066539D02*
X0047905Y0066539D01*
X0047905Y0068137D02*
X0053193Y0068137D01*
X0053193Y0069736D02*
X0047905Y0069736D01*
X0051229Y0071334D02*
X0053193Y0071334D01*
X0053193Y0077729D02*
X0047849Y0077729D01*
X0047905Y0079327D02*
X0053193Y0079327D01*
X0053193Y0080926D02*
X0047905Y0080926D01*
X0047905Y0082524D02*
X0051791Y0082524D01*
X0051645Y0084123D02*
X0047905Y0084123D01*
X0049272Y0085721D02*
X0052676Y0085721D01*
X0050871Y0087320D02*
X0058293Y0087320D01*
X0056789Y0085721D02*
X0056174Y0085721D01*
X0057059Y0082524D02*
X0057681Y0082524D01*
X0056907Y0080926D02*
X0059435Y0080926D01*
X0060693Y0088918D02*
X0052469Y0088918D01*
X0054068Y0090517D02*
X0060693Y0090517D01*
X0060693Y0092115D02*
X0054407Y0092115D01*
X0054407Y0093714D02*
X0060693Y0093714D01*
X0060693Y0095312D02*
X0054407Y0095312D01*
X0054407Y0096911D02*
X0060693Y0096911D01*
X0060693Y0098509D02*
X0054407Y0098509D01*
X0054407Y0100108D02*
X0060693Y0100108D01*
X0060693Y0101706D02*
X0054407Y0101706D01*
X0054407Y0103305D02*
X0060693Y0103305D01*
X0060693Y0104903D02*
X0054407Y0104903D01*
X0054407Y0106502D02*
X0060693Y0106502D01*
X0060693Y0108100D02*
X0054407Y0108100D01*
X0054407Y0109699D02*
X0054518Y0109699D01*
X0057287Y0109699D02*
X0058837Y0109699D01*
X0058837Y0111297D02*
X0057287Y0111297D01*
X0057287Y0112896D02*
X0058837Y0112896D01*
X0058837Y0115775D02*
X0057287Y0115775D01*
X0057287Y0120343D01*
X0054675Y0120343D01*
X0054217Y0120221D01*
X0053807Y0119984D01*
X0053472Y0119649D01*
X0053301Y0119352D01*
X0053108Y0119432D01*
X0051992Y0119432D01*
X0051695Y0119309D01*
X0050853Y0120150D01*
X0049407Y0120150D01*
X0049407Y0121007D01*
X0051897Y0121007D01*
X0052550Y0121660D01*
X0053203Y0121007D01*
X0056897Y0121007D01*
X0057838Y0121948D01*
X0057838Y0128004D01*
X0056897Y0128946D01*
X0053203Y0128946D01*
X0052550Y0128292D01*
X0051897Y0128946D01*
X0049407Y0128946D01*
X0049407Y0138356D01*
X0053175Y0142124D01*
X0054743Y0140556D01*
X0054743Y0139817D01*
X0055170Y0138785D01*
X0055960Y0137995D01*
X0056992Y0137568D01*
X0058108Y0137568D01*
X0059140Y0137995D01*
X0059930Y0138785D01*
X0060357Y0139817D01*
X0060357Y0140933D01*
X0059930Y0141965D01*
X0059140Y0142755D01*
X0058108Y0143182D01*
X0057369Y0143182D01*
X0057197Y0143354D01*
X0057838Y0143996D01*
X0057838Y0149657D01*
X0059287Y0149657D01*
X0059287Y0154225D01*
X0060837Y0154225D01*
X0060837Y0149657D01*
X0063448Y0149657D01*
X0063818Y0149756D01*
X0063818Y0126272D01*
X0063733Y0126307D01*
X0062617Y0126307D01*
X0061585Y0125880D01*
X0060795Y0125090D01*
X0060368Y0124058D01*
X0060368Y0122942D01*
X0060795Y0121910D01*
X0061318Y0121387D01*
X0061318Y0120519D01*
X0061142Y0120343D01*
X0058837Y0120343D01*
X0058837Y0115775D01*
X0058837Y0116093D02*
X0057287Y0116093D01*
X0057287Y0117691D02*
X0058837Y0117691D01*
X0058837Y0119290D02*
X0057287Y0119290D01*
X0057838Y0122487D02*
X0060556Y0122487D01*
X0060379Y0124085D02*
X0057838Y0124085D01*
X0057838Y0125684D02*
X0061389Y0125684D01*
X0063818Y0127282D02*
X0057838Y0127282D01*
X0056962Y0128881D02*
X0063818Y0128881D01*
X0063818Y0130479D02*
X0049407Y0130479D01*
X0049407Y0132078D02*
X0063818Y0132078D01*
X0063818Y0133676D02*
X0049407Y0133676D01*
X0049407Y0135275D02*
X0063818Y0135275D01*
X0063818Y0136873D02*
X0049407Y0136873D01*
X0049523Y0138472D02*
X0055483Y0138472D01*
X0054743Y0140070D02*
X0051122Y0140070D01*
X0052720Y0141669D02*
X0053630Y0141669D01*
X0057284Y0143268D02*
X0063818Y0143268D01*
X0063818Y0144866D02*
X0057838Y0144866D01*
X0057838Y0146465D02*
X0063818Y0146465D01*
X0063818Y0148063D02*
X0057838Y0148063D01*
X0059287Y0149662D02*
X0060837Y0149662D01*
X0060837Y0151260D02*
X0059287Y0151260D01*
X0059287Y0152859D02*
X0060837Y0152859D01*
X0060837Y0155775D02*
X0059287Y0155775D01*
X0059287Y0160343D01*
X0056675Y0160343D01*
X0056217Y0160221D01*
X0055807Y0159984D01*
X0055472Y0159649D01*
X0055235Y0159238D01*
X0055112Y0158780D01*
X0055112Y0158129D01*
X0054983Y0158182D01*
X0053867Y0158182D01*
X0053795Y0158152D01*
X0053795Y0159209D01*
X0052965Y0160039D01*
X0053782Y0160856D01*
X0053782Y0173019D01*
X0049407Y0177394D01*
X0048319Y0178482D01*
X0031156Y0178482D01*
X0030950Y0178276D01*
X0030907Y0178276D01*
X0029442Y0177670D01*
X0028550Y0176777D01*
X0027658Y0177670D01*
X0026193Y0178276D01*
X0024608Y0178276D01*
X0023143Y0177670D01*
X0022022Y0176549D01*
X0021415Y0175084D01*
X0021415Y0168743D01*
X0021504Y0168529D01*
X0021272Y0168492D01*
X0020708Y0168309D01*
X0020708Y0170714D01*
X0019505Y0173620D01*
X0017281Y0175844D01*
X0014375Y0177048D01*
X0011229Y0177048D01*
X0008323Y0175844D01*
X0007471Y0174991D01*
X0007430Y0175090D01*
X0006640Y0175880D01*
X0005608Y0176307D01*
X0004492Y0176307D01*
X0004350Y0176248D01*
X0004350Y0184253D01*
X0005081Y0182487D01*
X0007643Y0179925D01*
X0010990Y0178539D01*
X0014613Y0178539D01*
X0017961Y0179925D01*
X0020523Y0182487D01*
X0021909Y0185834D01*
X0021909Y0189457D01*
X0020523Y0192804D01*
X0017961Y0195366D01*
X0016309Y0196050D01*
X0040791Y0196050D01*
X0039139Y0195366D01*
X0036577Y0192804D01*
X0035191Y0189457D01*
X0035191Y0185834D01*
X0036577Y0182487D01*
X0039139Y0179925D01*
X0042487Y0178539D01*
X0046110Y0178539D01*
X0049457Y0179925D01*
X0052019Y0182487D01*
X0053405Y0185834D01*
X0053405Y0189457D01*
X0052019Y0192804D01*
X0049457Y0195366D01*
X0047805Y0196050D01*
X0078085Y0196050D01*
X0075943Y0193908D01*
X0075943Y0191394D01*
X0063818Y0179269D01*
X0063818Y0160244D01*
X0063448Y0160343D01*
X0060837Y0160343D01*
X0060837Y0155775D01*
X0060837Y0156056D02*
X0059287Y0156056D01*
X0059287Y0157654D02*
X0060837Y0157654D01*
X0060837Y0159253D02*
X0059287Y0159253D01*
X0055243Y0159253D02*
X0053751Y0159253D01*
X0053777Y0160851D02*
X0063818Y0160851D01*
X0063818Y0162450D02*
X0053782Y0162450D01*
X0053782Y0164048D02*
X0063818Y0164048D01*
X0063818Y0165647D02*
X0053782Y0165647D01*
X0053782Y0167245D02*
X0063818Y0167245D01*
X0063818Y0168844D02*
X0053782Y0168844D01*
X0053782Y0170442D02*
X0063818Y0170442D01*
X0063818Y0172041D02*
X0053782Y0172041D01*
X0053162Y0173639D02*
X0063818Y0173639D01*
X0063818Y0175238D02*
X0051564Y0175238D01*
X0049965Y0176836D02*
X0063818Y0176836D01*
X0063818Y0178435D02*
X0048367Y0178435D01*
X0049565Y0180033D02*
X0064582Y0180033D01*
X0066180Y0181632D02*
X0051164Y0181632D01*
X0052327Y0183230D02*
X0067779Y0183230D01*
X0069377Y0184829D02*
X0052989Y0184829D01*
X0053405Y0186427D02*
X0070976Y0186427D01*
X0072575Y0188026D02*
X0053405Y0188026D01*
X0053336Y0189624D02*
X0074173Y0189624D01*
X0075772Y0191223D02*
X0052674Y0191223D01*
X0052002Y0192821D02*
X0075943Y0192821D01*
X0076454Y0194420D02*
X0050403Y0194420D01*
X0047882Y0196018D02*
X0078053Y0196018D01*
X0103193Y0166517D02*
X0103193Y0156803D01*
X0102955Y0157040D01*
X0102545Y0157277D01*
X0102087Y0157400D01*
X0099850Y0157400D01*
X0099850Y0151600D01*
X0099050Y0151600D01*
X0099050Y0157400D01*
X0096813Y0157400D01*
X0096355Y0157277D01*
X0096282Y0157235D01*
X0096282Y0159606D01*
X0103193Y0166517D01*
X0103193Y0165647D02*
X0102323Y0165647D01*
X0103193Y0164048D02*
X0100724Y0164048D01*
X0099126Y0162450D02*
X0103193Y0162450D01*
X0103193Y0160851D02*
X0097527Y0160851D01*
X0096282Y0159253D02*
X0103193Y0159253D01*
X0103193Y0157654D02*
X0096282Y0157654D01*
X0099050Y0156056D02*
X0099850Y0156056D01*
X0099850Y0154457D02*
X0099050Y0154457D01*
X0099050Y0152859D02*
X0099850Y0152859D01*
X0063818Y0149662D02*
X0063467Y0149662D01*
X0063818Y0141669D02*
X0060052Y0141669D01*
X0060357Y0140070D02*
X0063818Y0140070D01*
X0063818Y0138472D02*
X0059617Y0138472D01*
X0053138Y0128881D02*
X0051962Y0128881D01*
X0049407Y0120888D02*
X0061318Y0120888D01*
X0030693Y0128946D02*
X0028203Y0128946D01*
X0027550Y0128292D01*
X0026897Y0128946D01*
X0023203Y0128946D01*
X0022550Y0128292D01*
X0021897Y0128946D01*
X0018203Y0128946D01*
X0017262Y0128004D01*
X0017262Y0121948D01*
X0018193Y0121017D01*
X0018193Y0108738D01*
X0017670Y0108215D01*
X0017243Y0107183D01*
X0017243Y0106067D01*
X0017670Y0105035D01*
X0018193Y0104512D01*
X0018193Y0091238D01*
X0017670Y0090715D01*
X0017243Y0089683D01*
X0017243Y0088567D01*
X0017278Y0088482D01*
X0012532Y0088482D01*
X0012532Y0128731D01*
X0014759Y0128731D01*
X0015700Y0129673D01*
X0015700Y0137303D01*
X0014759Y0138245D01*
X0006907Y0138245D01*
X0006907Y0139562D01*
X0009775Y0139562D01*
X0009775Y0143737D01*
X0011325Y0143737D01*
X0011325Y0145287D01*
X0009775Y0145287D01*
X0009775Y0149461D01*
X0006907Y0149461D01*
X0006907Y0163855D01*
X0008323Y0162439D01*
X0011229Y0161235D01*
X0014375Y0161235D01*
X0017281Y0162439D01*
X0018073Y0163231D01*
X0018073Y0159333D01*
X0018176Y0158683D01*
X0018379Y0158058D01*
X0018677Y0157472D01*
X0019064Y0156940D01*
X0019529Y0156475D01*
X0020061Y0156088D01*
X0020647Y0155790D01*
X0021272Y0155586D01*
X0021922Y0155483D01*
X0022251Y0155483D01*
X0022580Y0155483D01*
X0023229Y0155586D01*
X0023855Y0155790D01*
X0024441Y0156088D01*
X0024973Y0156475D01*
X0025438Y0156940D01*
X0025521Y0157055D01*
X0026293Y0156283D01*
X0027757Y0155676D01*
X0028997Y0155676D01*
X0031196Y0153478D01*
X0030960Y0153380D01*
X0030170Y0152590D01*
X0029743Y0151558D01*
X0029743Y0150993D01*
X0028203Y0150993D01*
X0027550Y0150340D01*
X0026897Y0150993D01*
X0023203Y0150993D01*
X0022682Y0150472D01*
X0022671Y0150491D01*
X0022336Y0150826D01*
X0021926Y0151063D01*
X0021468Y0151186D01*
X0020050Y0151186D01*
X0020050Y0147024D01*
X0020050Y0151186D01*
X0018632Y0151186D01*
X0018174Y0151063D01*
X0017764Y0150826D01*
X0017429Y0150491D01*
X0017192Y0150081D01*
X0017069Y0149623D01*
X0017069Y0147024D01*
X0020050Y0147024D01*
X0020050Y0147024D01*
X0020050Y0147024D01*
X0017069Y0147024D01*
X0017069Y0144424D01*
X0017192Y0143967D01*
X0017429Y0143556D01*
X0017764Y0143221D01*
X0018174Y0142984D01*
X0018632Y0142861D01*
X0020050Y0142861D01*
X0021468Y0142861D01*
X0021926Y0142984D01*
X0022336Y0143221D01*
X0022671Y0143556D01*
X0022682Y0143575D01*
X0023203Y0143054D01*
X0024845Y0143054D01*
X0024743Y0142808D01*
X0024743Y0141692D01*
X0025170Y0140660D01*
X0025960Y0139870D01*
X0026992Y0139443D01*
X0028108Y0139443D01*
X0029140Y0139870D01*
X0029930Y0140660D01*
X0030357Y0141692D01*
X0030357Y0142808D01*
X0030255Y0143054D01*
X0030693Y0143054D01*
X0030693Y0128946D01*
X0030693Y0130479D02*
X0015700Y0130479D01*
X0015700Y0132078D02*
X0030693Y0132078D01*
X0030693Y0133676D02*
X0015700Y0133676D01*
X0015700Y0135275D02*
X0030693Y0135275D01*
X0030693Y0136873D02*
X0015700Y0136873D01*
X0014788Y0139685D02*
X0014330Y0139562D01*
X0011325Y0139562D01*
X0011325Y0143737D01*
X0015893Y0143737D01*
X0015893Y0141125D01*
X0015771Y0140667D01*
X0015534Y0140257D01*
X0015199Y0139922D01*
X0014788Y0139685D01*
X0015347Y0140070D02*
X0025760Y0140070D01*
X0024752Y0141669D02*
X0015893Y0141669D01*
X0015893Y0143268D02*
X0017717Y0143268D01*
X0017069Y0144866D02*
X0011325Y0144866D01*
X0011325Y0145287D02*
X0015893Y0145287D01*
X0015893Y0147898D01*
X0015771Y0148356D01*
X0015534Y0148767D01*
X0015199Y0149102D01*
X0014788Y0149339D01*
X0014330Y0149461D01*
X0011325Y0149461D01*
X0011325Y0145287D01*
X0011325Y0146465D02*
X0009775Y0146465D01*
X0009775Y0148063D02*
X0011325Y0148063D01*
X0015849Y0148063D02*
X0017069Y0148063D01*
X0017069Y0146465D02*
X0015893Y0146465D01*
X0017079Y0149662D02*
X0006907Y0149662D01*
X0006907Y0151260D02*
X0029743Y0151260D01*
X0030439Y0152859D02*
X0006907Y0152859D01*
X0006907Y0154457D02*
X0030217Y0154457D01*
X0026842Y0156056D02*
X0024377Y0156056D01*
X0022251Y0156056D02*
X0022251Y0156056D01*
X0022251Y0155483D02*
X0022251Y0164417D01*
X0022251Y0164417D01*
X0022251Y0155483D01*
X0022251Y0157654D02*
X0022251Y0157654D01*
X0022251Y0159253D02*
X0022251Y0159253D01*
X0022251Y0160851D02*
X0022251Y0160851D01*
X0022251Y0162450D02*
X0022251Y0162450D01*
X0022251Y0164048D02*
X0022251Y0164048D01*
X0018073Y0162450D02*
X0017291Y0162450D01*
X0018073Y0160851D02*
X0006907Y0160851D01*
X0006907Y0159253D02*
X0018085Y0159253D01*
X0018585Y0157654D02*
X0006907Y0157654D01*
X0006907Y0156056D02*
X0020125Y0156056D01*
X0020050Y0149662D02*
X0020050Y0149662D01*
X0020050Y0148063D02*
X0020050Y0148063D01*
X0020050Y0147023D02*
X0020050Y0142861D01*
X0020050Y0147023D01*
X0020050Y0147023D01*
X0020050Y0146465D02*
X0020050Y0146465D01*
X0020050Y0144866D02*
X0020050Y0144866D01*
X0020050Y0143268D02*
X0020050Y0143268D01*
X0022383Y0143268D02*
X0022990Y0143268D01*
X0029340Y0140070D02*
X0030693Y0140070D01*
X0030693Y0138472D02*
X0006907Y0138472D01*
X0009775Y0140070D02*
X0011325Y0140070D01*
X0011325Y0141669D02*
X0009775Y0141669D01*
X0009775Y0143268D02*
X0011325Y0143268D01*
X0014908Y0128881D02*
X0018138Y0128881D01*
X0017262Y0127282D02*
X0012532Y0127282D01*
X0012532Y0125684D02*
X0017262Y0125684D01*
X0017262Y0124085D02*
X0012532Y0124085D01*
X0012532Y0122487D02*
X0017262Y0122487D01*
X0018193Y0120888D02*
X0012532Y0120888D01*
X0012532Y0119290D02*
X0018193Y0119290D01*
X0018193Y0117691D02*
X0012532Y0117691D01*
X0012532Y0116093D02*
X0018193Y0116093D01*
X0018193Y0114494D02*
X0012532Y0114494D01*
X0012532Y0112896D02*
X0018193Y0112896D01*
X0018193Y0111297D02*
X0012532Y0111297D01*
X0012532Y0109699D02*
X0018193Y0109699D01*
X0017623Y0108100D02*
X0012532Y0108100D01*
X0012532Y0106502D02*
X0017243Y0106502D01*
X0017802Y0104903D02*
X0012532Y0104903D01*
X0012532Y0103305D02*
X0018193Y0103305D01*
X0018193Y0101706D02*
X0012532Y0101706D01*
X0012532Y0100108D02*
X0018193Y0100108D01*
X0018193Y0098509D02*
X0012532Y0098509D01*
X0012532Y0096911D02*
X0018193Y0096911D01*
X0018193Y0095312D02*
X0012532Y0095312D01*
X0012532Y0093714D02*
X0018193Y0093714D01*
X0018193Y0092115D02*
X0012532Y0092115D01*
X0012532Y0090517D02*
X0017588Y0090517D01*
X0017243Y0088918D02*
X0012532Y0088918D01*
X0021962Y0128881D02*
X0023138Y0128881D01*
X0026962Y0128881D02*
X0028138Y0128881D01*
X0030348Y0141669D02*
X0030693Y0141669D01*
X0008313Y0162450D02*
X0006907Y0162450D01*
X0007282Y0175238D02*
X0007717Y0175238D01*
X0010718Y0176836D02*
X0004350Y0176836D01*
X0004350Y0178435D02*
X0031108Y0178435D01*
X0028609Y0176836D02*
X0028491Y0176836D01*
X0022310Y0176836D02*
X0014886Y0176836D01*
X0017887Y0175238D02*
X0021479Y0175238D01*
X0021415Y0173639D02*
X0019486Y0173639D01*
X0020159Y0172041D02*
X0021415Y0172041D01*
X0021415Y0170442D02*
X0020708Y0170442D01*
X0020708Y0168844D02*
X0021415Y0168844D01*
X0018069Y0180033D02*
X0039031Y0180033D01*
X0037433Y0181632D02*
X0019667Y0181632D01*
X0020830Y0183230D02*
X0036269Y0183230D01*
X0035607Y0184829D02*
X0021493Y0184829D01*
X0021909Y0186427D02*
X0035191Y0186427D01*
X0035191Y0188026D02*
X0021909Y0188026D01*
X0021840Y0189624D02*
X0035260Y0189624D01*
X0035922Y0191223D02*
X0021178Y0191223D01*
X0020506Y0192821D02*
X0036594Y0192821D01*
X0038193Y0194420D02*
X0018907Y0194420D01*
X0016386Y0196018D02*
X0040714Y0196018D01*
X0007535Y0180033D02*
X0004350Y0180033D01*
X0004350Y0181632D02*
X0005936Y0181632D01*
X0004773Y0183230D02*
X0004350Y0183230D01*
X0106141Y0096911D02*
X0106513Y0096911D01*
X0107739Y0095312D02*
X0116943Y0095312D01*
X0116943Y0093714D02*
X0109338Y0093714D01*
X0109407Y0092115D02*
X0116943Y0092115D01*
X0116943Y0090517D02*
X0109407Y0090517D01*
X0109407Y0088918D02*
X0116943Y0088918D01*
X0116943Y0087320D02*
X0109407Y0087320D01*
X0109407Y0085721D02*
X0116943Y0085721D01*
X0116943Y0084123D02*
X0109407Y0084123D01*
X0109407Y0082524D02*
X0116943Y0082524D01*
X0116943Y0080926D02*
X0109407Y0080926D01*
X0109407Y0079327D02*
X0116943Y0079327D01*
X0116943Y0077729D02*
X0109791Y0077729D01*
X0110357Y0076130D02*
X0116943Y0076130D01*
X0117017Y0074532D02*
X0109980Y0074532D01*
X0070993Y0064940D02*
X0056907Y0064940D01*
X0056907Y0063342D02*
X0071345Y0063342D01*
X0038302Y0031372D02*
X0020032Y0031372D01*
X0020032Y0032970D02*
X0036703Y0032970D01*
X0039900Y0029773D02*
X0020032Y0029773D01*
X0004354Y0021781D02*
X0004350Y0021781D01*
X0004350Y0010591D02*
X0004453Y0010591D01*
X0010550Y0010591D02*
X0010950Y0010591D01*
X0010950Y0008993D02*
X0010550Y0008993D01*
X0010550Y0007394D02*
X0010950Y0007394D01*
X0058929Y0010591D02*
X0060444Y0010591D01*
X0059943Y0012190D02*
X0059350Y0012190D01*
X0059350Y0013788D02*
X0059943Y0013788D01*
X0060421Y0015387D02*
X0058952Y0015387D01*
X0067080Y0016985D02*
X0072020Y0016985D01*
X0072451Y0018584D02*
X0066649Y0018584D01*
X0068248Y0020182D02*
X0070852Y0020182D01*
X0069943Y0021781D02*
X0069157Y0021781D01*
X0069157Y0023379D02*
X0069943Y0023379D01*
X0070012Y0024978D02*
X0069088Y0024978D01*
X0067489Y0026576D02*
X0071611Y0026576D01*
X0062568Y0028175D02*
X0062436Y0028175D01*
X0061611Y0026576D02*
X0060752Y0026576D01*
X0068679Y0015387D02*
X0070421Y0015387D01*
X0069943Y0013788D02*
X0069157Y0013788D01*
X0069157Y0012190D02*
X0069943Y0012190D01*
X0070444Y0010591D02*
X0068656Y0010591D01*
D30*
X0148550Y0010000D02*
X0148800Y0010375D01*
X0151925Y0013500D01*
X0151925Y0017250D01*
X0153800Y0019125D01*
X0154050Y0019370D01*
X0158800Y0019125D02*
X0159050Y0019370D01*
X0158800Y0019125D02*
X0158800Y0010375D01*
X0158550Y0010000D01*
X0172550Y0027875D02*
X0172862Y0028187D01*
X0172550Y0028500D01*
X0172550Y0051000D01*
X0177550Y0056000D01*
X0177550Y0056598D01*
X0189550Y0056598D02*
X0190050Y0056000D01*
X0194425Y0051625D01*
X0194425Y0027250D01*
X0190050Y0022875D01*
X0189550Y0022402D01*
X0189425Y0022250D01*
X0189425Y0016625D01*
X0179425Y0016625D01*
X0178550Y0022402D02*
X0178175Y0022875D01*
X0172862Y0028187D01*
M02*
