G75*
%MOIN*%
%OFA0B0*%
%FSLAX25Y25*%
%IPPOS*%
%LPD*%
%AMOC8*
5,1,8,0,0,1.08239X$1,22.5*
%
%ADD10C,0.00000*%
%ADD11C,0.06400*%
%ADD12R,0.06699X0.11030*%
%ADD13R,0.05124X0.01581*%
%ADD14R,0.01581X0.05124*%
%ADD15OC8,0.06400*%
%ADD16R,0.05912X0.02762*%
%ADD17R,0.08400X0.05400*%
%ADD18R,0.07498X0.06699*%
%ADD19C,0.15400*%
%ADD20C,0.12998*%
%ADD21C,0.05156*%
%ADD22R,0.06699X0.07498*%
%ADD23C,0.05600*%
D10*
X0002100Y0001100D02*
X0002100Y0197950D01*
X0198950Y0197950D01*
X0198950Y0001100D01*
X0002100Y0001100D01*
D11*
X0007300Y0008200D02*
X0013300Y0008200D01*
X0013300Y0026000D02*
X0007300Y0026000D01*
X0032900Y0026000D02*
X0038900Y0026000D01*
X0038900Y0008200D02*
X0032900Y0008200D01*
X0032100Y0126100D02*
X0038100Y0126100D01*
X0038100Y0136100D02*
X0032100Y0136100D01*
X0025100Y0136100D02*
X0019100Y0136100D01*
X0012100Y0136100D02*
X0006100Y0136100D01*
X0006100Y0126100D02*
X0012100Y0126100D01*
X0019100Y0126100D02*
X0025100Y0126100D01*
X0025100Y0146100D02*
X0019100Y0146100D01*
X0012100Y0146100D02*
X0006100Y0146100D01*
X0006100Y0156100D02*
X0012100Y0156100D01*
X0019100Y0156100D02*
X0025100Y0156100D01*
X0032100Y0156100D02*
X0038100Y0156100D01*
X0038100Y0146100D02*
X0032100Y0146100D01*
X0029100Y0174100D02*
X0029100Y0180100D01*
X0029100Y0187100D02*
X0029100Y0193100D01*
X0019100Y0193100D02*
X0019100Y0187100D01*
X0019100Y0180100D02*
X0019100Y0174100D01*
X0009100Y0174100D02*
X0009100Y0180100D01*
X0009100Y0187100D02*
X0009100Y0193100D01*
X0170100Y0012100D02*
X0170100Y0006100D01*
X0180100Y0006100D02*
X0180100Y0012100D01*
X0190100Y0012100D02*
X0190100Y0006100D01*
D12*
X0133612Y0057100D03*
X0122588Y0057100D03*
D13*
X0112368Y0085273D03*
X0112368Y0087242D03*
X0112368Y0089210D03*
X0112368Y0091179D03*
X0112368Y0093147D03*
X0112368Y0095116D03*
X0112368Y0097084D03*
X0112368Y0099053D03*
X0112368Y0101021D03*
X0112368Y0102990D03*
X0112368Y0104958D03*
X0112368Y0106927D03*
X0145832Y0106927D03*
X0145832Y0104958D03*
X0145832Y0102990D03*
X0145832Y0101021D03*
X0145832Y0099053D03*
X0145832Y0097084D03*
X0145832Y0095116D03*
X0145832Y0093147D03*
X0145832Y0091179D03*
X0145832Y0089210D03*
X0145832Y0087242D03*
X0145832Y0085273D03*
D14*
X0139927Y0079368D03*
X0137958Y0079368D03*
X0135990Y0079368D03*
X0134021Y0079368D03*
X0132053Y0079368D03*
X0130084Y0079368D03*
X0128116Y0079368D03*
X0126147Y0079368D03*
X0124179Y0079368D03*
X0122210Y0079368D03*
X0120242Y0079368D03*
X0118273Y0079368D03*
X0118273Y0112832D03*
X0120242Y0112832D03*
X0122210Y0112832D03*
X0124179Y0112832D03*
X0126147Y0112832D03*
X0128116Y0112832D03*
X0130084Y0112832D03*
X0132053Y0112832D03*
X0134021Y0112832D03*
X0135990Y0112832D03*
X0137958Y0112832D03*
X0139927Y0112832D03*
D15*
X0181100Y0109100D03*
X0181100Y0099100D03*
X0181100Y0089100D03*
X0181100Y0079100D03*
X0181100Y0069100D03*
X0191100Y0069100D03*
X0191100Y0079100D03*
X0191100Y0089100D03*
X0191100Y0099100D03*
X0191100Y0109100D03*
X0191100Y0119100D03*
X0191100Y0129100D03*
X0191100Y0139100D03*
X0181100Y0139100D03*
X0181100Y0129100D03*
X0181100Y0119100D03*
X0146100Y0182100D03*
X0146100Y0192100D03*
X0136100Y0192100D03*
X0136100Y0182100D03*
X0126100Y0182100D03*
X0116100Y0182100D03*
X0116100Y0192100D03*
X0126100Y0192100D03*
X0106100Y0192100D03*
X0106100Y0182100D03*
X0096100Y0182100D03*
X0096100Y0192100D03*
X0086100Y0192100D03*
X0086100Y0182100D03*
X0076100Y0182100D03*
X0076100Y0192100D03*
X0072100Y0024100D03*
X0072100Y0014100D03*
X0062100Y0014100D03*
X0052100Y0014100D03*
X0052100Y0024100D03*
X0062100Y0024100D03*
D16*
X0111470Y0025600D03*
X0111470Y0020600D03*
X0111470Y0015600D03*
X0111470Y0030600D03*
X0132730Y0030600D03*
X0132730Y0025600D03*
X0132730Y0020600D03*
X0132730Y0015600D03*
D17*
X0144100Y0032600D03*
X0144100Y0045600D03*
D18*
X0168100Y0045502D03*
X0168100Y0056698D03*
X0189100Y0056698D03*
X0189100Y0045502D03*
X0189100Y0033698D03*
X0189100Y0022502D03*
X0168100Y0022502D03*
X0168100Y0033698D03*
X0150100Y0142502D03*
X0140100Y0142502D03*
X0140100Y0153698D03*
X0150100Y0153698D03*
D19*
X0186746Y0155352D03*
X0186746Y0186848D03*
D20*
X0168242Y0186848D03*
X0168242Y0155352D03*
D21*
X0163517Y0164801D02*
X0158761Y0164801D01*
X0158761Y0171100D02*
X0163517Y0171100D01*
X0168635Y0167950D02*
X0173391Y0167950D01*
X0173391Y0174250D02*
X0168635Y0174250D01*
X0163517Y0177399D02*
X0158761Y0177399D01*
D22*
X0094698Y0072100D03*
X0083502Y0072100D03*
X0083502Y0061100D03*
X0094698Y0061100D03*
X0094698Y0049100D03*
X0083502Y0049100D03*
X0069698Y0049100D03*
X0058502Y0049100D03*
X0058502Y0061100D03*
X0069698Y0061100D03*
X0069698Y0072100D03*
X0058502Y0072100D03*
D23*
X0102100Y0086600D03*
X0102100Y0105600D03*
M02*
