G75*
%MOIN*%
%OFA0B0*%
%FSLAX25Y25*%
%IPPOS*%
%LPD*%
%AMOC8*
5,1,8,0,0,1.08239X$1,22.5*
%
%ADD10C,0.00000*%
%ADD11C,0.06400*%
%ADD12R,0.06699X0.11030*%
%ADD13OC8,0.06400*%
%ADD14R,0.05912X0.02762*%
%ADD15R,0.08400X0.05400*%
%ADD16R,0.07498X0.06699*%
%ADD17C,0.15400*%
%ADD18C,0.12998*%
%ADD19C,0.05156*%
%ADD20R,0.06699X0.07498*%
%ADD21C,0.05600*%
%ADD22R,0.07487X0.06699*%
%ADD23R,0.02762X0.05124*%
D10*
X0009000Y0001100D02*
X0009000Y0197950D01*
X0205850Y0197950D01*
X0205850Y0001100D01*
X0009000Y0001100D01*
D11*
X0014200Y0007200D02*
X0020200Y0007200D01*
X0020200Y0025000D02*
X0014200Y0025000D01*
X0039800Y0025000D02*
X0045800Y0025000D01*
X0045800Y0007200D02*
X0039800Y0007200D01*
X0039000Y0126100D02*
X0045000Y0126100D01*
X0045000Y0136100D02*
X0039000Y0136100D01*
X0032000Y0136100D02*
X0026000Y0136100D01*
X0019000Y0136100D02*
X0013000Y0136100D01*
X0013000Y0126100D02*
X0019000Y0126100D01*
X0026000Y0126100D02*
X0032000Y0126100D01*
X0032000Y0146100D02*
X0026000Y0146100D01*
X0019000Y0146100D02*
X0013000Y0146100D01*
X0013000Y0156100D02*
X0019000Y0156100D01*
X0026000Y0156100D02*
X0032000Y0156100D01*
X0039000Y0156100D02*
X0045000Y0156100D01*
X0045000Y0146100D02*
X0039000Y0146100D01*
X0036000Y0174100D02*
X0036000Y0180100D01*
X0036000Y0187100D02*
X0036000Y0193100D01*
X0026000Y0193100D02*
X0026000Y0187100D01*
X0026000Y0180100D02*
X0026000Y0174100D01*
X0016000Y0174100D02*
X0016000Y0180100D01*
X0016000Y0187100D02*
X0016000Y0193100D01*
X0145000Y0172100D02*
X0145000Y0166100D01*
X0155000Y0166100D02*
X0155000Y0172100D01*
X0177000Y0012100D02*
X0177000Y0006100D01*
X0187000Y0006100D02*
X0187000Y0012100D01*
X0197000Y0012100D02*
X0197000Y0006100D01*
D12*
X0140512Y0057100D03*
X0129488Y0057100D03*
D13*
X0079000Y0024100D03*
X0069000Y0024100D03*
X0069000Y0014100D03*
X0079000Y0014100D03*
X0059000Y0014100D03*
X0059000Y0024100D03*
X0188000Y0069100D03*
X0188000Y0079100D03*
X0188000Y0089100D03*
X0188000Y0099100D03*
X0188000Y0109100D03*
X0188000Y0119100D03*
X0188000Y0129100D03*
X0188000Y0139100D03*
X0198000Y0139100D03*
X0198000Y0129100D03*
X0198000Y0119100D03*
X0198000Y0109100D03*
X0198000Y0099100D03*
X0198000Y0089100D03*
X0198000Y0079100D03*
X0198000Y0069100D03*
X0157000Y0182100D03*
X0157000Y0192100D03*
X0147000Y0192100D03*
X0137000Y0192100D03*
X0137000Y0182100D03*
X0147000Y0182100D03*
X0127000Y0182100D03*
X0127000Y0192100D03*
X0117000Y0192100D03*
X0107000Y0192100D03*
X0107000Y0182100D03*
X0117000Y0182100D03*
X0097000Y0182100D03*
X0097000Y0192100D03*
X0087000Y0192100D03*
X0087000Y0182100D03*
D14*
X0139370Y0033600D03*
X0139370Y0028600D03*
X0139370Y0023600D03*
X0139370Y0018600D03*
X0160630Y0018600D03*
X0160630Y0023600D03*
X0160630Y0028600D03*
X0160630Y0033600D03*
D15*
X0159000Y0048600D03*
X0159000Y0061600D03*
D16*
X0175000Y0056698D03*
X0175000Y0045502D03*
X0175000Y0033698D03*
X0175000Y0022502D03*
X0196000Y0022502D03*
X0196000Y0033698D03*
X0196000Y0045502D03*
X0196000Y0056698D03*
X0158000Y0135502D03*
X0147000Y0135502D03*
X0147000Y0146698D03*
X0158000Y0146698D03*
D17*
X0193646Y0155352D03*
X0193646Y0186848D03*
X0020354Y0109848D03*
X0020354Y0078352D03*
D18*
X0038858Y0078352D03*
X0038858Y0109848D03*
X0175142Y0155352D03*
X0175142Y0186848D03*
D19*
X0170417Y0177399D02*
X0165661Y0177399D01*
X0165661Y0171100D02*
X0170417Y0171100D01*
X0175535Y0167950D02*
X0180291Y0167950D01*
X0180291Y0174250D02*
X0175535Y0174250D01*
X0170417Y0164801D02*
X0165661Y0164801D01*
X0048339Y0100399D02*
X0043583Y0100399D01*
X0038465Y0097250D02*
X0033709Y0097250D01*
X0033709Y0090950D02*
X0038465Y0090950D01*
X0043583Y0087801D02*
X0048339Y0087801D01*
X0048339Y0094100D02*
X0043583Y0094100D01*
D20*
X0064402Y0076100D03*
X0075598Y0076100D03*
X0085402Y0076100D03*
X0085402Y0065100D03*
X0075598Y0065100D03*
X0064402Y0065100D03*
X0064402Y0053100D03*
X0075598Y0053100D03*
X0085402Y0053100D03*
X0096598Y0053100D03*
X0096598Y0065100D03*
X0096598Y0076100D03*
D21*
X0109000Y0085600D03*
X0109000Y0104600D03*
X0085500Y0164100D03*
X0066500Y0164100D03*
D22*
X0055000Y0160588D03*
X0055000Y0171612D03*
X0102000Y0171612D03*
X0102000Y0160588D03*
D23*
X0091500Y0148124D03*
X0086500Y0148124D03*
X0081500Y0148124D03*
X0076500Y0148124D03*
X0071500Y0148124D03*
X0066500Y0148124D03*
X0061500Y0148124D03*
X0056500Y0148124D03*
X0056500Y0126076D03*
X0061500Y0126076D03*
X0066500Y0126076D03*
X0071500Y0126076D03*
X0076500Y0126076D03*
X0081500Y0126076D03*
X0086500Y0126076D03*
X0091500Y0126076D03*
M02*
