G75*
%MOIN*%
%OFA0B0*%
%FSLAX25Y25*%
%IPPOS*%
%LPD*%
%AMOC8*
5,1,8,0,0,1.08239X$1,22.5*
%
%ADD10C,0.00000*%
%ADD11C,0.00300*%
%ADD12C,0.00600*%
%ADD13C,0.00500*%
%ADD14C,0.00400*%
%ADD15R,0.00787X0.00787*%
%ADD16R,0.00984X0.00591*%
%ADD17R,0.00591X0.00984*%
%ADD18C,0.01600*%
%ADD19C,0.00200*%
D10*
X0002550Y0001000D02*
X0002550Y0197850D01*
X0199400Y0197850D01*
X0199400Y0001000D01*
X0002550Y0001000D01*
D11*
X0045860Y0004434D02*
X0046344Y0003950D01*
X0047312Y0003950D01*
X0047795Y0004434D01*
X0047795Y0005401D01*
X0046828Y0005401D01*
X0045860Y0006369D02*
X0045860Y0004434D01*
X0045860Y0006369D02*
X0046344Y0006852D01*
X0047312Y0006852D01*
X0047795Y0006369D01*
X0048807Y0006852D02*
X0050742Y0003950D01*
X0050742Y0006852D01*
X0051753Y0006852D02*
X0053205Y0006852D01*
X0053688Y0006369D01*
X0053688Y0004434D01*
X0053205Y0003950D01*
X0051753Y0003950D01*
X0051753Y0006852D01*
X0048807Y0006852D02*
X0048807Y0003950D01*
X0056967Y0004434D02*
X0057451Y0003950D01*
X0058419Y0003950D01*
X0058902Y0004434D01*
X0058902Y0004917D01*
X0058419Y0005401D01*
X0057451Y0005401D01*
X0056967Y0005885D01*
X0056967Y0006369D01*
X0057451Y0006852D01*
X0058419Y0006852D01*
X0058902Y0006369D01*
X0059914Y0006852D02*
X0059914Y0003950D01*
X0060881Y0004917D01*
X0061849Y0003950D01*
X0061849Y0006852D01*
X0062860Y0006369D02*
X0062860Y0004434D01*
X0063344Y0003950D01*
X0064312Y0003950D01*
X0064795Y0004434D01*
X0065807Y0003950D02*
X0067742Y0003950D01*
X0068753Y0003950D02*
X0068753Y0006852D01*
X0069237Y0005401D02*
X0070688Y0003950D01*
X0068753Y0004917D02*
X0070688Y0006852D01*
X0073700Y0006569D02*
X0073700Y0006085D01*
X0074184Y0005601D01*
X0075151Y0005601D01*
X0075635Y0005117D01*
X0075635Y0004634D01*
X0075151Y0004150D01*
X0074184Y0004150D01*
X0073700Y0004634D01*
X0073700Y0006569D02*
X0074184Y0007052D01*
X0075151Y0007052D01*
X0075635Y0006569D01*
X0076647Y0007052D02*
X0076647Y0004150D01*
X0077614Y0005117D01*
X0078581Y0004150D01*
X0078581Y0007052D01*
X0079593Y0007052D02*
X0081044Y0007052D01*
X0081528Y0006569D01*
X0081528Y0004634D01*
X0081044Y0004150D01*
X0079593Y0004150D01*
X0079593Y0007052D01*
X0082540Y0007052D02*
X0083507Y0007052D01*
X0083023Y0007052D02*
X0083023Y0004150D01*
X0082540Y0004150D02*
X0083507Y0004150D01*
X0084504Y0004634D02*
X0084988Y0004150D01*
X0085955Y0004150D01*
X0086439Y0004634D01*
X0086439Y0006569D01*
X0085955Y0007052D01*
X0084988Y0007052D01*
X0084504Y0006569D01*
X0084504Y0004634D01*
X0065807Y0003950D02*
X0065807Y0006852D01*
X0064795Y0006369D02*
X0064312Y0006852D01*
X0063344Y0006852D01*
X0062860Y0006369D01*
X0063433Y0030150D02*
X0063433Y0031601D01*
X0062949Y0032085D01*
X0061981Y0032085D01*
X0061498Y0031601D01*
X0061498Y0030150D01*
X0064400Y0030150D01*
X0063433Y0031117D02*
X0064400Y0032085D01*
X0064400Y0033097D02*
X0064400Y0035031D01*
X0063916Y0036043D02*
X0064400Y0036527D01*
X0064400Y0037494D01*
X0063916Y0037978D01*
X0063433Y0037978D01*
X0062949Y0037494D01*
X0062949Y0036527D01*
X0062465Y0036043D01*
X0061981Y0036043D01*
X0061498Y0036527D01*
X0061498Y0037494D01*
X0061981Y0037978D01*
X0061498Y0038990D02*
X0064400Y0038990D01*
X0064400Y0040925D01*
X0062949Y0039957D02*
X0062949Y0038990D01*
X0061498Y0038990D02*
X0061498Y0040925D01*
X0061498Y0041936D02*
X0061498Y0043871D01*
X0061498Y0042904D02*
X0064400Y0042904D01*
X0071498Y0037494D02*
X0071498Y0036527D01*
X0071981Y0036043D01*
X0073916Y0036043D01*
X0074400Y0036527D01*
X0074400Y0037494D01*
X0073916Y0037978D01*
X0071981Y0037978D02*
X0071498Y0037494D01*
X0071981Y0035031D02*
X0071498Y0034548D01*
X0071498Y0033580D01*
X0071981Y0033097D01*
X0073916Y0033097D01*
X0074400Y0033580D01*
X0074400Y0034548D01*
X0073916Y0035031D01*
X0073433Y0032085D02*
X0071498Y0032085D01*
X0073433Y0032085D02*
X0074400Y0031117D01*
X0073433Y0030150D01*
X0071498Y0030150D01*
X0064400Y0033097D02*
X0061498Y0033097D01*
X0061498Y0035031D01*
X0062949Y0034064D02*
X0062949Y0033097D01*
X0056400Y0033097D02*
X0055433Y0034064D01*
X0056400Y0035031D01*
X0053498Y0035031D01*
X0053981Y0036043D02*
X0055916Y0036043D01*
X0056400Y0036527D01*
X0056400Y0037494D01*
X0055916Y0037978D01*
X0053981Y0037978D01*
X0053498Y0037494D01*
X0053498Y0036527D01*
X0053981Y0036043D01*
X0053498Y0033097D02*
X0056400Y0033097D01*
X0055916Y0032085D02*
X0056400Y0031601D01*
X0056400Y0030634D01*
X0055916Y0030150D01*
X0054949Y0030634D02*
X0054949Y0031601D01*
X0055433Y0032085D01*
X0055916Y0032085D01*
X0054949Y0030634D02*
X0054465Y0030150D01*
X0053981Y0030150D01*
X0053498Y0030634D01*
X0053498Y0031601D01*
X0053981Y0032085D01*
X0163700Y0119150D02*
X0163700Y0122052D01*
X0165151Y0122052D01*
X0165635Y0121569D01*
X0165635Y0120601D01*
X0165151Y0120117D01*
X0163700Y0120117D01*
X0166647Y0120601D02*
X0168098Y0120601D01*
X0168581Y0120117D01*
X0168581Y0119634D01*
X0168098Y0119150D01*
X0166647Y0119150D01*
X0166647Y0122052D01*
X0168098Y0122052D01*
X0168581Y0121569D01*
X0168581Y0121085D01*
X0168098Y0120601D01*
X0169593Y0121085D02*
X0170561Y0122052D01*
X0170561Y0119150D01*
X0171528Y0119150D02*
X0169593Y0119150D01*
X0172540Y0120601D02*
X0174475Y0120601D01*
X0173991Y0119150D02*
X0173991Y0122052D01*
X0172540Y0120601D01*
X0173475Y0130150D02*
X0171540Y0130150D01*
X0173475Y0132085D01*
X0173475Y0132569D01*
X0172991Y0133052D01*
X0172023Y0133052D01*
X0171540Y0132569D01*
X0169561Y0133052D02*
X0169561Y0130150D01*
X0170528Y0130150D02*
X0168593Y0130150D01*
X0167581Y0130634D02*
X0167581Y0131117D01*
X0167098Y0131601D01*
X0165647Y0131601D01*
X0164635Y0131601D02*
X0164151Y0131117D01*
X0162700Y0131117D01*
X0162700Y0130150D02*
X0162700Y0133052D01*
X0164151Y0133052D01*
X0164635Y0132569D01*
X0164635Y0131601D01*
X0165647Y0130150D02*
X0165647Y0133052D01*
X0167098Y0133052D01*
X0167581Y0132569D01*
X0167581Y0132085D01*
X0167098Y0131601D01*
X0167581Y0130634D02*
X0167098Y0130150D01*
X0165647Y0130150D01*
X0168593Y0132085D02*
X0169561Y0133052D01*
X0169593Y0139150D02*
X0171528Y0139150D01*
X0170561Y0139150D02*
X0170561Y0142052D01*
X0169593Y0141085D01*
X0168581Y0141085D02*
X0168098Y0140601D01*
X0166647Y0140601D01*
X0165635Y0140601D02*
X0165635Y0141569D01*
X0165151Y0142052D01*
X0163700Y0142052D01*
X0163700Y0139150D01*
X0163700Y0140117D02*
X0165151Y0140117D01*
X0165635Y0140601D01*
X0166647Y0139150D02*
X0168098Y0139150D01*
X0168581Y0139634D01*
X0168581Y0140117D01*
X0168098Y0140601D01*
X0168581Y0141085D02*
X0168581Y0141569D01*
X0168098Y0142052D01*
X0166647Y0142052D01*
X0166647Y0139150D01*
X0172540Y0139634D02*
X0172540Y0141569D01*
X0173023Y0142052D01*
X0173991Y0142052D01*
X0174475Y0141569D01*
X0172540Y0139634D01*
X0173023Y0139150D01*
X0173991Y0139150D01*
X0174475Y0139634D01*
X0174475Y0141569D01*
X0173044Y0149150D02*
X0172077Y0149150D01*
X0171593Y0149634D01*
X0171593Y0150117D01*
X0172077Y0150601D01*
X0173044Y0150601D01*
X0173528Y0150117D01*
X0173528Y0149634D01*
X0173044Y0149150D01*
X0173044Y0150601D02*
X0173528Y0151085D01*
X0173528Y0151569D01*
X0173044Y0152052D01*
X0172077Y0152052D01*
X0171593Y0151569D01*
X0171593Y0151085D01*
X0172077Y0150601D01*
X0170581Y0150117D02*
X0170581Y0149634D01*
X0170098Y0149150D01*
X0168647Y0149150D01*
X0168647Y0152052D01*
X0170098Y0152052D01*
X0170581Y0151569D01*
X0170581Y0151085D01*
X0170098Y0150601D01*
X0168647Y0150601D01*
X0167635Y0150601D02*
X0167151Y0150117D01*
X0165700Y0150117D01*
X0165700Y0149150D02*
X0165700Y0152052D01*
X0167151Y0152052D01*
X0167635Y0151569D01*
X0167635Y0150601D01*
X0170098Y0150601D02*
X0170581Y0150117D01*
X0170098Y0160150D02*
X0168647Y0160150D01*
X0168647Y0163052D01*
X0170098Y0163052D01*
X0170581Y0162569D01*
X0170581Y0162085D01*
X0170098Y0161601D01*
X0168647Y0161601D01*
X0167635Y0161601D02*
X0167635Y0162569D01*
X0167151Y0163052D01*
X0165700Y0163052D01*
X0165700Y0160150D01*
X0165700Y0161117D02*
X0167151Y0161117D01*
X0167635Y0161601D01*
X0170098Y0161601D02*
X0170581Y0161117D01*
X0170581Y0160634D01*
X0170098Y0160150D01*
X0171593Y0160634D02*
X0172077Y0160150D01*
X0173044Y0160150D01*
X0173528Y0160634D01*
X0173528Y0161117D01*
X0173044Y0161601D01*
X0171593Y0161601D01*
X0171593Y0160634D01*
X0171593Y0161601D02*
X0172561Y0162569D01*
X0173528Y0163052D01*
X0173044Y0170150D02*
X0173044Y0173052D01*
X0171593Y0171601D01*
X0173528Y0171601D01*
X0170581Y0171117D02*
X0170581Y0170634D01*
X0170098Y0170150D01*
X0168647Y0170150D01*
X0168647Y0173052D01*
X0170098Y0173052D01*
X0170581Y0172569D01*
X0170581Y0172085D01*
X0170098Y0171601D01*
X0168647Y0171601D01*
X0167635Y0171601D02*
X0167151Y0171117D01*
X0165700Y0171117D01*
X0165700Y0170150D02*
X0165700Y0173052D01*
X0167151Y0173052D01*
X0167635Y0172569D01*
X0167635Y0171601D01*
X0170098Y0171601D02*
X0170581Y0171117D01*
X0170098Y0179150D02*
X0168647Y0179150D01*
X0168647Y0182052D01*
X0170098Y0182052D01*
X0170581Y0181569D01*
X0170581Y0181085D01*
X0170098Y0180601D01*
X0168647Y0180601D01*
X0167635Y0180601D02*
X0167635Y0181569D01*
X0167151Y0182052D01*
X0165700Y0182052D01*
X0165700Y0179150D01*
X0165700Y0180117D02*
X0167151Y0180117D01*
X0167635Y0180601D01*
X0170098Y0180601D02*
X0170581Y0180117D01*
X0170581Y0179634D01*
X0170098Y0179150D01*
X0171593Y0179150D02*
X0173528Y0181085D01*
X0173528Y0181569D01*
X0173044Y0182052D01*
X0172077Y0182052D01*
X0171593Y0181569D01*
X0171593Y0179150D02*
X0173528Y0179150D01*
X0172205Y0188950D02*
X0171237Y0188950D01*
X0170753Y0189434D01*
X0172688Y0191369D01*
X0172688Y0189434D01*
X0172205Y0188950D01*
X0170753Y0189434D02*
X0170753Y0191369D01*
X0171237Y0191852D01*
X0172205Y0191852D01*
X0172688Y0191369D01*
X0169742Y0191369D02*
X0169742Y0190885D01*
X0169258Y0190401D01*
X0167807Y0190401D01*
X0166795Y0190401D02*
X0166312Y0189917D01*
X0164860Y0189917D01*
X0164860Y0188950D02*
X0164860Y0191852D01*
X0166312Y0191852D01*
X0166795Y0191369D01*
X0166795Y0190401D01*
X0167807Y0188950D02*
X0169258Y0188950D01*
X0169742Y0189434D01*
X0169742Y0189917D01*
X0169258Y0190401D01*
X0169742Y0191369D02*
X0169258Y0191852D01*
X0167807Y0191852D01*
X0167807Y0188950D01*
X0166991Y0193150D02*
X0166023Y0193150D01*
X0165540Y0193634D01*
X0165540Y0194601D02*
X0166507Y0195085D01*
X0166991Y0195085D01*
X0167475Y0194601D01*
X0167475Y0193634D01*
X0166991Y0193150D01*
X0165540Y0194601D02*
X0165540Y0196052D01*
X0167475Y0196052D01*
X0163561Y0196052D02*
X0163561Y0193150D01*
X0164528Y0193150D02*
X0162593Y0193150D01*
X0161581Y0193150D02*
X0161581Y0195085D01*
X0160614Y0196052D01*
X0159647Y0195085D01*
X0159647Y0193150D01*
X0159647Y0194601D02*
X0161581Y0194601D01*
X0162593Y0195085D02*
X0163561Y0196052D01*
X0158635Y0195569D02*
X0158635Y0194601D01*
X0158151Y0194117D01*
X0156700Y0194117D01*
X0156700Y0193150D02*
X0156700Y0196052D01*
X0158151Y0196052D01*
X0158635Y0195569D01*
X0138400Y0175925D02*
X0138400Y0173990D01*
X0136465Y0175925D01*
X0135981Y0175925D01*
X0135498Y0175441D01*
X0135498Y0174473D01*
X0135981Y0173990D01*
X0135498Y0172011D02*
X0138400Y0172011D01*
X0138400Y0172978D02*
X0138400Y0171043D01*
X0138400Y0170031D02*
X0136465Y0170031D01*
X0135498Y0169064D01*
X0136465Y0168097D01*
X0138400Y0168097D01*
X0136949Y0168097D02*
X0136949Y0170031D01*
X0136465Y0171043D02*
X0135498Y0172011D01*
X0135981Y0167085D02*
X0136949Y0167085D01*
X0137433Y0166601D01*
X0137433Y0165150D01*
X0138400Y0165150D02*
X0135498Y0165150D01*
X0135498Y0166601D01*
X0135981Y0167085D01*
X0128400Y0168097D02*
X0126465Y0168097D01*
X0125498Y0169064D01*
X0126465Y0170031D01*
X0128400Y0170031D01*
X0128400Y0171043D02*
X0128400Y0172978D01*
X0128400Y0172011D02*
X0125498Y0172011D01*
X0126465Y0171043D01*
X0126949Y0170031D02*
X0126949Y0168097D01*
X0126949Y0167085D02*
X0127433Y0166601D01*
X0127433Y0165150D01*
X0128400Y0165150D02*
X0125498Y0165150D01*
X0125498Y0166601D01*
X0125981Y0167085D01*
X0126949Y0167085D01*
X0127916Y0173990D02*
X0125981Y0173990D01*
X0125498Y0174473D01*
X0125498Y0175441D01*
X0125981Y0175925D01*
X0127916Y0173990D01*
X0128400Y0174473D01*
X0128400Y0175441D01*
X0127916Y0175925D01*
X0125981Y0175925D01*
X0118400Y0174494D02*
X0118400Y0173527D01*
X0117916Y0173043D01*
X0117433Y0173043D01*
X0116949Y0173527D01*
X0116949Y0174494D01*
X0117433Y0174978D01*
X0117916Y0174978D01*
X0118400Y0174494D01*
X0116949Y0174494D02*
X0116465Y0174978D01*
X0115981Y0174978D01*
X0115498Y0174494D01*
X0115498Y0173527D01*
X0115981Y0173043D01*
X0116465Y0173043D01*
X0116949Y0173527D01*
X0116949Y0172031D02*
X0116949Y0170097D01*
X0116465Y0170097D02*
X0115498Y0171064D01*
X0116465Y0172031D01*
X0118400Y0172031D01*
X0118400Y0170097D02*
X0116465Y0170097D01*
X0115981Y0169085D02*
X0116949Y0169085D01*
X0117433Y0168601D01*
X0117433Y0167150D01*
X0118400Y0167150D02*
X0115498Y0167150D01*
X0115498Y0168601D01*
X0115981Y0169085D01*
X0108400Y0170097D02*
X0106465Y0170097D01*
X0105498Y0171064D01*
X0106465Y0172031D01*
X0108400Y0172031D01*
X0107916Y0173043D02*
X0106949Y0173043D01*
X0106949Y0174494D01*
X0107433Y0174978D01*
X0107916Y0174978D01*
X0108400Y0174494D01*
X0108400Y0173527D01*
X0107916Y0173043D01*
X0106949Y0173043D02*
X0105981Y0174011D01*
X0105498Y0174978D01*
X0106949Y0172031D02*
X0106949Y0170097D01*
X0106949Y0169085D02*
X0107433Y0168601D01*
X0107433Y0167150D01*
X0108400Y0167150D02*
X0105498Y0167150D01*
X0105498Y0168601D01*
X0105981Y0169085D01*
X0106949Y0169085D01*
X0098400Y0170097D02*
X0096465Y0170097D01*
X0095498Y0171064D01*
X0096465Y0172031D01*
X0098400Y0172031D01*
X0096949Y0172031D02*
X0096949Y0170097D01*
X0096949Y0169085D02*
X0097433Y0168601D01*
X0097433Y0167150D01*
X0098400Y0167150D02*
X0095498Y0167150D01*
X0095498Y0168601D01*
X0095981Y0169085D01*
X0096949Y0169085D01*
X0096949Y0173043D02*
X0095498Y0174494D01*
X0098400Y0174494D01*
X0096949Y0174978D02*
X0096949Y0173043D01*
X0088400Y0173043D02*
X0086465Y0174978D01*
X0085981Y0174978D01*
X0085498Y0174494D01*
X0085498Y0173527D01*
X0085981Y0173043D01*
X0086465Y0172031D02*
X0085498Y0171064D01*
X0086465Y0170097D01*
X0088400Y0170097D01*
X0086949Y0170097D02*
X0086949Y0172031D01*
X0086465Y0172031D02*
X0088400Y0172031D01*
X0088400Y0173043D02*
X0088400Y0174978D01*
X0086949Y0169085D02*
X0085981Y0169085D01*
X0085498Y0168601D01*
X0085498Y0167150D01*
X0088400Y0167150D01*
X0087433Y0167150D02*
X0087433Y0168601D01*
X0086949Y0169085D01*
X0070528Y0180634D02*
X0070044Y0180150D01*
X0069077Y0180150D01*
X0068593Y0180634D01*
X0070528Y0182569D01*
X0070528Y0180634D01*
X0070528Y0182569D02*
X0070044Y0183052D01*
X0069077Y0183052D01*
X0068593Y0182569D01*
X0068593Y0180634D01*
X0067581Y0180150D02*
X0067581Y0182085D01*
X0066614Y0183052D01*
X0065647Y0182085D01*
X0065647Y0180150D01*
X0065647Y0181601D02*
X0067581Y0181601D01*
X0064635Y0181601D02*
X0064151Y0181117D01*
X0062700Y0181117D01*
X0062700Y0180150D02*
X0062700Y0183052D01*
X0064151Y0183052D01*
X0064635Y0182569D01*
X0064635Y0181601D01*
X0055600Y0182224D02*
X0052698Y0182224D01*
X0052698Y0181257D02*
X0052698Y0183192D01*
X0053665Y0184203D02*
X0052698Y0185171D01*
X0055600Y0185171D01*
X0055600Y0186138D02*
X0055600Y0184203D01*
X0055600Y0180245D02*
X0054633Y0179278D01*
X0054633Y0179762D02*
X0054633Y0178310D01*
X0055600Y0178310D02*
X0052698Y0178310D01*
X0052698Y0179762D01*
X0053181Y0180245D01*
X0054149Y0180245D01*
X0054633Y0179762D01*
X0054149Y0177299D02*
X0054149Y0175364D01*
X0053665Y0175364D02*
X0052698Y0176331D01*
X0053665Y0177299D01*
X0055600Y0177299D01*
X0055600Y0175364D02*
X0053665Y0175364D01*
X0052698Y0174352D02*
X0055116Y0174352D01*
X0055600Y0173869D01*
X0055600Y0172901D01*
X0055116Y0172417D01*
X0052698Y0172417D01*
X0062700Y0191150D02*
X0062700Y0194052D01*
X0064151Y0194052D01*
X0064635Y0193569D01*
X0064635Y0192601D01*
X0064151Y0192117D01*
X0062700Y0192117D01*
X0065647Y0192601D02*
X0067581Y0192601D01*
X0067581Y0193085D02*
X0067581Y0191150D01*
X0068593Y0191150D02*
X0070528Y0191150D01*
X0069561Y0191150D02*
X0069561Y0194052D01*
X0068593Y0193085D01*
X0067581Y0193085D02*
X0066614Y0194052D01*
X0065647Y0193085D01*
X0065647Y0191150D01*
X0195498Y0191097D02*
X0195498Y0192548D01*
X0195981Y0193031D01*
X0196465Y0193031D01*
X0196949Y0192548D01*
X0196949Y0191097D01*
X0196949Y0190085D02*
X0197433Y0189601D01*
X0197433Y0188150D01*
X0198400Y0188150D02*
X0195498Y0188150D01*
X0195498Y0189601D01*
X0195981Y0190085D01*
X0196949Y0190085D01*
X0198400Y0191097D02*
X0198400Y0192548D01*
X0197916Y0193031D01*
X0197433Y0193031D01*
X0196949Y0192548D01*
X0196465Y0194043D02*
X0195498Y0195011D01*
X0198400Y0195011D01*
X0198400Y0195978D02*
X0198400Y0194043D01*
X0198400Y0191097D02*
X0195498Y0191097D01*
X0195698Y0124138D02*
X0195698Y0122203D01*
X0197149Y0122203D01*
X0196665Y0123171D01*
X0196665Y0123655D01*
X0197149Y0124138D01*
X0198116Y0124138D01*
X0198600Y0123655D01*
X0198600Y0122687D01*
X0198116Y0122203D01*
X0198600Y0121192D02*
X0198600Y0119257D01*
X0198600Y0120224D02*
X0195698Y0120224D01*
X0196665Y0119257D01*
X0196665Y0118245D02*
X0197149Y0117762D01*
X0197149Y0116310D01*
X0197149Y0115299D02*
X0197633Y0114815D01*
X0197633Y0113364D01*
X0198600Y0113364D02*
X0195698Y0113364D01*
X0195698Y0114815D01*
X0196181Y0115299D01*
X0197149Y0115299D01*
X0198600Y0116310D02*
X0198600Y0117762D01*
X0198116Y0118245D01*
X0197633Y0118245D01*
X0197149Y0117762D01*
X0196665Y0118245D02*
X0196181Y0118245D01*
X0195698Y0117762D01*
X0195698Y0116310D01*
X0198600Y0116310D01*
D12*
X0194550Y0118500D02*
X0192050Y0116000D01*
X0177050Y0116000D01*
X0174550Y0118500D01*
X0174550Y0123500D01*
X0177050Y0126000D01*
X0192050Y0126000D01*
X0194550Y0123500D01*
X0194550Y0118500D01*
X0192050Y0126000D02*
X0194550Y0128500D01*
X0194550Y0133500D01*
X0192050Y0136000D01*
X0177050Y0136000D01*
X0174550Y0133500D01*
X0174550Y0128500D01*
X0177050Y0126000D01*
X0177050Y0136000D02*
X0174550Y0138500D01*
X0174550Y0143500D01*
X0177050Y0146000D01*
X0192050Y0146000D01*
X0194550Y0143500D01*
X0194550Y0138500D01*
X0192050Y0136000D01*
X0192050Y0146000D02*
X0194550Y0148500D01*
X0194550Y0153500D01*
X0192050Y0156000D01*
X0177050Y0156000D01*
X0174550Y0153500D01*
X0174550Y0148500D01*
X0177050Y0146000D01*
X0177050Y0156000D02*
X0174550Y0158500D01*
X0174550Y0163500D01*
X0177050Y0166000D01*
X0192050Y0166000D01*
X0194550Y0163500D01*
X0194550Y0158500D01*
X0192050Y0156000D01*
X0192050Y0166000D02*
X0194550Y0168500D01*
X0194550Y0173500D01*
X0192050Y0176000D01*
X0177050Y0176000D01*
X0174550Y0173500D01*
X0174550Y0168500D01*
X0177050Y0166000D01*
X0177050Y0176000D02*
X0174550Y0178500D01*
X0174550Y0183500D01*
X0177050Y0186000D01*
X0192050Y0186000D01*
X0194550Y0183500D01*
X0194550Y0178500D01*
X0192050Y0176000D01*
X0192050Y0186000D02*
X0194550Y0188500D01*
X0194550Y0193500D01*
X0192050Y0196000D01*
X0177050Y0196000D01*
X0174550Y0193500D01*
X0174550Y0188500D01*
X0177050Y0186000D01*
X0155550Y0179500D02*
X0155550Y0194500D01*
X0153050Y0197000D01*
X0148050Y0197000D01*
X0145550Y0194500D01*
X0145550Y0179500D01*
X0148050Y0177000D01*
X0153050Y0177000D01*
X0155550Y0179500D01*
X0145550Y0179500D02*
X0143050Y0177000D01*
X0138050Y0177000D01*
X0135550Y0179500D01*
X0135550Y0194500D01*
X0138050Y0197000D01*
X0143050Y0197000D01*
X0145550Y0194500D01*
X0135550Y0194500D02*
X0133050Y0197000D01*
X0128050Y0197000D01*
X0125550Y0194500D01*
X0125550Y0179500D01*
X0128050Y0177000D01*
X0133050Y0177000D01*
X0135550Y0179500D01*
X0125550Y0179500D02*
X0123050Y0177000D01*
X0118050Y0177000D01*
X0115550Y0179500D01*
X0115550Y0194500D01*
X0118050Y0197000D01*
X0123050Y0197000D01*
X0125550Y0194500D01*
X0115550Y0194500D02*
X0113050Y0197000D01*
X0108050Y0197000D01*
X0105550Y0194500D01*
X0105550Y0179500D01*
X0108050Y0177000D01*
X0113050Y0177000D01*
X0115550Y0179500D01*
X0105550Y0179500D02*
X0103050Y0177000D01*
X0098050Y0177000D01*
X0095550Y0179500D01*
X0095550Y0194500D01*
X0098050Y0197000D01*
X0103050Y0197000D01*
X0105550Y0194500D01*
X0095550Y0194500D02*
X0093050Y0197000D01*
X0088050Y0197000D01*
X0085550Y0194500D01*
X0085550Y0179500D01*
X0088050Y0177000D01*
X0093050Y0177000D01*
X0095550Y0179500D01*
X0085550Y0179500D02*
X0083050Y0177000D01*
X0078050Y0177000D01*
X0075550Y0179500D01*
X0075550Y0194500D01*
X0078050Y0197000D01*
X0083050Y0197000D01*
X0085550Y0194500D01*
X0082050Y0159000D02*
X0082050Y0135000D01*
X0082048Y0134840D01*
X0082042Y0134681D01*
X0082032Y0134522D01*
X0082019Y0134363D01*
X0082001Y0134204D01*
X0081980Y0134046D01*
X0081954Y0133889D01*
X0081925Y0133732D01*
X0081892Y0133576D01*
X0081855Y0133421D01*
X0081815Y0133266D01*
X0081770Y0133113D01*
X0081722Y0132961D01*
X0081670Y0132810D01*
X0081614Y0132661D01*
X0081555Y0132513D01*
X0081492Y0132366D01*
X0081426Y0132221D01*
X0081356Y0132078D01*
X0081282Y0131936D01*
X0081206Y0131796D01*
X0081125Y0131658D01*
X0081042Y0131523D01*
X0080955Y0131389D01*
X0080864Y0131257D01*
X0080771Y0131128D01*
X0080674Y0131001D01*
X0080575Y0130876D01*
X0080472Y0130754D01*
X0080366Y0130635D01*
X0080258Y0130518D01*
X0080146Y0130404D01*
X0080032Y0130292D01*
X0079915Y0130184D01*
X0079796Y0130078D01*
X0079674Y0129975D01*
X0079549Y0129876D01*
X0079422Y0129779D01*
X0079293Y0129686D01*
X0079161Y0129595D01*
X0079027Y0129508D01*
X0078892Y0129425D01*
X0078754Y0129344D01*
X0078614Y0129268D01*
X0078472Y0129194D01*
X0078329Y0129124D01*
X0078184Y0129058D01*
X0078037Y0128995D01*
X0077889Y0128936D01*
X0077740Y0128880D01*
X0077589Y0128828D01*
X0077437Y0128780D01*
X0077284Y0128735D01*
X0077129Y0128695D01*
X0076974Y0128658D01*
X0076818Y0128625D01*
X0076661Y0128596D01*
X0076504Y0128570D01*
X0076346Y0128549D01*
X0076187Y0128531D01*
X0076028Y0128518D01*
X0075869Y0128508D01*
X0075710Y0128502D01*
X0075550Y0128500D01*
X0075390Y0128502D01*
X0075231Y0128508D01*
X0075072Y0128518D01*
X0074913Y0128531D01*
X0074754Y0128549D01*
X0074596Y0128570D01*
X0074439Y0128596D01*
X0074282Y0128625D01*
X0074126Y0128658D01*
X0073971Y0128695D01*
X0073816Y0128735D01*
X0073663Y0128780D01*
X0073511Y0128828D01*
X0073360Y0128880D01*
X0073211Y0128936D01*
X0073063Y0128995D01*
X0072916Y0129058D01*
X0072771Y0129124D01*
X0072628Y0129194D01*
X0072486Y0129268D01*
X0072346Y0129344D01*
X0072208Y0129425D01*
X0072073Y0129508D01*
X0071939Y0129595D01*
X0071807Y0129686D01*
X0071678Y0129779D01*
X0071551Y0129876D01*
X0071426Y0129975D01*
X0071304Y0130078D01*
X0071185Y0130184D01*
X0071068Y0130292D01*
X0070954Y0130404D01*
X0070842Y0130518D01*
X0070734Y0130635D01*
X0070628Y0130754D01*
X0070525Y0130876D01*
X0070426Y0131001D01*
X0070329Y0131128D01*
X0070236Y0131257D01*
X0070145Y0131389D01*
X0070058Y0131523D01*
X0069975Y0131658D01*
X0069894Y0131796D01*
X0069818Y0131936D01*
X0069744Y0132078D01*
X0069674Y0132221D01*
X0069608Y0132366D01*
X0069545Y0132513D01*
X0069486Y0132661D01*
X0069430Y0132810D01*
X0069378Y0132961D01*
X0069330Y0133113D01*
X0069285Y0133266D01*
X0069245Y0133421D01*
X0069208Y0133576D01*
X0069175Y0133732D01*
X0069146Y0133889D01*
X0069120Y0134046D01*
X0069099Y0134204D01*
X0069081Y0134363D01*
X0069068Y0134522D01*
X0069058Y0134681D01*
X0069052Y0134840D01*
X0069050Y0135000D01*
X0069050Y0159000D01*
X0069052Y0159160D01*
X0069058Y0159319D01*
X0069068Y0159478D01*
X0069081Y0159637D01*
X0069099Y0159796D01*
X0069120Y0159954D01*
X0069146Y0160111D01*
X0069175Y0160268D01*
X0069208Y0160424D01*
X0069245Y0160579D01*
X0069285Y0160734D01*
X0069330Y0160887D01*
X0069378Y0161039D01*
X0069430Y0161190D01*
X0069486Y0161339D01*
X0069545Y0161487D01*
X0069608Y0161634D01*
X0069674Y0161779D01*
X0069744Y0161922D01*
X0069818Y0162064D01*
X0069894Y0162204D01*
X0069975Y0162342D01*
X0070058Y0162477D01*
X0070145Y0162611D01*
X0070236Y0162743D01*
X0070329Y0162872D01*
X0070426Y0162999D01*
X0070525Y0163124D01*
X0070628Y0163246D01*
X0070734Y0163365D01*
X0070842Y0163482D01*
X0070954Y0163596D01*
X0071068Y0163708D01*
X0071185Y0163816D01*
X0071304Y0163922D01*
X0071426Y0164025D01*
X0071551Y0164124D01*
X0071678Y0164221D01*
X0071807Y0164314D01*
X0071939Y0164405D01*
X0072073Y0164492D01*
X0072208Y0164575D01*
X0072346Y0164656D01*
X0072486Y0164732D01*
X0072628Y0164806D01*
X0072771Y0164876D01*
X0072916Y0164942D01*
X0073063Y0165005D01*
X0073211Y0165064D01*
X0073360Y0165120D01*
X0073511Y0165172D01*
X0073663Y0165220D01*
X0073816Y0165265D01*
X0073971Y0165305D01*
X0074126Y0165342D01*
X0074282Y0165375D01*
X0074439Y0165404D01*
X0074596Y0165430D01*
X0074754Y0165451D01*
X0074913Y0165469D01*
X0075072Y0165482D01*
X0075231Y0165492D01*
X0075390Y0165498D01*
X0075550Y0165500D01*
X0075710Y0165498D01*
X0075869Y0165492D01*
X0076028Y0165482D01*
X0076187Y0165469D01*
X0076346Y0165451D01*
X0076504Y0165430D01*
X0076661Y0165404D01*
X0076818Y0165375D01*
X0076974Y0165342D01*
X0077129Y0165305D01*
X0077284Y0165265D01*
X0077437Y0165220D01*
X0077589Y0165172D01*
X0077740Y0165120D01*
X0077889Y0165064D01*
X0078037Y0165005D01*
X0078184Y0164942D01*
X0078329Y0164876D01*
X0078472Y0164806D01*
X0078614Y0164732D01*
X0078754Y0164656D01*
X0078892Y0164575D01*
X0079027Y0164492D01*
X0079161Y0164405D01*
X0079293Y0164314D01*
X0079422Y0164221D01*
X0079549Y0164124D01*
X0079674Y0164025D01*
X0079796Y0163922D01*
X0079915Y0163816D01*
X0080032Y0163708D01*
X0080146Y0163596D01*
X0080258Y0163482D01*
X0080366Y0163365D01*
X0080472Y0163246D01*
X0080575Y0163124D01*
X0080674Y0162999D01*
X0080771Y0162872D01*
X0080864Y0162743D01*
X0080955Y0162611D01*
X0081042Y0162477D01*
X0081125Y0162342D01*
X0081206Y0162204D01*
X0081282Y0162064D01*
X0081356Y0161922D01*
X0081426Y0161779D01*
X0081492Y0161634D01*
X0081555Y0161487D01*
X0081614Y0161339D01*
X0081670Y0161190D01*
X0081722Y0161039D01*
X0081770Y0160887D01*
X0081815Y0160734D01*
X0081855Y0160579D01*
X0081892Y0160424D01*
X0081925Y0160268D01*
X0081954Y0160111D01*
X0081980Y0159954D01*
X0082001Y0159796D01*
X0082019Y0159637D01*
X0082032Y0159478D01*
X0082042Y0159319D01*
X0082048Y0159160D01*
X0082050Y0159000D01*
X0075550Y0152000D02*
X0075550Y0149500D01*
X0072550Y0149500D01*
X0072550Y0148000D02*
X0078550Y0148000D01*
X0078550Y0146000D01*
X0072550Y0146000D01*
X0072550Y0148000D01*
X0075550Y0149500D02*
X0078550Y0149500D01*
X0078550Y0144500D02*
X0075550Y0144500D01*
X0075550Y0142000D01*
X0075550Y0144500D02*
X0072550Y0144500D01*
X0067050Y0101000D02*
X0067052Y0101160D01*
X0067058Y0101319D01*
X0067068Y0101478D01*
X0067081Y0101637D01*
X0067099Y0101796D01*
X0067120Y0101954D01*
X0067146Y0102111D01*
X0067175Y0102268D01*
X0067208Y0102424D01*
X0067245Y0102579D01*
X0067285Y0102734D01*
X0067330Y0102887D01*
X0067378Y0103039D01*
X0067430Y0103190D01*
X0067486Y0103339D01*
X0067545Y0103487D01*
X0067608Y0103634D01*
X0067674Y0103779D01*
X0067744Y0103922D01*
X0067818Y0104064D01*
X0067894Y0104204D01*
X0067975Y0104342D01*
X0068058Y0104477D01*
X0068145Y0104611D01*
X0068236Y0104743D01*
X0068329Y0104872D01*
X0068426Y0104999D01*
X0068525Y0105124D01*
X0068628Y0105246D01*
X0068734Y0105365D01*
X0068842Y0105482D01*
X0068954Y0105596D01*
X0069068Y0105708D01*
X0069185Y0105816D01*
X0069304Y0105922D01*
X0069426Y0106025D01*
X0069551Y0106124D01*
X0069678Y0106221D01*
X0069807Y0106314D01*
X0069939Y0106405D01*
X0070073Y0106492D01*
X0070208Y0106575D01*
X0070346Y0106656D01*
X0070486Y0106732D01*
X0070628Y0106806D01*
X0070771Y0106876D01*
X0070916Y0106942D01*
X0071063Y0107005D01*
X0071211Y0107064D01*
X0071360Y0107120D01*
X0071511Y0107172D01*
X0071663Y0107220D01*
X0071816Y0107265D01*
X0071971Y0107305D01*
X0072126Y0107342D01*
X0072282Y0107375D01*
X0072439Y0107404D01*
X0072596Y0107430D01*
X0072754Y0107451D01*
X0072913Y0107469D01*
X0073072Y0107482D01*
X0073231Y0107492D01*
X0073390Y0107498D01*
X0073550Y0107500D01*
X0073710Y0107498D01*
X0073869Y0107492D01*
X0074028Y0107482D01*
X0074187Y0107469D01*
X0074346Y0107451D01*
X0074504Y0107430D01*
X0074661Y0107404D01*
X0074818Y0107375D01*
X0074974Y0107342D01*
X0075129Y0107305D01*
X0075284Y0107265D01*
X0075437Y0107220D01*
X0075589Y0107172D01*
X0075740Y0107120D01*
X0075889Y0107064D01*
X0076037Y0107005D01*
X0076184Y0106942D01*
X0076329Y0106876D01*
X0076472Y0106806D01*
X0076614Y0106732D01*
X0076754Y0106656D01*
X0076892Y0106575D01*
X0077027Y0106492D01*
X0077161Y0106405D01*
X0077293Y0106314D01*
X0077422Y0106221D01*
X0077549Y0106124D01*
X0077674Y0106025D01*
X0077796Y0105922D01*
X0077915Y0105816D01*
X0078032Y0105708D01*
X0078146Y0105596D01*
X0078258Y0105482D01*
X0078366Y0105365D01*
X0078472Y0105246D01*
X0078575Y0105124D01*
X0078674Y0104999D01*
X0078771Y0104872D01*
X0078864Y0104743D01*
X0078955Y0104611D01*
X0079042Y0104477D01*
X0079125Y0104342D01*
X0079206Y0104204D01*
X0079282Y0104064D01*
X0079356Y0103922D01*
X0079426Y0103779D01*
X0079492Y0103634D01*
X0079555Y0103487D01*
X0079614Y0103339D01*
X0079670Y0103190D01*
X0079722Y0103039D01*
X0079770Y0102887D01*
X0079815Y0102734D01*
X0079855Y0102579D01*
X0079892Y0102424D01*
X0079925Y0102268D01*
X0079954Y0102111D01*
X0079980Y0101954D01*
X0080001Y0101796D01*
X0080019Y0101637D01*
X0080032Y0101478D01*
X0080042Y0101319D01*
X0080048Y0101160D01*
X0080050Y0101000D01*
X0080050Y0077000D01*
X0080048Y0076840D01*
X0080042Y0076681D01*
X0080032Y0076522D01*
X0080019Y0076363D01*
X0080001Y0076204D01*
X0079980Y0076046D01*
X0079954Y0075889D01*
X0079925Y0075732D01*
X0079892Y0075576D01*
X0079855Y0075421D01*
X0079815Y0075266D01*
X0079770Y0075113D01*
X0079722Y0074961D01*
X0079670Y0074810D01*
X0079614Y0074661D01*
X0079555Y0074513D01*
X0079492Y0074366D01*
X0079426Y0074221D01*
X0079356Y0074078D01*
X0079282Y0073936D01*
X0079206Y0073796D01*
X0079125Y0073658D01*
X0079042Y0073523D01*
X0078955Y0073389D01*
X0078864Y0073257D01*
X0078771Y0073128D01*
X0078674Y0073001D01*
X0078575Y0072876D01*
X0078472Y0072754D01*
X0078366Y0072635D01*
X0078258Y0072518D01*
X0078146Y0072404D01*
X0078032Y0072292D01*
X0077915Y0072184D01*
X0077796Y0072078D01*
X0077674Y0071975D01*
X0077549Y0071876D01*
X0077422Y0071779D01*
X0077293Y0071686D01*
X0077161Y0071595D01*
X0077027Y0071508D01*
X0076892Y0071425D01*
X0076754Y0071344D01*
X0076614Y0071268D01*
X0076472Y0071194D01*
X0076329Y0071124D01*
X0076184Y0071058D01*
X0076037Y0070995D01*
X0075889Y0070936D01*
X0075740Y0070880D01*
X0075589Y0070828D01*
X0075437Y0070780D01*
X0075284Y0070735D01*
X0075129Y0070695D01*
X0074974Y0070658D01*
X0074818Y0070625D01*
X0074661Y0070596D01*
X0074504Y0070570D01*
X0074346Y0070549D01*
X0074187Y0070531D01*
X0074028Y0070518D01*
X0073869Y0070508D01*
X0073710Y0070502D01*
X0073550Y0070500D01*
X0073390Y0070502D01*
X0073231Y0070508D01*
X0073072Y0070518D01*
X0072913Y0070531D01*
X0072754Y0070549D01*
X0072596Y0070570D01*
X0072439Y0070596D01*
X0072282Y0070625D01*
X0072126Y0070658D01*
X0071971Y0070695D01*
X0071816Y0070735D01*
X0071663Y0070780D01*
X0071511Y0070828D01*
X0071360Y0070880D01*
X0071211Y0070936D01*
X0071063Y0070995D01*
X0070916Y0071058D01*
X0070771Y0071124D01*
X0070628Y0071194D01*
X0070486Y0071268D01*
X0070346Y0071344D01*
X0070208Y0071425D01*
X0070073Y0071508D01*
X0069939Y0071595D01*
X0069807Y0071686D01*
X0069678Y0071779D01*
X0069551Y0071876D01*
X0069426Y0071975D01*
X0069304Y0072078D01*
X0069185Y0072184D01*
X0069068Y0072292D01*
X0068954Y0072404D01*
X0068842Y0072518D01*
X0068734Y0072635D01*
X0068628Y0072754D01*
X0068525Y0072876D01*
X0068426Y0073001D01*
X0068329Y0073128D01*
X0068236Y0073257D01*
X0068145Y0073389D01*
X0068058Y0073523D01*
X0067975Y0073658D01*
X0067894Y0073796D01*
X0067818Y0073936D01*
X0067744Y0074078D01*
X0067674Y0074221D01*
X0067608Y0074366D01*
X0067545Y0074513D01*
X0067486Y0074661D01*
X0067430Y0074810D01*
X0067378Y0074961D01*
X0067330Y0075113D01*
X0067285Y0075266D01*
X0067245Y0075421D01*
X0067208Y0075576D01*
X0067175Y0075732D01*
X0067146Y0075889D01*
X0067120Y0076046D01*
X0067099Y0076204D01*
X0067081Y0076363D01*
X0067068Y0076522D01*
X0067058Y0076681D01*
X0067052Y0076840D01*
X0067050Y0077000D01*
X0067050Y0101000D01*
X0073550Y0094000D02*
X0073550Y0091500D01*
X0076550Y0091500D01*
X0076550Y0090000D02*
X0076550Y0088000D01*
X0070550Y0088000D01*
X0070550Y0090000D01*
X0076550Y0090000D01*
X0073550Y0091500D02*
X0070550Y0091500D01*
X0070550Y0086500D02*
X0073550Y0086500D01*
X0073550Y0084000D01*
X0073550Y0086500D02*
X0076550Y0086500D01*
X0090770Y0075795D02*
X0090770Y0100205D01*
X0092345Y0101780D01*
X0116755Y0101780D01*
X0118330Y0100205D01*
X0118330Y0075795D01*
X0116755Y0074220D01*
X0092345Y0074220D01*
X0090770Y0075795D01*
X0109848Y0092161D02*
X0109848Y0092795D01*
X0109848Y0092478D02*
X0111750Y0092478D01*
X0111750Y0092161D02*
X0111750Y0092795D01*
X0111433Y0093696D02*
X0111750Y0094013D01*
X0111750Y0094647D01*
X0111433Y0094964D01*
X0111750Y0095998D02*
X0111750Y0097266D01*
X0111750Y0096632D02*
X0109848Y0096632D01*
X0110482Y0095998D01*
X0110165Y0094964D02*
X0109848Y0094647D01*
X0109848Y0094013D01*
X0110165Y0093696D01*
X0111433Y0093696D01*
X0093132Y0097843D02*
X0093134Y0097922D01*
X0093140Y0098001D01*
X0093150Y0098080D01*
X0093164Y0098158D01*
X0093181Y0098235D01*
X0093203Y0098311D01*
X0093228Y0098386D01*
X0093258Y0098459D01*
X0093290Y0098531D01*
X0093327Y0098602D01*
X0093367Y0098670D01*
X0093410Y0098736D01*
X0093456Y0098800D01*
X0093506Y0098862D01*
X0093559Y0098921D01*
X0093614Y0098977D01*
X0093673Y0099031D01*
X0093734Y0099081D01*
X0093797Y0099129D01*
X0093863Y0099173D01*
X0093931Y0099214D01*
X0094001Y0099251D01*
X0094072Y0099285D01*
X0094146Y0099315D01*
X0094220Y0099341D01*
X0094296Y0099363D01*
X0094373Y0099382D01*
X0094451Y0099397D01*
X0094529Y0099408D01*
X0094608Y0099415D01*
X0094687Y0099418D01*
X0094766Y0099417D01*
X0094845Y0099412D01*
X0094924Y0099403D01*
X0095002Y0099390D01*
X0095079Y0099373D01*
X0095156Y0099353D01*
X0095231Y0099328D01*
X0095305Y0099300D01*
X0095378Y0099268D01*
X0095448Y0099233D01*
X0095517Y0099194D01*
X0095584Y0099151D01*
X0095649Y0099105D01*
X0095711Y0099057D01*
X0095771Y0099005D01*
X0095828Y0098950D01*
X0095882Y0098892D01*
X0095933Y0098832D01*
X0095981Y0098769D01*
X0096026Y0098704D01*
X0096068Y0098636D01*
X0096106Y0098567D01*
X0096140Y0098496D01*
X0096171Y0098423D01*
X0096199Y0098348D01*
X0096222Y0098273D01*
X0096242Y0098196D01*
X0096258Y0098119D01*
X0096270Y0098040D01*
X0096278Y0097962D01*
X0096282Y0097883D01*
X0096282Y0097803D01*
X0096278Y0097724D01*
X0096270Y0097646D01*
X0096258Y0097567D01*
X0096242Y0097490D01*
X0096222Y0097413D01*
X0096199Y0097338D01*
X0096171Y0097263D01*
X0096140Y0097190D01*
X0096106Y0097119D01*
X0096068Y0097050D01*
X0096026Y0096982D01*
X0095981Y0096917D01*
X0095933Y0096854D01*
X0095882Y0096794D01*
X0095828Y0096736D01*
X0095771Y0096681D01*
X0095711Y0096629D01*
X0095649Y0096581D01*
X0095584Y0096535D01*
X0095517Y0096492D01*
X0095448Y0096453D01*
X0095378Y0096418D01*
X0095305Y0096386D01*
X0095231Y0096358D01*
X0095156Y0096333D01*
X0095079Y0096313D01*
X0095002Y0096296D01*
X0094924Y0096283D01*
X0094845Y0096274D01*
X0094766Y0096269D01*
X0094687Y0096268D01*
X0094608Y0096271D01*
X0094529Y0096278D01*
X0094451Y0096289D01*
X0094373Y0096304D01*
X0094296Y0096323D01*
X0094220Y0096345D01*
X0094146Y0096371D01*
X0094072Y0096401D01*
X0094001Y0096435D01*
X0093931Y0096472D01*
X0093863Y0096513D01*
X0093797Y0096557D01*
X0093734Y0096605D01*
X0093673Y0096655D01*
X0093614Y0096709D01*
X0093559Y0096765D01*
X0093506Y0096824D01*
X0093456Y0096886D01*
X0093410Y0096950D01*
X0093367Y0097016D01*
X0093327Y0097084D01*
X0093290Y0097155D01*
X0093258Y0097227D01*
X0093228Y0097300D01*
X0093203Y0097375D01*
X0093181Y0097451D01*
X0093164Y0097528D01*
X0093150Y0097606D01*
X0093140Y0097685D01*
X0093134Y0097764D01*
X0093132Y0097843D01*
X0092741Y0045705D02*
X0094876Y0043570D01*
X0097011Y0045705D01*
X0097011Y0039300D01*
X0099186Y0040368D02*
X0100254Y0039300D01*
X0102389Y0039300D01*
X0103457Y0040368D01*
X0103457Y0041435D01*
X0102389Y0042503D01*
X0101322Y0042503D01*
X0102389Y0042503D02*
X0103457Y0043570D01*
X0103457Y0044638D01*
X0102389Y0045705D01*
X0100254Y0045705D01*
X0099186Y0044638D01*
X0105632Y0044638D02*
X0106700Y0045705D01*
X0108835Y0045705D01*
X0109902Y0044638D01*
X0109902Y0043570D01*
X0105632Y0039300D01*
X0109902Y0039300D01*
X0112077Y0039300D02*
X0112077Y0045705D01*
X0116348Y0045705D01*
X0118523Y0043570D02*
X0120658Y0045705D01*
X0120658Y0039300D01*
X0118523Y0039300D02*
X0122793Y0039300D01*
X0124968Y0040368D02*
X0129239Y0044638D01*
X0129239Y0040368D01*
X0128171Y0039300D01*
X0126036Y0039300D01*
X0124968Y0040368D01*
X0124968Y0044638D01*
X0126036Y0045705D01*
X0128171Y0045705D01*
X0129239Y0044638D01*
X0131414Y0044638D02*
X0132482Y0045705D01*
X0134617Y0045705D01*
X0135684Y0044638D01*
X0135684Y0043570D01*
X0134617Y0042503D01*
X0135684Y0041435D01*
X0135684Y0040368D01*
X0134617Y0039300D01*
X0132482Y0039300D01*
X0131414Y0040368D01*
X0133549Y0042503D02*
X0134617Y0042503D01*
X0137859Y0044638D02*
X0137859Y0040368D01*
X0138927Y0039300D01*
X0141062Y0039300D01*
X0142130Y0040368D01*
X0144305Y0040368D02*
X0144305Y0041435D01*
X0145373Y0042503D01*
X0147508Y0042503D01*
X0148575Y0041435D01*
X0148575Y0040368D01*
X0147508Y0039300D01*
X0145373Y0039300D01*
X0144305Y0040368D01*
X0145373Y0042503D02*
X0144305Y0043570D01*
X0144305Y0044638D01*
X0145373Y0045705D01*
X0147508Y0045705D01*
X0148575Y0044638D01*
X0148575Y0043570D01*
X0147508Y0042503D01*
X0150750Y0045705D02*
X0155021Y0045705D01*
X0152886Y0045705D02*
X0152886Y0039300D01*
X0157196Y0040368D02*
X0157196Y0042503D01*
X0160399Y0042503D01*
X0161466Y0041435D01*
X0161466Y0040368D01*
X0160399Y0039300D01*
X0158264Y0039300D01*
X0157196Y0040368D01*
X0157196Y0042503D02*
X0159331Y0044638D01*
X0161466Y0045705D01*
X0142130Y0044638D02*
X0141062Y0045705D01*
X0138927Y0045705D01*
X0137859Y0044638D01*
X0117550Y0026500D02*
X0117550Y0021500D01*
X0115050Y0019000D01*
X0110050Y0019000D01*
X0107550Y0021500D01*
X0105050Y0019000D01*
X0100050Y0019000D01*
X0097550Y0021500D01*
X0095050Y0019000D01*
X0090050Y0019000D01*
X0087550Y0021500D01*
X0087550Y0026500D01*
X0090050Y0029000D01*
X0095050Y0029000D01*
X0097550Y0026500D01*
X0100050Y0029000D01*
X0105050Y0029000D01*
X0107550Y0026500D01*
X0110050Y0029000D01*
X0115050Y0029000D01*
X0117550Y0026500D01*
X0107550Y0026500D02*
X0107550Y0021500D01*
X0105050Y0015000D02*
X0107550Y0012500D01*
X0110050Y0015000D01*
X0115050Y0015000D01*
X0117550Y0012500D01*
X0117550Y0007500D01*
X0115050Y0005000D01*
X0110050Y0005000D01*
X0107550Y0007500D01*
X0105050Y0005000D01*
X0100050Y0005000D01*
X0097550Y0007500D01*
X0095050Y0005000D01*
X0090050Y0005000D01*
X0087550Y0007500D01*
X0087550Y0012500D01*
X0090050Y0015000D01*
X0095050Y0015000D01*
X0097550Y0012500D01*
X0100050Y0015000D01*
X0105050Y0015000D01*
X0107550Y0012500D02*
X0107550Y0007500D01*
X0097550Y0007500D02*
X0097550Y0012500D01*
X0097550Y0021500D02*
X0097550Y0026500D01*
X0092741Y0039300D02*
X0092741Y0045705D01*
X0090566Y0045705D02*
X0086295Y0045705D01*
X0088431Y0045705D02*
X0088431Y0039300D01*
X0084120Y0040368D02*
X0083053Y0039300D01*
X0080918Y0039300D01*
X0079850Y0040368D01*
X0080918Y0042503D02*
X0079850Y0043570D01*
X0079850Y0044638D01*
X0080918Y0045705D01*
X0083053Y0045705D01*
X0084120Y0044638D01*
X0083053Y0042503D02*
X0080918Y0042503D01*
X0083053Y0042503D02*
X0084120Y0041435D01*
X0084120Y0040368D01*
X0077050Y0028000D02*
X0072050Y0028000D01*
X0069550Y0025500D01*
X0069550Y0010500D01*
X0067050Y0008000D01*
X0062050Y0008000D01*
X0059550Y0010500D01*
X0057050Y0008000D01*
X0052050Y0008000D01*
X0049550Y0010500D01*
X0049550Y0025500D01*
X0052050Y0028000D01*
X0057050Y0028000D01*
X0059550Y0025500D01*
X0059550Y0010500D01*
X0069550Y0010500D02*
X0072050Y0008000D01*
X0077050Y0008000D01*
X0079550Y0010500D01*
X0079550Y0025500D01*
X0077050Y0028000D01*
X0069550Y0025500D02*
X0067050Y0028000D01*
X0062050Y0028000D01*
X0059550Y0025500D01*
X0036550Y0019000D02*
X0036550Y0013000D01*
X0035550Y0013000D01*
X0035550Y0012000D01*
X0035550Y0019000D02*
X0035550Y0020000D01*
X0035550Y0019000D02*
X0036550Y0019000D01*
X0032050Y0028000D02*
X0028550Y0028000D01*
X0018550Y0028000D01*
X0015050Y0028000D01*
X0011550Y0020000D02*
X0011550Y0019000D01*
X0010550Y0019000D01*
X0010550Y0013000D01*
X0011550Y0013000D01*
X0011550Y0012000D01*
X0015050Y0004000D02*
X0018550Y0004000D01*
X0028050Y0004000D01*
X0032050Y0004000D01*
X0022550Y0016000D02*
X0022552Y0016063D01*
X0022558Y0016125D01*
X0022568Y0016187D01*
X0022581Y0016249D01*
X0022599Y0016309D01*
X0022620Y0016368D01*
X0022645Y0016426D01*
X0022674Y0016482D01*
X0022706Y0016536D01*
X0022741Y0016588D01*
X0022779Y0016637D01*
X0022821Y0016685D01*
X0022865Y0016729D01*
X0022913Y0016771D01*
X0022962Y0016809D01*
X0023014Y0016844D01*
X0023068Y0016876D01*
X0023124Y0016905D01*
X0023182Y0016930D01*
X0023241Y0016951D01*
X0023301Y0016969D01*
X0023363Y0016982D01*
X0023425Y0016992D01*
X0023487Y0016998D01*
X0023550Y0017000D01*
X0023613Y0016998D01*
X0023675Y0016992D01*
X0023737Y0016982D01*
X0023799Y0016969D01*
X0023859Y0016951D01*
X0023918Y0016930D01*
X0023976Y0016905D01*
X0024032Y0016876D01*
X0024086Y0016844D01*
X0024138Y0016809D01*
X0024187Y0016771D01*
X0024235Y0016729D01*
X0024279Y0016685D01*
X0024321Y0016637D01*
X0024359Y0016588D01*
X0024394Y0016536D01*
X0024426Y0016482D01*
X0024455Y0016426D01*
X0024480Y0016368D01*
X0024501Y0016309D01*
X0024519Y0016249D01*
X0024532Y0016187D01*
X0024542Y0016125D01*
X0024548Y0016063D01*
X0024550Y0016000D01*
X0024548Y0015937D01*
X0024542Y0015875D01*
X0024532Y0015813D01*
X0024519Y0015751D01*
X0024501Y0015691D01*
X0024480Y0015632D01*
X0024455Y0015574D01*
X0024426Y0015518D01*
X0024394Y0015464D01*
X0024359Y0015412D01*
X0024321Y0015363D01*
X0024279Y0015315D01*
X0024235Y0015271D01*
X0024187Y0015229D01*
X0024138Y0015191D01*
X0024086Y0015156D01*
X0024032Y0015124D01*
X0023976Y0015095D01*
X0023918Y0015070D01*
X0023859Y0015049D01*
X0023799Y0015031D01*
X0023737Y0015018D01*
X0023675Y0015008D01*
X0023613Y0015002D01*
X0023550Y0015000D01*
X0023487Y0015002D01*
X0023425Y0015008D01*
X0023363Y0015018D01*
X0023301Y0015031D01*
X0023241Y0015049D01*
X0023182Y0015070D01*
X0023124Y0015095D01*
X0023068Y0015124D01*
X0023014Y0015156D01*
X0022962Y0015191D01*
X0022913Y0015229D01*
X0022865Y0015271D01*
X0022821Y0015315D01*
X0022779Y0015363D01*
X0022741Y0015412D01*
X0022706Y0015464D01*
X0022674Y0015518D01*
X0022645Y0015574D01*
X0022620Y0015632D01*
X0022599Y0015691D01*
X0022581Y0015751D01*
X0022568Y0015813D01*
X0022558Y0015875D01*
X0022552Y0015937D01*
X0022550Y0016000D01*
X0016550Y0016000D02*
X0016552Y0016172D01*
X0016558Y0016343D01*
X0016569Y0016515D01*
X0016584Y0016686D01*
X0016603Y0016857D01*
X0016626Y0017027D01*
X0016653Y0017197D01*
X0016685Y0017366D01*
X0016720Y0017534D01*
X0016760Y0017701D01*
X0016804Y0017867D01*
X0016851Y0018032D01*
X0016903Y0018196D01*
X0016959Y0018358D01*
X0017019Y0018519D01*
X0017083Y0018679D01*
X0017151Y0018837D01*
X0017222Y0018993D01*
X0017297Y0019147D01*
X0017377Y0019300D01*
X0017459Y0019450D01*
X0017546Y0019599D01*
X0017636Y0019745D01*
X0017730Y0019889D01*
X0017827Y0020031D01*
X0017928Y0020170D01*
X0018032Y0020307D01*
X0018139Y0020441D01*
X0018250Y0020572D01*
X0018363Y0020701D01*
X0018480Y0020827D01*
X0018600Y0020950D01*
X0018723Y0021070D01*
X0018849Y0021187D01*
X0018978Y0021300D01*
X0019109Y0021411D01*
X0019243Y0021518D01*
X0019380Y0021622D01*
X0019519Y0021723D01*
X0019661Y0021820D01*
X0019805Y0021914D01*
X0019951Y0022004D01*
X0020100Y0022091D01*
X0020250Y0022173D01*
X0020403Y0022253D01*
X0020557Y0022328D01*
X0020713Y0022399D01*
X0020871Y0022467D01*
X0021031Y0022531D01*
X0021192Y0022591D01*
X0021354Y0022647D01*
X0021518Y0022699D01*
X0021683Y0022746D01*
X0021849Y0022790D01*
X0022016Y0022830D01*
X0022184Y0022865D01*
X0022353Y0022897D01*
X0022523Y0022924D01*
X0022693Y0022947D01*
X0022864Y0022966D01*
X0023035Y0022981D01*
X0023207Y0022992D01*
X0023378Y0022998D01*
X0023550Y0023000D01*
X0023722Y0022998D01*
X0023893Y0022992D01*
X0024065Y0022981D01*
X0024236Y0022966D01*
X0024407Y0022947D01*
X0024577Y0022924D01*
X0024747Y0022897D01*
X0024916Y0022865D01*
X0025084Y0022830D01*
X0025251Y0022790D01*
X0025417Y0022746D01*
X0025582Y0022699D01*
X0025746Y0022647D01*
X0025908Y0022591D01*
X0026069Y0022531D01*
X0026229Y0022467D01*
X0026387Y0022399D01*
X0026543Y0022328D01*
X0026697Y0022253D01*
X0026850Y0022173D01*
X0027000Y0022091D01*
X0027149Y0022004D01*
X0027295Y0021914D01*
X0027439Y0021820D01*
X0027581Y0021723D01*
X0027720Y0021622D01*
X0027857Y0021518D01*
X0027991Y0021411D01*
X0028122Y0021300D01*
X0028251Y0021187D01*
X0028377Y0021070D01*
X0028500Y0020950D01*
X0028620Y0020827D01*
X0028737Y0020701D01*
X0028850Y0020572D01*
X0028961Y0020441D01*
X0029068Y0020307D01*
X0029172Y0020170D01*
X0029273Y0020031D01*
X0029370Y0019889D01*
X0029464Y0019745D01*
X0029554Y0019599D01*
X0029641Y0019450D01*
X0029723Y0019300D01*
X0029803Y0019147D01*
X0029878Y0018993D01*
X0029949Y0018837D01*
X0030017Y0018679D01*
X0030081Y0018519D01*
X0030141Y0018358D01*
X0030197Y0018196D01*
X0030249Y0018032D01*
X0030296Y0017867D01*
X0030340Y0017701D01*
X0030380Y0017534D01*
X0030415Y0017366D01*
X0030447Y0017197D01*
X0030474Y0017027D01*
X0030497Y0016857D01*
X0030516Y0016686D01*
X0030531Y0016515D01*
X0030542Y0016343D01*
X0030548Y0016172D01*
X0030550Y0016000D01*
X0030548Y0015828D01*
X0030542Y0015657D01*
X0030531Y0015485D01*
X0030516Y0015314D01*
X0030497Y0015143D01*
X0030474Y0014973D01*
X0030447Y0014803D01*
X0030415Y0014634D01*
X0030380Y0014466D01*
X0030340Y0014299D01*
X0030296Y0014133D01*
X0030249Y0013968D01*
X0030197Y0013804D01*
X0030141Y0013642D01*
X0030081Y0013481D01*
X0030017Y0013321D01*
X0029949Y0013163D01*
X0029878Y0013007D01*
X0029803Y0012853D01*
X0029723Y0012700D01*
X0029641Y0012550D01*
X0029554Y0012401D01*
X0029464Y0012255D01*
X0029370Y0012111D01*
X0029273Y0011969D01*
X0029172Y0011830D01*
X0029068Y0011693D01*
X0028961Y0011559D01*
X0028850Y0011428D01*
X0028737Y0011299D01*
X0028620Y0011173D01*
X0028500Y0011050D01*
X0028377Y0010930D01*
X0028251Y0010813D01*
X0028122Y0010700D01*
X0027991Y0010589D01*
X0027857Y0010482D01*
X0027720Y0010378D01*
X0027581Y0010277D01*
X0027439Y0010180D01*
X0027295Y0010086D01*
X0027149Y0009996D01*
X0027000Y0009909D01*
X0026850Y0009827D01*
X0026697Y0009747D01*
X0026543Y0009672D01*
X0026387Y0009601D01*
X0026229Y0009533D01*
X0026069Y0009469D01*
X0025908Y0009409D01*
X0025746Y0009353D01*
X0025582Y0009301D01*
X0025417Y0009254D01*
X0025251Y0009210D01*
X0025084Y0009170D01*
X0024916Y0009135D01*
X0024747Y0009103D01*
X0024577Y0009076D01*
X0024407Y0009053D01*
X0024236Y0009034D01*
X0024065Y0009019D01*
X0023893Y0009008D01*
X0023722Y0009002D01*
X0023550Y0009000D01*
X0023378Y0009002D01*
X0023207Y0009008D01*
X0023035Y0009019D01*
X0022864Y0009034D01*
X0022693Y0009053D01*
X0022523Y0009076D01*
X0022353Y0009103D01*
X0022184Y0009135D01*
X0022016Y0009170D01*
X0021849Y0009210D01*
X0021683Y0009254D01*
X0021518Y0009301D01*
X0021354Y0009353D01*
X0021192Y0009409D01*
X0021031Y0009469D01*
X0020871Y0009533D01*
X0020713Y0009601D01*
X0020557Y0009672D01*
X0020403Y0009747D01*
X0020250Y0009827D01*
X0020100Y0009909D01*
X0019951Y0009996D01*
X0019805Y0010086D01*
X0019661Y0010180D01*
X0019519Y0010277D01*
X0019380Y0010378D01*
X0019243Y0010482D01*
X0019109Y0010589D01*
X0018978Y0010700D01*
X0018849Y0010813D01*
X0018723Y0010930D01*
X0018600Y0011050D01*
X0018480Y0011173D01*
X0018363Y0011299D01*
X0018250Y0011428D01*
X0018139Y0011559D01*
X0018032Y0011693D01*
X0017928Y0011830D01*
X0017827Y0011969D01*
X0017730Y0012111D01*
X0017636Y0012255D01*
X0017546Y0012401D01*
X0017459Y0012550D01*
X0017377Y0012700D01*
X0017297Y0012853D01*
X0017222Y0013007D01*
X0017151Y0013163D01*
X0017083Y0013321D01*
X0017019Y0013481D01*
X0016959Y0013642D01*
X0016903Y0013804D01*
X0016851Y0013968D01*
X0016804Y0014133D01*
X0016760Y0014299D01*
X0016720Y0014466D01*
X0016685Y0014634D01*
X0016653Y0014803D01*
X0016626Y0014973D01*
X0016603Y0015143D01*
X0016584Y0015314D01*
X0016569Y0015485D01*
X0016558Y0015657D01*
X0016552Y0015828D01*
X0016550Y0016000D01*
X0112077Y0042503D02*
X0114213Y0042503D01*
X0143550Y0012500D02*
X0146050Y0015000D01*
X0151050Y0015000D01*
X0153550Y0012500D01*
X0156050Y0015000D01*
X0161050Y0015000D01*
X0163550Y0012500D01*
X0166050Y0015000D01*
X0171050Y0015000D01*
X0173550Y0012500D01*
X0173550Y0007500D01*
X0171050Y0005000D01*
X0166050Y0005000D01*
X0163550Y0007500D01*
X0161050Y0005000D01*
X0156050Y0005000D01*
X0153550Y0007500D01*
X0151050Y0005000D01*
X0146050Y0005000D01*
X0143550Y0007500D01*
X0143550Y0012500D01*
X0153550Y0012500D02*
X0153550Y0007500D01*
X0163550Y0007500D02*
X0163550Y0012500D01*
D13*
X0164168Y0017450D02*
X0164918Y0018201D01*
X0164918Y0021954D01*
X0166520Y0021954D02*
X0169522Y0021954D01*
X0168021Y0021954D02*
X0168021Y0017450D01*
X0164168Y0017450D02*
X0162666Y0017450D01*
X0161916Y0018201D01*
X0161916Y0021954D01*
X0160314Y0021203D02*
X0159564Y0021954D01*
X0158062Y0021954D01*
X0157312Y0021203D01*
X0157312Y0018201D01*
X0158062Y0017450D01*
X0159564Y0017450D01*
X0160314Y0018201D01*
X0160314Y0021203D01*
X0155710Y0021954D02*
X0155710Y0017450D01*
X0152708Y0021954D01*
X0152708Y0017450D01*
X0151106Y0017450D02*
X0151106Y0020453D01*
X0149605Y0021954D01*
X0148104Y0020453D01*
X0148104Y0017450D01*
X0146503Y0018201D02*
X0145752Y0017450D01*
X0144251Y0017450D01*
X0143500Y0018201D01*
X0143500Y0021203D01*
X0144251Y0021954D01*
X0145752Y0021954D01*
X0146503Y0021203D01*
X0148104Y0019702D02*
X0151106Y0019702D01*
X0140918Y0023450D02*
X0137916Y0023450D01*
X0139417Y0023450D02*
X0139417Y0027954D01*
X0137916Y0026453D01*
X0136314Y0027954D02*
X0133312Y0027954D01*
X0134813Y0027954D02*
X0134813Y0023450D01*
X0131710Y0024201D02*
X0131710Y0027203D01*
X0130960Y0027954D01*
X0129458Y0027954D01*
X0128708Y0027203D01*
X0128708Y0024201D01*
X0129458Y0023450D01*
X0130960Y0023450D01*
X0131710Y0024201D01*
X0127106Y0024201D02*
X0127106Y0027203D01*
X0126356Y0027954D01*
X0124855Y0027954D01*
X0124104Y0027203D01*
X0124104Y0024201D01*
X0124855Y0023450D01*
X0126356Y0023450D01*
X0127106Y0024201D01*
X0122503Y0024201D02*
X0121752Y0023450D01*
X0119500Y0023450D01*
X0119500Y0027954D01*
X0121752Y0027954D01*
X0122503Y0027203D01*
X0122503Y0026453D01*
X0121752Y0025702D01*
X0119500Y0025702D01*
X0121752Y0025702D02*
X0122503Y0024951D01*
X0122503Y0024201D01*
X0121752Y0012954D02*
X0119500Y0012954D01*
X0119500Y0008450D01*
X0121752Y0008450D01*
X0122503Y0009201D01*
X0122503Y0009951D01*
X0121752Y0010702D01*
X0119500Y0010702D01*
X0121752Y0010702D02*
X0122503Y0011453D01*
X0122503Y0012203D01*
X0121752Y0012954D01*
X0124104Y0012203D02*
X0124104Y0009201D01*
X0124855Y0008450D01*
X0126356Y0008450D01*
X0127106Y0009201D01*
X0127106Y0012203D01*
X0126356Y0012954D01*
X0124855Y0012954D01*
X0124104Y0012203D01*
X0128708Y0012203D02*
X0128708Y0009201D01*
X0129458Y0008450D01*
X0130960Y0008450D01*
X0131710Y0009201D01*
X0131710Y0012203D01*
X0130960Y0012954D01*
X0129458Y0012954D01*
X0128708Y0012203D01*
X0133312Y0012954D02*
X0136314Y0012954D01*
X0134813Y0012954D02*
X0134813Y0008450D01*
X0137916Y0009201D02*
X0137916Y0012203D01*
X0138666Y0012954D01*
X0140168Y0012954D01*
X0140918Y0012203D01*
X0137916Y0009201D01*
X0138666Y0008450D01*
X0140168Y0008450D01*
X0140918Y0009201D01*
X0140918Y0012203D01*
X0173750Y0018300D02*
X0183350Y0018300D01*
X0183350Y0037700D01*
X0173750Y0037700D01*
X0173750Y0018300D01*
X0178778Y0072646D02*
X0189408Y0072646D01*
X0205156Y0072646D02*
X0205156Y0103354D01*
X0187046Y0103354D02*
X0178778Y0103354D01*
X0168936Y0100598D02*
X0168936Y0096268D01*
X0168936Y0079732D02*
X0168936Y0075402D01*
X0043904Y0176228D02*
X0043904Y0186858D01*
X0043904Y0202606D02*
X0013196Y0202606D01*
X0013196Y0184496D02*
X0013196Y0176228D01*
X0015952Y0166386D02*
X0020282Y0166386D01*
X0036818Y0166386D02*
X0041148Y0166386D01*
D14*
X0032638Y0198300D02*
X0032637Y0198300D01*
X0035385Y0084968D02*
X0035458Y0085045D01*
X0035533Y0085120D01*
X0035611Y0085191D01*
X0035692Y0085260D01*
X0035775Y0085326D01*
X0035860Y0085389D01*
X0035948Y0085448D01*
X0036037Y0085505D01*
X0036129Y0085558D01*
X0036223Y0085608D01*
X0036318Y0085654D01*
X0036415Y0085697D01*
X0036513Y0085736D01*
X0036613Y0085772D01*
X0036714Y0085804D01*
X0036816Y0085832D01*
X0036919Y0085857D01*
X0037023Y0085878D01*
X0037128Y0085895D01*
X0037233Y0085909D01*
X0037338Y0085918D01*
X0037444Y0085924D01*
X0037550Y0085926D01*
X0037656Y0085924D01*
X0037762Y0085918D01*
X0037867Y0085909D01*
X0037972Y0085895D01*
X0038077Y0085878D01*
X0038181Y0085857D01*
X0038284Y0085832D01*
X0038386Y0085804D01*
X0038487Y0085772D01*
X0038587Y0085736D01*
X0038685Y0085697D01*
X0038782Y0085654D01*
X0038877Y0085608D01*
X0038971Y0085558D01*
X0039063Y0085505D01*
X0039152Y0085448D01*
X0039240Y0085389D01*
X0039325Y0085326D01*
X0039408Y0085260D01*
X0039489Y0085191D01*
X0039567Y0085120D01*
X0039642Y0085045D01*
X0039715Y0084968D01*
X0039715Y0081032D02*
X0039642Y0080955D01*
X0039567Y0080880D01*
X0039489Y0080809D01*
X0039408Y0080740D01*
X0039325Y0080674D01*
X0039240Y0080611D01*
X0039152Y0080552D01*
X0039063Y0080495D01*
X0038971Y0080442D01*
X0038877Y0080392D01*
X0038782Y0080346D01*
X0038685Y0080303D01*
X0038587Y0080264D01*
X0038487Y0080228D01*
X0038386Y0080196D01*
X0038284Y0080168D01*
X0038181Y0080143D01*
X0038077Y0080122D01*
X0037972Y0080105D01*
X0037867Y0080091D01*
X0037762Y0080082D01*
X0037656Y0080076D01*
X0037550Y0080074D01*
X0037444Y0080076D01*
X0037338Y0080082D01*
X0037233Y0080091D01*
X0037128Y0080105D01*
X0037023Y0080122D01*
X0036919Y0080143D01*
X0036816Y0080168D01*
X0036714Y0080196D01*
X0036613Y0080228D01*
X0036513Y0080264D01*
X0036415Y0080303D01*
X0036318Y0080346D01*
X0036223Y0080392D01*
X0036129Y0080442D01*
X0036037Y0080495D01*
X0035948Y0080552D01*
X0035860Y0080611D01*
X0035775Y0080674D01*
X0035692Y0080740D01*
X0035611Y0080809D01*
X0035533Y0080880D01*
X0035458Y0080955D01*
X0035385Y0081032D01*
X0036385Y0070968D02*
X0036458Y0071045D01*
X0036533Y0071120D01*
X0036611Y0071191D01*
X0036692Y0071260D01*
X0036775Y0071326D01*
X0036860Y0071389D01*
X0036948Y0071448D01*
X0037037Y0071505D01*
X0037129Y0071558D01*
X0037223Y0071608D01*
X0037318Y0071654D01*
X0037415Y0071697D01*
X0037513Y0071736D01*
X0037613Y0071772D01*
X0037714Y0071804D01*
X0037816Y0071832D01*
X0037919Y0071857D01*
X0038023Y0071878D01*
X0038128Y0071895D01*
X0038233Y0071909D01*
X0038338Y0071918D01*
X0038444Y0071924D01*
X0038550Y0071926D01*
X0038656Y0071924D01*
X0038762Y0071918D01*
X0038867Y0071909D01*
X0038972Y0071895D01*
X0039077Y0071878D01*
X0039181Y0071857D01*
X0039284Y0071832D01*
X0039386Y0071804D01*
X0039487Y0071772D01*
X0039587Y0071736D01*
X0039685Y0071697D01*
X0039782Y0071654D01*
X0039877Y0071608D01*
X0039971Y0071558D01*
X0040063Y0071505D01*
X0040152Y0071448D01*
X0040240Y0071389D01*
X0040325Y0071326D01*
X0040408Y0071260D01*
X0040489Y0071191D01*
X0040567Y0071120D01*
X0040642Y0071045D01*
X0040715Y0070968D01*
X0040715Y0067032D02*
X0040642Y0066955D01*
X0040567Y0066880D01*
X0040489Y0066809D01*
X0040408Y0066740D01*
X0040325Y0066674D01*
X0040240Y0066611D01*
X0040152Y0066552D01*
X0040063Y0066495D01*
X0039971Y0066442D01*
X0039877Y0066392D01*
X0039782Y0066346D01*
X0039685Y0066303D01*
X0039587Y0066264D01*
X0039487Y0066228D01*
X0039386Y0066196D01*
X0039284Y0066168D01*
X0039181Y0066143D01*
X0039077Y0066122D01*
X0038972Y0066105D01*
X0038867Y0066091D01*
X0038762Y0066082D01*
X0038656Y0066076D01*
X0038550Y0066074D01*
X0038444Y0066076D01*
X0038338Y0066082D01*
X0038233Y0066091D01*
X0038128Y0066105D01*
X0038023Y0066122D01*
X0037919Y0066143D01*
X0037816Y0066168D01*
X0037714Y0066196D01*
X0037613Y0066228D01*
X0037513Y0066264D01*
X0037415Y0066303D01*
X0037318Y0066346D01*
X0037223Y0066392D01*
X0037129Y0066442D01*
X0037037Y0066495D01*
X0036948Y0066552D01*
X0036860Y0066611D01*
X0036775Y0066674D01*
X0036692Y0066740D01*
X0036611Y0066809D01*
X0036533Y0066880D01*
X0036458Y0066955D01*
X0036385Y0067032D01*
X0018715Y0067032D02*
X0018642Y0066955D01*
X0018567Y0066880D01*
X0018489Y0066809D01*
X0018408Y0066740D01*
X0018325Y0066674D01*
X0018240Y0066611D01*
X0018152Y0066552D01*
X0018063Y0066495D01*
X0017971Y0066442D01*
X0017877Y0066392D01*
X0017782Y0066346D01*
X0017685Y0066303D01*
X0017587Y0066264D01*
X0017487Y0066228D01*
X0017386Y0066196D01*
X0017284Y0066168D01*
X0017181Y0066143D01*
X0017077Y0066122D01*
X0016972Y0066105D01*
X0016867Y0066091D01*
X0016762Y0066082D01*
X0016656Y0066076D01*
X0016550Y0066074D01*
X0016444Y0066076D01*
X0016338Y0066082D01*
X0016233Y0066091D01*
X0016128Y0066105D01*
X0016023Y0066122D01*
X0015919Y0066143D01*
X0015816Y0066168D01*
X0015714Y0066196D01*
X0015613Y0066228D01*
X0015513Y0066264D01*
X0015415Y0066303D01*
X0015318Y0066346D01*
X0015223Y0066392D01*
X0015129Y0066442D01*
X0015037Y0066495D01*
X0014948Y0066552D01*
X0014860Y0066611D01*
X0014775Y0066674D01*
X0014692Y0066740D01*
X0014611Y0066809D01*
X0014533Y0066880D01*
X0014458Y0066955D01*
X0014385Y0067032D01*
X0014385Y0070968D02*
X0014458Y0071045D01*
X0014533Y0071120D01*
X0014611Y0071191D01*
X0014692Y0071260D01*
X0014775Y0071326D01*
X0014860Y0071389D01*
X0014948Y0071448D01*
X0015037Y0071505D01*
X0015129Y0071558D01*
X0015223Y0071608D01*
X0015318Y0071654D01*
X0015415Y0071697D01*
X0015513Y0071736D01*
X0015613Y0071772D01*
X0015714Y0071804D01*
X0015816Y0071832D01*
X0015919Y0071857D01*
X0016023Y0071878D01*
X0016128Y0071895D01*
X0016233Y0071909D01*
X0016338Y0071918D01*
X0016444Y0071924D01*
X0016550Y0071926D01*
X0016656Y0071924D01*
X0016762Y0071918D01*
X0016867Y0071909D01*
X0016972Y0071895D01*
X0017077Y0071878D01*
X0017181Y0071857D01*
X0017284Y0071832D01*
X0017386Y0071804D01*
X0017487Y0071772D01*
X0017587Y0071736D01*
X0017685Y0071697D01*
X0017782Y0071654D01*
X0017877Y0071608D01*
X0017971Y0071558D01*
X0018063Y0071505D01*
X0018152Y0071448D01*
X0018240Y0071389D01*
X0018325Y0071326D01*
X0018408Y0071260D01*
X0018489Y0071191D01*
X0018567Y0071120D01*
X0018642Y0071045D01*
X0018715Y0070968D01*
X0018715Y0081032D02*
X0018642Y0080955D01*
X0018567Y0080880D01*
X0018489Y0080809D01*
X0018408Y0080740D01*
X0018325Y0080674D01*
X0018240Y0080611D01*
X0018152Y0080552D01*
X0018063Y0080495D01*
X0017971Y0080442D01*
X0017877Y0080392D01*
X0017782Y0080346D01*
X0017685Y0080303D01*
X0017587Y0080264D01*
X0017487Y0080228D01*
X0017386Y0080196D01*
X0017284Y0080168D01*
X0017181Y0080143D01*
X0017077Y0080122D01*
X0016972Y0080105D01*
X0016867Y0080091D01*
X0016762Y0080082D01*
X0016656Y0080076D01*
X0016550Y0080074D01*
X0016444Y0080076D01*
X0016338Y0080082D01*
X0016233Y0080091D01*
X0016128Y0080105D01*
X0016023Y0080122D01*
X0015919Y0080143D01*
X0015816Y0080168D01*
X0015714Y0080196D01*
X0015613Y0080228D01*
X0015513Y0080264D01*
X0015415Y0080303D01*
X0015318Y0080346D01*
X0015223Y0080392D01*
X0015129Y0080442D01*
X0015037Y0080495D01*
X0014948Y0080552D01*
X0014860Y0080611D01*
X0014775Y0080674D01*
X0014692Y0080740D01*
X0014611Y0080809D01*
X0014533Y0080880D01*
X0014458Y0080955D01*
X0014385Y0081032D01*
X0014385Y0084968D02*
X0014458Y0085045D01*
X0014533Y0085120D01*
X0014611Y0085191D01*
X0014692Y0085260D01*
X0014775Y0085326D01*
X0014860Y0085389D01*
X0014948Y0085448D01*
X0015037Y0085505D01*
X0015129Y0085558D01*
X0015223Y0085608D01*
X0015318Y0085654D01*
X0015415Y0085697D01*
X0015513Y0085736D01*
X0015613Y0085772D01*
X0015714Y0085804D01*
X0015816Y0085832D01*
X0015919Y0085857D01*
X0016023Y0085878D01*
X0016128Y0085895D01*
X0016233Y0085909D01*
X0016338Y0085918D01*
X0016444Y0085924D01*
X0016550Y0085926D01*
X0016656Y0085924D01*
X0016762Y0085918D01*
X0016867Y0085909D01*
X0016972Y0085895D01*
X0017077Y0085878D01*
X0017181Y0085857D01*
X0017284Y0085832D01*
X0017386Y0085804D01*
X0017487Y0085772D01*
X0017587Y0085736D01*
X0017685Y0085697D01*
X0017782Y0085654D01*
X0017877Y0085608D01*
X0017971Y0085558D01*
X0018063Y0085505D01*
X0018152Y0085448D01*
X0018240Y0085389D01*
X0018325Y0085326D01*
X0018408Y0085260D01*
X0018489Y0085191D01*
X0018567Y0085120D01*
X0018642Y0085045D01*
X0018715Y0084968D01*
X0010582Y0055165D02*
X0010505Y0055092D01*
X0010430Y0055017D01*
X0010359Y0054939D01*
X0010290Y0054858D01*
X0010224Y0054775D01*
X0010161Y0054690D01*
X0010102Y0054602D01*
X0010045Y0054513D01*
X0009992Y0054421D01*
X0009942Y0054327D01*
X0009896Y0054232D01*
X0009853Y0054135D01*
X0009814Y0054037D01*
X0009778Y0053937D01*
X0009746Y0053836D01*
X0009718Y0053734D01*
X0009693Y0053631D01*
X0009672Y0053527D01*
X0009655Y0053422D01*
X0009641Y0053317D01*
X0009632Y0053212D01*
X0009626Y0053106D01*
X0009624Y0053000D01*
X0009626Y0052894D01*
X0009632Y0052788D01*
X0009641Y0052683D01*
X0009655Y0052578D01*
X0009672Y0052473D01*
X0009693Y0052369D01*
X0009718Y0052266D01*
X0009746Y0052164D01*
X0009778Y0052063D01*
X0009814Y0051963D01*
X0009853Y0051865D01*
X0009896Y0051768D01*
X0009942Y0051673D01*
X0009992Y0051579D01*
X0010045Y0051487D01*
X0010102Y0051398D01*
X0010161Y0051310D01*
X0010224Y0051225D01*
X0010290Y0051142D01*
X0010359Y0051061D01*
X0010430Y0050983D01*
X0010505Y0050908D01*
X0010582Y0050835D01*
X0014518Y0050835D02*
X0014595Y0050908D01*
X0014670Y0050983D01*
X0014741Y0051061D01*
X0014810Y0051142D01*
X0014876Y0051225D01*
X0014939Y0051310D01*
X0014998Y0051398D01*
X0015055Y0051487D01*
X0015108Y0051579D01*
X0015158Y0051673D01*
X0015204Y0051768D01*
X0015247Y0051865D01*
X0015286Y0051963D01*
X0015322Y0052063D01*
X0015354Y0052164D01*
X0015382Y0052266D01*
X0015407Y0052369D01*
X0015428Y0052473D01*
X0015445Y0052578D01*
X0015459Y0052683D01*
X0015468Y0052788D01*
X0015474Y0052894D01*
X0015476Y0053000D01*
X0015474Y0053106D01*
X0015468Y0053212D01*
X0015459Y0053317D01*
X0015445Y0053422D01*
X0015428Y0053527D01*
X0015407Y0053631D01*
X0015382Y0053734D01*
X0015354Y0053836D01*
X0015322Y0053937D01*
X0015286Y0054037D01*
X0015247Y0054135D01*
X0015204Y0054232D01*
X0015158Y0054327D01*
X0015108Y0054421D01*
X0015055Y0054513D01*
X0014998Y0054602D01*
X0014939Y0054690D01*
X0014876Y0054775D01*
X0014810Y0054858D01*
X0014741Y0054939D01*
X0014670Y0055017D01*
X0014595Y0055092D01*
X0014518Y0055165D01*
X0200850Y0083912D02*
X0200850Y0083913D01*
D15*
X0038550Y0069000D03*
X0037550Y0083000D03*
X0016550Y0083000D03*
X0016550Y0069000D03*
X0012550Y0053000D03*
D16*
X0014814Y0055067D03*
D17*
X0014483Y0071264D03*
X0014483Y0085264D03*
X0035483Y0085264D03*
X0036483Y0071264D03*
D18*
X0065050Y0077000D02*
X0065050Y0101000D01*
X0065053Y0101207D01*
X0065060Y0101414D01*
X0065073Y0101620D01*
X0065090Y0101827D01*
X0065113Y0102032D01*
X0065141Y0102238D01*
X0065173Y0102442D01*
X0065211Y0102646D01*
X0065253Y0102848D01*
X0065301Y0103050D01*
X0065353Y0103250D01*
X0065410Y0103449D01*
X0065472Y0103646D01*
X0065539Y0103842D01*
X0065611Y0104036D01*
X0065687Y0104229D01*
X0065768Y0104419D01*
X0065854Y0104608D01*
X0065944Y0104794D01*
X0066038Y0104978D01*
X0066138Y0105160D01*
X0066241Y0105339D01*
X0066349Y0105516D01*
X0066461Y0105690D01*
X0066577Y0105861D01*
X0066698Y0106030D01*
X0066822Y0106195D01*
X0066951Y0106357D01*
X0067083Y0106516D01*
X0067219Y0106672D01*
X0067359Y0106825D01*
X0067503Y0106974D01*
X0067650Y0107119D01*
X0067801Y0107261D01*
X0067955Y0107399D01*
X0068113Y0107534D01*
X0068273Y0107664D01*
X0068437Y0107790D01*
X0068604Y0107913D01*
X0068774Y0108031D01*
X0068947Y0108146D01*
X0069122Y0108256D01*
X0069300Y0108361D01*
X0069481Y0108463D01*
X0069663Y0108559D01*
X0069849Y0108652D01*
X0070036Y0108740D01*
X0070226Y0108823D01*
X0070417Y0108902D01*
X0070610Y0108976D01*
X0070806Y0109045D01*
X0071002Y0109109D01*
X0071200Y0109169D01*
X0071400Y0109224D01*
X0071601Y0109274D01*
X0071803Y0109319D01*
X0072006Y0109359D01*
X0072210Y0109394D01*
X0072415Y0109424D01*
X0072620Y0109449D01*
X0072826Y0109469D01*
X0073033Y0109484D01*
X0073240Y0109494D01*
X0073447Y0109499D01*
X0073653Y0109499D01*
X0073860Y0109494D01*
X0074067Y0109484D01*
X0074274Y0109469D01*
X0074480Y0109449D01*
X0074685Y0109424D01*
X0074890Y0109394D01*
X0075094Y0109359D01*
X0075297Y0109319D01*
X0075499Y0109274D01*
X0075700Y0109224D01*
X0075900Y0109169D01*
X0076098Y0109109D01*
X0076294Y0109045D01*
X0076490Y0108976D01*
X0076683Y0108902D01*
X0076874Y0108823D01*
X0077064Y0108740D01*
X0077251Y0108652D01*
X0077437Y0108559D01*
X0077619Y0108463D01*
X0077800Y0108361D01*
X0077978Y0108256D01*
X0078153Y0108146D01*
X0078326Y0108031D01*
X0078496Y0107913D01*
X0078663Y0107790D01*
X0078827Y0107664D01*
X0078987Y0107534D01*
X0079145Y0107399D01*
X0079299Y0107261D01*
X0079450Y0107119D01*
X0079597Y0106974D01*
X0079741Y0106825D01*
X0079881Y0106672D01*
X0080017Y0106516D01*
X0080149Y0106357D01*
X0080278Y0106195D01*
X0080402Y0106030D01*
X0080523Y0105861D01*
X0080639Y0105690D01*
X0080751Y0105516D01*
X0080859Y0105339D01*
X0080962Y0105160D01*
X0081062Y0104978D01*
X0081156Y0104794D01*
X0081246Y0104608D01*
X0081332Y0104419D01*
X0081413Y0104229D01*
X0081489Y0104036D01*
X0081561Y0103842D01*
X0081628Y0103646D01*
X0081690Y0103449D01*
X0081747Y0103250D01*
X0081799Y0103050D01*
X0081847Y0102848D01*
X0081889Y0102646D01*
X0081927Y0102442D01*
X0081959Y0102238D01*
X0081987Y0102032D01*
X0082010Y0101827D01*
X0082027Y0101620D01*
X0082040Y0101414D01*
X0082047Y0101207D01*
X0082050Y0101000D01*
X0082050Y0077000D01*
X0082047Y0076793D01*
X0082040Y0076586D01*
X0082027Y0076380D01*
X0082010Y0076173D01*
X0081987Y0075968D01*
X0081959Y0075762D01*
X0081927Y0075558D01*
X0081889Y0075354D01*
X0081847Y0075152D01*
X0081799Y0074950D01*
X0081747Y0074750D01*
X0081690Y0074551D01*
X0081628Y0074354D01*
X0081561Y0074158D01*
X0081489Y0073964D01*
X0081413Y0073771D01*
X0081332Y0073581D01*
X0081246Y0073392D01*
X0081156Y0073206D01*
X0081062Y0073022D01*
X0080962Y0072840D01*
X0080859Y0072661D01*
X0080751Y0072484D01*
X0080639Y0072310D01*
X0080523Y0072139D01*
X0080402Y0071970D01*
X0080278Y0071805D01*
X0080149Y0071643D01*
X0080017Y0071484D01*
X0079881Y0071328D01*
X0079741Y0071175D01*
X0079597Y0071026D01*
X0079450Y0070881D01*
X0079299Y0070739D01*
X0079145Y0070601D01*
X0078987Y0070466D01*
X0078827Y0070336D01*
X0078663Y0070210D01*
X0078496Y0070087D01*
X0078326Y0069969D01*
X0078153Y0069854D01*
X0077978Y0069744D01*
X0077800Y0069639D01*
X0077619Y0069537D01*
X0077437Y0069441D01*
X0077251Y0069348D01*
X0077064Y0069260D01*
X0076874Y0069177D01*
X0076683Y0069098D01*
X0076490Y0069024D01*
X0076294Y0068955D01*
X0076098Y0068891D01*
X0075900Y0068831D01*
X0075700Y0068776D01*
X0075499Y0068726D01*
X0075297Y0068681D01*
X0075094Y0068641D01*
X0074890Y0068606D01*
X0074685Y0068576D01*
X0074480Y0068551D01*
X0074274Y0068531D01*
X0074067Y0068516D01*
X0073860Y0068506D01*
X0073653Y0068501D01*
X0073447Y0068501D01*
X0073240Y0068506D01*
X0073033Y0068516D01*
X0072826Y0068531D01*
X0072620Y0068551D01*
X0072415Y0068576D01*
X0072210Y0068606D01*
X0072006Y0068641D01*
X0071803Y0068681D01*
X0071601Y0068726D01*
X0071400Y0068776D01*
X0071200Y0068831D01*
X0071002Y0068891D01*
X0070806Y0068955D01*
X0070610Y0069024D01*
X0070417Y0069098D01*
X0070226Y0069177D01*
X0070036Y0069260D01*
X0069849Y0069348D01*
X0069663Y0069441D01*
X0069481Y0069537D01*
X0069300Y0069639D01*
X0069122Y0069744D01*
X0068947Y0069854D01*
X0068774Y0069969D01*
X0068604Y0070087D01*
X0068437Y0070210D01*
X0068273Y0070336D01*
X0068113Y0070466D01*
X0067955Y0070601D01*
X0067801Y0070739D01*
X0067650Y0070881D01*
X0067503Y0071026D01*
X0067359Y0071175D01*
X0067219Y0071328D01*
X0067083Y0071484D01*
X0066951Y0071643D01*
X0066822Y0071805D01*
X0066698Y0071970D01*
X0066577Y0072139D01*
X0066461Y0072310D01*
X0066349Y0072484D01*
X0066241Y0072661D01*
X0066138Y0072840D01*
X0066038Y0073022D01*
X0065944Y0073206D01*
X0065854Y0073392D01*
X0065768Y0073581D01*
X0065687Y0073771D01*
X0065611Y0073964D01*
X0065539Y0074158D01*
X0065472Y0074354D01*
X0065410Y0074551D01*
X0065353Y0074750D01*
X0065301Y0074950D01*
X0065253Y0075152D01*
X0065211Y0075354D01*
X0065173Y0075558D01*
X0065141Y0075762D01*
X0065113Y0075968D01*
X0065090Y0076173D01*
X0065073Y0076380D01*
X0065060Y0076586D01*
X0065053Y0076793D01*
X0065050Y0077000D01*
X0067050Y0135000D02*
X0067050Y0159000D01*
X0067053Y0159207D01*
X0067060Y0159414D01*
X0067073Y0159620D01*
X0067090Y0159827D01*
X0067113Y0160032D01*
X0067141Y0160238D01*
X0067173Y0160442D01*
X0067211Y0160646D01*
X0067253Y0160848D01*
X0067301Y0161050D01*
X0067353Y0161250D01*
X0067410Y0161449D01*
X0067472Y0161646D01*
X0067539Y0161842D01*
X0067611Y0162036D01*
X0067687Y0162229D01*
X0067768Y0162419D01*
X0067854Y0162608D01*
X0067944Y0162794D01*
X0068038Y0162978D01*
X0068138Y0163160D01*
X0068241Y0163339D01*
X0068349Y0163516D01*
X0068461Y0163690D01*
X0068577Y0163861D01*
X0068698Y0164030D01*
X0068822Y0164195D01*
X0068951Y0164357D01*
X0069083Y0164516D01*
X0069219Y0164672D01*
X0069359Y0164825D01*
X0069503Y0164974D01*
X0069650Y0165119D01*
X0069801Y0165261D01*
X0069955Y0165399D01*
X0070113Y0165534D01*
X0070273Y0165664D01*
X0070437Y0165790D01*
X0070604Y0165913D01*
X0070774Y0166031D01*
X0070947Y0166146D01*
X0071122Y0166256D01*
X0071300Y0166361D01*
X0071481Y0166463D01*
X0071663Y0166559D01*
X0071849Y0166652D01*
X0072036Y0166740D01*
X0072226Y0166823D01*
X0072417Y0166902D01*
X0072610Y0166976D01*
X0072806Y0167045D01*
X0073002Y0167109D01*
X0073200Y0167169D01*
X0073400Y0167224D01*
X0073601Y0167274D01*
X0073803Y0167319D01*
X0074006Y0167359D01*
X0074210Y0167394D01*
X0074415Y0167424D01*
X0074620Y0167449D01*
X0074826Y0167469D01*
X0075033Y0167484D01*
X0075240Y0167494D01*
X0075447Y0167499D01*
X0075653Y0167499D01*
X0075860Y0167494D01*
X0076067Y0167484D01*
X0076274Y0167469D01*
X0076480Y0167449D01*
X0076685Y0167424D01*
X0076890Y0167394D01*
X0077094Y0167359D01*
X0077297Y0167319D01*
X0077499Y0167274D01*
X0077700Y0167224D01*
X0077900Y0167169D01*
X0078098Y0167109D01*
X0078294Y0167045D01*
X0078490Y0166976D01*
X0078683Y0166902D01*
X0078874Y0166823D01*
X0079064Y0166740D01*
X0079251Y0166652D01*
X0079437Y0166559D01*
X0079619Y0166463D01*
X0079800Y0166361D01*
X0079978Y0166256D01*
X0080153Y0166146D01*
X0080326Y0166031D01*
X0080496Y0165913D01*
X0080663Y0165790D01*
X0080827Y0165664D01*
X0080987Y0165534D01*
X0081145Y0165399D01*
X0081299Y0165261D01*
X0081450Y0165119D01*
X0081597Y0164974D01*
X0081741Y0164825D01*
X0081881Y0164672D01*
X0082017Y0164516D01*
X0082149Y0164357D01*
X0082278Y0164195D01*
X0082402Y0164030D01*
X0082523Y0163861D01*
X0082639Y0163690D01*
X0082751Y0163516D01*
X0082859Y0163339D01*
X0082962Y0163160D01*
X0083062Y0162978D01*
X0083156Y0162794D01*
X0083246Y0162608D01*
X0083332Y0162419D01*
X0083413Y0162229D01*
X0083489Y0162036D01*
X0083561Y0161842D01*
X0083628Y0161646D01*
X0083690Y0161449D01*
X0083747Y0161250D01*
X0083799Y0161050D01*
X0083847Y0160848D01*
X0083889Y0160646D01*
X0083927Y0160442D01*
X0083959Y0160238D01*
X0083987Y0160032D01*
X0084010Y0159827D01*
X0084027Y0159620D01*
X0084040Y0159414D01*
X0084047Y0159207D01*
X0084050Y0159000D01*
X0084050Y0135000D01*
X0084047Y0134793D01*
X0084040Y0134586D01*
X0084027Y0134380D01*
X0084010Y0134173D01*
X0083987Y0133968D01*
X0083959Y0133762D01*
X0083927Y0133558D01*
X0083889Y0133354D01*
X0083847Y0133152D01*
X0083799Y0132950D01*
X0083747Y0132750D01*
X0083690Y0132551D01*
X0083628Y0132354D01*
X0083561Y0132158D01*
X0083489Y0131964D01*
X0083413Y0131771D01*
X0083332Y0131581D01*
X0083246Y0131392D01*
X0083156Y0131206D01*
X0083062Y0131022D01*
X0082962Y0130840D01*
X0082859Y0130661D01*
X0082751Y0130484D01*
X0082639Y0130310D01*
X0082523Y0130139D01*
X0082402Y0129970D01*
X0082278Y0129805D01*
X0082149Y0129643D01*
X0082017Y0129484D01*
X0081881Y0129328D01*
X0081741Y0129175D01*
X0081597Y0129026D01*
X0081450Y0128881D01*
X0081299Y0128739D01*
X0081145Y0128601D01*
X0080987Y0128466D01*
X0080827Y0128336D01*
X0080663Y0128210D01*
X0080496Y0128087D01*
X0080326Y0127969D01*
X0080153Y0127854D01*
X0079978Y0127744D01*
X0079800Y0127639D01*
X0079619Y0127537D01*
X0079437Y0127441D01*
X0079251Y0127348D01*
X0079064Y0127260D01*
X0078874Y0127177D01*
X0078683Y0127098D01*
X0078490Y0127024D01*
X0078294Y0126955D01*
X0078098Y0126891D01*
X0077900Y0126831D01*
X0077700Y0126776D01*
X0077499Y0126726D01*
X0077297Y0126681D01*
X0077094Y0126641D01*
X0076890Y0126606D01*
X0076685Y0126576D01*
X0076480Y0126551D01*
X0076274Y0126531D01*
X0076067Y0126516D01*
X0075860Y0126506D01*
X0075653Y0126501D01*
X0075447Y0126501D01*
X0075240Y0126506D01*
X0075033Y0126516D01*
X0074826Y0126531D01*
X0074620Y0126551D01*
X0074415Y0126576D01*
X0074210Y0126606D01*
X0074006Y0126641D01*
X0073803Y0126681D01*
X0073601Y0126726D01*
X0073400Y0126776D01*
X0073200Y0126831D01*
X0073002Y0126891D01*
X0072806Y0126955D01*
X0072610Y0127024D01*
X0072417Y0127098D01*
X0072226Y0127177D01*
X0072036Y0127260D01*
X0071849Y0127348D01*
X0071663Y0127441D01*
X0071481Y0127537D01*
X0071300Y0127639D01*
X0071122Y0127744D01*
X0070947Y0127854D01*
X0070774Y0127969D01*
X0070604Y0128087D01*
X0070437Y0128210D01*
X0070273Y0128336D01*
X0070113Y0128466D01*
X0069955Y0128601D01*
X0069801Y0128739D01*
X0069650Y0128881D01*
X0069503Y0129026D01*
X0069359Y0129175D01*
X0069219Y0129328D01*
X0069083Y0129484D01*
X0068951Y0129643D01*
X0068822Y0129805D01*
X0068698Y0129970D01*
X0068577Y0130139D01*
X0068461Y0130310D01*
X0068349Y0130484D01*
X0068241Y0130661D01*
X0068138Y0130840D01*
X0068038Y0131022D01*
X0067944Y0131206D01*
X0067854Y0131392D01*
X0067768Y0131581D01*
X0067687Y0131771D01*
X0067611Y0131964D01*
X0067539Y0132158D01*
X0067472Y0132354D01*
X0067410Y0132551D01*
X0067353Y0132750D01*
X0067301Y0132950D01*
X0067253Y0133152D01*
X0067211Y0133354D01*
X0067173Y0133558D01*
X0067141Y0133762D01*
X0067113Y0133968D01*
X0067090Y0134173D01*
X0067073Y0134380D01*
X0067060Y0134586D01*
X0067053Y0134793D01*
X0067050Y0135000D01*
D19*
X0028550Y0028000D02*
X0028550Y0027000D01*
X0018550Y0027000D01*
X0018550Y0028000D01*
X0018550Y0005000D02*
X0018550Y0004000D01*
X0018550Y0005000D02*
X0028050Y0005000D01*
X0028050Y0004000D01*
M02*
