G75*
%MOIN*%
%OFA0B0*%
%FSLAX25Y25*%
%IPPOS*%
%LPD*%
%AMOC8*
5,1,8,0,0,1.08239X$1,22.5*
%
%ADD10C,0.00000*%
%ADD11C,0.00300*%
%ADD12C,0.00600*%
%ADD13C,0.00500*%
%ADD14C,0.00400*%
%ADD15C,0.00200*%
%ADD16R,0.00787X0.00787*%
%ADD17R,0.00984X0.00591*%
%ADD18C,0.00800*%
%ADD19C,0.00100*%
%ADD20R,0.00591X0.00984*%
%ADD21C,0.01600*%
D10*
X0002100Y0001100D02*
X0002100Y0197950D01*
X0198950Y0197950D01*
X0198950Y0001100D01*
X0002100Y0001100D01*
D11*
X0043410Y0005534D02*
X0043894Y0005050D01*
X0044862Y0005050D01*
X0045345Y0005534D01*
X0045345Y0006501D01*
X0044378Y0006501D01*
X0043410Y0007469D02*
X0043410Y0005534D01*
X0043410Y0007469D02*
X0043894Y0007952D01*
X0044862Y0007952D01*
X0045345Y0007469D01*
X0046357Y0007952D02*
X0046357Y0005050D01*
X0048292Y0005050D02*
X0046357Y0007952D01*
X0048292Y0007952D02*
X0048292Y0005050D01*
X0049303Y0005050D02*
X0050755Y0005050D01*
X0051238Y0005534D01*
X0051238Y0007469D01*
X0050755Y0007952D01*
X0049303Y0007952D01*
X0049303Y0005050D01*
X0054517Y0005534D02*
X0055001Y0005050D01*
X0055969Y0005050D01*
X0056452Y0005534D01*
X0056452Y0006017D01*
X0055969Y0006501D01*
X0055001Y0006501D01*
X0054517Y0006985D01*
X0054517Y0007469D01*
X0055001Y0007952D01*
X0055969Y0007952D01*
X0056452Y0007469D01*
X0057464Y0007952D02*
X0057464Y0005050D01*
X0058431Y0006017D01*
X0059399Y0005050D01*
X0059399Y0007952D01*
X0060410Y0007469D02*
X0060410Y0005534D01*
X0060894Y0005050D01*
X0061862Y0005050D01*
X0062345Y0005534D01*
X0063357Y0005050D02*
X0065292Y0005050D01*
X0066303Y0005050D02*
X0066303Y0007952D01*
X0066787Y0006501D02*
X0068238Y0005050D01*
X0066303Y0006017D02*
X0068238Y0007952D01*
X0071250Y0007669D02*
X0071250Y0007185D01*
X0071734Y0006701D01*
X0072701Y0006701D01*
X0073185Y0006217D01*
X0073185Y0005734D01*
X0072701Y0005250D01*
X0071734Y0005250D01*
X0071250Y0005734D01*
X0071250Y0007669D02*
X0071734Y0008152D01*
X0072701Y0008152D01*
X0073185Y0007669D01*
X0074197Y0008152D02*
X0074197Y0005250D01*
X0075164Y0006217D01*
X0076131Y0005250D01*
X0076131Y0008152D01*
X0077143Y0008152D02*
X0078594Y0008152D01*
X0079078Y0007669D01*
X0079078Y0005734D01*
X0078594Y0005250D01*
X0077143Y0005250D01*
X0077143Y0008152D01*
X0080090Y0008152D02*
X0081057Y0008152D01*
X0080573Y0008152D02*
X0080573Y0005250D01*
X0080090Y0005250D02*
X0081057Y0005250D01*
X0082054Y0005734D02*
X0082538Y0005250D01*
X0083505Y0005250D01*
X0083989Y0005734D01*
X0083989Y0007669D01*
X0083505Y0008152D01*
X0082538Y0008152D01*
X0082054Y0007669D01*
X0082054Y0005734D01*
X0063357Y0005050D02*
X0063357Y0007952D01*
X0062345Y0007469D02*
X0061862Y0007952D01*
X0060894Y0007952D01*
X0060410Y0007469D01*
X0060983Y0031250D02*
X0060983Y0032701D01*
X0060499Y0033185D01*
X0059531Y0033185D01*
X0059048Y0032701D01*
X0059048Y0031250D01*
X0061950Y0031250D01*
X0060983Y0032217D02*
X0061950Y0033185D01*
X0061950Y0034197D02*
X0059048Y0034197D01*
X0059048Y0036131D01*
X0059531Y0037143D02*
X0060015Y0037143D01*
X0060499Y0037627D01*
X0060499Y0038594D01*
X0060983Y0039078D01*
X0061466Y0039078D01*
X0061950Y0038594D01*
X0061950Y0037627D01*
X0061466Y0037143D01*
X0061950Y0036131D02*
X0061950Y0034197D01*
X0060499Y0034197D02*
X0060499Y0035164D01*
X0059531Y0037143D02*
X0059048Y0037627D01*
X0059048Y0038594D01*
X0059531Y0039078D01*
X0059048Y0040090D02*
X0061950Y0040090D01*
X0061950Y0042025D01*
X0060499Y0041057D02*
X0060499Y0040090D01*
X0059048Y0040090D02*
X0059048Y0042025D01*
X0059048Y0043036D02*
X0059048Y0044971D01*
X0059048Y0044004D02*
X0061950Y0044004D01*
X0053950Y0038594D02*
X0053466Y0039078D01*
X0051531Y0039078D01*
X0051048Y0038594D01*
X0051048Y0037627D01*
X0051531Y0037143D01*
X0053466Y0037143D01*
X0053950Y0037627D01*
X0053950Y0038594D01*
X0053950Y0036131D02*
X0051048Y0036131D01*
X0051048Y0034197D02*
X0053950Y0034197D01*
X0052983Y0035164D01*
X0053950Y0036131D01*
X0053466Y0033185D02*
X0053950Y0032701D01*
X0053950Y0031734D01*
X0053466Y0031250D01*
X0052499Y0031734D02*
X0052499Y0032701D01*
X0052983Y0033185D01*
X0053466Y0033185D01*
X0052499Y0031734D02*
X0052015Y0031250D01*
X0051531Y0031250D01*
X0051048Y0031734D01*
X0051048Y0032701D01*
X0051531Y0033185D01*
X0069048Y0033185D02*
X0070983Y0033185D01*
X0071950Y0032217D01*
X0070983Y0031250D01*
X0069048Y0031250D01*
X0069531Y0034197D02*
X0071466Y0034197D01*
X0071950Y0034680D01*
X0071950Y0035648D01*
X0071466Y0036131D01*
X0071466Y0037143D02*
X0071950Y0037627D01*
X0071950Y0038594D01*
X0071466Y0039078D01*
X0069531Y0039078D02*
X0069048Y0038594D01*
X0069048Y0037627D01*
X0069531Y0037143D01*
X0071466Y0037143D01*
X0069531Y0036131D02*
X0069048Y0035648D01*
X0069048Y0034680D01*
X0069531Y0034197D01*
X0150250Y0054185D02*
X0151217Y0052250D01*
X0152185Y0054185D01*
X0153197Y0054669D02*
X0153680Y0055152D01*
X0154648Y0055152D01*
X0155131Y0054669D01*
X0155131Y0054185D01*
X0154648Y0053701D01*
X0155131Y0053217D01*
X0155131Y0052734D01*
X0154648Y0052250D01*
X0153680Y0052250D01*
X0153197Y0052734D01*
X0154164Y0053701D02*
X0154648Y0053701D01*
X0165250Y0067250D02*
X0165250Y0070152D01*
X0166701Y0070152D01*
X0167185Y0069669D01*
X0167185Y0068701D01*
X0166701Y0068217D01*
X0165250Y0068217D01*
X0168197Y0068701D02*
X0169648Y0068701D01*
X0170131Y0068217D01*
X0170131Y0067734D01*
X0169648Y0067250D01*
X0168197Y0067250D01*
X0168197Y0070152D01*
X0169648Y0070152D01*
X0170131Y0069669D01*
X0170131Y0069185D01*
X0169648Y0068701D01*
X0171143Y0069185D02*
X0172111Y0070152D01*
X0172111Y0067250D01*
X0173078Y0067250D02*
X0171143Y0067250D01*
X0174090Y0068701D02*
X0175541Y0070152D01*
X0175541Y0067250D01*
X0176025Y0068701D02*
X0174090Y0068701D01*
X0175025Y0078250D02*
X0173090Y0078250D01*
X0175025Y0080185D01*
X0175025Y0080669D01*
X0174541Y0081152D01*
X0173573Y0081152D01*
X0173090Y0080669D01*
X0171111Y0081152D02*
X0171111Y0078250D01*
X0172078Y0078250D02*
X0170143Y0078250D01*
X0169131Y0078734D02*
X0168648Y0078250D01*
X0167197Y0078250D01*
X0167197Y0081152D01*
X0168648Y0081152D01*
X0169131Y0080669D01*
X0169131Y0080185D01*
X0168648Y0079701D01*
X0167197Y0079701D01*
X0166185Y0079701D02*
X0165701Y0079217D01*
X0164250Y0079217D01*
X0164250Y0078250D02*
X0164250Y0081152D01*
X0165701Y0081152D01*
X0166185Y0080669D01*
X0166185Y0079701D01*
X0168648Y0079701D02*
X0169131Y0079217D01*
X0169131Y0078734D01*
X0170143Y0080185D02*
X0171111Y0081152D01*
X0171143Y0087250D02*
X0173078Y0087250D01*
X0172111Y0087250D02*
X0172111Y0090152D01*
X0171143Y0089185D01*
X0170131Y0089185D02*
X0169648Y0088701D01*
X0168197Y0088701D01*
X0167185Y0088701D02*
X0167185Y0089669D01*
X0166701Y0090152D01*
X0165250Y0090152D01*
X0165250Y0087250D01*
X0165250Y0088217D02*
X0166701Y0088217D01*
X0167185Y0088701D01*
X0168197Y0087250D02*
X0169648Y0087250D01*
X0170131Y0087734D01*
X0170131Y0088217D01*
X0169648Y0088701D01*
X0170131Y0089185D02*
X0170131Y0089669D01*
X0169648Y0090152D01*
X0168197Y0090152D01*
X0168197Y0087250D01*
X0174090Y0087734D02*
X0174573Y0087250D01*
X0175541Y0087250D01*
X0176025Y0087734D01*
X0176025Y0089669D01*
X0174090Y0087734D01*
X0174090Y0089669D01*
X0174573Y0090152D01*
X0175541Y0090152D01*
X0176025Y0089669D01*
X0174594Y0097250D02*
X0173627Y0097250D01*
X0173143Y0097734D01*
X0173143Y0098217D01*
X0173627Y0098701D01*
X0174594Y0098701D01*
X0175078Y0098217D01*
X0175078Y0097734D01*
X0174594Y0097250D01*
X0174594Y0098701D02*
X0175078Y0099185D01*
X0175078Y0099669D01*
X0174594Y0100152D01*
X0173627Y0100152D01*
X0173143Y0099669D01*
X0173143Y0099185D01*
X0173627Y0098701D01*
X0172131Y0098217D02*
X0172131Y0097734D01*
X0171648Y0097250D01*
X0170197Y0097250D01*
X0170197Y0100152D01*
X0171648Y0100152D01*
X0172131Y0099669D01*
X0172131Y0099185D01*
X0171648Y0098701D01*
X0170197Y0098701D01*
X0169185Y0098701D02*
X0169185Y0099669D01*
X0168701Y0100152D01*
X0167250Y0100152D01*
X0167250Y0097250D01*
X0167250Y0098217D02*
X0168701Y0098217D01*
X0169185Y0098701D01*
X0171648Y0098701D02*
X0172131Y0098217D01*
X0171648Y0108250D02*
X0170197Y0108250D01*
X0170197Y0111152D01*
X0171648Y0111152D01*
X0172131Y0110669D01*
X0172131Y0110185D01*
X0171648Y0109701D01*
X0170197Y0109701D01*
X0169185Y0109701D02*
X0168701Y0109217D01*
X0167250Y0109217D01*
X0167250Y0108250D02*
X0167250Y0111152D01*
X0168701Y0111152D01*
X0169185Y0110669D01*
X0169185Y0109701D01*
X0171648Y0109701D02*
X0172131Y0109217D01*
X0172131Y0108734D01*
X0171648Y0108250D01*
X0173143Y0108734D02*
X0173143Y0109701D01*
X0174594Y0109701D01*
X0175078Y0109217D01*
X0175078Y0108734D01*
X0174594Y0108250D01*
X0173627Y0108250D01*
X0173143Y0108734D01*
X0173143Y0109701D02*
X0174111Y0110669D01*
X0175078Y0111152D01*
X0174594Y0118250D02*
X0174594Y0121152D01*
X0173143Y0119701D01*
X0175078Y0119701D01*
X0172131Y0119217D02*
X0172131Y0118734D01*
X0171648Y0118250D01*
X0170197Y0118250D01*
X0170197Y0121152D01*
X0171648Y0121152D01*
X0172131Y0120669D01*
X0172131Y0120185D01*
X0171648Y0119701D01*
X0170197Y0119701D01*
X0169185Y0119701D02*
X0168701Y0119217D01*
X0167250Y0119217D01*
X0167250Y0118250D02*
X0167250Y0121152D01*
X0168701Y0121152D01*
X0169185Y0120669D01*
X0169185Y0119701D01*
X0171648Y0119701D02*
X0172131Y0119217D01*
X0171648Y0127250D02*
X0170197Y0127250D01*
X0170197Y0130152D01*
X0171648Y0130152D01*
X0172131Y0129669D01*
X0172131Y0129185D01*
X0171648Y0128701D01*
X0170197Y0128701D01*
X0169185Y0128701D02*
X0169185Y0129669D01*
X0168701Y0130152D01*
X0167250Y0130152D01*
X0167250Y0127250D01*
X0167250Y0128217D02*
X0168701Y0128217D01*
X0169185Y0128701D01*
X0171648Y0128701D02*
X0172131Y0128217D01*
X0172131Y0127734D01*
X0171648Y0127250D01*
X0173143Y0127250D02*
X0175078Y0129185D01*
X0175078Y0129669D01*
X0174594Y0130152D01*
X0173627Y0130152D01*
X0173143Y0129669D01*
X0173143Y0127250D02*
X0175078Y0127250D01*
X0172755Y0137050D02*
X0171787Y0137050D01*
X0171303Y0137534D01*
X0173238Y0139469D01*
X0173238Y0137534D01*
X0172755Y0137050D01*
X0171303Y0137534D02*
X0171303Y0139469D01*
X0171787Y0139952D01*
X0172755Y0139952D01*
X0173238Y0139469D01*
X0170292Y0139469D02*
X0170292Y0138985D01*
X0169808Y0138501D01*
X0168357Y0138501D01*
X0167345Y0138501D02*
X0167345Y0139469D01*
X0166862Y0139952D01*
X0165410Y0139952D01*
X0165410Y0137050D01*
X0165410Y0138017D02*
X0166862Y0138017D01*
X0167345Y0138501D01*
X0168357Y0137050D02*
X0169808Y0137050D01*
X0170292Y0137534D01*
X0170292Y0138017D01*
X0169808Y0138501D01*
X0170292Y0139469D02*
X0169808Y0139952D01*
X0168357Y0139952D01*
X0168357Y0137050D01*
X0194048Y0144250D02*
X0194048Y0145701D01*
X0194531Y0146185D01*
X0195499Y0146185D01*
X0195983Y0145701D01*
X0195983Y0144250D01*
X0196950Y0144250D02*
X0194048Y0144250D01*
X0194048Y0147197D02*
X0194048Y0148648D01*
X0194531Y0149131D01*
X0195015Y0149131D01*
X0195499Y0148648D01*
X0195499Y0147197D01*
X0195499Y0148648D02*
X0195983Y0149131D01*
X0196466Y0149131D01*
X0196950Y0148648D01*
X0196950Y0147197D01*
X0194048Y0147197D01*
X0195015Y0150143D02*
X0194048Y0151111D01*
X0196950Y0151111D01*
X0196950Y0152078D02*
X0196950Y0150143D01*
X0163541Y0191250D02*
X0162573Y0191250D01*
X0162090Y0191734D01*
X0162090Y0192701D02*
X0163057Y0193185D01*
X0163541Y0193185D01*
X0164025Y0192701D01*
X0164025Y0191734D01*
X0163541Y0191250D01*
X0162090Y0192701D02*
X0162090Y0194152D01*
X0164025Y0194152D01*
X0160111Y0194152D02*
X0160111Y0191250D01*
X0161078Y0191250D02*
X0159143Y0191250D01*
X0158131Y0191250D02*
X0158131Y0193185D01*
X0157164Y0194152D01*
X0156197Y0193185D01*
X0156197Y0191250D01*
X0156197Y0192701D02*
X0158131Y0192701D01*
X0159143Y0193185D02*
X0160111Y0194152D01*
X0155185Y0193669D02*
X0155185Y0192701D01*
X0154701Y0192217D01*
X0153250Y0192217D01*
X0153250Y0191250D02*
X0153250Y0194152D01*
X0154701Y0194152D01*
X0155185Y0193669D01*
X0146950Y0175541D02*
X0144048Y0175541D01*
X0145499Y0174090D01*
X0145499Y0176025D01*
X0146950Y0173078D02*
X0146950Y0171143D01*
X0146950Y0172111D02*
X0144048Y0172111D01*
X0145015Y0171143D01*
X0145015Y0170131D02*
X0146950Y0170131D01*
X0145499Y0170131D02*
X0145499Y0168197D01*
X0145015Y0168197D02*
X0144048Y0169164D01*
X0145015Y0170131D01*
X0145015Y0168197D02*
X0146950Y0168197D01*
X0145499Y0167185D02*
X0144531Y0167185D01*
X0144048Y0166701D01*
X0144048Y0165250D01*
X0146950Y0165250D01*
X0145983Y0165250D02*
X0145983Y0166701D01*
X0145499Y0167185D01*
X0137950Y0168197D02*
X0136015Y0168197D01*
X0135048Y0169164D01*
X0136015Y0170131D01*
X0137950Y0170131D01*
X0137950Y0171143D02*
X0137950Y0173078D01*
X0137950Y0172111D02*
X0135048Y0172111D01*
X0136015Y0171143D01*
X0136499Y0170131D02*
X0136499Y0168197D01*
X0136499Y0167185D02*
X0136983Y0166701D01*
X0136983Y0165250D01*
X0137950Y0165250D02*
X0135048Y0165250D01*
X0135048Y0166701D01*
X0135531Y0167185D01*
X0136499Y0167185D01*
X0135531Y0174090D02*
X0135048Y0174573D01*
X0135048Y0175541D01*
X0135531Y0176025D01*
X0136015Y0176025D01*
X0137950Y0174090D01*
X0137950Y0176025D01*
X0127950Y0175541D02*
X0127950Y0174573D01*
X0127466Y0174090D01*
X0125531Y0176025D01*
X0127466Y0176025D01*
X0127950Y0175541D01*
X0127466Y0174090D02*
X0125531Y0174090D01*
X0125048Y0174573D01*
X0125048Y0175541D01*
X0125531Y0176025D01*
X0127950Y0173078D02*
X0127950Y0171143D01*
X0127950Y0172111D02*
X0125048Y0172111D01*
X0126015Y0171143D01*
X0126015Y0170131D02*
X0127950Y0170131D01*
X0126499Y0170131D02*
X0126499Y0168197D01*
X0126015Y0168197D02*
X0127950Y0168197D01*
X0126499Y0167185D02*
X0125531Y0167185D01*
X0125048Y0166701D01*
X0125048Y0165250D01*
X0127950Y0165250D01*
X0126983Y0165250D02*
X0126983Y0166701D01*
X0126499Y0167185D01*
X0126015Y0168197D02*
X0125048Y0169164D01*
X0126015Y0170131D01*
X0117950Y0170197D02*
X0116015Y0170197D01*
X0115048Y0171164D01*
X0116015Y0172131D01*
X0117950Y0172131D01*
X0117466Y0173143D02*
X0116983Y0173143D01*
X0116499Y0173627D01*
X0116499Y0174594D01*
X0116983Y0175078D01*
X0117466Y0175078D01*
X0117950Y0174594D01*
X0117950Y0173627D01*
X0117466Y0173143D01*
X0116499Y0173627D02*
X0116015Y0173143D01*
X0115531Y0173143D01*
X0115048Y0173627D01*
X0115048Y0174594D01*
X0115531Y0175078D01*
X0116015Y0175078D01*
X0116499Y0174594D01*
X0116499Y0172131D02*
X0116499Y0170197D01*
X0116499Y0169185D02*
X0115531Y0169185D01*
X0115048Y0168701D01*
X0115048Y0167250D01*
X0117950Y0167250D01*
X0116983Y0167250D02*
X0116983Y0168701D01*
X0116499Y0169185D01*
X0107950Y0170197D02*
X0106015Y0170197D01*
X0105048Y0171164D01*
X0106015Y0172131D01*
X0107950Y0172131D01*
X0107466Y0173143D02*
X0107950Y0173627D01*
X0107950Y0174594D01*
X0107466Y0175078D01*
X0106983Y0175078D01*
X0106499Y0174594D01*
X0106499Y0173143D01*
X0107466Y0173143D01*
X0106499Y0173143D02*
X0105531Y0174111D01*
X0105048Y0175078D01*
X0106499Y0172131D02*
X0106499Y0170197D01*
X0106499Y0169185D02*
X0105531Y0169185D01*
X0105048Y0168701D01*
X0105048Y0167250D01*
X0107950Y0167250D01*
X0106983Y0167250D02*
X0106983Y0168701D01*
X0106499Y0169185D01*
X0097950Y0170197D02*
X0096015Y0170197D01*
X0095048Y0171164D01*
X0096015Y0172131D01*
X0097950Y0172131D01*
X0096499Y0172131D02*
X0096499Y0170197D01*
X0096499Y0169185D02*
X0096983Y0168701D01*
X0096983Y0167250D01*
X0097950Y0167250D02*
X0095048Y0167250D01*
X0095048Y0168701D01*
X0095531Y0169185D01*
X0096499Y0169185D01*
X0096499Y0173143D02*
X0096499Y0175078D01*
X0097950Y0174594D02*
X0095048Y0174594D01*
X0096499Y0173143D01*
X0087950Y0173143D02*
X0086015Y0175078D01*
X0085531Y0175078D01*
X0085048Y0174594D01*
X0085048Y0173627D01*
X0085531Y0173143D01*
X0086015Y0172131D02*
X0087950Y0172131D01*
X0087950Y0173143D02*
X0087950Y0175078D01*
X0086499Y0172131D02*
X0086499Y0170197D01*
X0086015Y0170197D02*
X0085048Y0171164D01*
X0086015Y0172131D01*
X0086015Y0170197D02*
X0087950Y0170197D01*
X0086499Y0169185D02*
X0086983Y0168701D01*
X0086983Y0167250D01*
X0087950Y0167250D02*
X0085048Y0167250D01*
X0085048Y0168701D01*
X0085531Y0169185D01*
X0086499Y0169185D01*
X0070078Y0180734D02*
X0069594Y0180250D01*
X0068627Y0180250D01*
X0068143Y0180734D01*
X0070078Y0182669D01*
X0070078Y0180734D01*
X0070078Y0182669D02*
X0069594Y0183152D01*
X0068627Y0183152D01*
X0068143Y0182669D01*
X0068143Y0180734D01*
X0067131Y0180250D02*
X0067131Y0182185D01*
X0066164Y0183152D01*
X0065197Y0182185D01*
X0065197Y0180250D01*
X0065197Y0181701D02*
X0067131Y0181701D01*
X0064185Y0181701D02*
X0063701Y0181217D01*
X0062250Y0181217D01*
X0062250Y0180250D02*
X0062250Y0183152D01*
X0063701Y0183152D01*
X0064185Y0182669D01*
X0064185Y0181701D01*
X0065197Y0191250D02*
X0065197Y0193185D01*
X0066164Y0194152D01*
X0067131Y0193185D01*
X0067131Y0191250D01*
X0068143Y0191250D02*
X0070078Y0191250D01*
X0069111Y0191250D02*
X0069111Y0194152D01*
X0068143Y0193185D01*
X0067131Y0192701D02*
X0065197Y0192701D01*
X0064185Y0192701D02*
X0064185Y0193669D01*
X0063701Y0194152D01*
X0062250Y0194152D01*
X0062250Y0191250D01*
X0062250Y0192217D02*
X0063701Y0192217D01*
X0064185Y0192701D01*
X0049594Y0158152D02*
X0048627Y0158152D01*
X0048143Y0157669D01*
X0048143Y0155734D01*
X0048627Y0155250D01*
X0049594Y0155250D01*
X0050078Y0155734D01*
X0050078Y0157669D02*
X0049594Y0158152D01*
X0047131Y0157669D02*
X0046648Y0158152D01*
X0045680Y0158152D01*
X0045197Y0157669D01*
X0045197Y0155734D01*
X0045680Y0155250D01*
X0046648Y0155250D01*
X0047131Y0155734D01*
X0044185Y0156217D02*
X0044185Y0158152D01*
X0044185Y0156217D02*
X0043217Y0155250D01*
X0042250Y0156217D01*
X0042250Y0158152D01*
X0043250Y0148152D02*
X0045185Y0148152D01*
X0044217Y0148152D02*
X0044217Y0145250D01*
X0046197Y0145250D02*
X0048131Y0148152D01*
X0049143Y0147185D02*
X0050111Y0148152D01*
X0050111Y0145250D01*
X0051078Y0145250D02*
X0049143Y0145250D01*
X0048131Y0145250D02*
X0046197Y0148152D01*
X0046197Y0138152D02*
X0048131Y0135250D01*
X0049143Y0135250D02*
X0051078Y0135250D01*
X0050111Y0135250D02*
X0050111Y0138152D01*
X0049143Y0137185D01*
X0048131Y0138152D02*
X0046197Y0135250D01*
X0045185Y0135250D02*
X0044217Y0136217D01*
X0044701Y0136217D02*
X0043250Y0136217D01*
X0043250Y0135250D02*
X0043250Y0138152D01*
X0044701Y0138152D01*
X0045185Y0137669D01*
X0045185Y0136701D01*
X0044701Y0136217D01*
X0044701Y0128152D02*
X0043734Y0128152D01*
X0043250Y0127669D01*
X0043250Y0125734D01*
X0043734Y0125250D01*
X0044701Y0125250D01*
X0045185Y0125734D01*
X0045185Y0126701D01*
X0044217Y0126701D01*
X0045185Y0127669D02*
X0044701Y0128152D01*
X0046197Y0128152D02*
X0048131Y0125250D01*
X0048131Y0128152D01*
X0049143Y0128152D02*
X0050594Y0128152D01*
X0051078Y0127669D01*
X0051078Y0125734D01*
X0050594Y0125250D01*
X0049143Y0125250D01*
X0049143Y0128152D01*
X0046197Y0128152D02*
X0046197Y0125250D01*
X0159548Y0026131D02*
X0159548Y0024197D01*
X0160031Y0023185D02*
X0159548Y0022701D01*
X0159548Y0021734D01*
X0160031Y0021250D01*
X0161966Y0021250D01*
X0162450Y0021734D01*
X0162450Y0022701D01*
X0161966Y0023185D01*
X0161966Y0024197D02*
X0162450Y0024197D01*
X0161966Y0024197D02*
X0160031Y0026131D01*
X0159548Y0026131D01*
X0186464Y0062050D02*
X0186464Y0064952D01*
X0187915Y0064952D01*
X0188399Y0064469D01*
X0188399Y0063501D01*
X0187915Y0063017D01*
X0186464Y0063017D01*
X0189410Y0063501D02*
X0190862Y0063501D01*
X0191345Y0063017D01*
X0191345Y0062534D01*
X0190862Y0062050D01*
X0189410Y0062050D01*
X0189410Y0064952D01*
X0190862Y0064952D01*
X0191345Y0064469D01*
X0191345Y0063985D01*
X0190862Y0063501D01*
X0192357Y0063985D02*
X0193324Y0064952D01*
X0193324Y0062050D01*
X0192357Y0062050D02*
X0194292Y0062050D01*
X0195303Y0062534D02*
X0195787Y0062050D01*
X0196755Y0062050D01*
X0197238Y0062534D01*
X0197238Y0063501D01*
X0196755Y0063985D01*
X0196271Y0063985D01*
X0195303Y0063501D01*
X0195303Y0064952D01*
X0197238Y0064952D01*
D12*
X0196100Y0066600D02*
X0193600Y0064100D01*
X0178600Y0064100D01*
X0176100Y0066600D01*
X0176100Y0071600D01*
X0178600Y0074100D01*
X0193600Y0074100D01*
X0196100Y0071600D01*
X0196100Y0066600D01*
X0193600Y0074100D02*
X0196100Y0076600D01*
X0196100Y0081600D01*
X0193600Y0084100D01*
X0178600Y0084100D01*
X0176100Y0081600D01*
X0176100Y0076600D01*
X0178600Y0074100D01*
X0178600Y0084100D02*
X0176100Y0086600D01*
X0176100Y0091600D01*
X0178600Y0094100D01*
X0193600Y0094100D01*
X0196100Y0091600D01*
X0196100Y0086600D01*
X0193600Y0084100D01*
X0193600Y0094100D02*
X0196100Y0096600D01*
X0196100Y0101600D01*
X0193600Y0104100D01*
X0178600Y0104100D01*
X0176100Y0101600D01*
X0176100Y0096600D01*
X0178600Y0094100D01*
X0178600Y0104100D02*
X0176100Y0106600D01*
X0176100Y0111600D01*
X0178600Y0114100D01*
X0193600Y0114100D01*
X0196100Y0111600D01*
X0196100Y0106600D01*
X0193600Y0104100D01*
X0193600Y0114100D02*
X0196100Y0116600D01*
X0196100Y0121600D01*
X0193600Y0124100D01*
X0178600Y0124100D01*
X0176100Y0121600D01*
X0176100Y0116600D01*
X0178600Y0114100D01*
X0178600Y0124100D02*
X0176100Y0126600D01*
X0176100Y0131600D01*
X0178600Y0134100D01*
X0193600Y0134100D01*
X0196100Y0131600D01*
X0196100Y0126600D01*
X0193600Y0124100D01*
X0193600Y0134100D02*
X0196100Y0136600D01*
X0196100Y0141600D01*
X0193600Y0144100D01*
X0178600Y0144100D01*
X0176100Y0141600D01*
X0176100Y0136600D01*
X0178600Y0134100D01*
X0148600Y0177100D02*
X0143600Y0177100D01*
X0141100Y0179600D01*
X0141100Y0194600D01*
X0143600Y0197100D01*
X0148600Y0197100D01*
X0151100Y0194600D01*
X0151100Y0179600D01*
X0148600Y0177100D01*
X0141100Y0179600D02*
X0138600Y0177100D01*
X0133600Y0177100D01*
X0131100Y0179600D01*
X0131100Y0194600D01*
X0133600Y0197100D01*
X0138600Y0197100D01*
X0141100Y0194600D01*
X0131100Y0194600D02*
X0128600Y0197100D01*
X0123600Y0197100D01*
X0121100Y0194600D01*
X0121100Y0179600D01*
X0123600Y0177100D01*
X0128600Y0177100D01*
X0131100Y0179600D01*
X0121100Y0179600D02*
X0118600Y0177100D01*
X0113600Y0177100D01*
X0111100Y0179600D01*
X0111100Y0194600D01*
X0113600Y0197100D01*
X0118600Y0197100D01*
X0121100Y0194600D01*
X0111100Y0194600D02*
X0108600Y0197100D01*
X0103600Y0197100D01*
X0101100Y0194600D01*
X0101100Y0179600D01*
X0103600Y0177100D01*
X0108600Y0177100D01*
X0111100Y0179600D01*
X0101100Y0179600D02*
X0098600Y0177100D01*
X0093600Y0177100D01*
X0091100Y0179600D01*
X0091100Y0194600D01*
X0093600Y0197100D01*
X0098600Y0197100D01*
X0101100Y0194600D01*
X0091100Y0194600D02*
X0088600Y0197100D01*
X0083600Y0197100D01*
X0081100Y0194600D01*
X0081100Y0179600D01*
X0083600Y0177100D01*
X0088600Y0177100D01*
X0091100Y0179600D01*
X0081100Y0179600D02*
X0078600Y0177100D01*
X0073600Y0177100D01*
X0071100Y0179600D01*
X0071100Y0194600D01*
X0073600Y0197100D01*
X0078600Y0197100D01*
X0081100Y0194600D01*
X0040100Y0158600D02*
X0040100Y0153600D01*
X0037600Y0151100D01*
X0040100Y0148600D01*
X0040100Y0143600D01*
X0037600Y0141100D01*
X0040100Y0138600D01*
X0040100Y0133600D01*
X0037600Y0131100D01*
X0040100Y0128600D01*
X0040100Y0123600D01*
X0037600Y0121100D01*
X0032600Y0121100D01*
X0030100Y0123600D01*
X0030100Y0128600D01*
X0032600Y0131100D01*
X0030100Y0133600D01*
X0030100Y0138600D01*
X0032600Y0141100D01*
X0037600Y0141100D01*
X0032600Y0141100D02*
X0030100Y0143600D01*
X0030100Y0148600D01*
X0032600Y0151100D01*
X0030100Y0153600D01*
X0030100Y0158600D01*
X0032600Y0161100D01*
X0037600Y0161100D01*
X0040100Y0158600D01*
X0037600Y0151100D02*
X0032600Y0151100D01*
X0027100Y0153600D02*
X0027100Y0158600D01*
X0024600Y0161100D01*
X0019600Y0161100D01*
X0017100Y0158600D01*
X0017100Y0153600D01*
X0019600Y0151100D01*
X0024600Y0151100D01*
X0027100Y0153600D01*
X0024600Y0151100D02*
X0027100Y0148600D01*
X0027100Y0143600D01*
X0024600Y0141100D01*
X0027100Y0138600D01*
X0027100Y0133600D01*
X0024600Y0131100D01*
X0027100Y0128600D01*
X0027100Y0123600D01*
X0024600Y0121100D01*
X0019600Y0121100D01*
X0017100Y0123600D01*
X0017100Y0128600D01*
X0019600Y0131100D01*
X0017100Y0133600D01*
X0017100Y0138600D01*
X0019600Y0141100D01*
X0024600Y0141100D01*
X0019600Y0141100D02*
X0017100Y0143600D01*
X0017100Y0148600D01*
X0019600Y0151100D01*
X0014100Y0148600D02*
X0014100Y0143600D01*
X0011600Y0141100D01*
X0014100Y0138600D01*
X0014100Y0133600D01*
X0011600Y0131100D01*
X0014100Y0128600D01*
X0014100Y0123600D01*
X0011600Y0121100D01*
X0006600Y0121100D01*
X0004100Y0123600D01*
X0004100Y0128600D01*
X0006600Y0131100D01*
X0004100Y0133600D01*
X0004100Y0138600D01*
X0006600Y0141100D01*
X0011600Y0141100D01*
X0006600Y0141100D02*
X0004100Y0143600D01*
X0004100Y0148600D01*
X0006600Y0151100D01*
X0004100Y0153600D01*
X0004100Y0158600D01*
X0006600Y0161100D01*
X0011600Y0161100D01*
X0014100Y0158600D01*
X0014100Y0153600D01*
X0011600Y0151100D01*
X0014100Y0148600D01*
X0011600Y0151100D02*
X0006600Y0151100D01*
X0006600Y0131100D02*
X0011600Y0131100D01*
X0019600Y0131100D02*
X0024600Y0131100D01*
X0032600Y0131100D02*
X0037600Y0131100D01*
X0031600Y0172100D02*
X0026600Y0172100D01*
X0024100Y0174600D01*
X0021600Y0172100D01*
X0016600Y0172100D01*
X0014100Y0174600D01*
X0011600Y0172100D01*
X0006600Y0172100D01*
X0004100Y0174600D01*
X0004100Y0179600D01*
X0006600Y0182100D01*
X0011600Y0182100D01*
X0014100Y0179600D01*
X0016600Y0182100D01*
X0021600Y0182100D01*
X0024100Y0179600D01*
X0026600Y0182100D01*
X0031600Y0182100D01*
X0034100Y0179600D01*
X0034100Y0174600D01*
X0031600Y0172100D01*
X0024100Y0174600D02*
X0024100Y0179600D01*
X0021600Y0185100D02*
X0016600Y0185100D01*
X0014100Y0187600D01*
X0011600Y0185100D01*
X0006600Y0185100D01*
X0004100Y0187600D01*
X0004100Y0192600D01*
X0006600Y0195100D01*
X0011600Y0195100D01*
X0014100Y0192600D01*
X0016600Y0195100D01*
X0021600Y0195100D01*
X0024100Y0192600D01*
X0026600Y0195100D01*
X0031600Y0195100D01*
X0034100Y0192600D01*
X0034100Y0187600D01*
X0031600Y0185100D01*
X0026600Y0185100D01*
X0024100Y0187600D01*
X0021600Y0185100D01*
X0024100Y0187600D02*
X0024100Y0192600D01*
X0014100Y0192600D02*
X0014100Y0187600D01*
X0014100Y0179600D02*
X0014100Y0174600D01*
X0095600Y0108100D02*
X0095600Y0084100D01*
X0095602Y0083940D01*
X0095608Y0083781D01*
X0095618Y0083622D01*
X0095631Y0083463D01*
X0095649Y0083304D01*
X0095670Y0083146D01*
X0095696Y0082989D01*
X0095725Y0082832D01*
X0095758Y0082676D01*
X0095795Y0082521D01*
X0095835Y0082366D01*
X0095880Y0082213D01*
X0095928Y0082061D01*
X0095980Y0081910D01*
X0096036Y0081761D01*
X0096095Y0081613D01*
X0096158Y0081466D01*
X0096224Y0081321D01*
X0096294Y0081178D01*
X0096368Y0081036D01*
X0096444Y0080896D01*
X0096525Y0080758D01*
X0096608Y0080623D01*
X0096695Y0080489D01*
X0096786Y0080357D01*
X0096879Y0080228D01*
X0096976Y0080101D01*
X0097075Y0079976D01*
X0097178Y0079854D01*
X0097284Y0079735D01*
X0097392Y0079618D01*
X0097504Y0079504D01*
X0097618Y0079392D01*
X0097735Y0079284D01*
X0097854Y0079178D01*
X0097976Y0079075D01*
X0098101Y0078976D01*
X0098228Y0078879D01*
X0098357Y0078786D01*
X0098489Y0078695D01*
X0098623Y0078608D01*
X0098758Y0078525D01*
X0098896Y0078444D01*
X0099036Y0078368D01*
X0099178Y0078294D01*
X0099321Y0078224D01*
X0099466Y0078158D01*
X0099613Y0078095D01*
X0099761Y0078036D01*
X0099910Y0077980D01*
X0100061Y0077928D01*
X0100213Y0077880D01*
X0100366Y0077835D01*
X0100521Y0077795D01*
X0100676Y0077758D01*
X0100832Y0077725D01*
X0100989Y0077696D01*
X0101146Y0077670D01*
X0101304Y0077649D01*
X0101463Y0077631D01*
X0101622Y0077618D01*
X0101781Y0077608D01*
X0101940Y0077602D01*
X0102100Y0077600D01*
X0102260Y0077602D01*
X0102419Y0077608D01*
X0102578Y0077618D01*
X0102737Y0077631D01*
X0102896Y0077649D01*
X0103054Y0077670D01*
X0103211Y0077696D01*
X0103368Y0077725D01*
X0103524Y0077758D01*
X0103679Y0077795D01*
X0103834Y0077835D01*
X0103987Y0077880D01*
X0104139Y0077928D01*
X0104290Y0077980D01*
X0104439Y0078036D01*
X0104587Y0078095D01*
X0104734Y0078158D01*
X0104879Y0078224D01*
X0105022Y0078294D01*
X0105164Y0078368D01*
X0105304Y0078444D01*
X0105442Y0078525D01*
X0105577Y0078608D01*
X0105711Y0078695D01*
X0105843Y0078786D01*
X0105972Y0078879D01*
X0106099Y0078976D01*
X0106224Y0079075D01*
X0106346Y0079178D01*
X0106465Y0079284D01*
X0106582Y0079392D01*
X0106696Y0079504D01*
X0106808Y0079618D01*
X0106916Y0079735D01*
X0107022Y0079854D01*
X0107125Y0079976D01*
X0107224Y0080101D01*
X0107321Y0080228D01*
X0107414Y0080357D01*
X0107505Y0080489D01*
X0107592Y0080623D01*
X0107675Y0080758D01*
X0107756Y0080896D01*
X0107832Y0081036D01*
X0107906Y0081178D01*
X0107976Y0081321D01*
X0108042Y0081466D01*
X0108105Y0081613D01*
X0108164Y0081761D01*
X0108220Y0081910D01*
X0108272Y0082061D01*
X0108320Y0082213D01*
X0108365Y0082366D01*
X0108405Y0082521D01*
X0108442Y0082676D01*
X0108475Y0082832D01*
X0108504Y0082989D01*
X0108530Y0083146D01*
X0108551Y0083304D01*
X0108569Y0083463D01*
X0108582Y0083622D01*
X0108592Y0083781D01*
X0108598Y0083940D01*
X0108600Y0084100D01*
X0108600Y0108100D01*
X0108598Y0108260D01*
X0108592Y0108419D01*
X0108582Y0108578D01*
X0108569Y0108737D01*
X0108551Y0108896D01*
X0108530Y0109054D01*
X0108504Y0109211D01*
X0108475Y0109368D01*
X0108442Y0109524D01*
X0108405Y0109679D01*
X0108365Y0109834D01*
X0108320Y0109987D01*
X0108272Y0110139D01*
X0108220Y0110290D01*
X0108164Y0110439D01*
X0108105Y0110587D01*
X0108042Y0110734D01*
X0107976Y0110879D01*
X0107906Y0111022D01*
X0107832Y0111164D01*
X0107756Y0111304D01*
X0107675Y0111442D01*
X0107592Y0111577D01*
X0107505Y0111711D01*
X0107414Y0111843D01*
X0107321Y0111972D01*
X0107224Y0112099D01*
X0107125Y0112224D01*
X0107022Y0112346D01*
X0106916Y0112465D01*
X0106808Y0112582D01*
X0106696Y0112696D01*
X0106582Y0112808D01*
X0106465Y0112916D01*
X0106346Y0113022D01*
X0106224Y0113125D01*
X0106099Y0113224D01*
X0105972Y0113321D01*
X0105843Y0113414D01*
X0105711Y0113505D01*
X0105577Y0113592D01*
X0105442Y0113675D01*
X0105304Y0113756D01*
X0105164Y0113832D01*
X0105022Y0113906D01*
X0104879Y0113976D01*
X0104734Y0114042D01*
X0104587Y0114105D01*
X0104439Y0114164D01*
X0104290Y0114220D01*
X0104139Y0114272D01*
X0103987Y0114320D01*
X0103834Y0114365D01*
X0103679Y0114405D01*
X0103524Y0114442D01*
X0103368Y0114475D01*
X0103211Y0114504D01*
X0103054Y0114530D01*
X0102896Y0114551D01*
X0102737Y0114569D01*
X0102578Y0114582D01*
X0102419Y0114592D01*
X0102260Y0114598D01*
X0102100Y0114600D01*
X0101940Y0114598D01*
X0101781Y0114592D01*
X0101622Y0114582D01*
X0101463Y0114569D01*
X0101304Y0114551D01*
X0101146Y0114530D01*
X0100989Y0114504D01*
X0100832Y0114475D01*
X0100676Y0114442D01*
X0100521Y0114405D01*
X0100366Y0114365D01*
X0100213Y0114320D01*
X0100061Y0114272D01*
X0099910Y0114220D01*
X0099761Y0114164D01*
X0099613Y0114105D01*
X0099466Y0114042D01*
X0099321Y0113976D01*
X0099178Y0113906D01*
X0099036Y0113832D01*
X0098896Y0113756D01*
X0098758Y0113675D01*
X0098623Y0113592D01*
X0098489Y0113505D01*
X0098357Y0113414D01*
X0098228Y0113321D01*
X0098101Y0113224D01*
X0097976Y0113125D01*
X0097854Y0113022D01*
X0097735Y0112916D01*
X0097618Y0112808D01*
X0097504Y0112696D01*
X0097392Y0112582D01*
X0097284Y0112465D01*
X0097178Y0112346D01*
X0097075Y0112224D01*
X0096976Y0112099D01*
X0096879Y0111972D01*
X0096786Y0111843D01*
X0096695Y0111711D01*
X0096608Y0111577D01*
X0096525Y0111442D01*
X0096444Y0111304D01*
X0096368Y0111164D01*
X0096294Y0111022D01*
X0096224Y0110879D01*
X0096158Y0110734D01*
X0096095Y0110587D01*
X0096036Y0110439D01*
X0095980Y0110290D01*
X0095928Y0110139D01*
X0095880Y0109987D01*
X0095835Y0109834D01*
X0095795Y0109679D01*
X0095758Y0109524D01*
X0095725Y0109368D01*
X0095696Y0109211D01*
X0095670Y0109054D01*
X0095649Y0108896D01*
X0095631Y0108737D01*
X0095618Y0108578D01*
X0095608Y0108419D01*
X0095602Y0108260D01*
X0095600Y0108100D01*
X0102100Y0101100D02*
X0102100Y0098600D01*
X0099100Y0098600D01*
X0099100Y0097100D02*
X0105100Y0097100D01*
X0105100Y0095100D01*
X0099100Y0095100D01*
X0099100Y0097100D01*
X0102100Y0098600D02*
X0105100Y0098600D01*
X0105100Y0093600D02*
X0102100Y0093600D01*
X0102100Y0091100D01*
X0102100Y0093600D02*
X0099100Y0093600D01*
X0098804Y0063805D02*
X0100939Y0063805D01*
X0102007Y0062738D01*
X0102007Y0061670D01*
X0100939Y0060603D01*
X0102007Y0059535D01*
X0102007Y0058468D01*
X0100939Y0057400D01*
X0098804Y0057400D01*
X0097736Y0058468D01*
X0095561Y0057400D02*
X0095561Y0063805D01*
X0093426Y0061670D01*
X0091291Y0063805D01*
X0091291Y0057400D01*
X0086981Y0057400D02*
X0086981Y0063805D01*
X0089116Y0063805D02*
X0084845Y0063805D01*
X0082670Y0062738D02*
X0081603Y0063805D01*
X0079468Y0063805D01*
X0078400Y0062738D01*
X0078400Y0061670D01*
X0079468Y0060603D01*
X0081603Y0060603D01*
X0082670Y0059535D01*
X0082670Y0058468D01*
X0081603Y0057400D01*
X0079468Y0057400D01*
X0078400Y0058468D01*
X0097736Y0062738D02*
X0098804Y0063805D01*
X0099872Y0060603D02*
X0100939Y0060603D01*
X0104182Y0062738D02*
X0105250Y0063805D01*
X0107385Y0063805D01*
X0108452Y0062738D01*
X0108452Y0061670D01*
X0104182Y0057400D01*
X0108452Y0057400D01*
X0110627Y0057400D02*
X0110627Y0063805D01*
X0114898Y0063805D01*
X0117073Y0061670D02*
X0119208Y0063805D01*
X0119208Y0057400D01*
X0117073Y0057400D02*
X0121343Y0057400D01*
X0123518Y0058468D02*
X0127789Y0062738D01*
X0127789Y0058468D01*
X0126721Y0057400D01*
X0124586Y0057400D01*
X0123518Y0058468D01*
X0123518Y0062738D01*
X0124586Y0063805D01*
X0126721Y0063805D01*
X0127789Y0062738D01*
X0129964Y0062738D02*
X0131032Y0063805D01*
X0133167Y0063805D01*
X0134234Y0062738D01*
X0134234Y0061670D01*
X0133167Y0060603D01*
X0134234Y0059535D01*
X0134234Y0058468D01*
X0133167Y0057400D01*
X0131032Y0057400D01*
X0129964Y0058468D01*
X0132099Y0060603D02*
X0133167Y0060603D01*
X0136409Y0062738D02*
X0136409Y0058468D01*
X0137477Y0057400D01*
X0139612Y0057400D01*
X0140680Y0058468D01*
X0142855Y0058468D02*
X0142855Y0059535D01*
X0143923Y0060603D01*
X0146058Y0060603D01*
X0147125Y0059535D01*
X0147125Y0058468D01*
X0146058Y0057400D01*
X0143923Y0057400D01*
X0142855Y0058468D01*
X0143923Y0060603D02*
X0142855Y0061670D01*
X0142855Y0062738D01*
X0143923Y0063805D01*
X0146058Y0063805D01*
X0147125Y0062738D01*
X0147125Y0061670D01*
X0146058Y0060603D01*
X0149300Y0063805D02*
X0153571Y0063805D01*
X0151436Y0063805D02*
X0151436Y0057400D01*
X0155746Y0058468D02*
X0155746Y0060603D01*
X0158949Y0060603D01*
X0160016Y0059535D01*
X0160016Y0058468D01*
X0158949Y0057400D01*
X0156814Y0057400D01*
X0155746Y0058468D01*
X0155746Y0060603D02*
X0157881Y0062738D01*
X0160016Y0063805D01*
X0140680Y0062738D02*
X0139612Y0063805D01*
X0137477Y0063805D01*
X0136409Y0062738D01*
X0112763Y0060603D02*
X0110627Y0060603D01*
X0077100Y0026600D02*
X0077100Y0011600D01*
X0074600Y0009100D01*
X0069600Y0009100D01*
X0067100Y0011600D01*
X0067100Y0026600D01*
X0064600Y0029100D01*
X0059600Y0029100D01*
X0057100Y0026600D01*
X0054600Y0029100D01*
X0049600Y0029100D01*
X0047100Y0026600D01*
X0047100Y0011600D01*
X0049600Y0009100D01*
X0054600Y0009100D01*
X0057100Y0011600D01*
X0057100Y0026600D01*
X0067100Y0026600D02*
X0069600Y0029100D01*
X0074600Y0029100D01*
X0077100Y0026600D01*
X0067100Y0011600D02*
X0064600Y0009100D01*
X0059600Y0009100D01*
X0057100Y0011600D01*
X0036100Y0014100D02*
X0036100Y0020100D01*
X0035100Y0020100D01*
X0035100Y0021100D01*
X0035100Y0014100D02*
X0035100Y0013100D01*
X0035100Y0014100D02*
X0036100Y0014100D01*
X0031600Y0005100D02*
X0027600Y0005100D01*
X0018100Y0005100D01*
X0014600Y0005100D01*
X0011100Y0013100D02*
X0011100Y0014100D01*
X0010100Y0014100D01*
X0010100Y0020100D01*
X0011100Y0020100D01*
X0011100Y0021100D01*
X0014600Y0029100D02*
X0018100Y0029100D01*
X0028100Y0029100D01*
X0031600Y0029100D01*
X0022100Y0017100D02*
X0022102Y0017163D01*
X0022108Y0017225D01*
X0022118Y0017287D01*
X0022131Y0017349D01*
X0022149Y0017409D01*
X0022170Y0017468D01*
X0022195Y0017526D01*
X0022224Y0017582D01*
X0022256Y0017636D01*
X0022291Y0017688D01*
X0022329Y0017737D01*
X0022371Y0017785D01*
X0022415Y0017829D01*
X0022463Y0017871D01*
X0022512Y0017909D01*
X0022564Y0017944D01*
X0022618Y0017976D01*
X0022674Y0018005D01*
X0022732Y0018030D01*
X0022791Y0018051D01*
X0022851Y0018069D01*
X0022913Y0018082D01*
X0022975Y0018092D01*
X0023037Y0018098D01*
X0023100Y0018100D01*
X0023163Y0018098D01*
X0023225Y0018092D01*
X0023287Y0018082D01*
X0023349Y0018069D01*
X0023409Y0018051D01*
X0023468Y0018030D01*
X0023526Y0018005D01*
X0023582Y0017976D01*
X0023636Y0017944D01*
X0023688Y0017909D01*
X0023737Y0017871D01*
X0023785Y0017829D01*
X0023829Y0017785D01*
X0023871Y0017737D01*
X0023909Y0017688D01*
X0023944Y0017636D01*
X0023976Y0017582D01*
X0024005Y0017526D01*
X0024030Y0017468D01*
X0024051Y0017409D01*
X0024069Y0017349D01*
X0024082Y0017287D01*
X0024092Y0017225D01*
X0024098Y0017163D01*
X0024100Y0017100D01*
X0024098Y0017037D01*
X0024092Y0016975D01*
X0024082Y0016913D01*
X0024069Y0016851D01*
X0024051Y0016791D01*
X0024030Y0016732D01*
X0024005Y0016674D01*
X0023976Y0016618D01*
X0023944Y0016564D01*
X0023909Y0016512D01*
X0023871Y0016463D01*
X0023829Y0016415D01*
X0023785Y0016371D01*
X0023737Y0016329D01*
X0023688Y0016291D01*
X0023636Y0016256D01*
X0023582Y0016224D01*
X0023526Y0016195D01*
X0023468Y0016170D01*
X0023409Y0016149D01*
X0023349Y0016131D01*
X0023287Y0016118D01*
X0023225Y0016108D01*
X0023163Y0016102D01*
X0023100Y0016100D01*
X0023037Y0016102D01*
X0022975Y0016108D01*
X0022913Y0016118D01*
X0022851Y0016131D01*
X0022791Y0016149D01*
X0022732Y0016170D01*
X0022674Y0016195D01*
X0022618Y0016224D01*
X0022564Y0016256D01*
X0022512Y0016291D01*
X0022463Y0016329D01*
X0022415Y0016371D01*
X0022371Y0016415D01*
X0022329Y0016463D01*
X0022291Y0016512D01*
X0022256Y0016564D01*
X0022224Y0016618D01*
X0022195Y0016674D01*
X0022170Y0016732D01*
X0022149Y0016791D01*
X0022131Y0016851D01*
X0022118Y0016913D01*
X0022108Y0016975D01*
X0022102Y0017037D01*
X0022100Y0017100D01*
X0016100Y0017100D02*
X0016102Y0017272D01*
X0016108Y0017443D01*
X0016119Y0017615D01*
X0016134Y0017786D01*
X0016153Y0017957D01*
X0016176Y0018127D01*
X0016203Y0018297D01*
X0016235Y0018466D01*
X0016270Y0018634D01*
X0016310Y0018801D01*
X0016354Y0018967D01*
X0016401Y0019132D01*
X0016453Y0019296D01*
X0016509Y0019458D01*
X0016569Y0019619D01*
X0016633Y0019779D01*
X0016701Y0019937D01*
X0016772Y0020093D01*
X0016847Y0020247D01*
X0016927Y0020400D01*
X0017009Y0020550D01*
X0017096Y0020699D01*
X0017186Y0020845D01*
X0017280Y0020989D01*
X0017377Y0021131D01*
X0017478Y0021270D01*
X0017582Y0021407D01*
X0017689Y0021541D01*
X0017800Y0021672D01*
X0017913Y0021801D01*
X0018030Y0021927D01*
X0018150Y0022050D01*
X0018273Y0022170D01*
X0018399Y0022287D01*
X0018528Y0022400D01*
X0018659Y0022511D01*
X0018793Y0022618D01*
X0018930Y0022722D01*
X0019069Y0022823D01*
X0019211Y0022920D01*
X0019355Y0023014D01*
X0019501Y0023104D01*
X0019650Y0023191D01*
X0019800Y0023273D01*
X0019953Y0023353D01*
X0020107Y0023428D01*
X0020263Y0023499D01*
X0020421Y0023567D01*
X0020581Y0023631D01*
X0020742Y0023691D01*
X0020904Y0023747D01*
X0021068Y0023799D01*
X0021233Y0023846D01*
X0021399Y0023890D01*
X0021566Y0023930D01*
X0021734Y0023965D01*
X0021903Y0023997D01*
X0022073Y0024024D01*
X0022243Y0024047D01*
X0022414Y0024066D01*
X0022585Y0024081D01*
X0022757Y0024092D01*
X0022928Y0024098D01*
X0023100Y0024100D01*
X0023272Y0024098D01*
X0023443Y0024092D01*
X0023615Y0024081D01*
X0023786Y0024066D01*
X0023957Y0024047D01*
X0024127Y0024024D01*
X0024297Y0023997D01*
X0024466Y0023965D01*
X0024634Y0023930D01*
X0024801Y0023890D01*
X0024967Y0023846D01*
X0025132Y0023799D01*
X0025296Y0023747D01*
X0025458Y0023691D01*
X0025619Y0023631D01*
X0025779Y0023567D01*
X0025937Y0023499D01*
X0026093Y0023428D01*
X0026247Y0023353D01*
X0026400Y0023273D01*
X0026550Y0023191D01*
X0026699Y0023104D01*
X0026845Y0023014D01*
X0026989Y0022920D01*
X0027131Y0022823D01*
X0027270Y0022722D01*
X0027407Y0022618D01*
X0027541Y0022511D01*
X0027672Y0022400D01*
X0027801Y0022287D01*
X0027927Y0022170D01*
X0028050Y0022050D01*
X0028170Y0021927D01*
X0028287Y0021801D01*
X0028400Y0021672D01*
X0028511Y0021541D01*
X0028618Y0021407D01*
X0028722Y0021270D01*
X0028823Y0021131D01*
X0028920Y0020989D01*
X0029014Y0020845D01*
X0029104Y0020699D01*
X0029191Y0020550D01*
X0029273Y0020400D01*
X0029353Y0020247D01*
X0029428Y0020093D01*
X0029499Y0019937D01*
X0029567Y0019779D01*
X0029631Y0019619D01*
X0029691Y0019458D01*
X0029747Y0019296D01*
X0029799Y0019132D01*
X0029846Y0018967D01*
X0029890Y0018801D01*
X0029930Y0018634D01*
X0029965Y0018466D01*
X0029997Y0018297D01*
X0030024Y0018127D01*
X0030047Y0017957D01*
X0030066Y0017786D01*
X0030081Y0017615D01*
X0030092Y0017443D01*
X0030098Y0017272D01*
X0030100Y0017100D01*
X0030098Y0016928D01*
X0030092Y0016757D01*
X0030081Y0016585D01*
X0030066Y0016414D01*
X0030047Y0016243D01*
X0030024Y0016073D01*
X0029997Y0015903D01*
X0029965Y0015734D01*
X0029930Y0015566D01*
X0029890Y0015399D01*
X0029846Y0015233D01*
X0029799Y0015068D01*
X0029747Y0014904D01*
X0029691Y0014742D01*
X0029631Y0014581D01*
X0029567Y0014421D01*
X0029499Y0014263D01*
X0029428Y0014107D01*
X0029353Y0013953D01*
X0029273Y0013800D01*
X0029191Y0013650D01*
X0029104Y0013501D01*
X0029014Y0013355D01*
X0028920Y0013211D01*
X0028823Y0013069D01*
X0028722Y0012930D01*
X0028618Y0012793D01*
X0028511Y0012659D01*
X0028400Y0012528D01*
X0028287Y0012399D01*
X0028170Y0012273D01*
X0028050Y0012150D01*
X0027927Y0012030D01*
X0027801Y0011913D01*
X0027672Y0011800D01*
X0027541Y0011689D01*
X0027407Y0011582D01*
X0027270Y0011478D01*
X0027131Y0011377D01*
X0026989Y0011280D01*
X0026845Y0011186D01*
X0026699Y0011096D01*
X0026550Y0011009D01*
X0026400Y0010927D01*
X0026247Y0010847D01*
X0026093Y0010772D01*
X0025937Y0010701D01*
X0025779Y0010633D01*
X0025619Y0010569D01*
X0025458Y0010509D01*
X0025296Y0010453D01*
X0025132Y0010401D01*
X0024967Y0010354D01*
X0024801Y0010310D01*
X0024634Y0010270D01*
X0024466Y0010235D01*
X0024297Y0010203D01*
X0024127Y0010176D01*
X0023957Y0010153D01*
X0023786Y0010134D01*
X0023615Y0010119D01*
X0023443Y0010108D01*
X0023272Y0010102D01*
X0023100Y0010100D01*
X0022928Y0010102D01*
X0022757Y0010108D01*
X0022585Y0010119D01*
X0022414Y0010134D01*
X0022243Y0010153D01*
X0022073Y0010176D01*
X0021903Y0010203D01*
X0021734Y0010235D01*
X0021566Y0010270D01*
X0021399Y0010310D01*
X0021233Y0010354D01*
X0021068Y0010401D01*
X0020904Y0010453D01*
X0020742Y0010509D01*
X0020581Y0010569D01*
X0020421Y0010633D01*
X0020263Y0010701D01*
X0020107Y0010772D01*
X0019953Y0010847D01*
X0019800Y0010927D01*
X0019650Y0011009D01*
X0019501Y0011096D01*
X0019355Y0011186D01*
X0019211Y0011280D01*
X0019069Y0011377D01*
X0018930Y0011478D01*
X0018793Y0011582D01*
X0018659Y0011689D01*
X0018528Y0011800D01*
X0018399Y0011913D01*
X0018273Y0012030D01*
X0018150Y0012150D01*
X0018030Y0012273D01*
X0017913Y0012399D01*
X0017800Y0012528D01*
X0017689Y0012659D01*
X0017582Y0012793D01*
X0017478Y0012930D01*
X0017377Y0013069D01*
X0017280Y0013211D01*
X0017186Y0013355D01*
X0017096Y0013501D01*
X0017009Y0013650D01*
X0016927Y0013800D01*
X0016847Y0013953D01*
X0016772Y0014107D01*
X0016701Y0014263D01*
X0016633Y0014421D01*
X0016569Y0014581D01*
X0016509Y0014742D01*
X0016453Y0014904D01*
X0016401Y0015068D01*
X0016354Y0015233D01*
X0016310Y0015399D01*
X0016270Y0015566D01*
X0016235Y0015734D01*
X0016203Y0015903D01*
X0016176Y0016073D01*
X0016153Y0016243D01*
X0016134Y0016414D01*
X0016119Y0016585D01*
X0016108Y0016757D01*
X0016102Y0016928D01*
X0016100Y0017100D01*
X0165100Y0011600D02*
X0165100Y0006600D01*
X0167600Y0004100D01*
X0172600Y0004100D01*
X0175100Y0006600D01*
X0177600Y0004100D01*
X0182600Y0004100D01*
X0185100Y0006600D01*
X0187600Y0004100D01*
X0192600Y0004100D01*
X0195100Y0006600D01*
X0195100Y0011600D01*
X0192600Y0014100D01*
X0187600Y0014100D01*
X0185100Y0011600D01*
X0185100Y0006600D01*
X0185100Y0011600D02*
X0182600Y0014100D01*
X0177600Y0014100D01*
X0175100Y0011600D01*
X0175100Y0006600D01*
X0175100Y0011600D02*
X0172600Y0014100D01*
X0167600Y0014100D01*
X0165100Y0011600D01*
D13*
X0165801Y0016550D02*
X0165050Y0017301D01*
X0165050Y0020303D01*
X0165801Y0021054D01*
X0167302Y0021054D01*
X0168053Y0020303D01*
X0169654Y0019553D02*
X0171155Y0021054D01*
X0172656Y0019553D01*
X0172656Y0016550D01*
X0174258Y0016550D02*
X0174258Y0021054D01*
X0177260Y0016550D01*
X0177260Y0021054D01*
X0178862Y0020303D02*
X0178862Y0017301D01*
X0179612Y0016550D01*
X0181114Y0016550D01*
X0181864Y0017301D01*
X0181864Y0020303D01*
X0181114Y0021054D01*
X0179612Y0021054D01*
X0178862Y0020303D01*
X0183466Y0021054D02*
X0183466Y0017301D01*
X0184216Y0016550D01*
X0185718Y0016550D01*
X0186468Y0017301D01*
X0186468Y0021054D01*
X0188070Y0021054D02*
X0191072Y0021054D01*
X0189571Y0021054D02*
X0189571Y0016550D01*
X0172900Y0018400D02*
X0163300Y0018400D01*
X0163300Y0037800D01*
X0172900Y0037800D01*
X0172900Y0018400D01*
X0172656Y0018802D02*
X0169654Y0018802D01*
X0169654Y0019553D02*
X0169654Y0016550D01*
X0168053Y0017301D02*
X0167302Y0016550D01*
X0165801Y0016550D01*
X0076749Y0047850D02*
X0076749Y0052354D01*
X0073746Y0052354D02*
X0073746Y0047850D01*
X0072178Y0047850D02*
X0070677Y0047850D01*
X0071427Y0047850D02*
X0071427Y0052354D01*
X0070677Y0052354D02*
X0072178Y0052354D01*
X0073746Y0052354D02*
X0076749Y0047850D01*
X0069075Y0050102D02*
X0068325Y0049351D01*
X0066073Y0049351D01*
X0066073Y0047850D02*
X0066073Y0052354D01*
X0068325Y0052354D01*
X0069075Y0051603D01*
X0069075Y0050102D01*
X0064471Y0047099D02*
X0061469Y0047099D01*
X0059868Y0048601D02*
X0059868Y0051603D01*
X0059117Y0052354D01*
X0056865Y0052354D01*
X0056865Y0047850D01*
X0059117Y0047850D01*
X0059868Y0048601D01*
X0055264Y0047850D02*
X0055264Y0052354D01*
X0052261Y0052354D02*
X0052261Y0047850D01*
X0053762Y0049351D01*
X0055264Y0047850D01*
X0050660Y0048601D02*
X0049909Y0047850D01*
X0048408Y0047850D01*
X0047657Y0048601D01*
X0048408Y0050102D02*
X0049909Y0050102D01*
X0050660Y0049351D01*
X0050660Y0048601D01*
X0048408Y0050102D02*
X0047657Y0050853D01*
X0047657Y0051603D01*
X0048408Y0052354D01*
X0049909Y0052354D01*
X0050660Y0051603D01*
X0018956Y0031850D02*
X0015954Y0031850D01*
X0017455Y0031850D02*
X0017455Y0036354D01*
X0015954Y0034853D01*
X0014353Y0035603D02*
X0013602Y0036354D01*
X0012101Y0036354D01*
X0011350Y0035603D01*
X0011350Y0034853D01*
X0012101Y0034102D01*
X0013602Y0034102D01*
X0014353Y0033351D01*
X0014353Y0032601D01*
X0013602Y0031850D01*
X0012101Y0031850D01*
X0011350Y0032601D01*
X0010899Y0091050D02*
X0011650Y0091801D01*
X0011650Y0093302D01*
X0010899Y0094053D01*
X0010149Y0094053D01*
X0009398Y0093302D01*
X0009398Y0091801D01*
X0008647Y0091050D01*
X0007897Y0091050D01*
X0007146Y0091801D01*
X0007146Y0093302D01*
X0007897Y0094053D01*
X0007146Y0095654D02*
X0011650Y0095654D01*
X0011650Y0098656D01*
X0011650Y0100258D02*
X0007146Y0100258D01*
X0007146Y0102510D01*
X0007897Y0103260D01*
X0009398Y0103260D01*
X0010149Y0102510D01*
X0010149Y0100258D01*
X0010149Y0101759D02*
X0011650Y0103260D01*
X0011650Y0104862D02*
X0011650Y0106363D01*
X0011650Y0105612D02*
X0007146Y0105612D01*
X0007146Y0104862D02*
X0007146Y0106363D01*
X0008647Y0107931D02*
X0007146Y0109432D01*
X0008647Y0110934D01*
X0011650Y0110934D01*
X0011650Y0112535D02*
X0011650Y0115538D01*
X0010899Y0117139D02*
X0011650Y0117890D01*
X0011650Y0119391D01*
X0010899Y0120141D01*
X0010149Y0120141D01*
X0009398Y0119391D01*
X0009398Y0118640D01*
X0009398Y0119391D02*
X0008647Y0120141D01*
X0007897Y0120141D01*
X0007146Y0119391D01*
X0007146Y0117890D01*
X0007897Y0117139D01*
X0007146Y0112535D02*
X0011650Y0112535D01*
X0009398Y0110934D02*
X0009398Y0107931D01*
X0008647Y0107931D02*
X0011650Y0107931D01*
X0019146Y0109432D02*
X0020647Y0110934D01*
X0023650Y0110934D01*
X0023650Y0112535D02*
X0023650Y0115538D01*
X0023650Y0117139D02*
X0020647Y0120141D01*
X0019897Y0120141D01*
X0019146Y0119391D01*
X0019146Y0117890D01*
X0019897Y0117139D01*
X0023650Y0117139D02*
X0023650Y0120141D01*
X0023650Y0112535D02*
X0019146Y0112535D01*
X0021398Y0110934D02*
X0021398Y0107931D01*
X0020647Y0107931D02*
X0019146Y0109432D01*
X0020647Y0107931D02*
X0023650Y0107931D01*
X0023650Y0106363D02*
X0023650Y0104862D01*
X0023650Y0105612D02*
X0019146Y0105612D01*
X0019146Y0104862D02*
X0019146Y0106363D01*
X0019897Y0103260D02*
X0021398Y0103260D01*
X0022149Y0102510D01*
X0022149Y0100258D01*
X0023650Y0100258D02*
X0019146Y0100258D01*
X0019146Y0102510D01*
X0019897Y0103260D01*
X0022149Y0101759D02*
X0023650Y0103260D01*
X0023650Y0098656D02*
X0023650Y0095654D01*
X0019146Y0095654D01*
X0019146Y0098656D01*
X0021398Y0097155D02*
X0021398Y0095654D01*
X0022149Y0094053D02*
X0022899Y0094053D01*
X0023650Y0093302D01*
X0023650Y0091801D01*
X0022899Y0091050D01*
X0021398Y0091801D02*
X0021398Y0093302D01*
X0022149Y0094053D01*
X0019897Y0094053D02*
X0019146Y0093302D01*
X0019146Y0091801D01*
X0019897Y0091050D01*
X0020647Y0091050D01*
X0021398Y0091801D01*
X0033146Y0092801D02*
X0033897Y0092050D01*
X0034647Y0092050D01*
X0035398Y0092801D01*
X0035398Y0094302D01*
X0036149Y0095053D01*
X0036899Y0095053D01*
X0037650Y0094302D01*
X0037650Y0092801D01*
X0036899Y0092050D01*
X0033146Y0092801D02*
X0033146Y0094302D01*
X0033897Y0095053D01*
X0033146Y0096654D02*
X0037650Y0096654D01*
X0037650Y0099656D01*
X0037650Y0101258D02*
X0033146Y0101258D01*
X0033146Y0103510D01*
X0033897Y0104260D01*
X0035398Y0104260D01*
X0036149Y0103510D01*
X0036149Y0101258D01*
X0036149Y0102759D02*
X0037650Y0104260D01*
X0037650Y0105862D02*
X0037650Y0107363D01*
X0037650Y0106612D02*
X0033146Y0106612D01*
X0033146Y0105862D02*
X0033146Y0107363D01*
X0034647Y0108931D02*
X0033146Y0110432D01*
X0034647Y0111934D01*
X0037650Y0111934D01*
X0037650Y0113535D02*
X0037650Y0116538D01*
X0037650Y0118139D02*
X0037650Y0121141D01*
X0037650Y0119640D02*
X0033146Y0119640D01*
X0034647Y0118139D01*
X0033146Y0113535D02*
X0037650Y0113535D01*
X0035398Y0111934D02*
X0035398Y0108931D01*
X0034647Y0108931D02*
X0037650Y0108931D01*
X0033146Y0099656D02*
X0033146Y0096654D01*
X0035398Y0096654D02*
X0035398Y0098155D01*
X0009398Y0097155D02*
X0009398Y0095654D01*
X0007146Y0095654D02*
X0007146Y0098656D01*
X0036050Y0175550D02*
X0038302Y0175550D01*
X0039053Y0176301D01*
X0039053Y0177051D01*
X0038302Y0177802D01*
X0036050Y0177802D01*
X0036050Y0175550D02*
X0036050Y0180054D01*
X0038302Y0180054D01*
X0039053Y0179303D01*
X0039053Y0178553D01*
X0038302Y0177802D01*
X0040654Y0179303D02*
X0040654Y0176301D01*
X0041405Y0175550D01*
X0042906Y0175550D01*
X0043656Y0176301D01*
X0043656Y0179303D01*
X0042906Y0180054D01*
X0041405Y0180054D01*
X0040654Y0179303D01*
X0045258Y0179303D02*
X0045258Y0176301D01*
X0046008Y0175550D01*
X0047510Y0175550D01*
X0048260Y0176301D01*
X0048260Y0179303D01*
X0047510Y0180054D01*
X0046008Y0180054D01*
X0045258Y0179303D01*
X0049862Y0180054D02*
X0052864Y0180054D01*
X0051363Y0180054D02*
X0051363Y0175550D01*
X0054466Y0176301D02*
X0054466Y0179303D01*
X0055216Y0180054D01*
X0056718Y0180054D01*
X0057468Y0179303D01*
X0054466Y0176301D01*
X0055216Y0175550D01*
X0056718Y0175550D01*
X0057468Y0176301D01*
X0057468Y0179303D01*
X0057468Y0189550D02*
X0054466Y0189550D01*
X0055967Y0189550D02*
X0055967Y0194054D01*
X0054466Y0192553D01*
X0052864Y0194054D02*
X0049862Y0194054D01*
X0051363Y0194054D02*
X0051363Y0189550D01*
X0048260Y0190301D02*
X0048260Y0193303D01*
X0047510Y0194054D01*
X0046008Y0194054D01*
X0045258Y0193303D01*
X0045258Y0190301D01*
X0046008Y0189550D01*
X0047510Y0189550D01*
X0048260Y0190301D01*
X0043656Y0190301D02*
X0043656Y0193303D01*
X0042906Y0194054D01*
X0041405Y0194054D01*
X0040654Y0193303D01*
X0040654Y0190301D01*
X0041405Y0189550D01*
X0042906Y0189550D01*
X0043656Y0190301D01*
X0039053Y0190301D02*
X0038302Y0189550D01*
X0036050Y0189550D01*
X0036050Y0194054D01*
X0038302Y0194054D01*
X0039053Y0193303D01*
X0039053Y0192553D01*
X0038302Y0191802D01*
X0036050Y0191802D01*
X0038302Y0191802D02*
X0039053Y0191051D01*
X0039053Y0190301D01*
X0117350Y0114749D02*
X0117350Y0111746D01*
X0117350Y0113247D02*
X0112846Y0113247D01*
X0114347Y0111746D01*
X0113597Y0110145D02*
X0116599Y0110145D01*
X0117350Y0109394D01*
X0117350Y0107893D01*
X0116599Y0107142D01*
X0113597Y0107142D01*
X0112846Y0107893D01*
X0112846Y0109394D01*
X0113597Y0110145D01*
X0115849Y0108643D02*
X0117350Y0110145D01*
X0165486Y0158502D02*
X0165486Y0162832D01*
X0175328Y0155746D02*
X0185958Y0155746D01*
X0201706Y0155746D02*
X0201706Y0186454D01*
X0183596Y0186454D02*
X0175328Y0186454D01*
X0165486Y0183698D02*
X0165486Y0179368D01*
D14*
X0159577Y0172514D02*
X0159577Y0169445D01*
X0159577Y0170979D02*
X0154973Y0170979D01*
X0156508Y0169445D01*
X0154973Y0167910D02*
X0159577Y0167910D01*
X0154973Y0164841D01*
X0159577Y0164841D01*
X0158810Y0163306D02*
X0159577Y0162539D01*
X0159577Y0161004D01*
X0158810Y0160237D01*
X0155741Y0160237D01*
X0154973Y0161004D01*
X0154973Y0162539D01*
X0155741Y0163306D01*
X0131900Y0154765D02*
X0131900Y0151696D01*
X0128831Y0154765D01*
X0128063Y0154765D01*
X0127296Y0153998D01*
X0127296Y0152463D01*
X0128063Y0151696D01*
X0128063Y0150161D02*
X0127296Y0149394D01*
X0127296Y0147859D01*
X0128063Y0147092D01*
X0131133Y0147092D01*
X0131900Y0147859D01*
X0131900Y0149394D01*
X0131133Y0150161D01*
X0104473Y0134637D02*
X0104473Y0133869D01*
X0103706Y0133102D01*
X0104473Y0132335D01*
X0104473Y0131567D01*
X0103706Y0130800D01*
X0102171Y0130800D01*
X0101404Y0131567D01*
X0099869Y0131567D02*
X0099102Y0130800D01*
X0097567Y0130800D01*
X0096800Y0131567D01*
X0096800Y0134637D01*
X0097567Y0135404D01*
X0099102Y0135404D01*
X0099869Y0134637D01*
X0101404Y0134637D02*
X0102171Y0135404D01*
X0103706Y0135404D01*
X0104473Y0134637D01*
X0103706Y0133102D02*
X0102939Y0133102D01*
X0081265Y0116068D02*
X0081192Y0116145D01*
X0081117Y0116220D01*
X0081039Y0116291D01*
X0080958Y0116360D01*
X0080875Y0116426D01*
X0080790Y0116489D01*
X0080702Y0116548D01*
X0080613Y0116605D01*
X0080521Y0116658D01*
X0080427Y0116708D01*
X0080332Y0116754D01*
X0080235Y0116797D01*
X0080137Y0116836D01*
X0080037Y0116872D01*
X0079936Y0116904D01*
X0079834Y0116932D01*
X0079731Y0116957D01*
X0079627Y0116978D01*
X0079522Y0116995D01*
X0079417Y0117009D01*
X0079312Y0117018D01*
X0079206Y0117024D01*
X0079100Y0117026D01*
X0078994Y0117024D01*
X0078888Y0117018D01*
X0078783Y0117009D01*
X0078678Y0116995D01*
X0078573Y0116978D01*
X0078469Y0116957D01*
X0078366Y0116932D01*
X0078264Y0116904D01*
X0078163Y0116872D01*
X0078063Y0116836D01*
X0077965Y0116797D01*
X0077868Y0116754D01*
X0077773Y0116708D01*
X0077679Y0116658D01*
X0077587Y0116605D01*
X0077498Y0116548D01*
X0077410Y0116489D01*
X0077325Y0116426D01*
X0077242Y0116360D01*
X0077161Y0116291D01*
X0077083Y0116220D01*
X0077008Y0116145D01*
X0076935Y0116068D01*
X0076935Y0112132D02*
X0077008Y0112055D01*
X0077083Y0111980D01*
X0077161Y0111909D01*
X0077242Y0111840D01*
X0077325Y0111774D01*
X0077410Y0111711D01*
X0077498Y0111652D01*
X0077587Y0111595D01*
X0077679Y0111542D01*
X0077773Y0111492D01*
X0077868Y0111446D01*
X0077965Y0111403D01*
X0078063Y0111364D01*
X0078163Y0111328D01*
X0078264Y0111296D01*
X0078366Y0111268D01*
X0078469Y0111243D01*
X0078573Y0111222D01*
X0078678Y0111205D01*
X0078783Y0111191D01*
X0078888Y0111182D01*
X0078994Y0111176D01*
X0079100Y0111174D01*
X0079206Y0111176D01*
X0079312Y0111182D01*
X0079417Y0111191D01*
X0079522Y0111205D01*
X0079627Y0111222D01*
X0079731Y0111243D01*
X0079834Y0111268D01*
X0079936Y0111296D01*
X0080037Y0111328D01*
X0080137Y0111364D01*
X0080235Y0111403D01*
X0080332Y0111446D01*
X0080427Y0111492D01*
X0080521Y0111542D01*
X0080613Y0111595D01*
X0080702Y0111652D01*
X0080790Y0111711D01*
X0080875Y0111774D01*
X0080958Y0111840D01*
X0081039Y0111909D01*
X0081117Y0111980D01*
X0081192Y0112055D01*
X0081265Y0112132D01*
X0081231Y0108904D02*
X0081231Y0104300D01*
X0082765Y0104300D02*
X0079696Y0104300D01*
X0078161Y0105067D02*
X0078161Y0108137D01*
X0077394Y0108904D01*
X0075092Y0108904D01*
X0075092Y0104300D01*
X0077394Y0104300D01*
X0078161Y0105067D01*
X0079696Y0107369D02*
X0081231Y0108904D01*
X0073557Y0108904D02*
X0070488Y0108904D01*
X0070488Y0104300D01*
X0073557Y0104300D01*
X0072023Y0106602D02*
X0070488Y0106602D01*
X0068954Y0104300D02*
X0065884Y0104300D01*
X0065884Y0108904D01*
X0061765Y0108137D02*
X0061765Y0105067D01*
X0060998Y0104300D01*
X0059463Y0104300D01*
X0058696Y0105067D01*
X0061765Y0108137D01*
X0060998Y0108904D01*
X0059463Y0108904D01*
X0058696Y0108137D01*
X0058696Y0105067D01*
X0057161Y0105067D02*
X0057161Y0108137D01*
X0056394Y0108904D01*
X0054092Y0108904D01*
X0054092Y0104300D01*
X0056394Y0104300D01*
X0057161Y0105067D01*
X0055935Y0103068D02*
X0056008Y0103145D01*
X0056083Y0103220D01*
X0056161Y0103291D01*
X0056242Y0103360D01*
X0056325Y0103426D01*
X0056410Y0103489D01*
X0056498Y0103548D01*
X0056587Y0103605D01*
X0056679Y0103658D01*
X0056773Y0103708D01*
X0056868Y0103754D01*
X0056965Y0103797D01*
X0057063Y0103836D01*
X0057163Y0103872D01*
X0057264Y0103904D01*
X0057366Y0103932D01*
X0057469Y0103957D01*
X0057573Y0103978D01*
X0057678Y0103995D01*
X0057783Y0104009D01*
X0057888Y0104018D01*
X0057994Y0104024D01*
X0058100Y0104026D01*
X0058206Y0104024D01*
X0058312Y0104018D01*
X0058417Y0104009D01*
X0058522Y0103995D01*
X0058627Y0103978D01*
X0058731Y0103957D01*
X0058834Y0103932D01*
X0058936Y0103904D01*
X0059037Y0103872D01*
X0059137Y0103836D01*
X0059235Y0103797D01*
X0059332Y0103754D01*
X0059427Y0103708D01*
X0059521Y0103658D01*
X0059613Y0103605D01*
X0059702Y0103548D01*
X0059790Y0103489D01*
X0059875Y0103426D01*
X0059958Y0103360D01*
X0060039Y0103291D01*
X0060117Y0103220D01*
X0060192Y0103145D01*
X0060265Y0103068D01*
X0060265Y0099132D02*
X0060192Y0099055D01*
X0060117Y0098980D01*
X0060039Y0098909D01*
X0059958Y0098840D01*
X0059875Y0098774D01*
X0059790Y0098711D01*
X0059702Y0098652D01*
X0059613Y0098595D01*
X0059521Y0098542D01*
X0059427Y0098492D01*
X0059332Y0098446D01*
X0059235Y0098403D01*
X0059137Y0098364D01*
X0059037Y0098328D01*
X0058936Y0098296D01*
X0058834Y0098268D01*
X0058731Y0098243D01*
X0058627Y0098222D01*
X0058522Y0098205D01*
X0058417Y0098191D01*
X0058312Y0098182D01*
X0058206Y0098176D01*
X0058100Y0098174D01*
X0057994Y0098176D01*
X0057888Y0098182D01*
X0057783Y0098191D01*
X0057678Y0098205D01*
X0057573Y0098222D01*
X0057469Y0098243D01*
X0057366Y0098268D01*
X0057264Y0098296D01*
X0057163Y0098328D01*
X0057063Y0098364D01*
X0056965Y0098403D01*
X0056868Y0098446D01*
X0056773Y0098492D01*
X0056679Y0098542D01*
X0056587Y0098595D01*
X0056498Y0098652D01*
X0056410Y0098711D01*
X0056325Y0098774D01*
X0056242Y0098840D01*
X0056161Y0098909D01*
X0056083Y0098980D01*
X0056008Y0099055D01*
X0055935Y0099132D01*
X0056394Y0095904D02*
X0054092Y0095904D01*
X0054092Y0091300D01*
X0056394Y0091300D01*
X0057161Y0092067D01*
X0057161Y0095137D01*
X0056394Y0095904D01*
X0058696Y0095137D02*
X0059463Y0095904D01*
X0060998Y0095904D01*
X0061765Y0095137D01*
X0061765Y0094369D01*
X0058696Y0091300D01*
X0061765Y0091300D01*
X0065884Y0091300D02*
X0068954Y0091300D01*
X0070488Y0091300D02*
X0073557Y0091300D01*
X0075092Y0091300D02*
X0077394Y0091300D01*
X0078161Y0092067D01*
X0078161Y0095137D01*
X0077394Y0095904D01*
X0075092Y0095904D01*
X0075092Y0091300D01*
X0072023Y0093602D02*
X0070488Y0093602D01*
X0070488Y0095904D02*
X0070488Y0091300D01*
X0065884Y0091300D02*
X0065884Y0095904D01*
X0070488Y0095904D02*
X0073557Y0095904D01*
X0079696Y0095137D02*
X0080463Y0095904D01*
X0081998Y0095904D01*
X0082765Y0095137D01*
X0082765Y0094369D01*
X0081998Y0093602D01*
X0082765Y0092835D01*
X0082765Y0092067D01*
X0081998Y0091300D01*
X0080463Y0091300D01*
X0079696Y0092067D01*
X0081231Y0093602D02*
X0081998Y0093602D01*
X0082265Y0085132D02*
X0082192Y0085055D01*
X0082117Y0084980D01*
X0082039Y0084909D01*
X0081958Y0084840D01*
X0081875Y0084774D01*
X0081790Y0084711D01*
X0081702Y0084652D01*
X0081613Y0084595D01*
X0081521Y0084542D01*
X0081427Y0084492D01*
X0081332Y0084446D01*
X0081235Y0084403D01*
X0081137Y0084364D01*
X0081037Y0084328D01*
X0080936Y0084296D01*
X0080834Y0084268D01*
X0080731Y0084243D01*
X0080627Y0084222D01*
X0080522Y0084205D01*
X0080417Y0084191D01*
X0080312Y0084182D01*
X0080206Y0084176D01*
X0080100Y0084174D01*
X0079994Y0084176D01*
X0079888Y0084182D01*
X0079783Y0084191D01*
X0079678Y0084205D01*
X0079573Y0084222D01*
X0079469Y0084243D01*
X0079366Y0084268D01*
X0079264Y0084296D01*
X0079163Y0084328D01*
X0079063Y0084364D01*
X0078965Y0084403D01*
X0078868Y0084446D01*
X0078773Y0084492D01*
X0078679Y0084542D01*
X0078587Y0084595D01*
X0078498Y0084652D01*
X0078410Y0084711D01*
X0078325Y0084774D01*
X0078242Y0084840D01*
X0078161Y0084909D01*
X0078083Y0084980D01*
X0078008Y0085055D01*
X0077935Y0085132D01*
X0077935Y0089068D02*
X0078008Y0089145D01*
X0078083Y0089220D01*
X0078161Y0089291D01*
X0078242Y0089360D01*
X0078325Y0089426D01*
X0078410Y0089489D01*
X0078498Y0089548D01*
X0078587Y0089605D01*
X0078679Y0089658D01*
X0078773Y0089708D01*
X0078868Y0089754D01*
X0078965Y0089797D01*
X0079063Y0089836D01*
X0079163Y0089872D01*
X0079264Y0089904D01*
X0079366Y0089932D01*
X0079469Y0089957D01*
X0079573Y0089978D01*
X0079678Y0089995D01*
X0079783Y0090009D01*
X0079888Y0090018D01*
X0079994Y0090024D01*
X0080100Y0090026D01*
X0080206Y0090024D01*
X0080312Y0090018D01*
X0080417Y0090009D01*
X0080522Y0089995D01*
X0080627Y0089978D01*
X0080731Y0089957D01*
X0080834Y0089932D01*
X0080936Y0089904D01*
X0081037Y0089872D01*
X0081137Y0089836D01*
X0081235Y0089797D01*
X0081332Y0089754D01*
X0081427Y0089708D01*
X0081521Y0089658D01*
X0081613Y0089605D01*
X0081702Y0089548D01*
X0081790Y0089489D01*
X0081875Y0089426D01*
X0081958Y0089360D01*
X0082039Y0089291D01*
X0082117Y0089220D01*
X0082192Y0089145D01*
X0082265Y0089068D01*
X0083765Y0081904D02*
X0080696Y0081904D01*
X0080696Y0079602D01*
X0082231Y0080369D01*
X0082998Y0080369D01*
X0083765Y0079602D01*
X0083765Y0078067D01*
X0082998Y0077300D01*
X0081463Y0077300D01*
X0080696Y0078067D01*
X0079161Y0078067D02*
X0079161Y0081137D01*
X0078394Y0081904D01*
X0076092Y0081904D01*
X0076092Y0077300D01*
X0078394Y0077300D01*
X0079161Y0078067D01*
X0074557Y0077300D02*
X0071488Y0077300D01*
X0071488Y0081904D01*
X0074557Y0081904D01*
X0073023Y0079602D02*
X0071488Y0079602D01*
X0069954Y0077300D02*
X0066884Y0077300D01*
X0066884Y0081904D01*
X0061765Y0079602D02*
X0058696Y0079602D01*
X0060998Y0081904D01*
X0060998Y0077300D01*
X0057161Y0078067D02*
X0057161Y0081137D01*
X0056394Y0081904D01*
X0054092Y0081904D01*
X0054092Y0077300D01*
X0056394Y0077300D01*
X0057161Y0078067D01*
X0052557Y0077300D02*
X0049488Y0077300D01*
X0049488Y0081904D01*
X0052557Y0081904D01*
X0051023Y0079602D02*
X0049488Y0079602D01*
X0047954Y0077300D02*
X0044884Y0077300D01*
X0044884Y0081904D01*
X0044884Y0091300D02*
X0047954Y0091300D01*
X0049488Y0091300D02*
X0052557Y0091300D01*
X0051023Y0093602D02*
X0049488Y0093602D01*
X0049488Y0095904D02*
X0049488Y0091300D01*
X0044884Y0091300D02*
X0044884Y0095904D01*
X0049488Y0095904D02*
X0052557Y0095904D01*
X0052557Y0104300D02*
X0049488Y0104300D01*
X0049488Y0108904D01*
X0052557Y0108904D01*
X0051023Y0106602D02*
X0049488Y0106602D01*
X0047954Y0104300D02*
X0044884Y0104300D01*
X0044884Y0108904D01*
X0055935Y0112132D02*
X0056008Y0112055D01*
X0056083Y0111980D01*
X0056161Y0111909D01*
X0056242Y0111840D01*
X0056325Y0111774D01*
X0056410Y0111711D01*
X0056498Y0111652D01*
X0056587Y0111595D01*
X0056679Y0111542D01*
X0056773Y0111492D01*
X0056868Y0111446D01*
X0056965Y0111403D01*
X0057063Y0111364D01*
X0057163Y0111328D01*
X0057264Y0111296D01*
X0057366Y0111268D01*
X0057469Y0111243D01*
X0057573Y0111222D01*
X0057678Y0111205D01*
X0057783Y0111191D01*
X0057888Y0111182D01*
X0057994Y0111176D01*
X0058100Y0111174D01*
X0058206Y0111176D01*
X0058312Y0111182D01*
X0058417Y0111191D01*
X0058522Y0111205D01*
X0058627Y0111222D01*
X0058731Y0111243D01*
X0058834Y0111268D01*
X0058936Y0111296D01*
X0059037Y0111328D01*
X0059137Y0111364D01*
X0059235Y0111403D01*
X0059332Y0111446D01*
X0059427Y0111492D01*
X0059521Y0111542D01*
X0059613Y0111595D01*
X0059702Y0111652D01*
X0059790Y0111711D01*
X0059875Y0111774D01*
X0059958Y0111840D01*
X0060039Y0111909D01*
X0060117Y0111980D01*
X0060192Y0112055D01*
X0060265Y0112132D01*
X0060265Y0116068D02*
X0060192Y0116145D01*
X0060117Y0116220D01*
X0060039Y0116291D01*
X0059958Y0116360D01*
X0059875Y0116426D01*
X0059790Y0116489D01*
X0059702Y0116548D01*
X0059613Y0116605D01*
X0059521Y0116658D01*
X0059427Y0116708D01*
X0059332Y0116754D01*
X0059235Y0116797D01*
X0059137Y0116836D01*
X0059037Y0116872D01*
X0058936Y0116904D01*
X0058834Y0116932D01*
X0058731Y0116957D01*
X0058627Y0116978D01*
X0058522Y0116995D01*
X0058417Y0117009D01*
X0058312Y0117018D01*
X0058206Y0117024D01*
X0058100Y0117026D01*
X0057994Y0117024D01*
X0057888Y0117018D01*
X0057783Y0117009D01*
X0057678Y0116995D01*
X0057573Y0116978D01*
X0057469Y0116957D01*
X0057366Y0116932D01*
X0057264Y0116904D01*
X0057163Y0116872D01*
X0057063Y0116836D01*
X0056965Y0116797D01*
X0056868Y0116754D01*
X0056773Y0116708D01*
X0056679Y0116658D01*
X0056587Y0116605D01*
X0056498Y0116548D01*
X0056410Y0116489D01*
X0056325Y0116426D01*
X0056242Y0116360D01*
X0056161Y0116291D01*
X0056083Y0116220D01*
X0056008Y0116145D01*
X0055935Y0116068D01*
X0076935Y0103068D02*
X0077008Y0103145D01*
X0077083Y0103220D01*
X0077161Y0103291D01*
X0077242Y0103360D01*
X0077325Y0103426D01*
X0077410Y0103489D01*
X0077498Y0103548D01*
X0077587Y0103605D01*
X0077679Y0103658D01*
X0077773Y0103708D01*
X0077868Y0103754D01*
X0077965Y0103797D01*
X0078063Y0103836D01*
X0078163Y0103872D01*
X0078264Y0103904D01*
X0078366Y0103932D01*
X0078469Y0103957D01*
X0078573Y0103978D01*
X0078678Y0103995D01*
X0078783Y0104009D01*
X0078888Y0104018D01*
X0078994Y0104024D01*
X0079100Y0104026D01*
X0079206Y0104024D01*
X0079312Y0104018D01*
X0079417Y0104009D01*
X0079522Y0103995D01*
X0079627Y0103978D01*
X0079731Y0103957D01*
X0079834Y0103932D01*
X0079936Y0103904D01*
X0080037Y0103872D01*
X0080137Y0103836D01*
X0080235Y0103797D01*
X0080332Y0103754D01*
X0080427Y0103708D01*
X0080521Y0103658D01*
X0080613Y0103605D01*
X0080702Y0103548D01*
X0080790Y0103489D01*
X0080875Y0103426D01*
X0080958Y0103360D01*
X0081039Y0103291D01*
X0081117Y0103220D01*
X0081192Y0103145D01*
X0081265Y0103068D01*
X0081265Y0099132D02*
X0081192Y0099055D01*
X0081117Y0098980D01*
X0081039Y0098909D01*
X0080958Y0098840D01*
X0080875Y0098774D01*
X0080790Y0098711D01*
X0080702Y0098652D01*
X0080613Y0098595D01*
X0080521Y0098542D01*
X0080427Y0098492D01*
X0080332Y0098446D01*
X0080235Y0098403D01*
X0080137Y0098364D01*
X0080037Y0098328D01*
X0079936Y0098296D01*
X0079834Y0098268D01*
X0079731Y0098243D01*
X0079627Y0098222D01*
X0079522Y0098205D01*
X0079417Y0098191D01*
X0079312Y0098182D01*
X0079206Y0098176D01*
X0079100Y0098174D01*
X0078994Y0098176D01*
X0078888Y0098182D01*
X0078783Y0098191D01*
X0078678Y0098205D01*
X0078573Y0098222D01*
X0078469Y0098243D01*
X0078366Y0098268D01*
X0078264Y0098296D01*
X0078163Y0098328D01*
X0078063Y0098364D01*
X0077965Y0098403D01*
X0077868Y0098446D01*
X0077773Y0098492D01*
X0077679Y0098542D01*
X0077587Y0098595D01*
X0077498Y0098652D01*
X0077410Y0098711D01*
X0077325Y0098774D01*
X0077242Y0098840D01*
X0077161Y0098909D01*
X0077083Y0098980D01*
X0077008Y0099055D01*
X0076935Y0099132D01*
X0060265Y0085132D02*
X0060192Y0085055D01*
X0060117Y0084980D01*
X0060039Y0084909D01*
X0059958Y0084840D01*
X0059875Y0084774D01*
X0059790Y0084711D01*
X0059702Y0084652D01*
X0059613Y0084595D01*
X0059521Y0084542D01*
X0059427Y0084492D01*
X0059332Y0084446D01*
X0059235Y0084403D01*
X0059137Y0084364D01*
X0059037Y0084328D01*
X0058936Y0084296D01*
X0058834Y0084268D01*
X0058731Y0084243D01*
X0058627Y0084222D01*
X0058522Y0084205D01*
X0058417Y0084191D01*
X0058312Y0084182D01*
X0058206Y0084176D01*
X0058100Y0084174D01*
X0057994Y0084176D01*
X0057888Y0084182D01*
X0057783Y0084191D01*
X0057678Y0084205D01*
X0057573Y0084222D01*
X0057469Y0084243D01*
X0057366Y0084268D01*
X0057264Y0084296D01*
X0057163Y0084328D01*
X0057063Y0084364D01*
X0056965Y0084403D01*
X0056868Y0084446D01*
X0056773Y0084492D01*
X0056679Y0084542D01*
X0056587Y0084595D01*
X0056498Y0084652D01*
X0056410Y0084711D01*
X0056325Y0084774D01*
X0056242Y0084840D01*
X0056161Y0084909D01*
X0056083Y0084980D01*
X0056008Y0085055D01*
X0055935Y0085132D01*
X0055935Y0089068D02*
X0056008Y0089145D01*
X0056083Y0089220D01*
X0056161Y0089291D01*
X0056242Y0089360D01*
X0056325Y0089426D01*
X0056410Y0089489D01*
X0056498Y0089548D01*
X0056587Y0089605D01*
X0056679Y0089658D01*
X0056773Y0089708D01*
X0056868Y0089754D01*
X0056965Y0089797D01*
X0057063Y0089836D01*
X0057163Y0089872D01*
X0057264Y0089904D01*
X0057366Y0089932D01*
X0057469Y0089957D01*
X0057573Y0089978D01*
X0057678Y0089995D01*
X0057783Y0090009D01*
X0057888Y0090018D01*
X0057994Y0090024D01*
X0058100Y0090026D01*
X0058206Y0090024D01*
X0058312Y0090018D01*
X0058417Y0090009D01*
X0058522Y0089995D01*
X0058627Y0089978D01*
X0058731Y0089957D01*
X0058834Y0089932D01*
X0058936Y0089904D01*
X0059037Y0089872D01*
X0059137Y0089836D01*
X0059235Y0089797D01*
X0059332Y0089754D01*
X0059427Y0089708D01*
X0059521Y0089658D01*
X0059613Y0089605D01*
X0059702Y0089548D01*
X0059790Y0089489D01*
X0059875Y0089426D01*
X0059958Y0089360D01*
X0060039Y0089291D01*
X0060117Y0089220D01*
X0060192Y0089145D01*
X0060265Y0089068D01*
X0035900Y0072973D02*
X0035900Y0069904D01*
X0032831Y0072973D01*
X0032063Y0072973D01*
X0031296Y0072206D01*
X0031296Y0070671D01*
X0032063Y0069904D01*
X0032063Y0068369D02*
X0033598Y0068369D01*
X0034365Y0067602D01*
X0034365Y0065300D01*
X0034365Y0066835D02*
X0035900Y0068369D01*
X0035900Y0065300D02*
X0031296Y0065300D01*
X0031296Y0067602D01*
X0032063Y0068369D01*
X0024900Y0069112D02*
X0020296Y0069112D01*
X0020296Y0071414D01*
X0021063Y0072181D01*
X0022598Y0072181D01*
X0023365Y0071414D01*
X0023365Y0069112D01*
X0024133Y0067577D02*
X0021063Y0067577D01*
X0020296Y0066810D01*
X0020296Y0064508D01*
X0024900Y0064508D01*
X0024900Y0066810D01*
X0024133Y0067577D01*
X0024900Y0062973D02*
X0024900Y0059904D01*
X0020296Y0059904D01*
X0020296Y0062973D01*
X0022598Y0061439D02*
X0022598Y0059904D01*
X0024900Y0058369D02*
X0024900Y0055300D01*
X0020296Y0055300D01*
X0013132Y0067935D02*
X0013055Y0068008D01*
X0012980Y0068083D01*
X0012909Y0068161D01*
X0012840Y0068242D01*
X0012774Y0068325D01*
X0012711Y0068410D01*
X0012652Y0068498D01*
X0012595Y0068587D01*
X0012542Y0068679D01*
X0012492Y0068773D01*
X0012446Y0068868D01*
X0012403Y0068965D01*
X0012364Y0069063D01*
X0012328Y0069163D01*
X0012296Y0069264D01*
X0012268Y0069366D01*
X0012243Y0069469D01*
X0012222Y0069573D01*
X0012205Y0069678D01*
X0012191Y0069783D01*
X0012182Y0069888D01*
X0012176Y0069994D01*
X0012174Y0070100D01*
X0012176Y0070206D01*
X0012182Y0070312D01*
X0012191Y0070417D01*
X0012205Y0070522D01*
X0012222Y0070627D01*
X0012243Y0070731D01*
X0012268Y0070834D01*
X0012296Y0070936D01*
X0012328Y0071037D01*
X0012364Y0071137D01*
X0012403Y0071235D01*
X0012446Y0071332D01*
X0012492Y0071427D01*
X0012542Y0071521D01*
X0012595Y0071613D01*
X0012652Y0071702D01*
X0012711Y0071790D01*
X0012774Y0071875D01*
X0012840Y0071958D01*
X0012909Y0072039D01*
X0012980Y0072117D01*
X0013055Y0072192D01*
X0013132Y0072265D01*
X0017068Y0072265D02*
X0017145Y0072192D01*
X0017220Y0072117D01*
X0017291Y0072039D01*
X0017360Y0071958D01*
X0017426Y0071875D01*
X0017489Y0071790D01*
X0017548Y0071702D01*
X0017605Y0071613D01*
X0017658Y0071521D01*
X0017708Y0071427D01*
X0017754Y0071332D01*
X0017797Y0071235D01*
X0017836Y0071137D01*
X0017872Y0071037D01*
X0017904Y0070936D01*
X0017932Y0070834D01*
X0017957Y0070731D01*
X0017978Y0070627D01*
X0017995Y0070522D01*
X0018009Y0070417D01*
X0018018Y0070312D01*
X0018024Y0070206D01*
X0018026Y0070100D01*
X0018024Y0069994D01*
X0018018Y0069888D01*
X0018009Y0069783D01*
X0017995Y0069678D01*
X0017978Y0069573D01*
X0017957Y0069469D01*
X0017932Y0069366D01*
X0017904Y0069264D01*
X0017872Y0069163D01*
X0017836Y0069063D01*
X0017797Y0068965D01*
X0017754Y0068868D01*
X0017708Y0068773D01*
X0017658Y0068679D01*
X0017605Y0068587D01*
X0017548Y0068498D01*
X0017489Y0068410D01*
X0017426Y0068325D01*
X0017360Y0068242D01*
X0017291Y0068161D01*
X0017220Y0068083D01*
X0017145Y0068008D01*
X0017068Y0067935D01*
X0020296Y0073716D02*
X0024900Y0073716D01*
X0023365Y0075250D01*
X0024900Y0076785D01*
X0020296Y0076785D01*
X0020296Y0078320D02*
X0020296Y0080622D01*
X0021063Y0081389D01*
X0022598Y0081389D01*
X0023365Y0080622D01*
X0023365Y0078320D01*
X0023365Y0079854D02*
X0024900Y0081389D01*
X0024900Y0078320D02*
X0020296Y0078320D01*
X0021394Y0037904D02*
X0019092Y0037904D01*
X0019092Y0033300D01*
X0019092Y0034835D02*
X0021394Y0034835D01*
X0022161Y0035602D01*
X0022161Y0037137D01*
X0021394Y0037904D01*
X0023696Y0036369D02*
X0025231Y0037904D01*
X0025231Y0033300D01*
X0026765Y0033300D02*
X0023696Y0033300D01*
X0022161Y0033300D02*
X0020627Y0034835D01*
X0095800Y0073567D02*
X0096567Y0072800D01*
X0098102Y0072800D01*
X0098869Y0073567D01*
X0100404Y0075102D02*
X0103473Y0075102D01*
X0102706Y0072800D02*
X0102706Y0077404D01*
X0100404Y0075102D01*
X0098869Y0076637D02*
X0098102Y0077404D01*
X0096567Y0077404D01*
X0095800Y0076637D01*
X0095800Y0073567D01*
X0197400Y0167012D02*
X0197400Y0167013D01*
D15*
X0028100Y0029100D02*
X0028100Y0028100D01*
X0018100Y0028100D01*
X0018100Y0029100D01*
X0018100Y0006100D02*
X0018100Y0005100D01*
X0018100Y0006100D02*
X0027600Y0006100D01*
X0027600Y0005100D01*
D16*
X0015100Y0070100D03*
X0058100Y0087100D03*
X0058100Y0101100D03*
X0058100Y0114100D03*
X0079100Y0114100D03*
X0079100Y0101100D03*
X0080100Y0087100D03*
D17*
X0017364Y0072167D03*
D18*
X0079600Y0139200D02*
X0079600Y0165000D01*
X0092600Y0165000D01*
X0092600Y0139200D01*
X0079600Y0139200D01*
D19*
X0068300Y0148900D02*
X0068300Y0149400D01*
X0068300Y0149150D02*
X0066799Y0149150D01*
X0066799Y0148900D02*
X0066799Y0149400D01*
X0067049Y0149882D02*
X0068050Y0149882D01*
X0068300Y0150132D01*
X0068300Y0150633D01*
X0068050Y0150883D01*
X0068300Y0151355D02*
X0067299Y0152356D01*
X0067049Y0152356D01*
X0066799Y0152106D01*
X0066799Y0151606D01*
X0067049Y0151355D01*
X0067049Y0150883D02*
X0066799Y0150633D01*
X0066799Y0150132D01*
X0067049Y0149882D01*
X0068300Y0151355D02*
X0068300Y0152356D01*
D20*
X0077033Y0116364D03*
X0077033Y0103364D03*
X0078033Y0089364D03*
X0056033Y0089364D03*
X0056033Y0103364D03*
X0056033Y0116364D03*
D21*
X0093600Y0108100D02*
X0093600Y0084100D01*
X0093603Y0083893D01*
X0093610Y0083686D01*
X0093623Y0083480D01*
X0093640Y0083273D01*
X0093663Y0083068D01*
X0093691Y0082862D01*
X0093723Y0082658D01*
X0093761Y0082454D01*
X0093803Y0082252D01*
X0093851Y0082050D01*
X0093903Y0081850D01*
X0093960Y0081651D01*
X0094022Y0081454D01*
X0094089Y0081258D01*
X0094161Y0081064D01*
X0094237Y0080871D01*
X0094318Y0080681D01*
X0094404Y0080492D01*
X0094494Y0080306D01*
X0094588Y0080122D01*
X0094688Y0079940D01*
X0094791Y0079761D01*
X0094899Y0079584D01*
X0095011Y0079410D01*
X0095127Y0079239D01*
X0095248Y0079070D01*
X0095372Y0078905D01*
X0095501Y0078743D01*
X0095633Y0078584D01*
X0095769Y0078428D01*
X0095909Y0078275D01*
X0096053Y0078126D01*
X0096200Y0077981D01*
X0096351Y0077839D01*
X0096505Y0077701D01*
X0096663Y0077566D01*
X0096823Y0077436D01*
X0096987Y0077310D01*
X0097154Y0077187D01*
X0097324Y0077069D01*
X0097497Y0076954D01*
X0097672Y0076844D01*
X0097850Y0076739D01*
X0098031Y0076637D01*
X0098213Y0076541D01*
X0098399Y0076448D01*
X0098586Y0076360D01*
X0098776Y0076277D01*
X0098967Y0076198D01*
X0099160Y0076124D01*
X0099356Y0076055D01*
X0099552Y0075991D01*
X0099750Y0075931D01*
X0099950Y0075876D01*
X0100151Y0075826D01*
X0100353Y0075781D01*
X0100556Y0075741D01*
X0100760Y0075706D01*
X0100965Y0075676D01*
X0101170Y0075651D01*
X0101376Y0075631D01*
X0101583Y0075616D01*
X0101790Y0075606D01*
X0101997Y0075601D01*
X0102203Y0075601D01*
X0102410Y0075606D01*
X0102617Y0075616D01*
X0102824Y0075631D01*
X0103030Y0075651D01*
X0103235Y0075676D01*
X0103440Y0075706D01*
X0103644Y0075741D01*
X0103847Y0075781D01*
X0104049Y0075826D01*
X0104250Y0075876D01*
X0104450Y0075931D01*
X0104648Y0075991D01*
X0104844Y0076055D01*
X0105040Y0076124D01*
X0105233Y0076198D01*
X0105424Y0076277D01*
X0105614Y0076360D01*
X0105801Y0076448D01*
X0105987Y0076541D01*
X0106169Y0076637D01*
X0106350Y0076739D01*
X0106528Y0076844D01*
X0106703Y0076954D01*
X0106876Y0077069D01*
X0107046Y0077187D01*
X0107213Y0077310D01*
X0107377Y0077436D01*
X0107537Y0077566D01*
X0107695Y0077701D01*
X0107849Y0077839D01*
X0108000Y0077981D01*
X0108147Y0078126D01*
X0108291Y0078275D01*
X0108431Y0078428D01*
X0108567Y0078584D01*
X0108699Y0078743D01*
X0108828Y0078905D01*
X0108952Y0079070D01*
X0109073Y0079239D01*
X0109189Y0079410D01*
X0109301Y0079584D01*
X0109409Y0079761D01*
X0109512Y0079940D01*
X0109612Y0080122D01*
X0109706Y0080306D01*
X0109796Y0080492D01*
X0109882Y0080681D01*
X0109963Y0080871D01*
X0110039Y0081064D01*
X0110111Y0081258D01*
X0110178Y0081454D01*
X0110240Y0081651D01*
X0110297Y0081850D01*
X0110349Y0082050D01*
X0110397Y0082252D01*
X0110439Y0082454D01*
X0110477Y0082658D01*
X0110509Y0082862D01*
X0110537Y0083068D01*
X0110560Y0083273D01*
X0110577Y0083480D01*
X0110590Y0083686D01*
X0110597Y0083893D01*
X0110600Y0084100D01*
X0110600Y0108100D01*
X0110597Y0108307D01*
X0110590Y0108514D01*
X0110577Y0108720D01*
X0110560Y0108927D01*
X0110537Y0109132D01*
X0110509Y0109338D01*
X0110477Y0109542D01*
X0110439Y0109746D01*
X0110397Y0109948D01*
X0110349Y0110150D01*
X0110297Y0110350D01*
X0110240Y0110549D01*
X0110178Y0110746D01*
X0110111Y0110942D01*
X0110039Y0111136D01*
X0109963Y0111329D01*
X0109882Y0111519D01*
X0109796Y0111708D01*
X0109706Y0111894D01*
X0109612Y0112078D01*
X0109512Y0112260D01*
X0109409Y0112439D01*
X0109301Y0112616D01*
X0109189Y0112790D01*
X0109073Y0112961D01*
X0108952Y0113130D01*
X0108828Y0113295D01*
X0108699Y0113457D01*
X0108567Y0113616D01*
X0108431Y0113772D01*
X0108291Y0113925D01*
X0108147Y0114074D01*
X0108000Y0114219D01*
X0107849Y0114361D01*
X0107695Y0114499D01*
X0107537Y0114634D01*
X0107377Y0114764D01*
X0107213Y0114890D01*
X0107046Y0115013D01*
X0106876Y0115131D01*
X0106703Y0115246D01*
X0106528Y0115356D01*
X0106350Y0115461D01*
X0106169Y0115563D01*
X0105987Y0115659D01*
X0105801Y0115752D01*
X0105614Y0115840D01*
X0105424Y0115923D01*
X0105233Y0116002D01*
X0105040Y0116076D01*
X0104844Y0116145D01*
X0104648Y0116209D01*
X0104450Y0116269D01*
X0104250Y0116324D01*
X0104049Y0116374D01*
X0103847Y0116419D01*
X0103644Y0116459D01*
X0103440Y0116494D01*
X0103235Y0116524D01*
X0103030Y0116549D01*
X0102824Y0116569D01*
X0102617Y0116584D01*
X0102410Y0116594D01*
X0102203Y0116599D01*
X0101997Y0116599D01*
X0101790Y0116594D01*
X0101583Y0116584D01*
X0101376Y0116569D01*
X0101170Y0116549D01*
X0100965Y0116524D01*
X0100760Y0116494D01*
X0100556Y0116459D01*
X0100353Y0116419D01*
X0100151Y0116374D01*
X0099950Y0116324D01*
X0099750Y0116269D01*
X0099552Y0116209D01*
X0099356Y0116145D01*
X0099160Y0116076D01*
X0098967Y0116002D01*
X0098776Y0115923D01*
X0098586Y0115840D01*
X0098399Y0115752D01*
X0098213Y0115659D01*
X0098031Y0115563D01*
X0097850Y0115461D01*
X0097672Y0115356D01*
X0097497Y0115246D01*
X0097324Y0115131D01*
X0097154Y0115013D01*
X0096987Y0114890D01*
X0096823Y0114764D01*
X0096663Y0114634D01*
X0096505Y0114499D01*
X0096351Y0114361D01*
X0096200Y0114219D01*
X0096053Y0114074D01*
X0095909Y0113925D01*
X0095769Y0113772D01*
X0095633Y0113616D01*
X0095501Y0113457D01*
X0095372Y0113295D01*
X0095248Y0113130D01*
X0095127Y0112961D01*
X0095011Y0112790D01*
X0094899Y0112616D01*
X0094791Y0112439D01*
X0094688Y0112260D01*
X0094588Y0112078D01*
X0094494Y0111894D01*
X0094404Y0111708D01*
X0094318Y0111519D01*
X0094237Y0111329D01*
X0094161Y0111136D01*
X0094089Y0110942D01*
X0094022Y0110746D01*
X0093960Y0110549D01*
X0093903Y0110350D01*
X0093851Y0110150D01*
X0093803Y0109948D01*
X0093761Y0109746D01*
X0093723Y0109542D01*
X0093691Y0109338D01*
X0093663Y0109132D01*
X0093640Y0108927D01*
X0093623Y0108720D01*
X0093610Y0108514D01*
X0093603Y0108307D01*
X0093600Y0108100D01*
M02*
