%
M48
M72
T01C0.01200
T02C0.02756
T03C0.03200
T04C0.04000
T05C0.07874
%
T01
X58350Y66725
X70225Y77350
X73975Y78600
X72100Y81725
X61475Y92350
X70850Y108600
X57100Y119225
X61475Y125475
X65850Y127350
X80850Y127350
X86475Y146100
X91475Y151100
X83975Y162975
X80850Y164225
X112100Y167350
X130850Y137975
X128350Y131725
X128350Y127975
X129600Y119850
X132100Y117350
X138975Y119850
X147100Y121725
X153350Y106725
X150225Y102975
X150225Y99850
X153350Y100475
X154600Y91725
X140850Y91100
X133975Y83600
X128350Y87350
X124600Y87350
X116475Y97350
X122100Y104225
X120850Y108600
X116475Y109225
X129600Y108600
X137100Y107350
X139600Y99850
X143350Y80475
X139600Y74850
X138350Y67975
X132100Y74225
X125850Y74225
X116475Y75475
X116475Y72350
X116475Y67350
X113350Y56725
X111475Y54225
X105850Y52350
X100850Y40475
X118350Y20475
X133350Y45475
X103350Y69850
X87100Y79850
X90850Y90475
X89600Y97350
X119600Y127975
X102725Y129850
X48975Y147350
X28350Y152350
X48975Y170475
X28350Y129850
X158350Y149225
X168350Y81725
X193975Y61100
X175850Y53600
X168350Y39225
T02
X163517Y164801
X168635Y167950
X163517Y171100
X168635Y174250
X163517Y177399
T03
X102100Y105600
X102100Y86600
T04
X10300Y8200
X10300Y26000
X35900Y26000
X52100Y24100
X62100Y24100
X62100Y14100
X52100Y14100
X35900Y8200
X72100Y14100
X72100Y24100
X170100Y9100
X180100Y9100
X190100Y9100
X191100Y69100
X191100Y79100
X191100Y89100
X191100Y99100
X191100Y109100
X191100Y119100
X191100Y129100
X191100Y139100
X181100Y139100
X181100Y129100
X181100Y119100
X181100Y109100
X181100Y99100
X181100Y89100
X181100Y79100
X181100Y69100
X146100Y182100
X146100Y192100
X136100Y192100
X136100Y182100
X126100Y182100
X116100Y182100
X116100Y192100
X126100Y192100
X106100Y192100
X106100Y182100
X96100Y182100
X96100Y192100
X86100Y192100
X86100Y182100
X76100Y182100
X76100Y192100
X35100Y156100
X35100Y146100
X35100Y136100
X35100Y126100
X22100Y126100
X22100Y136100
X22100Y146100
X22100Y156100
X9100Y156100
X9100Y146100
X9100Y136100
X9100Y126100
X9100Y177100
X19100Y177100
X29100Y177100
X29100Y190100
X19100Y190100
X9100Y190100
T05
X168242Y186848
X186746Y186848
X186746Y155352
X168242Y155352
M30
