G75*
%MOIN*%
%OFA0B0*%
%FSLAX25Y25*%
%IPPOS*%
%LPD*%
%AMOC8*
5,1,8,0,0,1.08239X$1,22.5*
%
%ADD10C,0.00000*%
%ADD11C,0.06000*%
%ADD12R,0.04724X0.01181*%
%ADD13R,0.01181X0.04724*%
%ADD14OC8,0.06000*%
%ADD15R,0.06299X0.07098*%
%ADD16R,0.07098X0.06299*%
%ADD17R,0.08000X0.05000*%
%ADD18C,0.15000*%
%ADD19C,0.12598*%
%ADD20C,0.04756*%
%ADD21C,0.05200*%
%ADD22R,0.06299X0.10630*%
%ADD23C,0.00500*%
%ADD24C,0.02400*%
%ADD25C,0.01600*%
%ADD26C,0.01000*%
D10*
X0002550Y0001000D02*
X0002550Y0197850D01*
X0199400Y0197850D01*
X0199400Y0001000D01*
X0002550Y0001000D01*
D11*
X0007750Y0007100D02*
X0013750Y0007100D01*
X0013750Y0024900D02*
X0007750Y0024900D01*
X0033350Y0024900D02*
X0039350Y0024900D01*
X0039350Y0007100D02*
X0033350Y0007100D01*
X0092550Y0007000D02*
X0092550Y0013000D01*
X0092550Y0021000D02*
X0092550Y0027000D01*
X0102550Y0027000D02*
X0102550Y0021000D01*
X0102550Y0013000D02*
X0102550Y0007000D01*
X0112550Y0007000D02*
X0112550Y0013000D01*
X0112550Y0021000D02*
X0112550Y0027000D01*
X0148550Y0013000D02*
X0148550Y0007000D01*
X0158550Y0007000D02*
X0158550Y0013000D01*
X0168550Y0013000D02*
X0168550Y0007000D01*
D12*
X0121282Y0077173D03*
X0121282Y0079142D03*
X0121282Y0081110D03*
X0121282Y0083079D03*
X0121282Y0085047D03*
X0121282Y0087016D03*
X0121282Y0088984D03*
X0121282Y0090953D03*
X0121282Y0092921D03*
X0121282Y0094890D03*
X0121282Y0096858D03*
X0121282Y0098827D03*
X0087818Y0098827D03*
X0087818Y0096858D03*
X0087818Y0094890D03*
X0087818Y0092921D03*
X0087818Y0090953D03*
X0087818Y0088984D03*
X0087818Y0087016D03*
X0087818Y0085047D03*
X0087818Y0083079D03*
X0087818Y0081110D03*
X0087818Y0079142D03*
X0087818Y0077173D03*
D13*
X0093723Y0071268D03*
X0095692Y0071268D03*
X0097660Y0071268D03*
X0099629Y0071268D03*
X0101597Y0071268D03*
X0103566Y0071268D03*
X0105534Y0071268D03*
X0107503Y0071268D03*
X0109471Y0071268D03*
X0111440Y0071268D03*
X0113408Y0071268D03*
X0115377Y0071268D03*
X0115377Y0104732D03*
X0113408Y0104732D03*
X0111440Y0104732D03*
X0109471Y0104732D03*
X0107503Y0104732D03*
X0105534Y0104732D03*
X0103566Y0104732D03*
X0101597Y0104732D03*
X0099629Y0104732D03*
X0097660Y0104732D03*
X0095692Y0104732D03*
X0093723Y0104732D03*
D14*
X0090550Y0182000D03*
X0100550Y0182000D03*
X0100550Y0192000D03*
X0090550Y0192000D03*
X0080550Y0192000D03*
X0080550Y0182000D03*
X0110550Y0182000D03*
X0110550Y0192000D03*
X0120550Y0192000D03*
X0120550Y0182000D03*
X0130550Y0182000D03*
X0140550Y0182000D03*
X0140550Y0192000D03*
X0130550Y0192000D03*
X0150550Y0192000D03*
X0150550Y0182000D03*
X0179550Y0181000D03*
X0179550Y0191000D03*
X0189550Y0191000D03*
X0189550Y0181000D03*
X0189550Y0171000D03*
X0189550Y0161000D03*
X0189550Y0151000D03*
X0189550Y0141000D03*
X0189550Y0131000D03*
X0189550Y0121000D03*
X0179550Y0121000D03*
X0179550Y0131000D03*
X0179550Y0141000D03*
X0179550Y0151000D03*
X0179550Y0161000D03*
X0179550Y0171000D03*
X0074550Y0023000D03*
X0074550Y0013000D03*
X0064550Y0013000D03*
X0064550Y0023000D03*
X0054550Y0023000D03*
X0054550Y0013000D03*
D15*
X0030148Y0037000D03*
X0018952Y0037000D03*
X0022148Y0069000D03*
X0032952Y0069000D03*
X0044148Y0069000D03*
X0043148Y0083000D03*
X0031952Y0083000D03*
X0022148Y0083000D03*
X0010952Y0083000D03*
X0010952Y0069000D03*
X0136952Y0084000D03*
X0136952Y0094000D03*
X0148148Y0094000D03*
X0148148Y0084000D03*
D16*
X0142550Y0133402D03*
X0142550Y0144598D03*
X0037550Y0058598D03*
X0037550Y0047402D03*
X0012550Y0047402D03*
X0012550Y0058598D03*
D17*
X0178550Y0034500D03*
X0178550Y0021500D03*
D18*
X0190196Y0072252D03*
X0190196Y0103748D03*
X0044298Y0187646D03*
X0012802Y0187646D03*
D19*
X0012802Y0169142D03*
X0044298Y0169142D03*
X0171692Y0103748D03*
X0171692Y0072252D03*
D20*
X0166967Y0081701D02*
X0162211Y0081701D01*
X0162211Y0088000D02*
X0166967Y0088000D01*
X0172085Y0084850D02*
X0176841Y0084850D01*
X0176841Y0091150D02*
X0172085Y0091150D01*
X0166967Y0094299D02*
X0162211Y0094299D01*
X0034849Y0159661D02*
X0034849Y0164417D01*
X0031700Y0169535D02*
X0031700Y0174291D01*
X0025400Y0174291D02*
X0025400Y0169535D01*
X0022251Y0164417D02*
X0022251Y0159661D01*
X0028550Y0159661D02*
X0028550Y0164417D01*
D21*
X0075550Y0156500D03*
X0075550Y0137500D03*
X0073550Y0098500D03*
X0073550Y0079500D03*
D22*
X0068038Y0061000D03*
X0079062Y0061000D03*
X0082062Y0118000D03*
X0071038Y0118000D03*
D23*
X0070675Y0118500D01*
X0068175Y0121000D01*
X0060675Y0121000D01*
X0063175Y0123500D02*
X0064425Y0124750D01*
X0074425Y0124750D01*
X0076300Y0122875D01*
X0071300Y0117875D02*
X0071038Y0118000D01*
X0071300Y0117875D02*
X0071300Y0108500D01*
X0094425Y0108500D01*
X0095675Y0107250D01*
X0095675Y0104750D01*
X0095692Y0104732D01*
X0095675Y0104125D01*
X0095675Y0101000D01*
X0100050Y0096625D01*
X0120675Y0096625D01*
X0121282Y0096858D01*
X0121282Y0094890D02*
X0120675Y0094750D01*
X0110675Y0094750D01*
X0105675Y0089750D01*
X0097550Y0089750D01*
X0096300Y0087250D02*
X0091300Y0092250D01*
X0091300Y0104125D01*
X0037550Y0104125D01*
X0041925Y0109750D02*
X0065675Y0133500D01*
X0086925Y0133500D01*
X0089425Y0136000D01*
X0131925Y0136000D01*
X0129425Y0133500D02*
X0142550Y0133500D01*
X0142550Y0133402D01*
X0144425Y0139125D02*
X0144425Y0144125D01*
X0142550Y0144125D01*
X0142550Y0144598D01*
X0142550Y0144750D01*
X0108800Y0144750D01*
X0026300Y0144750D01*
X0025050Y0143500D01*
X0025050Y0106625D01*
X0091300Y0106625D01*
X0093175Y0104750D01*
X0093723Y0104732D01*
X0097550Y0104750D02*
X0097660Y0104732D01*
X0097550Y0104750D02*
X0097550Y0111000D01*
X0090050Y0111000D01*
X0082062Y0118000D02*
X0081925Y0117875D01*
X0076925Y0112875D01*
X0076300Y0112875D01*
X0088800Y0125375D02*
X0087550Y0126625D01*
X0087550Y0130375D01*
X0122550Y0130375D01*
X0123175Y0129750D01*
X0133175Y0129750D01*
X0134425Y0131000D01*
X0134425Y0123500D02*
X0125050Y0123500D01*
X0121300Y0123500D02*
X0111925Y0114125D01*
X0111925Y0117875D02*
X0120050Y0126000D01*
X0154425Y0126000D01*
X0166925Y0138500D01*
X0165675Y0141000D02*
X0179550Y0141000D01*
X0178800Y0136625D02*
X0185050Y0136625D01*
X0189425Y0141000D01*
X0189550Y0141000D01*
X0183800Y0144125D02*
X0181300Y0146625D01*
X0148800Y0146625D01*
X0146300Y0149125D01*
X0128175Y0149125D01*
X0126300Y0147250D01*
X0025050Y0147250D01*
X0017550Y0139750D01*
X0017550Y0091625D01*
X0043175Y0091625D01*
X0049425Y0085375D01*
X0049425Y0073500D01*
X0075050Y0073500D01*
X0075675Y0074125D01*
X0089425Y0074125D01*
X0097550Y0082250D01*
X0106925Y0082250D01*
X0110050Y0079125D01*
X0120675Y0079125D01*
X0121282Y0079142D01*
X0121300Y0081000D02*
X0121282Y0081110D01*
X0121300Y0081000D02*
X0128800Y0081000D01*
X0126925Y0082875D02*
X0127550Y0083500D01*
X0131300Y0083500D01*
X0126925Y0082875D02*
X0121300Y0082875D01*
X0121282Y0083079D01*
X0120675Y0084750D02*
X0121282Y0085047D01*
X0120675Y0084750D02*
X0092550Y0084750D01*
X0096300Y0087250D02*
X0120675Y0087250D01*
X0121282Y0087016D01*
X0121282Y0088984D02*
X0121300Y0089125D01*
X0125675Y0089125D01*
X0127550Y0087250D01*
X0129425Y0090375D02*
X0129425Y0091000D01*
X0121300Y0091000D01*
X0121282Y0090953D01*
X0121300Y0092875D02*
X0121282Y0092921D01*
X0121300Y0092875D02*
X0136300Y0092875D01*
X0136925Y0093500D01*
X0136952Y0094000D01*
X0138800Y0101625D02*
X0123800Y0101625D01*
X0121300Y0099125D01*
X0121282Y0098827D01*
X0121300Y0101000D02*
X0124425Y0104125D01*
X0146925Y0104125D01*
X0138800Y0106625D02*
X0122550Y0106625D01*
X0117550Y0106625D01*
X0115675Y0104750D01*
X0115377Y0104732D01*
X0113408Y0104732D02*
X0113175Y0104125D01*
X0113175Y0101000D01*
X0121300Y0101000D01*
X0125050Y0109125D02*
X0125050Y0109750D01*
X0111300Y0109750D01*
X0111300Y0104750D01*
X0111440Y0104732D01*
X0109471Y0104732D02*
X0109425Y0104125D01*
X0109425Y0099750D01*
X0110050Y0099750D01*
X0107550Y0099750D02*
X0106300Y0099750D01*
X0107550Y0099750D02*
X0107550Y0104125D01*
X0107503Y0104732D01*
X0105675Y0104750D02*
X0105534Y0104732D01*
X0105675Y0104750D02*
X0105675Y0109125D01*
X0106300Y0109125D01*
X0103800Y0111625D02*
X0127550Y0111625D01*
X0136925Y0121000D01*
X0173800Y0121000D01*
X0179425Y0126625D01*
X0191300Y0126625D01*
X0193800Y0129125D01*
X0193800Y0161000D01*
X0189550Y0161000D01*
X0187550Y0164750D02*
X0189425Y0166625D01*
X0191300Y0166625D01*
X0193800Y0169125D01*
X0193800Y0191000D01*
X0189550Y0191000D01*
X0188175Y0195375D02*
X0185050Y0192250D01*
X0185050Y0181000D01*
X0189550Y0181000D01*
X0189425Y0171000D02*
X0189550Y0171000D01*
X0189425Y0171000D02*
X0185050Y0166625D01*
X0140050Y0166625D01*
X0136925Y0163500D01*
X0135050Y0172875D02*
X0106925Y0172875D01*
X0109425Y0175375D02*
X0109425Y0181625D01*
X0110050Y0181625D01*
X0110550Y0182000D01*
X0106300Y0181625D02*
X0106300Y0191625D01*
X0110050Y0191625D01*
X0110550Y0192000D01*
X0106300Y0181625D02*
X0102550Y0177875D01*
X0009425Y0177875D01*
X0005050Y0173500D01*
X0022251Y0164417D02*
X0022550Y0164125D01*
X0022550Y0160375D01*
X0026925Y0156000D01*
X0043800Y0156000D01*
X0048175Y0160375D01*
X0094425Y0160375D01*
X0096925Y0157875D01*
X0113175Y0153500D02*
X0120675Y0161000D01*
X0179550Y0161000D01*
X0181300Y0156625D02*
X0185050Y0160375D01*
X0185050Y0164750D01*
X0187550Y0164750D01*
X0179550Y0171000D02*
X0179425Y0171000D01*
X0177550Y0169125D01*
X0127550Y0169125D01*
X0121925Y0163500D01*
X0115675Y0159750D02*
X0113175Y0162250D01*
X0048175Y0162250D01*
X0047550Y0161625D01*
X0037550Y0161625D01*
X0035050Y0164125D01*
X0034849Y0164417D01*
X0032550Y0151000D02*
X0034425Y0149125D01*
X0124425Y0149125D01*
X0125050Y0149750D01*
X0122550Y0151000D02*
X0128175Y0156625D01*
X0181300Y0156625D01*
X0179550Y0151000D02*
X0140050Y0151000D01*
X0139425Y0151625D01*
X0129425Y0139750D02*
X0117550Y0139750D01*
X0116300Y0138500D01*
X0124425Y0142250D02*
X0107550Y0142250D01*
X0106925Y0142875D01*
X0028175Y0142875D01*
X0027550Y0142250D01*
X0005050Y0153500D02*
X0052550Y0153500D01*
X0055050Y0151000D01*
X0122550Y0151000D01*
X0124425Y0132250D02*
X0087550Y0132250D01*
X0086925Y0131625D01*
X0067550Y0131625D01*
X0052550Y0116625D01*
X0073550Y0098500D02*
X0073800Y0098500D01*
X0081300Y0091000D01*
X0087550Y0091000D01*
X0087818Y0090953D01*
X0087550Y0089125D02*
X0087818Y0088984D01*
X0087550Y0089125D02*
X0056300Y0089125D01*
X0051925Y0084750D01*
X0051925Y0079750D01*
X0073175Y0079750D01*
X0073550Y0079500D01*
X0075675Y0076000D02*
X0075050Y0075375D01*
X0063800Y0075375D01*
X0061925Y0077250D01*
X0061925Y0082250D02*
X0063175Y0083500D01*
X0075050Y0083500D01*
X0079425Y0079125D01*
X0087550Y0079125D01*
X0087818Y0079142D01*
X0087550Y0081000D02*
X0087818Y0081110D01*
X0087550Y0081000D02*
X0079425Y0081000D01*
X0075050Y0085375D01*
X0060050Y0085375D01*
X0059425Y0084750D01*
X0058175Y0087250D02*
X0054425Y0083500D01*
X0058175Y0087250D02*
X0087550Y0087250D01*
X0087818Y0087016D01*
X0087818Y0077173D02*
X0087550Y0076625D01*
X0086925Y0076000D01*
X0075675Y0076000D01*
X0075675Y0072250D02*
X0073175Y0069750D01*
X0064425Y0069750D01*
X0063800Y0064750D02*
X0067550Y0061000D01*
X0068038Y0061000D01*
X0063800Y0064750D02*
X0050050Y0064750D01*
X0050050Y0060375D01*
X0065675Y0044750D01*
X0065050Y0044750D01*
X0050050Y0029750D01*
X0055050Y0038500D02*
X0031925Y0038500D01*
X0030675Y0037250D01*
X0030148Y0037000D01*
X0038800Y0027250D02*
X0036925Y0025375D01*
X0036350Y0024900D01*
X0036300Y0025375D01*
X0011300Y0025375D01*
X0010750Y0024900D01*
X0011300Y0025375D02*
X0011300Y0037250D01*
X0012550Y0037250D01*
X0018800Y0037250D01*
X0018952Y0037000D01*
X0012550Y0037250D02*
X0012550Y0047402D01*
X0012550Y0047875D01*
X0007550Y0047875D01*
X0007550Y0062250D01*
X0008175Y0062875D01*
X0016300Y0062875D01*
X0021925Y0068500D01*
X0022148Y0069000D01*
X0022550Y0069125D01*
X0022550Y0075375D01*
X0043800Y0075375D01*
X0043800Y0069125D01*
X0044148Y0069000D01*
X0043800Y0075375D02*
X0043800Y0082875D01*
X0043175Y0082875D01*
X0043148Y0083000D01*
X0037550Y0077875D02*
X0032550Y0082875D01*
X0031952Y0083000D01*
X0022550Y0082875D02*
X0022550Y0075375D01*
X0020050Y0076000D02*
X0018175Y0076000D01*
X0011300Y0082875D01*
X0010952Y0083000D01*
X0011300Y0076000D02*
X0011300Y0069125D01*
X0010952Y0069000D01*
X0005050Y0063500D02*
X0005050Y0153500D01*
X0020050Y0106625D02*
X0025050Y0106625D01*
X0020050Y0089125D02*
X0020050Y0083500D01*
X0021925Y0083500D01*
X0022148Y0083000D01*
X0022550Y0082875D01*
X0032952Y0069000D02*
X0032550Y0068500D01*
X0028175Y0064125D01*
X0021925Y0064125D01*
X0019425Y0061625D01*
X0012550Y0058598D02*
X0012550Y0058500D01*
X0037550Y0058500D01*
X0037550Y0058598D01*
X0037550Y0047875D02*
X0037550Y0047402D01*
X0037550Y0047875D02*
X0050050Y0060375D01*
X0052550Y0062250D02*
X0061925Y0052875D01*
X0166925Y0052875D01*
X0171300Y0057250D01*
X0171300Y0064750D01*
X0168175Y0064750D01*
X0163800Y0069125D01*
X0131300Y0069125D01*
X0133175Y0077250D02*
X0133800Y0077875D01*
X0133175Y0077250D02*
X0121300Y0077250D01*
X0121282Y0077173D01*
X0122550Y0071625D02*
X0160675Y0071625D01*
X0160675Y0081625D01*
X0166967Y0081701D01*
X0166925Y0081625D01*
X0160675Y0081625D01*
X0155050Y0081625D01*
X0151300Y0077875D01*
X0156925Y0075375D02*
X0144425Y0075375D01*
X0141300Y0078500D01*
X0136952Y0084000D02*
X0136925Y0084125D01*
X0130050Y0091000D01*
X0129425Y0091000D01*
X0113175Y0076000D02*
X0113175Y0071625D01*
X0113408Y0071268D01*
X0111440Y0071268D02*
X0111300Y0071000D01*
X0111300Y0066625D01*
X0156300Y0066625D01*
X0158175Y0074125D02*
X0156925Y0075375D01*
X0148148Y0084000D02*
X0148175Y0084125D01*
X0151925Y0087875D01*
X0166925Y0087875D01*
X0166967Y0088000D01*
X0166925Y0094125D02*
X0166967Y0094299D01*
X0166925Y0094125D02*
X0153800Y0094125D01*
X0148175Y0094125D02*
X0148148Y0094000D01*
X0148175Y0094125D02*
X0161925Y0107875D01*
X0165050Y0107875D01*
X0170050Y0112875D01*
X0185050Y0112875D01*
X0179425Y0110375D02*
X0176925Y0110375D01*
X0179425Y0110375D02*
X0179425Y0102250D01*
X0183175Y0098500D01*
X0183175Y0088500D01*
X0180675Y0098500D02*
X0178800Y0098500D01*
X0180675Y0098500D02*
X0180675Y0070375D01*
X0175050Y0064750D01*
X0171300Y0064750D01*
X0168800Y0059125D02*
X0103800Y0059125D01*
X0103800Y0071000D01*
X0103566Y0071268D01*
X0105534Y0071268D02*
X0105675Y0071000D01*
X0105675Y0061625D01*
X0113175Y0061625D01*
X0109425Y0064125D02*
X0143800Y0064125D01*
X0145675Y0044125D02*
X0085675Y0044125D01*
X0084425Y0045375D01*
X0081925Y0047875D02*
X0092550Y0047875D01*
X0096300Y0055375D02*
X0101300Y0055375D01*
X0101300Y0071000D01*
X0101597Y0071268D01*
X0099629Y0071268D02*
X0099425Y0071625D01*
X0099425Y0079750D01*
X0105050Y0079750D01*
X0107550Y0076000D02*
X0107550Y0071625D01*
X0107503Y0071268D01*
X0109425Y0071000D02*
X0109471Y0071268D01*
X0109425Y0071000D02*
X0109425Y0064125D01*
X0115675Y0071000D02*
X0115377Y0071268D01*
X0115675Y0071000D02*
X0117550Y0069125D01*
X0118175Y0069125D01*
X0097660Y0071268D02*
X0097550Y0071000D01*
X0097550Y0067250D01*
X0085050Y0067250D01*
X0082550Y0069750D01*
X0075675Y0072250D02*
X0092550Y0072250D01*
X0093175Y0071625D01*
X0093723Y0071268D01*
X0095692Y0071268D02*
X0095675Y0071625D01*
X0095675Y0076000D01*
X0096925Y0076000D01*
X0104425Y0092250D02*
X0101925Y0094750D01*
X0096925Y0094750D01*
X0101300Y0099125D02*
X0101300Y0104125D01*
X0101597Y0104732D01*
X0099629Y0104732D02*
X0099425Y0104750D01*
X0099425Y0125375D01*
X0088800Y0125375D01*
X0090050Y0127875D02*
X0145675Y0127875D01*
X0160675Y0142875D01*
X0171300Y0142875D01*
X0172550Y0144125D01*
X0165675Y0141000D02*
X0153175Y0128500D01*
X0167550Y0125375D02*
X0178800Y0136625D01*
X0179425Y0131000D02*
X0179550Y0131000D01*
X0179425Y0131000D02*
X0171300Y0122875D01*
X0135050Y0122875D01*
X0134425Y0123500D01*
X0138800Y0119125D02*
X0177550Y0119125D01*
X0179425Y0121000D01*
X0179550Y0121000D01*
X0171300Y0116000D02*
X0190675Y0116000D01*
X0196925Y0122250D01*
X0196925Y0195375D01*
X0188175Y0195375D01*
X0140550Y0192000D02*
X0140050Y0191625D01*
X0135050Y0186625D01*
X0135050Y0172875D01*
X0100550Y0182000D02*
X0100050Y0182250D01*
X0095675Y0186625D01*
X0079425Y0186625D01*
X0075050Y0182250D01*
X0071300Y0175375D02*
X0083800Y0175375D01*
X0071300Y0175375D02*
X0070050Y0174125D01*
X0075550Y0156500D02*
X0075050Y0156000D01*
X0055050Y0156000D01*
X0054425Y0155375D01*
X0057550Y0140375D02*
X0072550Y0140375D01*
X0075050Y0137875D01*
X0075550Y0137500D01*
X0103800Y0111625D02*
X0103800Y0104750D01*
X0103566Y0104732D01*
X0125050Y0109750D02*
X0165050Y0109750D01*
X0171300Y0116000D01*
X0138800Y0119125D02*
X0131925Y0112250D01*
X0079062Y0061000D02*
X0078800Y0061000D01*
X0075050Y0064750D01*
X0073800Y0064750D01*
X0065675Y0044750D02*
X0068800Y0041625D01*
X0128800Y0041625D01*
X0130050Y0040375D01*
X0130050Y0030375D01*
X0178175Y0030375D01*
X0178175Y0021625D01*
X0178550Y0021500D01*
X0178800Y0021000D01*
X0181925Y0017875D01*
X0181925Y0010375D01*
X0168800Y0010375D01*
X0168550Y0010000D01*
X0178550Y0034500D02*
X0178175Y0034750D01*
X0178175Y0039125D01*
X0130050Y0030375D02*
X0130050Y0024125D01*
X0112550Y0024125D01*
X0112550Y0024000D01*
X0112550Y0010000D01*
X0114425Y0002875D02*
X0125050Y0013500D01*
X0114425Y0002875D02*
X0075050Y0002875D01*
X0065050Y0012875D01*
X0064550Y0013000D01*
X0054550Y0013000D02*
X0048800Y0007250D01*
X0036925Y0007250D01*
X0036350Y0007100D01*
X0036300Y0007250D01*
X0011300Y0007250D01*
X0010750Y0007100D01*
X0038800Y0027250D02*
X0070675Y0027250D01*
X0074425Y0023500D01*
X0074550Y0023000D01*
X0075050Y0023500D01*
X0092550Y0023500D01*
X0092550Y0024000D01*
X0092550Y0024125D01*
X0100050Y0031625D01*
X0117550Y0031625D01*
X0127550Y0039125D02*
X0069425Y0039125D01*
X0060050Y0029750D01*
X0092550Y0023500D02*
X0092550Y0010000D01*
D24*
X0117550Y0031625D03*
X0127550Y0039125D03*
X0145675Y0044125D03*
X0143800Y0064125D03*
X0156300Y0066625D03*
X0158175Y0074125D03*
X0151300Y0077875D03*
X0141300Y0078500D03*
X0133800Y0077875D03*
X0128800Y0081000D03*
X0131300Y0083500D03*
X0127550Y0087250D03*
X0129425Y0090375D03*
X0138800Y0101625D03*
X0138800Y0106625D03*
X0131925Y0112250D03*
X0125050Y0109125D03*
X0122550Y0106625D03*
X0111925Y0114125D03*
X0111925Y0117875D03*
X0106300Y0109125D03*
X0106300Y0099750D03*
X0110050Y0099750D03*
X0104425Y0092250D03*
X0097550Y0089750D03*
X0096925Y0094750D03*
X0101300Y0099125D03*
X0090050Y0111000D03*
X0076300Y0112875D03*
X0076300Y0122875D03*
X0063175Y0123500D03*
X0060675Y0121000D03*
X0052550Y0116625D03*
X0041925Y0109750D03*
X0037550Y0104125D03*
X0020050Y0106625D03*
X0020050Y0089125D03*
X0020050Y0076000D03*
X0011300Y0076000D03*
X0005050Y0063500D03*
X0019425Y0061625D03*
X0037550Y0077875D03*
X0049425Y0073500D03*
X0054425Y0083500D03*
X0059425Y0084750D03*
X0061925Y0082250D03*
X0061925Y0077250D03*
X0064425Y0069750D03*
X0073800Y0064750D03*
X0082550Y0069750D03*
X0096925Y0076000D03*
X0105050Y0079750D03*
X0107550Y0076000D03*
X0113175Y0076000D03*
X0118175Y0069125D03*
X0122550Y0071625D03*
X0131300Y0069125D03*
X0113175Y0061625D03*
X0096300Y0055375D03*
X0092550Y0047875D03*
X0084425Y0045375D03*
X0081925Y0047875D03*
X0060050Y0029750D03*
X0055050Y0038500D03*
X0050050Y0029750D03*
X0052550Y0062250D03*
X0092550Y0084750D03*
X0121300Y0123500D03*
X0125050Y0123500D03*
X0124425Y0132250D03*
X0129425Y0133500D03*
X0131925Y0136000D03*
X0129425Y0139750D03*
X0124425Y0142250D03*
X0125050Y0149750D03*
X0115675Y0159750D03*
X0113175Y0153500D03*
X0108800Y0144750D03*
X0116300Y0138500D03*
X0134425Y0131000D03*
X0134425Y0123500D03*
X0144425Y0139125D03*
X0153175Y0128500D03*
X0167550Y0125375D03*
X0166925Y0138500D03*
X0172550Y0144125D03*
X0183800Y0144125D03*
X0185050Y0112875D03*
X0176925Y0110375D03*
X0178800Y0098500D03*
X0183175Y0088500D03*
X0153800Y0094125D03*
X0146925Y0104125D03*
X0139425Y0151625D03*
X0136925Y0163500D03*
X0121925Y0163500D03*
X0109425Y0175375D03*
X0106925Y0172875D03*
X0096925Y0157875D03*
X0083800Y0175375D03*
X0075050Y0182250D03*
X0070050Y0174125D03*
X0054425Y0155375D03*
X0057550Y0140375D03*
X0032550Y0151000D03*
X0027550Y0142250D03*
X0005050Y0173500D03*
X0090050Y0127875D03*
X0168800Y0059125D03*
X0178175Y0039125D03*
X0172550Y0027875D03*
X0179425Y0016625D03*
X0125050Y0013500D03*
D25*
X0127133Y0015387D02*
X0144552Y0015387D01*
X0144644Y0015610D02*
X0143943Y0013916D01*
X0143943Y0006084D01*
X0144644Y0004390D01*
X0145940Y0003094D01*
X0146651Y0002800D01*
X0116976Y0002800D01*
X0124869Y0010693D01*
X0125608Y0010693D01*
X0126640Y0011120D01*
X0127430Y0011910D01*
X0127857Y0012942D01*
X0127857Y0014058D01*
X0127430Y0015090D01*
X0126640Y0015880D01*
X0125608Y0016307D01*
X0124492Y0016307D01*
X0123460Y0015880D01*
X0122670Y0015090D01*
X0122243Y0014058D01*
X0122243Y0013319D01*
X0117350Y0008426D01*
X0117350Y0009800D01*
X0112750Y0009800D01*
X0112750Y0010200D01*
X0112350Y0010200D01*
X0112350Y0023800D01*
X0112750Y0023800D01*
X0112750Y0024200D01*
X0117350Y0024200D01*
X0117350Y0027378D01*
X0117232Y0028124D01*
X0117006Y0028818D01*
X0118108Y0028818D01*
X0119140Y0029245D01*
X0119930Y0030035D01*
X0120357Y0031067D01*
X0120357Y0032183D01*
X0119930Y0033215D01*
X0119140Y0034005D01*
X0118108Y0034432D01*
X0116992Y0034432D01*
X0115960Y0034005D01*
X0115437Y0033482D01*
X0099281Y0033482D01*
X0095932Y0030133D01*
X0095160Y0030906D01*
X0093466Y0031607D01*
X0091634Y0031607D01*
X0089940Y0030906D01*
X0088644Y0029610D01*
X0087943Y0027916D01*
X0087943Y0025357D01*
X0078708Y0025357D01*
X0076458Y0027607D01*
X0072944Y0027607D01*
X0072532Y0028019D01*
X0072532Y0028019D01*
X0071444Y0029107D01*
X0062822Y0029107D01*
X0062857Y0029192D01*
X0062857Y0029931D01*
X0070194Y0037268D01*
X0125437Y0037268D01*
X0125960Y0036745D01*
X0126992Y0036318D01*
X0128108Y0036318D01*
X0129140Y0036745D01*
X0129930Y0037535D01*
X0130357Y0038567D01*
X0130357Y0039683D01*
X0129930Y0040715D01*
X0129140Y0041505D01*
X0128108Y0041932D01*
X0126992Y0041932D01*
X0125960Y0041505D01*
X0125437Y0040982D01*
X0068656Y0040982D01*
X0067568Y0039894D01*
X0060231Y0032557D01*
X0059492Y0032557D01*
X0058460Y0032130D01*
X0057670Y0031340D01*
X0057243Y0030308D01*
X0057243Y0029192D01*
X0057278Y0029107D01*
X0041232Y0029107D01*
X0040266Y0029507D01*
X0032434Y0029507D01*
X0030740Y0028806D01*
X0029444Y0027510D01*
X0029329Y0027232D01*
X0017771Y0027232D01*
X0017656Y0027510D01*
X0016360Y0028806D01*
X0014666Y0029507D01*
X0013157Y0029507D01*
X0013157Y0035393D01*
X0014195Y0035393D01*
X0014195Y0032785D01*
X0015136Y0031844D01*
X0022767Y0031844D01*
X0023708Y0032785D01*
X0023708Y0041215D01*
X0022767Y0042156D01*
X0015136Y0042156D01*
X0014407Y0041427D01*
X0014407Y0042645D01*
X0016765Y0042645D01*
X0017706Y0043586D01*
X0017706Y0051217D01*
X0016765Y0052158D01*
X0009407Y0052158D01*
X0009407Y0053842D01*
X0016765Y0053842D01*
X0017706Y0054783D01*
X0017706Y0056643D01*
X0032394Y0056643D01*
X0032394Y0054783D01*
X0033335Y0053842D01*
X0041765Y0053842D01*
X0042706Y0054783D01*
X0042706Y0062414D01*
X0041765Y0063355D01*
X0033335Y0063355D01*
X0032394Y0062414D01*
X0032394Y0060357D01*
X0021938Y0060357D01*
X0022232Y0061067D01*
X0022232Y0061806D01*
X0022694Y0062268D01*
X0028944Y0062268D01*
X0030520Y0063844D01*
X0036767Y0063844D01*
X0037708Y0064785D01*
X0037708Y0073215D01*
X0037405Y0073518D01*
X0039695Y0073518D01*
X0039392Y0073215D01*
X0039392Y0064785D01*
X0040333Y0063844D01*
X0047964Y0063844D01*
X0048905Y0064785D01*
X0048905Y0070693D01*
X0049983Y0070693D01*
X0051015Y0071120D01*
X0051538Y0071643D01*
X0062348Y0071643D01*
X0062045Y0071340D01*
X0061618Y0070308D01*
X0061618Y0069192D01*
X0062045Y0068160D01*
X0062835Y0067370D01*
X0063307Y0067175D01*
X0063211Y0067010D01*
X0063089Y0066552D01*
X0063089Y0061775D01*
X0067263Y0061775D01*
X0067263Y0060225D01*
X0063089Y0060225D01*
X0063089Y0055448D01*
X0063211Y0054990D01*
X0063360Y0054732D01*
X0062694Y0054732D01*
X0055357Y0062069D01*
X0055357Y0062808D01*
X0054930Y0063840D01*
X0054140Y0064630D01*
X0053108Y0065057D01*
X0051992Y0065057D01*
X0050960Y0064630D01*
X0050170Y0063840D01*
X0049743Y0062808D01*
X0049743Y0061692D01*
X0050170Y0060660D01*
X0050960Y0059870D01*
X0051992Y0059443D01*
X0052731Y0059443D01*
X0060068Y0052106D01*
X0061156Y0051018D01*
X0167694Y0051018D01*
X0168782Y0052106D01*
X0172069Y0055393D01*
X0172069Y0055393D01*
X0173157Y0056481D01*
X0173157Y0062893D01*
X0175819Y0062893D01*
X0181444Y0068518D01*
X0181756Y0068830D01*
X0182475Y0067093D01*
X0185037Y0064531D01*
X0188384Y0063145D01*
X0192007Y0063145D01*
X0195354Y0064531D01*
X0197600Y0066777D01*
X0197600Y0002800D01*
X0170880Y0002800D01*
X0171066Y0002895D01*
X0171677Y0003339D01*
X0172211Y0003873D01*
X0172655Y0004484D01*
X0172998Y0005157D01*
X0173232Y0005876D01*
X0173350Y0006622D01*
X0173350Y0009800D01*
X0168750Y0009800D01*
X0168750Y0010200D01*
X0173350Y0010200D01*
X0173350Y0013378D01*
X0173232Y0014124D01*
X0172998Y0014843D01*
X0172655Y0015516D01*
X0172472Y0015768D01*
X0172927Y0015768D01*
X0172943Y0015752D01*
X0174177Y0014518D01*
X0177562Y0014518D01*
X0177835Y0014245D01*
X0178867Y0013818D01*
X0179983Y0013818D01*
X0181015Y0014245D01*
X0181805Y0015035D01*
X0182232Y0016067D01*
X0182232Y0017183D01*
X0182225Y0017200D01*
X0182787Y0017200D01*
X0183245Y0017323D01*
X0183655Y0017560D01*
X0183990Y0017895D01*
X0184227Y0018305D01*
X0184350Y0018763D01*
X0184350Y0021050D01*
X0179000Y0021050D01*
X0179000Y0021950D01*
X0178100Y0021950D01*
X0178100Y0025800D01*
X0174445Y0025800D01*
X0174930Y0026285D01*
X0175357Y0027317D01*
X0175357Y0028433D01*
X0174930Y0029465D01*
X0174140Y0030255D01*
X0173108Y0030682D01*
X0171992Y0030682D01*
X0170960Y0030255D01*
X0170687Y0029982D01*
X0165427Y0029982D01*
X0164193Y0028748D01*
X0151755Y0016310D01*
X0151160Y0016906D01*
X0149466Y0017607D01*
X0147634Y0017607D01*
X0145940Y0016906D01*
X0144644Y0015610D01*
X0143943Y0013788D02*
X0127857Y0013788D01*
X0127546Y0012190D02*
X0143943Y0012190D01*
X0143943Y0010591D02*
X0124767Y0010591D01*
X0123169Y0008993D02*
X0143943Y0008993D01*
X0143943Y0007394D02*
X0121570Y0007394D01*
X0119972Y0005796D02*
X0144062Y0005796D01*
X0144838Y0004197D02*
X0118373Y0004197D01*
X0117916Y0008993D02*
X0117350Y0008993D01*
X0117350Y0010200D02*
X0117350Y0013378D01*
X0117232Y0014124D01*
X0116998Y0014843D01*
X0116655Y0015516D01*
X0116211Y0016127D01*
X0115677Y0016661D01*
X0115211Y0017000D01*
X0115677Y0017339D01*
X0116211Y0017873D01*
X0116655Y0018484D01*
X0116998Y0019157D01*
X0117232Y0019876D01*
X0117350Y0020622D01*
X0117350Y0023800D01*
X0112750Y0023800D01*
X0112750Y0016200D01*
X0112750Y0010200D01*
X0117350Y0010200D01*
X0117350Y0010591D02*
X0119515Y0010591D01*
X0121113Y0012190D02*
X0117350Y0012190D01*
X0117285Y0013788D02*
X0122243Y0013788D01*
X0122967Y0015387D02*
X0116721Y0015387D01*
X0115231Y0016985D02*
X0146132Y0016985D01*
X0150968Y0016985D02*
X0152430Y0016985D01*
X0154029Y0018584D02*
X0116706Y0018584D01*
X0117280Y0020182D02*
X0155627Y0020182D01*
X0157226Y0021781D02*
X0117350Y0021781D01*
X0117350Y0023379D02*
X0158824Y0023379D01*
X0160423Y0024978D02*
X0117350Y0024978D01*
X0117350Y0026576D02*
X0162021Y0026576D01*
X0163620Y0028175D02*
X0117215Y0028175D01*
X0119668Y0029773D02*
X0165218Y0029773D01*
X0167173Y0025768D02*
X0170687Y0025768D01*
X0170960Y0025495D01*
X0171992Y0025068D01*
X0173088Y0025068D01*
X0172873Y0024695D01*
X0172750Y0024237D01*
X0172750Y0021950D01*
X0178100Y0021950D01*
X0178100Y0021050D01*
X0178100Y0019115D01*
X0178867Y0019432D01*
X0179000Y0019432D01*
X0179000Y0021050D01*
X0178100Y0021050D01*
X0172750Y0021050D01*
X0172750Y0019982D01*
X0165427Y0019982D01*
X0164193Y0018748D01*
X0161755Y0016310D01*
X0161160Y0016906D01*
X0159466Y0017607D01*
X0159012Y0017607D01*
X0167173Y0025768D01*
X0166383Y0024978D02*
X0173036Y0024978D01*
X0172750Y0023379D02*
X0164784Y0023379D01*
X0163185Y0021781D02*
X0178100Y0021781D01*
X0179000Y0021781D02*
X0197600Y0021781D01*
X0197600Y0023379D02*
X0184350Y0023379D01*
X0184350Y0024237D02*
X0184227Y0024695D01*
X0183990Y0025105D01*
X0183655Y0025440D01*
X0183245Y0025677D01*
X0182787Y0025800D01*
X0179000Y0025800D01*
X0179000Y0021950D01*
X0184350Y0021950D01*
X0184350Y0024237D01*
X0184064Y0024978D02*
X0197600Y0024978D01*
X0197600Y0026576D02*
X0175050Y0026576D01*
X0175357Y0028175D02*
X0197600Y0028175D01*
X0197600Y0029773D02*
X0174622Y0029773D01*
X0173884Y0030393D02*
X0183216Y0030393D01*
X0184157Y0031334D01*
X0184157Y0037666D01*
X0183216Y0038607D01*
X0180982Y0038607D01*
X0180982Y0039683D01*
X0180555Y0040715D01*
X0179765Y0041505D01*
X0178733Y0041932D01*
X0177617Y0041932D01*
X0176585Y0041505D01*
X0175795Y0040715D01*
X0175368Y0039683D01*
X0175368Y0038607D01*
X0173884Y0038607D01*
X0172943Y0037666D01*
X0172943Y0031334D01*
X0173884Y0030393D01*
X0172943Y0031372D02*
X0120357Y0031372D01*
X0120031Y0032970D02*
X0172943Y0032970D01*
X0172943Y0034569D02*
X0067495Y0034569D01*
X0069094Y0036167D02*
X0172943Y0036167D01*
X0173043Y0037766D02*
X0130025Y0037766D01*
X0130357Y0039364D02*
X0175368Y0039364D01*
X0176043Y0040963D02*
X0129682Y0040963D01*
X0143562Y0042268D02*
X0144085Y0041745D01*
X0145117Y0041318D01*
X0146233Y0041318D01*
X0147265Y0041745D01*
X0148055Y0042535D01*
X0148482Y0043567D01*
X0148482Y0044683D01*
X0148055Y0045715D01*
X0147265Y0046505D01*
X0146233Y0046932D01*
X0145117Y0046932D01*
X0144085Y0046505D01*
X0143562Y0045982D01*
X0094627Y0045982D01*
X0094930Y0046285D01*
X0095357Y0047317D01*
X0095357Y0048433D01*
X0094930Y0049465D01*
X0094140Y0050255D01*
X0093108Y0050682D01*
X0091992Y0050682D01*
X0090960Y0050255D01*
X0090437Y0049732D01*
X0084038Y0049732D01*
X0083515Y0050255D01*
X0082483Y0050682D01*
X0081367Y0050682D01*
X0080335Y0050255D01*
X0079545Y0049465D01*
X0079118Y0048433D01*
X0079118Y0047317D01*
X0079545Y0046285D01*
X0080335Y0045495D01*
X0081367Y0045068D01*
X0081618Y0045068D01*
X0081618Y0044817D01*
X0082045Y0043785D01*
X0082835Y0042995D01*
X0083867Y0042568D01*
X0084606Y0042568D01*
X0084906Y0042268D01*
X0143562Y0042268D01*
X0148066Y0042561D02*
X0197600Y0042561D01*
X0197600Y0040963D02*
X0180307Y0040963D01*
X0180982Y0039364D02*
X0197600Y0039364D01*
X0197600Y0037766D02*
X0184057Y0037766D01*
X0184157Y0036167D02*
X0197600Y0036167D01*
X0197600Y0034569D02*
X0184157Y0034569D01*
X0184157Y0032970D02*
X0197600Y0032970D01*
X0197600Y0031372D02*
X0184157Y0031372D01*
X0179000Y0024978D02*
X0178100Y0024978D01*
X0178100Y0023379D02*
X0179000Y0023379D01*
X0179000Y0020182D02*
X0178100Y0020182D01*
X0182232Y0016985D02*
X0197600Y0016985D01*
X0197600Y0015387D02*
X0181950Y0015387D01*
X0184302Y0018584D02*
X0197600Y0018584D01*
X0197600Y0020182D02*
X0184350Y0020182D01*
X0172750Y0020182D02*
X0161587Y0020182D01*
X0159988Y0018584D02*
X0164029Y0018584D01*
X0162430Y0016985D02*
X0160968Y0016985D01*
X0163750Y0012345D02*
X0163750Y0010200D01*
X0168350Y0010200D01*
X0168350Y0009800D01*
X0163750Y0009800D01*
X0163750Y0006622D01*
X0163868Y0005876D01*
X0164102Y0005157D01*
X0164445Y0004484D01*
X0164889Y0003873D01*
X0165423Y0003339D01*
X0166034Y0002895D01*
X0166220Y0002800D01*
X0160449Y0002800D01*
X0161160Y0003094D01*
X0162456Y0004390D01*
X0163157Y0006084D01*
X0163157Y0011752D01*
X0163750Y0012345D01*
X0163750Y0012190D02*
X0163594Y0012190D01*
X0163750Y0010591D02*
X0163157Y0010591D01*
X0163157Y0008993D02*
X0163750Y0008993D01*
X0163750Y0007394D02*
X0163157Y0007394D01*
X0163038Y0005796D02*
X0163894Y0005796D01*
X0164653Y0004197D02*
X0162262Y0004197D01*
X0172447Y0004197D02*
X0197600Y0004197D01*
X0197600Y0005796D02*
X0173206Y0005796D01*
X0173350Y0007394D02*
X0197600Y0007394D01*
X0197600Y0008993D02*
X0173350Y0008993D01*
X0173350Y0010591D02*
X0197600Y0010591D01*
X0197600Y0012190D02*
X0173350Y0012190D01*
X0173285Y0013788D02*
X0197600Y0013788D01*
X0173309Y0015387D02*
X0172721Y0015387D01*
X0148482Y0044160D02*
X0197600Y0044160D01*
X0197600Y0045758D02*
X0148011Y0045758D01*
X0168782Y0052106D02*
X0168782Y0052106D01*
X0168829Y0052152D02*
X0197600Y0052152D01*
X0197600Y0050554D02*
X0093418Y0050554D01*
X0091682Y0050554D02*
X0082793Y0050554D01*
X0081057Y0050554D02*
X0042899Y0050554D01*
X0042899Y0050788D02*
X0042777Y0051246D01*
X0042540Y0051656D01*
X0042204Y0051992D01*
X0041794Y0052229D01*
X0041336Y0052351D01*
X0038325Y0052351D01*
X0038325Y0048176D01*
X0042899Y0048176D01*
X0042899Y0050788D01*
X0041926Y0052152D02*
X0060021Y0052152D01*
X0058423Y0053751D02*
X0009407Y0053751D01*
X0016771Y0052152D02*
X0033174Y0052152D01*
X0033306Y0052229D02*
X0032896Y0051992D01*
X0032560Y0051656D01*
X0032323Y0051246D01*
X0032201Y0050788D01*
X0032201Y0048176D01*
X0036775Y0048176D01*
X0036775Y0046627D01*
X0032201Y0046627D01*
X0032201Y0044015D01*
X0032323Y0043557D01*
X0032560Y0043147D01*
X0032896Y0042812D01*
X0033306Y0042575D01*
X0033764Y0042452D01*
X0036775Y0042452D01*
X0036775Y0046627D01*
X0038325Y0046627D01*
X0038325Y0048176D01*
X0036775Y0048176D01*
X0036775Y0052351D01*
X0033764Y0052351D01*
X0033306Y0052229D01*
X0032201Y0050554D02*
X0017706Y0050554D01*
X0017706Y0048955D02*
X0032201Y0048955D01*
X0032201Y0045758D02*
X0017706Y0045758D01*
X0017706Y0044160D02*
X0032201Y0044160D01*
X0033356Y0042561D02*
X0014407Y0042561D01*
X0017706Y0047357D02*
X0036775Y0047357D01*
X0038325Y0047357D02*
X0079118Y0047357D01*
X0079334Y0048955D02*
X0042899Y0048955D01*
X0042899Y0046627D02*
X0038325Y0046627D01*
X0038325Y0042452D01*
X0041336Y0042452D01*
X0041794Y0042575D01*
X0042204Y0042812D01*
X0042540Y0043147D01*
X0042777Y0043557D01*
X0042899Y0044015D01*
X0042899Y0046627D01*
X0042899Y0045758D02*
X0080072Y0045758D01*
X0081890Y0044160D02*
X0042899Y0044160D01*
X0041744Y0042561D02*
X0084612Y0042561D01*
X0095357Y0047357D02*
X0197600Y0047357D01*
X0197600Y0048955D02*
X0095141Y0048955D01*
X0098769Y0032970D02*
X0065897Y0032970D01*
X0064298Y0031372D02*
X0091065Y0031372D01*
X0088808Y0029773D02*
X0062857Y0029773D01*
X0060644Y0032970D02*
X0034905Y0032970D01*
X0034905Y0032785D02*
X0034905Y0036643D01*
X0052937Y0036643D01*
X0053460Y0036120D01*
X0054492Y0035693D01*
X0055608Y0035693D01*
X0056640Y0036120D01*
X0057430Y0036910D01*
X0057857Y0037942D01*
X0057857Y0039058D01*
X0057430Y0040090D01*
X0056640Y0040880D01*
X0055608Y0041307D01*
X0054492Y0041307D01*
X0053460Y0040880D01*
X0052937Y0040357D01*
X0034905Y0040357D01*
X0034905Y0041215D01*
X0033964Y0042156D01*
X0026333Y0042156D01*
X0025392Y0041215D01*
X0025392Y0032785D01*
X0026333Y0031844D01*
X0033964Y0031844D01*
X0034905Y0032785D01*
X0034905Y0034569D02*
X0062242Y0034569D01*
X0063841Y0036167D02*
X0056687Y0036167D01*
X0057784Y0037766D02*
X0065439Y0037766D01*
X0067038Y0039364D02*
X0057730Y0039364D01*
X0056440Y0040963D02*
X0068636Y0040963D01*
X0057702Y0031372D02*
X0013157Y0031372D01*
X0013157Y0032970D02*
X0014195Y0032970D01*
X0014195Y0034569D02*
X0013157Y0034569D01*
X0013157Y0029773D02*
X0057243Y0029773D01*
X0058672Y0025393D02*
X0060428Y0025393D01*
X0059943Y0024908D01*
X0059943Y0021092D01*
X0062642Y0018393D01*
X0066458Y0018393D01*
X0069157Y0021092D01*
X0069157Y0024908D01*
X0068672Y0025393D01*
X0069906Y0025393D01*
X0070167Y0025132D01*
X0069943Y0024908D01*
X0069943Y0021092D01*
X0072642Y0018393D01*
X0076458Y0018393D01*
X0079157Y0021092D01*
X0079157Y0021643D01*
X0087943Y0021643D01*
X0087943Y0020084D01*
X0088644Y0018390D01*
X0089940Y0017094D01*
X0090168Y0017000D01*
X0089940Y0016906D01*
X0088644Y0015610D01*
X0087943Y0013916D01*
X0087943Y0006084D01*
X0088503Y0004732D01*
X0075819Y0004732D01*
X0069157Y0011394D01*
X0069157Y0014908D01*
X0066458Y0017607D01*
X0062642Y0017607D01*
X0059943Y0014908D01*
X0059943Y0011092D01*
X0062642Y0008393D01*
X0066458Y0008393D01*
X0066682Y0008617D01*
X0072499Y0002800D01*
X0041484Y0002800D01*
X0041866Y0002995D01*
X0042477Y0003439D01*
X0043011Y0003973D01*
X0043455Y0004584D01*
X0043798Y0005257D01*
X0044032Y0005976D01*
X0044150Y0006722D01*
X0044150Y0006900D01*
X0036550Y0006900D01*
X0036550Y0007300D01*
X0036150Y0007300D01*
X0036150Y0011900D01*
X0032972Y0011900D01*
X0032226Y0011782D01*
X0031507Y0011548D01*
X0030834Y0011205D01*
X0030223Y0010761D01*
X0029689Y0010227D01*
X0029245Y0009616D01*
X0028902Y0008943D01*
X0028668Y0008224D01*
X0028550Y0007478D01*
X0028550Y0007300D01*
X0036150Y0007300D01*
X0036150Y0006900D01*
X0028550Y0006900D01*
X0028550Y0006722D01*
X0028668Y0005976D01*
X0028902Y0005257D01*
X0029245Y0004584D01*
X0029689Y0003973D01*
X0030223Y0003439D01*
X0030834Y0002995D01*
X0031216Y0002800D01*
X0015884Y0002800D01*
X0016266Y0002995D01*
X0016877Y0003439D01*
X0017411Y0003973D01*
X0017855Y0004584D01*
X0018198Y0005257D01*
X0018432Y0005976D01*
X0018550Y0006722D01*
X0018550Y0006900D01*
X0010950Y0006900D01*
X0010950Y0007300D01*
X0010550Y0007300D01*
X0010550Y0011900D01*
X0007372Y0011900D01*
X0006626Y0011782D01*
X0005907Y0011548D01*
X0005234Y0011205D01*
X0004623Y0010761D01*
X0004350Y0010488D01*
X0004350Y0021785D01*
X0005140Y0020994D01*
X0006834Y0020293D01*
X0014666Y0020293D01*
X0016360Y0020994D01*
X0017656Y0022290D01*
X0018164Y0023518D01*
X0028936Y0023518D01*
X0029444Y0022290D01*
X0030740Y0020994D01*
X0032434Y0020293D01*
X0040266Y0020293D01*
X0041960Y0020994D01*
X0043256Y0022290D01*
X0043957Y0023984D01*
X0043957Y0025393D01*
X0050428Y0025393D01*
X0049943Y0024908D01*
X0049943Y0021092D01*
X0052642Y0018393D01*
X0056458Y0018393D01*
X0059157Y0021092D01*
X0059157Y0024908D01*
X0058672Y0025393D01*
X0059088Y0024978D02*
X0060012Y0024978D01*
X0059943Y0023379D02*
X0059157Y0023379D01*
X0059157Y0021781D02*
X0059943Y0021781D01*
X0060852Y0020182D02*
X0058248Y0020182D01*
X0056649Y0018584D02*
X0062451Y0018584D01*
X0062020Y0016985D02*
X0057353Y0016985D01*
X0056538Y0017800D02*
X0059350Y0014988D01*
X0059350Y0013200D01*
X0054750Y0013200D01*
X0054750Y0012800D01*
X0059350Y0012800D01*
X0059350Y0011012D01*
X0056538Y0008200D01*
X0054750Y0008200D01*
X0054750Y0012800D01*
X0054350Y0012800D01*
X0054350Y0008200D01*
X0052562Y0008200D01*
X0049750Y0011012D01*
X0049750Y0012800D01*
X0054350Y0012800D01*
X0054350Y0013200D01*
X0054350Y0017800D01*
X0052562Y0017800D01*
X0049750Y0014988D01*
X0049750Y0013200D01*
X0054350Y0013200D01*
X0054750Y0013200D01*
X0054750Y0017800D01*
X0056538Y0017800D01*
X0054750Y0016985D02*
X0054350Y0016985D01*
X0054350Y0015387D02*
X0054750Y0015387D01*
X0054750Y0013788D02*
X0054350Y0013788D01*
X0054350Y0012190D02*
X0054750Y0012190D01*
X0054750Y0010591D02*
X0054350Y0010591D01*
X0054350Y0008993D02*
X0054750Y0008993D01*
X0057331Y0008993D02*
X0062042Y0008993D01*
X0060444Y0010591D02*
X0058929Y0010591D01*
X0059350Y0012190D02*
X0059943Y0012190D01*
X0059943Y0013788D02*
X0059350Y0013788D01*
X0058952Y0015387D02*
X0060421Y0015387D01*
X0067080Y0016985D02*
X0072020Y0016985D01*
X0072642Y0017607D02*
X0069943Y0014908D01*
X0069943Y0011092D01*
X0072642Y0008393D01*
X0076458Y0008393D01*
X0079157Y0011092D01*
X0079157Y0014908D01*
X0076458Y0017607D01*
X0072642Y0017607D01*
X0072451Y0018584D02*
X0066649Y0018584D01*
X0068248Y0020182D02*
X0070852Y0020182D01*
X0069943Y0021781D02*
X0069157Y0021781D01*
X0069157Y0023379D02*
X0069943Y0023379D01*
X0070012Y0024978D02*
X0069088Y0024978D01*
X0072377Y0028175D02*
X0088050Y0028175D01*
X0087943Y0026576D02*
X0077489Y0026576D01*
X0078248Y0020182D02*
X0087943Y0020182D01*
X0088564Y0018584D02*
X0076649Y0018584D01*
X0077080Y0016985D02*
X0090132Y0016985D01*
X0088552Y0015387D02*
X0078679Y0015387D01*
X0079157Y0013788D02*
X0087943Y0013788D01*
X0087943Y0012190D02*
X0079157Y0012190D01*
X0078656Y0010591D02*
X0087943Y0010591D01*
X0087943Y0008993D02*
X0077058Y0008993D01*
X0074756Y0005796D02*
X0088062Y0005796D01*
X0087943Y0007394D02*
X0073157Y0007394D01*
X0072042Y0008993D02*
X0071559Y0008993D01*
X0070444Y0010591D02*
X0069960Y0010591D01*
X0069943Y0012190D02*
X0069157Y0012190D01*
X0069157Y0013788D02*
X0069943Y0013788D01*
X0070421Y0015387D02*
X0068679Y0015387D01*
X0067905Y0007394D02*
X0044150Y0007394D01*
X0044150Y0007478D02*
X0044032Y0008224D01*
X0043798Y0008943D01*
X0043455Y0009616D01*
X0043011Y0010227D01*
X0042477Y0010761D01*
X0041866Y0011205D01*
X0041193Y0011548D01*
X0040474Y0011782D01*
X0039728Y0011900D01*
X0036550Y0011900D01*
X0036550Y0007300D01*
X0044150Y0007300D01*
X0044150Y0007478D01*
X0043773Y0008993D02*
X0051769Y0008993D01*
X0050171Y0010591D02*
X0042647Y0010591D01*
X0043973Y0005796D02*
X0069503Y0005796D01*
X0071102Y0004197D02*
X0043174Y0004197D01*
X0036550Y0007394D02*
X0036150Y0007394D01*
X0036150Y0008993D02*
X0036550Y0008993D01*
X0036550Y0010591D02*
X0036150Y0010591D01*
X0030053Y0010591D02*
X0017047Y0010591D01*
X0016877Y0010761D02*
X0016266Y0011205D01*
X0015593Y0011548D01*
X0014874Y0011782D01*
X0014128Y0011900D01*
X0010950Y0011900D01*
X0010950Y0007300D01*
X0018550Y0007300D01*
X0018550Y0007478D01*
X0018432Y0008224D01*
X0018198Y0008943D01*
X0017855Y0009616D01*
X0017411Y0010227D01*
X0016877Y0010761D01*
X0018173Y0008993D02*
X0028927Y0008993D01*
X0028550Y0007394D02*
X0018550Y0007394D01*
X0018373Y0005796D02*
X0028727Y0005796D01*
X0029526Y0004197D02*
X0017574Y0004197D01*
X0010950Y0007394D02*
X0010550Y0007394D01*
X0010550Y0008993D02*
X0010950Y0008993D01*
X0010950Y0010591D02*
X0010550Y0010591D01*
X0004453Y0010591D02*
X0004350Y0010591D01*
X0004350Y0012190D02*
X0049750Y0012190D01*
X0049750Y0013788D02*
X0004350Y0013788D01*
X0004350Y0015387D02*
X0050148Y0015387D01*
X0051747Y0016985D02*
X0004350Y0016985D01*
X0004350Y0018584D02*
X0052451Y0018584D01*
X0050852Y0020182D02*
X0004350Y0020182D01*
X0004350Y0021781D02*
X0004354Y0021781D01*
X0017146Y0021781D02*
X0029954Y0021781D01*
X0028993Y0023379D02*
X0018107Y0023379D01*
X0016991Y0028175D02*
X0030109Y0028175D01*
X0025392Y0032970D02*
X0023708Y0032970D01*
X0023708Y0034569D02*
X0025392Y0034569D01*
X0025392Y0036167D02*
X0023708Y0036167D01*
X0023708Y0037766D02*
X0025392Y0037766D01*
X0025392Y0039364D02*
X0023708Y0039364D01*
X0023708Y0040963D02*
X0025392Y0040963D01*
X0034905Y0040963D02*
X0053660Y0040963D01*
X0053413Y0036167D02*
X0034905Y0036167D01*
X0036775Y0042561D02*
X0038325Y0042561D01*
X0038325Y0044160D02*
X0036775Y0044160D01*
X0036775Y0045758D02*
X0038325Y0045758D01*
X0038325Y0048955D02*
X0036775Y0048955D01*
X0036775Y0050554D02*
X0038325Y0050554D01*
X0038325Y0052152D02*
X0036775Y0052152D01*
X0032394Y0055349D02*
X0017706Y0055349D01*
X0022232Y0061743D02*
X0032394Y0061743D01*
X0033322Y0063342D02*
X0030018Y0063342D01*
X0037708Y0064940D02*
X0039392Y0064940D01*
X0039392Y0066539D02*
X0037708Y0066539D01*
X0037708Y0068137D02*
X0039392Y0068137D01*
X0039392Y0069736D02*
X0037708Y0069736D01*
X0037708Y0071334D02*
X0039392Y0071334D01*
X0039392Y0072933D02*
X0037708Y0072933D01*
X0041778Y0063342D02*
X0049964Y0063342D01*
X0049743Y0061743D02*
X0042706Y0061743D01*
X0042706Y0060145D02*
X0050685Y0060145D01*
X0053627Y0058546D02*
X0042706Y0058546D01*
X0042706Y0056948D02*
X0055226Y0056948D01*
X0056824Y0055349D02*
X0042706Y0055349D01*
X0048905Y0064940D02*
X0051710Y0064940D01*
X0053390Y0064940D02*
X0063089Y0064940D01*
X0063089Y0063342D02*
X0055136Y0063342D01*
X0055683Y0061743D02*
X0067263Y0061743D01*
X0068813Y0061743D02*
X0074305Y0061743D01*
X0074305Y0061943D02*
X0074305Y0055019D01*
X0074592Y0054732D01*
X0072716Y0054732D01*
X0072865Y0054990D01*
X0072988Y0055448D01*
X0072988Y0060225D01*
X0068813Y0060225D01*
X0068813Y0061775D01*
X0072988Y0061775D01*
X0072988Y0062048D01*
X0073242Y0061943D01*
X0074305Y0061943D01*
X0074305Y0060145D02*
X0072988Y0060145D01*
X0072988Y0058546D02*
X0074305Y0058546D01*
X0074305Y0056948D02*
X0072988Y0056948D01*
X0072961Y0055349D02*
X0074305Y0055349D01*
X0063115Y0055349D02*
X0062077Y0055349D01*
X0063089Y0056948D02*
X0060478Y0056948D01*
X0058880Y0058546D02*
X0063089Y0058546D01*
X0063089Y0060145D02*
X0057281Y0060145D01*
X0063089Y0066539D02*
X0048905Y0066539D01*
X0048905Y0068137D02*
X0062068Y0068137D01*
X0061618Y0069736D02*
X0048905Y0069736D01*
X0051229Y0071334D02*
X0062043Y0071334D01*
X0075742Y0110068D02*
X0076858Y0110068D01*
X0077890Y0110495D01*
X0078473Y0111078D01*
X0085877Y0111078D01*
X0086818Y0112019D01*
X0086818Y0123981D01*
X0085877Y0124922D01*
X0078247Y0124922D01*
X0078235Y0124910D01*
X0077890Y0125255D01*
X0076858Y0125682D01*
X0076119Y0125682D01*
X0075194Y0126607D01*
X0065158Y0126607D01*
X0068319Y0129768D01*
X0085693Y0129768D01*
X0085693Y0125856D01*
X0086781Y0124768D01*
X0088031Y0123518D01*
X0097568Y0123518D01*
X0097568Y0112857D01*
X0096781Y0112857D01*
X0092163Y0112857D01*
X0091640Y0113380D01*
X0090608Y0113807D01*
X0089492Y0113807D01*
X0088460Y0113380D01*
X0087670Y0112590D01*
X0087243Y0111558D01*
X0087243Y0110442D01*
X0087670Y0109410D01*
X0088460Y0108620D01*
X0088794Y0108482D01*
X0044438Y0108482D01*
X0044732Y0109192D01*
X0044732Y0109931D01*
X0050072Y0115271D01*
X0050170Y0115035D01*
X0050960Y0114245D01*
X0051992Y0113818D01*
X0053108Y0113818D01*
X0054140Y0114245D01*
X0054930Y0115035D01*
X0055357Y0116067D01*
X0055357Y0116806D01*
X0060697Y0122146D01*
X0060795Y0121910D01*
X0061585Y0121120D01*
X0062617Y0120693D01*
X0063733Y0120693D01*
X0064765Y0121120D01*
X0065555Y0121910D01*
X0065962Y0122893D01*
X0066089Y0122893D01*
X0066089Y0118775D01*
X0070263Y0118775D01*
X0070263Y0117225D01*
X0066089Y0117225D01*
X0066089Y0112448D01*
X0066211Y0111990D01*
X0066448Y0111580D01*
X0066783Y0111245D01*
X0067194Y0111008D01*
X0067652Y0110885D01*
X0070263Y0110885D01*
X0070263Y0117225D01*
X0071813Y0117225D01*
X0071813Y0110885D01*
X0074320Y0110885D01*
X0074710Y0110495D01*
X0075742Y0110068D01*
X0071813Y0111297D02*
X0070263Y0111297D01*
X0070263Y0112896D02*
X0071813Y0112896D01*
X0071813Y0114494D02*
X0070263Y0114494D01*
X0070263Y0116093D02*
X0071813Y0116093D01*
X0071813Y0117225D02*
X0071813Y0118775D01*
X0075988Y0118775D01*
X0075988Y0120068D01*
X0076858Y0120068D01*
X0077305Y0120253D01*
X0077305Y0115881D01*
X0077033Y0115610D01*
X0076858Y0115682D01*
X0075988Y0115682D01*
X0075988Y0117225D01*
X0071813Y0117225D01*
X0071813Y0117691D02*
X0077305Y0117691D01*
X0077305Y0116093D02*
X0075988Y0116093D01*
X0075988Y0119290D02*
X0077305Y0119290D01*
X0076117Y0125684D02*
X0085865Y0125684D01*
X0085693Y0127282D02*
X0065834Y0127282D01*
X0067432Y0128881D02*
X0085693Y0128881D01*
X0086714Y0124085D02*
X0087463Y0124085D01*
X0086818Y0122487D02*
X0097568Y0122487D01*
X0097568Y0120888D02*
X0086818Y0120888D01*
X0086818Y0119290D02*
X0097568Y0119290D01*
X0097568Y0117691D02*
X0086818Y0117691D01*
X0086818Y0116093D02*
X0097568Y0116093D01*
X0097568Y0114494D02*
X0086818Y0114494D01*
X0086818Y0112896D02*
X0087976Y0112896D01*
X0087243Y0111297D02*
X0086096Y0111297D01*
X0087551Y0109699D02*
X0044732Y0109699D01*
X0046099Y0111297D02*
X0066731Y0111297D01*
X0066089Y0112896D02*
X0047697Y0112896D01*
X0049296Y0114494D02*
X0050711Y0114494D01*
X0054389Y0114494D02*
X0066089Y0114494D01*
X0066089Y0116093D02*
X0055357Y0116093D01*
X0056243Y0117691D02*
X0070263Y0117691D01*
X0066089Y0119290D02*
X0057841Y0119290D01*
X0059440Y0120888D02*
X0062145Y0120888D01*
X0064205Y0120888D02*
X0066089Y0120888D01*
X0066089Y0122487D02*
X0065794Y0122487D01*
X0092124Y0112896D02*
X0097568Y0112896D01*
X0110063Y0077268D02*
X0117313Y0077268D01*
X0117313Y0075917D01*
X0118254Y0074976D01*
X0124310Y0074976D01*
X0124727Y0075393D01*
X0132457Y0075393D01*
X0133242Y0075068D01*
X0134358Y0075068D01*
X0135390Y0075495D01*
X0136180Y0076285D01*
X0136607Y0077317D01*
X0136607Y0078433D01*
X0136437Y0078844D01*
X0138493Y0078844D01*
X0138493Y0077942D01*
X0138920Y0076910D01*
X0139710Y0076120D01*
X0140742Y0075693D01*
X0141481Y0075693D01*
X0143656Y0073518D01*
X0155388Y0073518D01*
X0155403Y0073482D01*
X0124663Y0073482D01*
X0124140Y0074005D01*
X0123108Y0074432D01*
X0121992Y0074432D01*
X0120960Y0074005D01*
X0120170Y0073215D01*
X0119743Y0072183D01*
X0119743Y0071514D01*
X0118733Y0071932D01*
X0117617Y0071932D01*
X0117574Y0071915D01*
X0117574Y0074296D01*
X0116633Y0075237D01*
X0114815Y0075237D01*
X0114694Y0075307D01*
X0114236Y0075430D01*
X0113408Y0075430D01*
X0112581Y0075430D01*
X0112123Y0075307D01*
X0112001Y0075237D01*
X0110272Y0075237D01*
X0110357Y0075442D01*
X0110357Y0076558D01*
X0110063Y0077268D01*
X0110357Y0076130D02*
X0117313Y0076130D01*
X0117338Y0074532D02*
X0142642Y0074532D01*
X0139700Y0076130D02*
X0136025Y0076130D01*
X0136607Y0077729D02*
X0138581Y0077729D01*
X0152852Y0089732D02*
X0152905Y0089785D01*
X0152905Y0096229D01*
X0162694Y0106018D01*
X0164074Y0106018D01*
X0163785Y0105321D01*
X0163785Y0102175D01*
X0164989Y0099269D01*
X0165781Y0098477D01*
X0161883Y0098477D01*
X0161233Y0098374D01*
X0160608Y0098171D01*
X0160022Y0097873D01*
X0159490Y0097486D01*
X0159025Y0097021D01*
X0158638Y0096489D01*
X0158340Y0095903D01*
X0158136Y0095278D01*
X0158033Y0094628D01*
X0158033Y0094299D01*
X0158033Y0093970D01*
X0158136Y0093321D01*
X0158340Y0092695D01*
X0158638Y0092109D01*
X0159025Y0091577D01*
X0159490Y0091112D01*
X0159605Y0091029D01*
X0158833Y0090257D01*
X0158616Y0089732D01*
X0152852Y0089732D01*
X0152905Y0090517D02*
X0159092Y0090517D01*
X0158635Y0092115D02*
X0152905Y0092115D01*
X0152905Y0093714D02*
X0158074Y0093714D01*
X0158033Y0094299D02*
X0166967Y0094299D01*
X0166967Y0094299D01*
X0158033Y0094299D01*
X0158148Y0095312D02*
X0152905Y0095312D01*
X0153587Y0096911D02*
X0158945Y0096911D01*
X0156784Y0100108D02*
X0164642Y0100108D01*
X0163980Y0101706D02*
X0158383Y0101706D01*
X0159981Y0103305D02*
X0163785Y0103305D01*
X0163785Y0104903D02*
X0161580Y0104903D01*
X0165749Y0098509D02*
X0155186Y0098509D01*
X0181064Y0068137D02*
X0182042Y0068137D01*
X0183029Y0066539D02*
X0179465Y0066539D01*
X0177867Y0064940D02*
X0184628Y0064940D01*
X0187908Y0063342D02*
X0176268Y0063342D01*
X0173157Y0061743D02*
X0197600Y0061743D01*
X0197600Y0060145D02*
X0173157Y0060145D01*
X0173157Y0058546D02*
X0197600Y0058546D01*
X0197600Y0056948D02*
X0173157Y0056948D01*
X0172026Y0055349D02*
X0197600Y0055349D01*
X0197600Y0053751D02*
X0170427Y0053751D01*
X0192483Y0063342D02*
X0197600Y0063342D01*
X0197600Y0064940D02*
X0195764Y0064940D01*
X0197362Y0066539D02*
X0197600Y0066539D01*
X0120053Y0072933D02*
X0117574Y0072933D01*
X0113408Y0074525D02*
X0113408Y0074525D01*
X0113408Y0075430D01*
X0113408Y0074525D01*
X0113408Y0074525D01*
X0113408Y0074532D02*
X0113408Y0074532D01*
X0097170Y0031372D02*
X0094035Y0031372D01*
X0106297Y0029768D02*
X0108628Y0029768D01*
X0108445Y0029516D01*
X0108102Y0028843D01*
X0107868Y0028124D01*
X0107750Y0027378D01*
X0107750Y0024200D01*
X0112350Y0024200D01*
X0112350Y0023800D01*
X0107750Y0023800D01*
X0107750Y0020622D01*
X0107868Y0019876D01*
X0108102Y0019157D01*
X0108445Y0018484D01*
X0108889Y0017873D01*
X0109423Y0017339D01*
X0109889Y0017000D01*
X0109423Y0016661D01*
X0108889Y0016127D01*
X0108445Y0015516D01*
X0108102Y0014843D01*
X0107868Y0014124D01*
X0107750Y0013378D01*
X0107750Y0010200D01*
X0112350Y0010200D01*
X0112350Y0009800D01*
X0107750Y0009800D01*
X0107750Y0006622D01*
X0107868Y0005876D01*
X0108102Y0005157D01*
X0108318Y0004732D01*
X0106597Y0004732D01*
X0107157Y0006084D01*
X0107157Y0013916D01*
X0106456Y0015610D01*
X0105160Y0016906D01*
X0104932Y0017000D01*
X0105160Y0017094D01*
X0106456Y0018390D01*
X0107157Y0020084D01*
X0107157Y0027916D01*
X0106456Y0029610D01*
X0106297Y0029768D01*
X0107050Y0028175D02*
X0107885Y0028175D01*
X0107750Y0026576D02*
X0107157Y0026576D01*
X0107157Y0024978D02*
X0107750Y0024978D01*
X0107750Y0023379D02*
X0107157Y0023379D01*
X0107157Y0021781D02*
X0107750Y0021781D01*
X0107820Y0020182D02*
X0107157Y0020182D01*
X0106536Y0018584D02*
X0108394Y0018584D01*
X0109869Y0016985D02*
X0104968Y0016985D01*
X0106548Y0015387D02*
X0108379Y0015387D01*
X0107815Y0013788D02*
X0107157Y0013788D01*
X0107157Y0012190D02*
X0107750Y0012190D01*
X0107750Y0010591D02*
X0107157Y0010591D01*
X0107157Y0008993D02*
X0107750Y0008993D01*
X0107750Y0007394D02*
X0107157Y0007394D01*
X0107038Y0005796D02*
X0107894Y0005796D01*
X0112350Y0010591D02*
X0112750Y0010591D01*
X0112750Y0012190D02*
X0112350Y0012190D01*
X0112350Y0013788D02*
X0112750Y0013788D01*
X0112750Y0015387D02*
X0112350Y0015387D01*
X0112350Y0016985D02*
X0112750Y0016985D01*
X0112750Y0018584D02*
X0112350Y0018584D01*
X0112350Y0020182D02*
X0112750Y0020182D01*
X0112750Y0021781D02*
X0112350Y0021781D01*
X0112350Y0023379D02*
X0112750Y0023379D01*
X0050012Y0024978D02*
X0043957Y0024978D01*
X0043707Y0023379D02*
X0049943Y0023379D01*
X0049943Y0021781D02*
X0042746Y0021781D01*
X0077749Y0152857D02*
X0077933Y0152933D01*
X0079117Y0154117D01*
X0079757Y0155663D01*
X0079757Y0157337D01*
X0079117Y0158883D01*
X0077933Y0160067D01*
X0077145Y0160393D01*
X0112406Y0160393D01*
X0112868Y0159931D01*
X0112868Y0159192D01*
X0113295Y0158160D01*
X0114085Y0157370D01*
X0114321Y0157272D01*
X0113356Y0156307D01*
X0112617Y0156307D01*
X0111585Y0155880D01*
X0110795Y0155090D01*
X0110368Y0154058D01*
X0110368Y0152942D01*
X0110403Y0152857D01*
X0077749Y0152857D01*
X0077752Y0152859D02*
X0110402Y0152859D01*
X0110533Y0154457D02*
X0079258Y0154457D01*
X0079757Y0156056D02*
X0112010Y0156056D01*
X0113801Y0157654D02*
X0079626Y0157654D01*
X0078747Y0159253D02*
X0112868Y0159253D01*
X0073955Y0160393D02*
X0073167Y0160067D01*
X0071983Y0158883D01*
X0071558Y0157857D01*
X0055768Y0157857D01*
X0054983Y0158182D01*
X0053867Y0158182D01*
X0052835Y0157755D01*
X0052045Y0156965D01*
X0051618Y0155933D01*
X0051618Y0155357D01*
X0004350Y0155357D01*
X0004350Y0170752D01*
X0004492Y0170693D01*
X0004896Y0170693D01*
X0004896Y0167569D01*
X0006099Y0164663D01*
X0008323Y0162439D01*
X0011229Y0161235D01*
X0014375Y0161235D01*
X0017281Y0162439D01*
X0018073Y0163231D01*
X0018073Y0159333D01*
X0018176Y0158683D01*
X0018379Y0158058D01*
X0018677Y0157472D01*
X0019064Y0156940D01*
X0019529Y0156475D01*
X0020061Y0156088D01*
X0020647Y0155790D01*
X0021272Y0155586D01*
X0021922Y0155483D01*
X0022251Y0155483D01*
X0022580Y0155483D01*
X0023229Y0155586D01*
X0023855Y0155790D01*
X0024441Y0156088D01*
X0024973Y0156475D01*
X0025438Y0156940D01*
X0025521Y0157055D01*
X0026293Y0156283D01*
X0027757Y0155676D01*
X0029343Y0155676D01*
X0030807Y0156283D01*
X0031700Y0157175D01*
X0032592Y0156283D01*
X0034057Y0155676D01*
X0035642Y0155676D01*
X0037107Y0156283D01*
X0038228Y0157404D01*
X0038834Y0158869D01*
X0038834Y0159768D01*
X0048319Y0159768D01*
X0048944Y0160393D01*
X0073955Y0160393D01*
X0072353Y0159253D02*
X0038834Y0159253D01*
X0038331Y0157654D02*
X0052734Y0157654D01*
X0051669Y0156056D02*
X0036557Y0156056D01*
X0033141Y0156056D02*
X0030258Y0156056D01*
X0026842Y0156056D02*
X0024377Y0156056D01*
X0022251Y0156056D02*
X0022251Y0156056D01*
X0022251Y0155483D02*
X0022251Y0164417D01*
X0022251Y0164417D01*
X0022251Y0155483D01*
X0022251Y0157654D02*
X0022251Y0157654D01*
X0022251Y0159253D02*
X0022251Y0159253D01*
X0022251Y0160851D02*
X0022251Y0160851D01*
X0022251Y0162450D02*
X0022251Y0162450D01*
X0022251Y0164048D02*
X0022251Y0164048D01*
X0018073Y0162450D02*
X0017291Y0162450D01*
X0018073Y0160851D02*
X0004350Y0160851D01*
X0004350Y0159253D02*
X0018085Y0159253D01*
X0018585Y0157654D02*
X0004350Y0157654D01*
X0004350Y0156056D02*
X0020125Y0156056D01*
X0008313Y0162450D02*
X0004350Y0162450D01*
X0004350Y0164048D02*
X0006714Y0164048D01*
X0005692Y0165647D02*
X0004350Y0165647D01*
X0004350Y0167245D02*
X0005030Y0167245D01*
X0004896Y0168844D02*
X0004350Y0168844D01*
X0004350Y0170442D02*
X0004896Y0170442D01*
D26*
X0148800Y0010375D02*
X0166300Y0027875D01*
X0172550Y0027875D01*
X0173800Y0017875D02*
X0166300Y0017875D01*
X0158800Y0010375D01*
X0158550Y0010000D01*
X0148800Y0010375D02*
X0148550Y0010000D01*
X0173800Y0017875D02*
X0175050Y0016625D01*
X0179425Y0016625D01*
M02*
