G75*
%MOIN*%
%OFA0B0*%
%FSLAX25Y25*%
%IPPOS*%
%LPD*%
%AMOC8*
5,1,8,0,0,1.08239X$1,22.5*
%
%ADD10C,0.00000*%
%ADD11R,0.10630X0.06299*%
%ADD12R,0.02362X0.05512*%
%ADD13R,0.08000X0.05000*%
%ADD14R,0.07098X0.06299*%
%ADD15R,0.04800X0.08800*%
%ADD16R,0.14173X0.08661*%
%ADD17R,0.06299X0.07087*%
%ADD18R,0.06299X0.07098*%
%ADD19R,0.02362X0.04724*%
%ADD20R,0.07087X0.06299*%
D10*
X0002550Y0001000D02*
X0002550Y0197850D01*
X0199400Y0197850D01*
X0199400Y0001000D01*
X0002550Y0001000D01*
D11*
X0136550Y0048488D03*
X0136550Y0059512D03*
D12*
X0149050Y0040630D03*
X0154050Y0040630D03*
X0159050Y0040630D03*
X0164050Y0040630D03*
X0164050Y0019370D03*
X0159050Y0019370D03*
X0154050Y0019370D03*
X0149050Y0019370D03*
D13*
X0159550Y0048500D03*
X0159550Y0061500D03*
D14*
X0177550Y0056598D03*
X0177550Y0045402D03*
X0178550Y0033598D03*
X0189550Y0033598D03*
X0189550Y0045402D03*
X0189550Y0056598D03*
X0189550Y0022402D03*
X0178550Y0022402D03*
D15*
X0117650Y0151200D03*
X0108550Y0151200D03*
X0099450Y0151200D03*
D16*
X0108550Y0126799D03*
D17*
X0060062Y0155000D03*
X0049038Y0155000D03*
X0047038Y0115000D03*
X0058062Y0115000D03*
X0108038Y0057000D03*
X0119062Y0057000D03*
X0137038Y0072000D03*
X0148062Y0072000D03*
D18*
X0043148Y0070000D03*
X0031952Y0070000D03*
X0022148Y0070000D03*
X0010952Y0070000D03*
X0010952Y0082000D03*
X0022148Y0082000D03*
X0031952Y0082000D03*
X0043148Y0082000D03*
D19*
X0045050Y0124976D03*
X0040050Y0124976D03*
X0035050Y0124976D03*
X0030050Y0124976D03*
X0025050Y0124976D03*
X0020050Y0124976D03*
X0020050Y0147024D03*
X0025050Y0147024D03*
X0030050Y0147024D03*
X0035050Y0147024D03*
X0040050Y0147024D03*
X0045050Y0147024D03*
X0050050Y0147024D03*
X0055050Y0147024D03*
X0055050Y0124976D03*
X0050050Y0124976D03*
D20*
X0010550Y0133488D03*
X0010550Y0144512D03*
M02*
