G75*
%MOIN*%
%OFA0B0*%
%FSLAX25Y25*%
%IPPOS*%
%LPD*%
%AMOC8*
5,1,8,0,0,1.08239X$1,22.5*
%
%ADD10C,0.00000*%
%ADD11C,0.06400*%
%ADD12R,0.05124X0.01581*%
%ADD13R,0.01581X0.05124*%
%ADD14OC8,0.06400*%
%ADD15R,0.06699X0.07498*%
%ADD16R,0.07498X0.06699*%
%ADD17R,0.08400X0.05400*%
%ADD18C,0.15400*%
%ADD19C,0.12998*%
%ADD20C,0.05156*%
%ADD21R,0.09200X0.05200*%
%ADD22R,0.09061X0.14573*%
%ADD23R,0.07487X0.06699*%
%ADD24C,0.05600*%
%ADD25R,0.06699X0.11030*%
D10*
X0009000Y0001100D02*
X0009000Y0197950D01*
X0205850Y0197950D01*
X0205850Y0001100D01*
X0009000Y0001100D01*
D11*
X0014200Y0007200D02*
X0020200Y0007200D01*
X0020200Y0025000D02*
X0014200Y0025000D01*
X0039800Y0025000D02*
X0045800Y0025000D01*
X0045800Y0007200D02*
X0039800Y0007200D01*
X0039000Y0126100D02*
X0045000Y0126100D01*
X0045000Y0136100D02*
X0039000Y0136100D01*
X0032000Y0136100D02*
X0026000Y0136100D01*
X0019000Y0136100D02*
X0013000Y0136100D01*
X0013000Y0126100D02*
X0019000Y0126100D01*
X0026000Y0126100D02*
X0032000Y0126100D01*
X0032000Y0146100D02*
X0026000Y0146100D01*
X0019000Y0146100D02*
X0013000Y0146100D01*
X0013000Y0156100D02*
X0019000Y0156100D01*
X0026000Y0156100D02*
X0032000Y0156100D01*
X0039000Y0156100D02*
X0045000Y0156100D01*
X0045000Y0146100D02*
X0039000Y0146100D01*
X0036000Y0174100D02*
X0036000Y0180100D01*
X0036000Y0187100D02*
X0036000Y0193100D01*
X0026000Y0193100D02*
X0026000Y0187100D01*
X0026000Y0180100D02*
X0026000Y0174100D01*
X0016000Y0174100D02*
X0016000Y0180100D01*
X0016000Y0187100D02*
X0016000Y0193100D01*
X0145000Y0172100D02*
X0145000Y0166100D01*
X0155000Y0166100D02*
X0155000Y0172100D01*
X0177000Y0012100D02*
X0177000Y0006100D01*
X0187000Y0006100D02*
X0187000Y0012100D01*
X0197000Y0012100D02*
X0197000Y0006100D01*
D12*
X0157732Y0083273D03*
X0157732Y0085242D03*
X0157732Y0087210D03*
X0157732Y0089179D03*
X0157732Y0091147D03*
X0157732Y0093116D03*
X0157732Y0095084D03*
X0157732Y0097053D03*
X0157732Y0099021D03*
X0157732Y0100990D03*
X0157732Y0102958D03*
X0157732Y0104927D03*
X0124268Y0104927D03*
X0124268Y0102958D03*
X0124268Y0100990D03*
X0124268Y0099021D03*
X0124268Y0097053D03*
X0124268Y0095084D03*
X0124268Y0093116D03*
X0124268Y0091147D03*
X0124268Y0089179D03*
X0124268Y0087210D03*
X0124268Y0085242D03*
X0124268Y0083273D03*
D13*
X0130173Y0077368D03*
X0132142Y0077368D03*
X0134110Y0077368D03*
X0136079Y0077368D03*
X0138047Y0077368D03*
X0140016Y0077368D03*
X0141984Y0077368D03*
X0143953Y0077368D03*
X0145921Y0077368D03*
X0147890Y0077368D03*
X0149858Y0077368D03*
X0151827Y0077368D03*
X0151827Y0110832D03*
X0149858Y0110832D03*
X0147890Y0110832D03*
X0145921Y0110832D03*
X0143953Y0110832D03*
X0141984Y0110832D03*
X0140016Y0110832D03*
X0138047Y0110832D03*
X0136079Y0110832D03*
X0134110Y0110832D03*
X0132142Y0110832D03*
X0130173Y0110832D03*
D14*
X0188000Y0109100D03*
X0188000Y0099100D03*
X0188000Y0089100D03*
X0188000Y0079100D03*
X0188000Y0069100D03*
X0198000Y0069100D03*
X0198000Y0079100D03*
X0198000Y0089100D03*
X0198000Y0099100D03*
X0198000Y0109100D03*
X0198000Y0119100D03*
X0198000Y0129100D03*
X0198000Y0139100D03*
X0188000Y0139100D03*
X0188000Y0129100D03*
X0188000Y0119100D03*
X0157000Y0182100D03*
X0157000Y0192100D03*
X0147000Y0192100D03*
X0137000Y0192100D03*
X0137000Y0182100D03*
X0147000Y0182100D03*
X0127000Y0182100D03*
X0127000Y0192100D03*
X0117000Y0192100D03*
X0107000Y0192100D03*
X0107000Y0182100D03*
X0117000Y0182100D03*
X0097000Y0182100D03*
X0097000Y0192100D03*
X0087000Y0192100D03*
X0087000Y0182100D03*
X0079000Y0024100D03*
X0069000Y0024100D03*
X0069000Y0014100D03*
X0079000Y0014100D03*
X0059000Y0014100D03*
X0059000Y0024100D03*
D15*
X0036598Y0037100D03*
X0025402Y0037100D03*
X0059402Y0087100D03*
X0070598Y0087100D03*
X0081402Y0087100D03*
X0092598Y0087100D03*
X0091598Y0101100D03*
X0080402Y0101100D03*
X0070598Y0101100D03*
X0059402Y0101100D03*
X0059402Y0114100D03*
X0070598Y0114100D03*
X0080402Y0114100D03*
X0091598Y0114100D03*
X0146402Y0156100D03*
X0157598Y0156100D03*
D16*
X0044000Y0058698D03*
X0044000Y0047502D03*
X0019000Y0047502D03*
X0019000Y0058698D03*
D17*
X0175000Y0034600D03*
X0175000Y0021600D03*
D18*
X0193646Y0155352D03*
X0193646Y0186848D03*
X0020354Y0109848D03*
X0020354Y0078352D03*
D19*
X0038858Y0078352D03*
X0038858Y0109848D03*
X0175142Y0155352D03*
X0175142Y0186848D03*
D20*
X0170417Y0177399D02*
X0165661Y0177399D01*
X0165661Y0171100D02*
X0170417Y0171100D01*
X0175535Y0167950D02*
X0180291Y0167950D01*
X0180291Y0174250D02*
X0175535Y0174250D01*
X0170417Y0164801D02*
X0165661Y0164801D01*
X0048339Y0100399D02*
X0043583Y0100399D01*
X0038465Y0097250D02*
X0033709Y0097250D01*
X0033709Y0090950D02*
X0038465Y0090950D01*
X0043583Y0087801D02*
X0048339Y0087801D01*
X0048339Y0094100D02*
X0043583Y0094100D01*
D21*
X0131200Y0138000D03*
X0131200Y0147100D03*
X0131200Y0156200D03*
D22*
X0106799Y0147100D03*
D23*
X0147000Y0146612D03*
X0147000Y0135588D03*
X0056000Y0072612D03*
X0056000Y0061588D03*
D24*
X0109000Y0085600D03*
X0109000Y0104600D03*
X0085500Y0164100D03*
X0066500Y0164100D03*
D25*
X0105488Y0123100D03*
X0116512Y0123100D03*
X0115512Y0065100D03*
X0104488Y0065100D03*
M02*
