%
M48
M72
T01C0.01200
T02C0.02756
T03C0.03200
T04C0.04000
T05C0.07874
%
T01
X50050Y29750
X55050Y38500
X60050Y29750
X81925Y47875
X84425Y45375
X92550Y47875
X96300Y55375
X82550Y69750
X73800Y64750
X64425Y69750
X61925Y77250
X61925Y82250
X59425Y84750
X54425Y83500
X49425Y73500
X52550Y62250
X37550Y77875
X20050Y76000
X11300Y76000
X5050Y63500
X19425Y61625
X20050Y89125
X37550Y104125
X41925Y109750
X52550Y116625
X60675Y121000
X63175Y123500
X76300Y122875
X76300Y112875
X90050Y111000
X101300Y99125
X106300Y99750
X110050Y99750
X104425Y92250
X97550Y89750
X96925Y94750
X92550Y84750
X96925Y76000
X105050Y79750
X107550Y76000
X113175Y76000
X118175Y69125
X122550Y71625
X131300Y69125
X133800Y77875
X128800Y81000
X131300Y83500
X127550Y87250
X129425Y90375
X138800Y101625
X138800Y106625
X131925Y112250
X125050Y109125
X122550Y106625
X111925Y114125
X111925Y117875
X106300Y109125
X121300Y123500
X125050Y123500
X124425Y132250
X129425Y133500
X131925Y136000
X129425Y139750
X124425Y142250
X125050Y149750
X115675Y159750
X113175Y153500
X108800Y144750
X116300Y138500
X134425Y131000
X134425Y123500
X144425Y139125
X153175Y128500
X167550Y125375
X166925Y138500
X172550Y144125
X183800Y144125
X185050Y112875
X176925Y110375
X178800Y98500
X183175Y88500
X158175Y74125
X156300Y66625
X151300Y77875
X141300Y78500
X143800Y64125
X145675Y44125
X127550Y39125
X117550Y31625
X125050Y13500
X172550Y27875
X178175Y39125
X168800Y59125
X153800Y94125
X146925Y104125
X113175Y61625
X90050Y127875
X96925Y157875
X106925Y172875
X109425Y175375
X121925Y163500
X136925Y163500
X139425Y151625
X83800Y175375
X75050Y182250
X70050Y174125
X54425Y155375
X57550Y140375
X32550Y151000
X27550Y142250
X5050Y173500
X20050Y106625
X179425Y16625
T02
X166967Y81701
X172085Y84850
X166967Y88000
X172085Y91150
X166967Y94299
X34849Y164417
X31700Y169535
X28550Y164417
X25400Y169535
X22251Y164417
T03
X75550Y156500
X75550Y137500
X73550Y98500
X73550Y79500
T04
X10750Y7100
X10750Y24900
X36350Y24900
X36350Y7100
X54550Y13000
X54550Y23000
X64550Y23000
X64550Y13000
X74550Y13000
X74550Y23000
X92550Y24000
X102550Y24000
X112550Y24000
X112550Y10000
X102550Y10000
X92550Y10000
X148550Y10000
X158550Y10000
X168550Y10000
X179550Y121000
X179550Y131000
X179550Y141000
X179550Y151000
X179550Y161000
X179550Y171000
X179550Y181000
X179550Y191000
X189550Y191000
X189550Y181000
X189550Y171000
X189550Y161000
X189550Y151000
X189550Y141000
X189550Y131000
X189550Y121000
X150550Y182000
X150550Y192000
X140550Y192000
X130550Y192000
X130550Y182000
X140550Y182000
X120550Y182000
X120550Y192000
X110550Y192000
X110550Y182000
X100550Y182000
X90550Y182000
X90550Y192000
X100550Y192000
X80550Y192000
X80550Y182000
T05
X12802Y187646
X12802Y169142
X44298Y169142
X44298Y187646
X171692Y103748
X190196Y103748
X190196Y72252
X171692Y72252
M30
